<?xml version="1.0" encoding="utf-8"?>
<!-- Generator: Adobe Illustrator 27.0.0, SVG Export Plug-In . SVG Version: 6.00 Build 0)  -->
<svg version="1.1" id="Layer_1" xmlns="http://www.w3.org/2000/svg" xmlns:xlink="http://www.w3.org/1999/xlink" x="0px" y="0px"
	 viewBox="0 0 100 125" style="enable-background:new 0 0 100 125;" xml:space="preserve">
<style type="text/css">
	.st0{display:none;}
</style>
<g>
	<path d="M65.6,45.8c-2.4,0-4.9,0-7.3,0.2c-4,0.4-8,0.8-11.9,2.1c0.4-0.2,0.7-0.4,1.1-0.7c0.9-0.5,1.8-1,2.4-1.5
		c2-1.5,3.5-2.8,5.3-4.3c2.3-2,4-3.7,5.3-5.6c0.7-1,1.5-1.8,2.4-2.6c0.5-0.4,1.2-0.7,1.9-1c0.6-0.3,1.2-0.5,1.7-0.9
		c0.1-0.1,0.2-0.2,0.2-0.3c0-0.1,0-0.3-0.1-0.4c-0.5-0.6-1.1-0.7-1.5-0.7c-0.1,0-0.2,0-0.4,0c-4.8-0.6-8.9,2.8-12.2,6.2
		c-0.3,0.3-1.3,1.4-2.5,2.8c-2.2,2.5-5.4,6-7.1,7.8c0.4-0.6,0.9-1.2,1.5-1.7c0.7-0.8,1.5-1.6,1.9-2.4c1-1.9,2.1-3.9,3-6.1l0.3-0.7
		c0.9-1.9,1.7-3.7,2.7-5.3c0.5-0.8,1.4-1.3,2.4-1.9c1-0.6,2.1-1.2,2.7-2.2c0.1-0.2,0.1-0.5-0.2-0.7c-1.8-1.2-5.6-0.1-7,0.8
		c-1.8,1.2-3.5,3.7-4.5,5.8c-0.7,1.4-1.3,2.8-1.9,4.2c-0.3,0.7-0.6,1.5-0.9,2.2c-0.4,1-1,2-1.6,2.9c-0.7,1.1-1.3,2.2-1.8,3.4
		c-0.2-0.1-0.4-0.1-0.5-0.2c1.1-3.5,0.7-7.8,0.2-10.9c-0.4-2.4-0.9-4.1-1.8-5.7c-0.7-1.3-0.6-1.9-0.5-2.8c0.1-0.5,0.1-1.1,0.1-1.8
		c0-0.3-0.2-0.5-0.5-0.5c-2-0.1-3.5,0.4-4.4,1.5c-1.7,2-0.9,5.6-0.3,8.5c0.2,0.9,0.3,1.8,0.4,2.7c0.2,1.3,0.3,2.6,0.7,3.9
		c0.4,1.4,1.2,2.6,2,3.9c0.3,0.4,0.6,0.9,0.8,1.3c-0.3,0.1-0.6,0.2-0.9,0.3c-0.2-0.3-0.4-0.5-0.5-0.8c-0.3-0.5-0.7-1-1-1.5
		c-0.2-0.4-0.4-0.7-0.6-1.1c-0.2-0.5-0.5-0.9-0.7-1.4c-1.4-2.4-5.1-5.6-7.5-6.5c-0.2-0.1-1-1.2-1.5-1.9c-1.4-2-2.2-3-3-2.8
		c-1,0.4-0.7,2.2,0.4,6.1c0.1,0.4,0.2,0.9,0.3,1c0.3,2.4,4.7,5.9,8.4,8.7c0.3,0.2,0.4,0.3,0.6,0.4c0.4,0.3,1.1,0.7,1.7,1
		c0.4,0.2,0.8,0.4,1.1,0.6c-0.1,0.1-0.2,0.3-0.3,0.4c-3-1.3-5.3-2.1-9.9-2.4c-2-0.1-6.3,1.1-8,3.2c-0.6,0.8-0.8,1.6-0.6,2.4
		c0,0.1,0.1,0.2,0.3,0.3c0.1,0,0.2,0.1,0.2,0.1c0.1,0,0.1,0,0.2,0c1.6-0.6,3.7-0.5,5.7-0.5c1.2,0,2.3,0.1,3.3,0
		c1.8-0.1,3.7-0.1,5.6,0c0.8,0,1.5,0,2.3,0c0,0.1,0,0.2,0,0.3v0l-1.1,0.2c-3.3,0.4-7,1-10.2,1.8c-2.3,0.6-5.4,2.7-6.5,5.2
		c-0.6,1.3-0.5,2.7,0.2,4c0.1,0.2,0.3,0.3,0.4,0.3h0c0.2,0,0.4-0.2,0.4-0.3c1.4-2.9,5.2-4.5,8.1-5.2c0.8-0.2,1.8-0.3,3-0.4
		c2-0.2,4.1-0.4,5.7-1.2c-0.4,0.2-0.8,0.5-1.1,0.7c-2,1.2-3.8,2.3-5.5,4.2c-0.2,0.2-0.4,0.5-0.8,0.8c-2.1,2.1-4.3,4.5-4.8,5.5
		c-0.5,1.1-0.4,3.7,0.3,5.6c0.3,0.8,0.8,1.9,1.7,2.3c0.1,0,0.1,0,0.2,0c0.1,0,0.2,0,0.3-0.1c0.3-0.2,0.4-0.6,0.6-1.6
		c0.1-0.4,0.2-0.9,0.3-1.3c0.3-1.1,0.5-1.7,1.1-2.5c1.1-1.4,2.4-2.9,3.6-4.2l0.4-0.5c0.6-0.7,1.5-1.4,2.4-2.2
		c1.8-1.6,3.9-3.4,4.7-5.4c0.1,0,0.1,0.1,0.2,0.1c-0.4,1.9-1.3,4.1-2,5.7c-0.6,1.3-1,2.7-1.3,4.1c-0.2,0.7-0.4,1.4-0.6,2
		c-1.4,4.5-3,10.8-0.5,14c0.1,0.1,0.2,0.2,0.4,0.2c0.1,0,0.2,0,0.2-0.1c1-0.5,1.1-1.4,1.1-2.1c0-0.3,0-0.6,0.1-0.9
		c0.2-0.5,0.4-0.9,0.6-1.4c0.3-0.5,0.6-1.1,0.7-1.7c0.4-1.7,0.9-3.4,1.3-5.1l0.3-1.4c0.2-0.8,0.5-1.6,0.7-2.5
		c0.8-2.7,1.9-6,1.8-10.4c0.1,0,0.2,0,0.3,0c1.2,5.3,2.8,7.1,4.4,8.9c0.2,0.2,0.4,0.4,0.6,0.7c0.4,0.5,0.8,1,1.2,1.4
		c1.4,1.7,2.9,3.5,4.8,4.9c1.4,1,2.4,1.8,3.4,3c0.7,0.8,1.5,1.6,2.2,1.6c0.1,0,0.2,0,0.3,0c0.1,0,0.1-0.1,0.2-0.1
		c0.1-0.2,0.3-0.3,0.5-0.5c0.1-0.2,0.2-0.5,0.2-0.8c0.2-1.2-0.6-3-1.4-4.5c0,0,0-0.1-0.1-0.1c-0.1-0.1-0.1-0.2-0.2-0.3
		c-0.1-0.2-0.2-0.4-0.3-0.6c0,0,0,0,0,0c0,0,0,0,0,0c-0.4-0.6-0.7-1.1-0.9-1.4c-0.2-0.2-0.3-0.4-0.5-0.6c0,0,0,0,0,0c0,0,0,0,0,0
		c0,0,0,0-0.1-0.1c0,0-0.1-0.1-0.1-0.1c-0.1-0.1-0.2-0.2-0.2-0.3c-0.1-0.1-0.2-0.2-0.2-0.3c0,0,0,0,0,0c-1.6-2.1-3.4-4.2-5.1-6
		c-0.6-0.6-1.2-1.2-1.9-1.8c-1.4-1.3-3-2.8-3.9-4.2c0.1-0.1,0.2-0.1,0.3-0.2c2.7,1.9,5.9,3.4,9.8,4.5c0.6,0.2,1.2,0.5,1.8,0.8
		c0.1,0,0.1,0.1,0.2,0.1c0,0,0,0,0,0c0.1,0,0.1,0.1,0.2,0.1c0.1,0,0.1,0,0.2,0.1c0.1,0,0.3,0.1,0.4,0.2c0.7,0.2,1.4,0.5,2.1,0.7
		c0.2,0,0.3,0.1,0.5,0.1c0,0,0.1,0,0.1,0c0.3,0,0.6,0.1,0.8,0.2c1,0.3,2,0.5,3,0.8c1,0.3,1.9,0.5,2.9,0.8c0.1,0,0.2,0.1,0.4,0.1
		c0.1,0,0.1,0,0.2,0c0,0,0.1,0,0.1,0c0.1,0,0.1,0,0.2,0.1c0.1,0,0.3,0.1,0.4,0.1c0.2,0,0.3,0.1,0.4,0.1c0.1,0,0.2,0.1,0.3,0.1
		c0.1,0,0.1,0,0.2,0c0.1,0,0.2,0,0.3,0c0.2,0,0.5,0,0.7,0c0.1,0,0.1,0,0.2,0c0.1-0.1,0.3-0.1,0.4-0.2c0.2-0.2,0.4-0.4,0.6-0.6
		c0,0,0,0,0,0c0,0,0-0.1,0-0.1c0-0.1,0-0.1,0-0.2v-0.5c0,0,0,0,0-0.1c0-0.1-0.1-0.2-0.1-0.2c0,0,0-0.1,0-0.1c0,0,0-0.1-0.1-0.1
		c0,0,0,0,0-0.1c0,0,0,0,0,0c-0.1-0.1-0.1-0.2-0.2-0.3c0,0,0,0,0,0c0,0,0,0,0,0c-0.1-0.1-0.1-0.2-0.2-0.3c0,0,0,0,0,0
		c-0.1-0.1-0.3-0.2-0.4-0.4c0,0,0,0-0.1-0.1c0,0,0,0,0,0c0,0-0.1-0.1-0.1-0.1c-0.1-0.1-0.1-0.1-0.2-0.2c0,0,0,0-0.1-0.1c0,0,0,0,0,0
		c-0.2-0.1-0.3-0.3-0.5-0.4c-0.7-0.7-1.6-1.3-2.5-1.9c-0.1,0-0.1-0.1-0.2-0.1c-0.1-0.1-0.2-0.1-0.3-0.2c-0.1,0-0.2-0.1-0.2-0.2
		c-0.1-0.1-0.2-0.1-0.3-0.2c-0.1-0.1-0.3-0.1-0.4-0.2c-0.1,0-0.2-0.1-0.3-0.2c0,0,0,0-0.1,0c0,0,0,0-0.1,0c0,0,0,0,0,0
		c-0.7-0.4-1.3-0.8-2-1.1c-5-2.5-10.3-3.2-15-3.3c2.5-0.2,4.5-0.7,6.5-1.3c1.2-0.3,2.4-0.7,3.8-1c2.2-0.5,4.8-1,7.4-1
		c1.2,0,2.4,0.1,3.5,0.2c1.2,0.1,2.5,0.2,3.7,0.2c0.3,0,0.5-0.2,0.5-0.5C70.2,46.3,68,45.8,65.6,45.8z M50.7,39.7
		c1.2-1.4,2.2-2.4,2.5-2.8c3.2-3.2,7-6.4,11.4-5.9c0.2,0,0.3,0,0.5,0c0.1,0,0.1,0,0.2,0c-0.3,0.1-0.5,0.3-0.8,0.4
		c-0.7,0.3-1.5,0.7-2.1,1.2c-1,0.8-1.9,1.7-2.6,2.8c-1.3,1.8-2.9,3.5-5.2,5.4c-1.7,1.5-3.3,2.8-5.2,4.2c-0.6,0.5-1.4,0.9-2.3,1.5
		c-1.3,0.8-2.7,1.6-3.6,2.4c-0.1-0.2-0.2-0.4-0.3-0.6c0.1,0,0.2-0.1,0.4-0.2c0.1-0.1,0.3-0.2,0.4-0.3c0.1-0.1,0.3-0.3,0.4-0.4
		c0.3-0.3,0.6-0.5,0.9-0.7c0.4-0.2,0.7-0.4,1-0.6c0.3-0.2,0.6-0.4,0.8-0.6c0.2-0.2,0.4-0.3,0.6-0.4c0.1-0.1,0.2-0.2,0.2-0.2
		c0,0,0,0,0,0c0,0,0,0,0,0c0,0-0.1,0-0.3,0c-0.2,0-0.5,0.1-0.7,0.2c-0.3,0.1-0.6,0.3-0.9,0.6c-0.3,0.2-0.6,0.5-0.9,0.8
		c-0.3,0.3-0.6,0.6-0.9,0.7c-0.3,0.2-0.6,0.3-0.9,0.5c-0.1,0.1-0.2,0.2-0.3,0.2c0,0,0,0,0,0C44.5,46.7,48,42.7,50.7,39.7z
		 M42.2,42.4c0.6-1,1.2-2,1.7-3c0.3-0.8,0.6-1.5,0.9-2.2c0.6-1.4,1.1-2.8,1.8-4.1c0.9-1.8,2.5-4.3,4.2-5.4c1.2-0.8,3.9-1.5,5.4-1.1
		c-0.5,0.6-1.2,1-2,1.4c-1.1,0.6-2.1,1.2-2.8,2.2c-1.1,1.7-1.9,3.6-2.7,5.4l-0.3,0.7c-0.9,2.1-2,4.2-3,6c-0.4,0.7-1.1,1.5-1.8,2.2
		c-0.7,0.8-1.4,1.5-1.8,2.2c-0.3-0.3-0.6-0.5-0.9-0.7c0.2,0,0.3-0.1,0.5-0.2c0.2-0.1,0.4-0.4,0.6-0.7c0.1-0.3,0.4-0.5,0.6-0.8
		c0.5-0.5,0.9-1,1.1-1.4c0.2-0.4,0.3-0.8,0.3-0.8c0,0,0,0,0,0c0,0,0,0,0,0c0,0-0.3,0.2-0.7,0.5c-0.4,0.4-0.7,0.9-1,1.5
		c-0.1,0.3-0.3,0.6-0.6,0.7c-0.3,0.2-0.5,0.3-0.6,0.5c-0.2,0.2-0.3,0.3-0.4,0.4c0,0-0.1,0-0.1,0.1c-0.1,0-0.1-0.1-0.2-0.1
		C40.9,44.5,41.5,43.4,42.2,42.4z M33.9,39.6c-0.4-1.2-0.5-2.4-0.7-3.7c-0.1-0.9-0.2-1.9-0.5-2.8c-0.6-2.7-1.3-6,0.1-7.7
		c0.6-0.7,1.6-1.1,3.1-1.1c0,0.5-0.1,0.8-0.1,1.2c-0.1,1-0.3,1.8,0.6,3.4c0.9,1.6,1.3,3.1,1.7,5.4c0.5,3,0.9,7.3-0.2,10.6
		c-0.2,0-0.3,0-0.5,0c0,0,0,0-0.1,0c0-0.1,0-0.4,0-0.7c0-0.2-0.1-0.5-0.2-0.8c-0.1-0.3-0.2-0.6-0.2-0.9c0.1-0.7,0.1-1.3,0-1.7
		c-0.1-0.5-0.3-0.8-0.3-0.8c0,0,0,0,0,0c0,0,0,0,0,0c0,0-0.1,0.3-0.1,0.8c0,0.5,0,1.1,0.2,1.7c0.1,0.3,0.2,0.6,0.2,0.9
		c0,0.3,0,0.6,0.1,0.8c0.1,0.3,0.2,0.5,0.3,0.6c-0.1,0-0.2,0-0.3,0c0,0,0,0,0,0c-0.3-0.6-0.7-1.1-1-1.7
		C35.1,42.1,34.3,40.9,33.9,39.6z M31.9,45.9c-0.6-0.3-1.2-0.6-1.5-0.9c-0.1-0.1-0.3-0.2-0.6-0.4c-5.1-3.8-7.8-6.5-8-8
		c0-0.2-0.1-0.5-0.3-1.2c-0.3-1-1-3.8-0.9-4.7c0.5,0.4,1.3,1.5,1.8,2.3c1.1,1.5,1.5,2.1,2,2.2c2.2,0.8,5.7,3.9,7,6.1
		c0.2,0.4,0.5,0.9,0.7,1.3c0.2,0.4,0.4,0.8,0.6,1.1c0.3,0.6,0.7,1.1,1.1,1.6c0.2,0.2,0.3,0.5,0.5,0.7c-0.2,0.1-0.3,0.2-0.5,0.4
		c-0.1-0.1-0.2-0.3-0.3-0.4c-0.2-0.2-0.4-0.4-0.6-0.5c-0.3-0.2-0.5-0.4-0.6-0.7c-0.2-0.3-0.4-0.5-0.6-0.8c-0.2-0.2-0.4-0.4-0.6-0.6
		c-0.4-0.3-0.7-0.4-0.7-0.4c0,0,0,0,0,0c0,0,0,0,0,0c0,0,0.2,0.3,0.5,0.7c0.3,0.4,0.7,0.8,1.3,1.2c0.3,0.2,0.5,0.4,0.7,0.7
		c0.1,0.1,0.2,0.3,0.2,0.4c0.1,0.1,0.2,0.2,0.3,0.3c0.2,0.1,0.3,0.2,0.4,0.3c-0.1,0.1-0.2,0.1-0.2,0.2
		C32.8,46.4,32.3,46.1,31.9,45.9z M28.9,49.9c-1.9,0-3.8-0.1-5.7,0.1c-1,0.1-2.1,0-3.2,0c-1.9-0.1-3.8-0.1-5.4,0.3
		c0-0.3,0.2-0.7,0.5-1c1.4-1.8,5.3-3,7.1-2.9c4.5,0.2,6.6,1,9.5,2.3c0,0.1,0,0.1-0.1,0.2c-0.1,0-0.2,0-0.3-0.1c-0.2,0-0.5-0.1-0.8,0
		c-0.3,0-0.6,0-0.9-0.2c-0.3-0.1-0.6-0.2-0.9-0.3c-0.3-0.1-0.6-0.1-0.9,0c-0.5,0-0.8,0.1-0.8,0.1c0,0,0,0,0,0c0,0,0,0,0,0
		c0,0,0.3,0.2,0.8,0.2c0.2,0.1,0.5,0.1,0.8,0.1c0.3,0,0.6,0.1,1,0c0.3,0,0.7,0,1,0.2c0.1,0.1,0.3,0.1,0.4,0.2c0.1,0,0.3,0,0.4,0
		c0.1,0,0.1,0,0.2,0c-0.1,0.2-0.2,0.5-0.2,0.7C30.5,49.9,29.7,49.9,28.9,49.9z M25.5,55.6c-1.2,0.1-2.3,0.2-3.1,0.4
		c-2.8,0.7-6.4,2.1-8.2,4.8c-0.2-0.7-0.1-1.4,0.2-2.2c1-2.3,4-4.2,5.8-4.6c3.1-0.8,6.8-1.3,10.1-1.7l1.1-0.1c0,0.3,0.1,0.6,0.2,0.8
		c-0.1,0-0.2,0-0.2,0c-0.2,0-0.5,0-0.8,0c-0.3,0.1-0.6,0.1-0.9,0c-0.3-0.1-0.6-0.1-1-0.1c-0.3,0-0.6,0.1-0.8,0.2
		c-0.2,0.1-0.4,0.2-0.5,0.3c-0.1,0.1-0.2,0.1-0.2,0.1c0,0,0,0,0,0c0,0,0,0,0,0c0,0,0.1,0,0.2,0c0.1,0,0.3,0,0.6-0.1
		c0.2,0,0.5,0,0.8-0.1c0.3-0.1,0.6-0.1,0.9-0.2c0.3-0.1,0.6-0.1,0.9,0c0.3,0.1,0.6,0.1,0.8,0.1c0.1,0,0.3,0,0.4,0
		c0.1,0.2,0.1,0.3,0.2,0.5C30.6,55.1,27.9,55.4,25.5,55.6z M29.4,61.5c-0.9,0.8-1.8,1.6-2.5,2.3l-0.4,0.5c-1.2,1.3-2.5,2.8-3.6,4.3
		c-0.7,1-1,1.8-1.3,2.8c-0.1,0.4-0.2,0.9-0.3,1.3c0,0.2-0.1,0.4-0.1,0.6c-0.3-0.3-0.6-0.8-0.8-1.4C19.7,70,19.7,67.8,20,67
		c0.4-0.9,3.3-3.9,4.6-5.3c0.3-0.3,0.6-0.6,0.8-0.8c1.6-1.7,3.4-2.8,5.3-4c0.7-0.4,1.5-0.9,2.2-1.4c0.1,0.1,0.3,0.3,0.4,0.4
		c-0.1,0-0.2,0.1-0.2,0.1c-0.1,0.1-0.2,0.2-0.4,0.3c-0.2,0.2-0.5,0.4-0.9,0.5c-0.6,0.3-1.2,0.6-1.5,1c-0.4,0.4-0.5,0.7-0.5,0.7
		c0,0,0,0,0,0c0,0,0,0,0,0c0,0,0.3-0.1,0.8-0.4c0.4-0.3,1-0.6,1.4-1.1c0.2-0.2,0.5-0.4,0.8-0.5c0.3-0.1,0.6-0.2,0.8-0.3
		c0,0,0,0,0.1,0c0,0,0.1,0.1,0.1,0.1C33.2,58.1,31.2,59.9,29.4,61.5z M35.2,67.5c-0.3,0.9-0.6,1.8-0.8,2.6l-0.3,1.4
		c-0.4,1.7-0.8,3.4-1.3,5c-0.1,0.5-0.4,1-0.7,1.5c-0.3,0.5-0.5,1-0.7,1.6c-0.1,0.4-0.1,0.8-0.2,1.1c0,0.5-0.1,0.7-0.2,1
		c-2-3.3,0.2-10.3,0.9-12.7c0.2-0.7,0.4-1.4,0.6-2.1c0.4-1.3,0.7-2.7,1.3-4c0.7-1.6,1.6-3.8,2-5.8c0.1,0,0.3,0.1,0.4,0.1
		c0,0.1,0,0.2,0,0.3c0,0.1,0,0.2,0,0.3c0,0.1,0.1,0.3,0,0.4c0,0.1,0,0.3,0,0.4c0,0.1-0.1,0.3-0.2,0.4c-0.3,0.5-0.6,1-0.7,1.5
		c-0.1,0.4-0.1,0.8-0.1,0.8c0,0,0,0,0,0c0,0,0,0,0,0c0,0,0.2-0.2,0.4-0.6c0.2-0.4,0.5-0.9,0.6-1.5c0-0.3,0.1-0.6,0.2-0.9
		c0.1-0.3,0.2-0.6,0.1-0.8c0-0.1,0-0.1,0-0.2c0.1,0,0.2,0,0.3,0C37,61.7,36,64.9,35.2,67.5z M44.6,61.1c0.7,0.6,1.3,1.2,1.8,1.8
		c2.1,2.1,4.2,4.7,6.1,7.3c1,1.4,2.9,4.7,2.7,6.1c-0.1,0.5-0.2,0.6-0.2,0.6c-0.1,0-0.4-0.1-1.5-1.3c-1.1-1.3-2.2-2.2-3.6-3.2
		c-1.8-1.3-3.2-2.9-4.6-4.7c-0.4-0.5-0.8-1-1.2-1.4c-0.2-0.2-0.4-0.5-0.6-0.7c-1.6-1.8-3.1-3.5-4.2-8.4c0.1,0,0.2-0.1,0.4-0.1
		c0.1,0.1,0.1,0.3,0.2,0.4c0.1,0.2,0.3,0.4,0.6,0.6c0.3,0.2,0.5,0.5,0.6,0.8c0.3,0.6,0.8,1.2,1.2,1.5c0.4,0.4,0.7,0.5,0.7,0.5
		c0,0,0,0,0,0c0,0,0,0,0,0c0,0-0.1-0.4-0.4-0.8c-0.3-0.4-0.7-0.9-1.3-1.4c-0.3-0.2-0.5-0.5-0.6-0.8c-0.1-0.3-0.3-0.6-0.5-0.7
		C40.1,57.1,40,57,39.9,57c0.2-0.1,0.4-0.2,0.6-0.3C41.5,58.3,43.1,59.8,44.6,61.1z M37.5,56.5c-2,0-3.6-1.1-4.5-2.7
		c0-0.1,0-0.1-0.1-0.2c-0.4-0.7-0.6-1.6-0.6-2.4c0-2.9,2.4-5.3,5.3-5.3c2.5,0,4.6,1.8,5.2,4.2c0,0,0,0.1,0,0.1
		c0.1,0.3,0.1,0.7,0.1,1C42.8,54.1,40.4,56.5,37.5,56.5z M59.3,57.3c2.4,1.2,4.5,2.6,6.1,4.1c0.2,0.1,0.3,0.3,0.5,0.4
		c0.6,0.5,1,0.8,1.1,1.2c0,0,0,0.1,0,0.1c0,0.1,0,0.2,0,0.3c-0.3,0.6-0.9,0.5-2.3,0c-0.3-0.1-0.6-0.2-0.9-0.3
		c-1-0.3-1.9-0.5-2.9-0.8c-1-0.3-2-0.6-3-0.8c-0.4-0.1-0.9-0.2-1.3-0.3c-0.5-0.1-1.1-0.2-1.6-0.4c-0.5-0.2-1-0.4-1.4-0.7
		c-0.6-0.3-1.3-0.6-2-0.8c-3.6-1-6.8-2.4-9.3-4.2c0.1-0.2,0.3-0.3,0.4-0.5c0,0,0,0.1,0.1,0.2c0.1,0.1,0.2,0.2,0.3,0.2
		c0.1,0.1,0.2,0.2,0.4,0.2c0.1,0.1,0.3,0.1,0.5,0.2c0.2,0,0.4,0,0.6,0c0.4,0,0.8,0.1,1.2,0.2c0.8,0.2,1.6,0.4,2.2,0.4c0.6,0,1,0,1,0
		c0,0,0,0,0,0c0,0,0,0,0,0c0,0-0.4-0.2-1-0.4c-0.6-0.2-1.4-0.2-2.2-0.2c-0.4,0-0.8,0-1.2-0.2c-0.3-0.2-0.7-0.3-0.9-0.3
		c-0.1,0-0.3-0.1-0.4-0.1c-0.1,0-0.2-0.1-0.3-0.1c-0.1,0-0.1-0.1-0.2-0.1c0,0,0,0,0,0c0.1-0.1,0.2-0.3,0.3-0.4
		C48.1,54.1,53.9,54.6,59.3,57.3z M66.1,49.1c-1.2-0.1-2.4-0.2-3.6-0.2c-2.7,0-5.4,0.5-7.6,1c-1.4,0.3-2.7,0.6-3.8,1
		c-2.4,0.7-4.4,1.2-7.3,1.3c0.1-0.3,0.1-0.6,0.1-1c0.1,0,0.3,0.1,0.5,0.1c0.3,0,0.7,0,1,0c0.4-0.1,0.8,0,1.2,0
		c0.4,0.1,0.8,0.1,1.2,0.1c0.4,0,0.8-0.1,1.1-0.2c0.3-0.1,0.5-0.2,0.7-0.3c0.2-0.1,0.2-0.2,0.2-0.2c0,0,0,0,0,0c0,0,0,0,0,0
		c0,0-0.1,0-0.3,0c-0.2,0-0.4,0.1-0.7,0.1c-0.3,0-0.6,0.1-1,0.1c-0.4,0.1-0.8,0.1-1.2,0.2c-0.4,0.1-0.8,0.1-1.2,0
		c-0.4-0.1-0.7-0.1-1-0.1c-0.2,0-0.3,0-0.5,0c0-0.2,0-0.5-0.1-0.7c4.7-2.2,9.6-2.8,14.7-3.2c2.4-0.2,4.9-0.2,7.2-0.2
		c2.5,0,3.5,0.6,3.6,2.5C68.2,49.3,67.2,49.2,66.1,49.1z"/>
</g>
<g>
	<path d="M88,71.1c-1-0.9-3.1-0.9-4.9-0.9c-0.5,0-1,0-1.3,0c-0.5,0-1.6-0.3-2.9-0.6c-1.7-0.4-3.6-0.9-4.8-1c0-0.1,0-0.1,0-0.2
		c4.9-0.5,11.1-1.5,12.8-3.5c0.4-0.4,0.5-0.9,0.4-1.4c-0.1-0.7-0.5-1.3-1.1-1.6c-2.8-1.3-10.5,2.8-12.5,4c-0.1-0.1-0.1-0.2-0.2-0.3
		c0.6-0.5,0.9-1,1.2-1.6c0.2-0.3,0.3-0.6,0.6-0.9c0.6-1,1.5-1.7,2.4-2.4c0.8-0.7,1.6-1.3,2.3-2.2c0.5-0.7,1.6-2.1,1-3.4
		c-0.2-0.5-2.3-1.9-3-2c-1.7,0-2.6,2.9-3.2,4.8c-0.1,0.3-0.2,0.6-0.3,0.8c-0.3,0.8-0.7,1.8-1.2,2.6c-0.2,0.3-0.5,0.6-0.7,1
		c-0.4,0.5-0.8,0.9-1,1.5c-0.1,0-0.2-0.1-0.3-0.1c0,0,0-0.1,0-0.1c0.6-1.6,1.4-6.3,1.4-6.4l0-0.3c0.3-2.6,0.4-4.2-0.4-4.8
		c-0.4-0.3-0.9-0.5-1.4-0.6c-0.3,0-0.6,0-0.9,0c-0.4,0-0.8,0.1-1.2,0.3c-0.1,0-0.2,0.1-0.3,0.3c-0.2,0.5-0.2,1.9,0,4.1l0.1,1
		c0.1,1.4,0.1,2.9,0,4.3c0,0.7,0,1.4,0,2.1c0,0,0,0-0.1,0c0-0.1-0.1-0.2-0.1-0.2c0-0.1,0-0.1,0-0.2c0-0.2-0.1-0.4-0.1-0.6
		c-0.1-0.4-0.1-0.8-0.3-1.3c-0.2-0.5-0.4-1-0.6-1.4c-0.2-0.5-0.4-0.9-0.6-1.4c-0.1-0.4-0.2-0.8-0.2-1.2c-0.1-0.6-0.2-1.2-0.4-1.7
		c-0.6-1.4-0.9-1.6-2.2-1.2l-0.4,0.1c-0.9,0.2-1.5,0.7-1.7,1.2c-0.3,0.7,0,1.5,0.4,2.3c0,0,0,0,0,0c0,0,0,0,0,0.1
		c0.1,0.1,0.2,0.3,0.2,0.4c0.1,0.2,0.2,0.4,0.3,0.6c0.1,0.2,0.2,0.3,0.4,0.5c0.1,0.1,0.2,0.2,0.3,0.3c0,0,0,0,0.1,0
		c0.1,0.1,0.2,0.1,0.3,0.2l0.1,0.1c0.7,0.5,1.4,1,2,1.6c0.2,0.1,0.3,0.3,0.5,0.4c0.6,0.5,1,0.8,1.1,1.2c0,0,0,0.1,0,0.1
		c0,0.1,0,0.2,0,0.3c-0.3,0.6-0.9,0.5-2.3,0c-0.3-0.1-0.6-0.2-0.9-0.3c-1-0.3-1.9-0.5-2.9-0.8c-0.4-0.1-0.8-0.2-1.2-0.3
		c-0.4-0.1-0.8-0.2-1.2-0.2c-0.3-0.1-0.7-0.1-1-0.2c0,0-0.2,0-0.3,0c-0.2,0-0.3,0-0.5-0.1c-0.3,0-0.6-0.1-0.9-0.1
		c-0.2,0-0.5-0.1-0.7-0.1c-0.2,0-0.2,0,0,0c-0.1,0-0.2,0-0.3,0c-0.3,0-0.6-0.1-0.9-0.1c-0.2,0-0.3,0-0.5,0c0,0,0,0,0,0c0,0,0,0,0,0
		c0,0.1,0,0.3,0.2,0.4c1.3,1.1,7.3,3.8,10.1,5c-2.2,0-4.4,0.3-6.5,0.6c-1.1,0.2-3.6,0.8-4.8,0.9c-0.1,0-0.2,0.1-0.4,0.1v0.9
		c0.2,0,0.4,0,0.6,0c0.1,0,0.1-0.1,0.2-0.1c0,0,0,0,0.1,0c0,0,0,0,0,0c1.4-0.2,3.5-0.6,4.4-0.7c2.3-0.4,4.7-0.6,7.2-0.6H65
		c0,0,0,0.1,0,0.1c0,0.2,0,0.3,0,0.5c-0.1,0-0.2,0-0.3,0c-0.1,0-0.3,0-0.4,0c-0.1,0-0.2,0.1-0.4,0.2c-0.2,0.1-0.5,0.2-0.8,0.2
		c-0.6,0-1.1,0.2-1.4,0.4c-0.4,0.2-0.6,0.4-0.6,0.4c0,0,0,0,0,0c0,0,0,0,0,0c0,0,0.3,0.1,0.7,0c0.4-0.1,0.9-0.3,1.4-0.6
		c0.2-0.1,0.5-0.2,0.7-0.2c0.1,0,0.2,0,0.4,0c0.1,0,0.2,0,0.3,0c0.1,0,0.2,0,0.2-0.1c0,0,0.1,0,0.1,0c0,0.2,0.1,0.4,0.2,0.6
		c-1.9,0-6.1,0.9-8.8,1.6c-0.7,0.2-1.3,0.3-1.8,0.4c0,0,0,0,0,0c-0.1,0-0.2,0.1-0.3,0.1c0,0,0,0,0,0c0,0-0.1,0-0.1,0
		c0,0,0,0.1-0.1,0.1c0,0.1,0,0.1,0.1,0.2c0.1,0.1,0.1,0.2,0.2,0.3c0,0,0,0,0,0c0,0,0,0.1,0.1,0.1c0,0,0,0,0.1,0.1
		c0.1,0,0.3,0,0.4,0.1c0,0,0.1,0,0.1,0c0,0,0,0,0,0c0.4-0.1,0.9-0.2,1.5-0.3c2.4-0.5,6.4-1.4,8.3-1.5c-3.1,2-6.2,5-8.3,8.1
		c-0.5,0.8-1,1.5-1.5,2.5c-0.8,1.5-0.6,1.9,0.5,3c1,0.9,1.9,1.4,2.7,1.4c0.1,0,0.1,0,0.2,0c0.8-0.1,1.6-0.7,2.4-1.8
		c1.2-1.7,1.8-3.6,2.4-5.5c0.4-1.1,0.9-2.3,1.6-3.5c0.2-0.3,0.5-0.7,0.9-1c0.5-0.6,1-1.1,1.3-1.6l-0.2,0.6c-0.3,1.1-0.6,1.9-0.9,2.8
		l-0.1,0.4c-0.4,1.1-0.7,1.9-0.8,3.2c-0.1,0.5-0.1,1-0.2,1.5c-0.3,2.2-0.5,3.8-0.4,6.1c0,0.3,0.2,0.5,0.5,0.5c0.4,0,0.8,0.1,1.2,0.1
		c0.4,0,0.8,0.1,1.1,0.1c1,0,1.7-0.3,2.1-1.7c0.4-1.4,0.2-2.8,0.2-4.2v-0.3c0-0.9,0-1.9-0.1-3c-0.2-1.9-0.4-3.8,0.2-5.3c0,0,0,0,0,0
		c0,0,0,0,0,0l0,0.1c0.4,2.2,0.6,3.9,2.1,5.7c1,1.3,2.2,2.4,3.3,3.5c0.5,0.4,0.9,0.9,1.4,1.3c0.2,0.2,0.3,0.3,0.5,0.5
		c0.5,0.6,1.1,1.2,1.9,1.2c0.2,0,0.4,0,0.6-0.1c0.9-0.3,1.5-0.7,1.8-1.2c0.3-0.5,0.3-1.2,0.1-2c-0.9-2.9-3.2-4.9-5.4-6.9
		c-1.2-1.1-2.4-2.1-3.3-3.3c0.1,0,0.1-0.1,0.2-0.1c1.2,0.6,2.7,1,3.7,1.2c0.9,0.2,5.2,2.2,5.8,2.4c0.6,0.3,1.3,0.4,2,0.4
		c1,0,2.1-0.3,2.9-0.8c0.9-0.5,1.3-1.3,1.3-2.2C88.5,71.8,88.3,71.4,88,71.1z M66.9,61.2c-0.2-0.1-0.3-0.3-0.5-0.4
		c-0.7-0.7-1.6-1.3-2.5-1.9c0,0,0,0,0,0c-0.1-0.3-0.3-0.6-0.5-0.8c-0.5-0.8-1-1.7-0.8-2.2c0.1-0.3,0.7-0.5,1.1-0.6l0.5-0.1
		c0.3-0.1,0.6-0.2,0.6-0.2c0.1,0.1,0.3,0.6,0.4,0.8c0.2,0.4,0.3,0.9,0.4,1.5c0.1,0.4,0.2,0.9,0.3,1.3c0.2,0.5,0.4,1,0.6,1.5
		c0.2,0.4,0.4,0.9,0.5,1.3C67,61.3,66.9,61.3,66.9,61.2z M73.3,62.8c0.1-0.2,0.3-0.3,0.4-0.5c-0.1,0.1-0.1,0.2-0.1,0.3
		c-0.1,0.3-0.2,0.5-0.4,0.7c-0.2,0.2-0.3,0.4-0.4,0.6c0,0.1,0,0.2,0,0.3c0,0.1,0,0.2,0.1,0.3c0.1,0.1,0.1,0.1,0.1,0.1
		c0,0,0.1,0,0.1,0c0,0,0,0,0,0c0,0,0,0,0,0c0,0,0,0,0,0c0,0-0.1-0.1,0-0.1c0,0,0.1-0.2,0.2-0.3c0.1-0.2,0.2-0.4,0.2-0.6
		c0.1-0.3,0.2-0.5,0.4-0.6c0.4-0.4,0.7-0.8,0.9-1.1C74.9,61.3,75,61,75,61c0,0,0,0,0,0c0,0,0,0,0,0c0,0-0.3,0.1-0.6,0.4
		c-0.1,0-0.1,0.1-0.2,0.2c0.5-0.9,0.9-1.9,1.2-2.6c0.1-0.2,0.2-0.5,0.3-0.8c0.4-1.2,1.3-4.1,2.3-4.1c0.4,0.1,1.9,1.1,2.1,1.4
		c0.3,0.7-0.3,1.6-0.9,2.4c-0.6,0.8-1.3,1.4-2.1,2.1c-0.9,0.8-1.8,1.6-2.5,2.6c-0.2,0.4-0.4,0.7-0.6,1c-0.3,0.5-0.5,0.9-0.9,1.3
		c-0.2-0.2-0.4-0.4-0.6-0.5C72.6,63.7,73,63.2,73.3,62.8z M69.4,52.5c0.9-0.3,1.7-0.2,2.4,0.2c0.2,0.1,0.4,0.8,0,3.9l0,0.3
		c-0.2,2-1.2,5.8-1.4,6.4c0,0,0,0,0,0c-0.1,0-0.1,0-0.2,0c0-0.1,0-0.1,0.1-0.2c0-0.2,0-0.5,0-0.7c-0.1-0.3,0-0.6,0.1-0.8
		c0.2-0.6,0.2-1.1,0.2-1.6c0-0.4-0.1-0.7-0.1-0.7c0,0,0,0,0,0c0,0,0,0,0,0c0,0-0.1,0.3-0.2,0.7c-0.1,0.4-0.1,1,0,1.6
		c0.1,0.3,0,0.6-0.1,0.8c-0.1,0.3-0.1,0.5-0.1,0.7c0,0.1,0,0.1,0,0.2c-0.1,0-0.1,0-0.2,0c0,0-0.1,0-0.1,0c0-0.6,0-1.3,0-1.9
		c0-1.4,0.1-2.9,0-4.4l-0.1-1C69.4,54.9,69.3,53.1,69.4,52.5z M56.9,62.5c0.4,0.1,0.7,0.1,1.1,0.2c1,0.3,2,0.5,3,0.8
		c1,0.3,1.9,0.5,2.9,0.8c0.2,0,0.4,0.1,0.6,0.2c0,0,0,0,0,0.1c0.3,0.4,0.5,0.6,0.7,1c-0.1,0-0.1-0.1-0.2-0.1
		c-0.2-0.1-0.4-0.2-0.5-0.4c-0.1-0.2-0.3-0.3-0.5-0.5c-0.2-0.1-0.4-0.2-0.5-0.3c-0.3-0.1-0.6-0.1-0.6-0.1c0,0,0,0,0,0c0,0,0,0,0,0
		c0,0,0.2,0.2,0.4,0.4c0.3,0.2,0.6,0.4,1.1,0.6c0.2,0.1,0.4,0.2,0.5,0.4c0.1,0.2,0.2,0.3,0.4,0.4c0,0,0.1,0.1,0.1,0.1
		c0,0,0,0.1,0,0.1C63.5,65.5,59.5,63.8,56.9,62.5z M65.1,72.8c-0.4,0.4-0.8,0.9-1,1.2c-0.8,1.3-1.3,2.5-1.7,3.8
		c-0.6,1.8-1.2,3.6-2.2,5.2c-0.6,0.9-1.1,1.3-1.7,1.4c-0.6,0.1-1.2-0.3-2.1-1.1c-0.8-0.8-0.8-0.8-0.3-1.8c0.5-0.9,0.9-1.7,1.4-2.4
		c2.1-3.3,5.3-6.3,8.5-8.2c0.1,0.1,0.1,0.1,0.2,0.2c-0.1,0-0.3,0.1-0.6,0.3c-0.1,0.1-0.2,0.1-0.3,0.2c-0.1,0.1-0.2,0.2-0.2,0.3
		c-0.1,0.3-0.4,0.5-0.6,0.6c-0.5,0.3-0.9,0.7-1.2,1c-0.3,0.3-0.5,0.6-0.5,0.6c0,0,0,0,0,0c0,0,0,0,0,0c0,0,0.3-0.1,0.7-0.3
		c0.1-0.1,0.2-0.1,0.3-0.2c0.1-0.1,0.2-0.2,0.3-0.3c0.2-0.2,0.4-0.4,0.5-0.7c0.2-0.3,0.4-0.5,0.6-0.6c0.2-0.1,0.5-0.3,0.6-0.4
		c0.2-0.2,0.3-0.4,0.4-0.5c0,0,0.1,0.1,0.1,0.1C66.2,71.6,65.5,72.4,65.1,72.8z M68.3,85.1c-0.3,1.1-0.6,1.1-2.2,0.9
		c-0.2,0-0.5-0.1-0.8-0.1c0-1.9,0.2-3.4,0.4-5.4c0.1-0.5,0.1-1,0.2-1.5c0.2-1.2,0.4-1.9,0.8-3l0.1-0.4c0.3-0.9,0.6-1.8,0.9-2.9
		l0.2-0.5c0.1,0,0.1,0,0.2,0.1c0,0,0,0.1-0.1,0.2c-0.1,0.1-0.1,0.3-0.2,0.5c-0.1,0.2-0.2,0.4-0.2,0.7c0,0.1,0,0.3-0.1,0.4
		c0,0.1-0.1,0.3-0.2,0.4c-0.2,0.6-0.4,1.2-0.4,1.7c0,0.5,0.1,0.8,0.1,0.8c0,0,0,0,0,0c0,0,0,0,0,0c0,0,0.2-0.3,0.3-0.7
		c0.2-0.4,0.2-1.1,0.2-1.7c0-0.3,0.1-0.6,0.2-0.9c0.1-0.1,0.2-0.2,0.2-0.4c0-0.1,0-0.1,0.1-0.2c-0.2,1.4-0.1,3.1,0.1,4.7
		c0.1,1,0.1,2,0.1,2.9v0.3C68.5,82.6,68.7,83.8,68.3,85.1z M68.4,72.5c0-0.1,0-0.1,0-0.2c0.1,0,0.1,0,0.2,0.1
		c-0.1,0.2-0.1,0.3-0.1,0.5C68.4,72.7,68.4,72.6,68.4,72.5z M75.3,75.4c2.1,1.9,4.3,3.8,5.1,6.5c0.2,0.6,0.2,1,0,1.3
		c-0.2,0.3-0.6,0.5-1.2,0.7c-0.6,0.2-0.9,0-1.5-0.8c-0.2-0.2-0.3-0.4-0.5-0.5c-0.5-0.5-0.9-0.9-1.4-1.3c-1.1-1.1-2.3-2.2-3.2-3.4
		c-1.3-1.7-1.5-3.2-1.9-5.3l0-0.1c0.2,0,0.3-0.1,0.5-0.2c0,0.1,0.1,0.3,0.2,0.4c0.1,0.2,0.2,0.4,0.4,0.6c0.2,0.2,0.3,0.5,0.4,0.8
		c0.1,0.3,0.2,0.6,0.4,0.8c0.1,0.2,0.3,0.4,0.4,0.6c0.2,0.3,0.5,0.6,0.5,0.6l0,0c0,0,0,0,0,0c0,0,0,0,0,0c0,0,0-0.3-0.2-0.8
		c-0.1-0.2-0.2-0.5-0.3-0.7c-0.2-0.2-0.4-0.5-0.6-0.7c-0.2-0.2-0.3-0.5-0.4-0.8c0-0.3-0.1-0.5-0.3-0.7c-0.1-0.1-0.2-0.2-0.3-0.3
		c0.2-0.1,0.3-0.2,0.4-0.2C72.8,73.2,74.1,74.3,75.3,75.4z M69.6,71.5c-2,0-3.7-1.6-3.7-3.7c0-2,1.6-3.7,3.7-3.7
		c2,0,3.7,1.6,3.7,3.7C73.3,69.9,71.6,71.5,69.6,71.5z M85.9,62.8c0.3,0.2,0.5,0.4,0.6,0.8c0,0.2,0,0.5-0.2,0.7
		c-1.1,1.4-5.5,2.5-12,3.1c0-0.1,0-0.2,0-0.2c0.1,0,0.3,0,0.5-0.1c0.2-0.1,0.4-0.2,0.7-0.3c0.2-0.1,0.5-0.2,0.8-0.2
		c0.6,0,1.2-0.1,1.6-0.2c0.4-0.1,0.7-0.3,0.7-0.3c0,0,0,0,0,0c0,0,0,0,0,0c0,0-0.3-0.1-0.8,0c-0.4,0-1,0.2-1.6,0.4
		c-0.3,0.1-0.6,0.2-0.9,0.2c-0.1,0-0.3,0-0.4,0c-0.1,0-0.2,0.1-0.3,0.1c-0.1,0.1-0.3,0.2-0.4,0.2c0,0,0-0.1,0-0.1
		C76.2,65.5,83.6,61.7,85.9,62.8z M86.7,73.6c-1.2,0.7-3,0.8-4,0.3c-0.4-0.2-4.9-2.3-6-2.5c-0.8-0.2-2-0.3-3-0.7
		c0.1,0,0.1-0.1,0.2,0c0.1,0,0.3-0.1,0.4-0.1c0.3,0,0.6,0,0.8,0.1c0.3,0.1,0.5,0.2,0.8,0.2c0.3,0.1,0.5,0.1,0.7,0.1
		c0.2,0,0.4,0,0.5,0.1c0.1,0,0.2,0,0.2,0c0,0,0,0,0,0c0,0,0,0,0,0c0,0-0.1-0.1-0.2-0.1c-0.1-0.1-0.3-0.2-0.5-0.3
		c-0.4-0.2-1-0.3-1.6-0.2c-0.3,0-0.6,0-0.8-0.1c-0.2-0.1-0.4-0.2-0.6-0.2c0.1-0.1,0.1-0.3,0.2-0.4c1,0,3.1,0.6,4.8,1
		c1.3,0.3,2.5,0.6,3.1,0.7c0.3,0,0.8,0,1.4,0c1.4,0,3.5-0.1,4.2,0.6c0.1,0.1,0.2,0.3,0.2,0.5C87.5,72.8,87.2,73.3,86.7,73.6z"/>
</g>
<path class="st0" d="M94.8,82.1c-1-0.9-3.1-0.9-4.9-0.9c-0.5,0-1,0-1.3,0c-0.5,0-1.6-0.3-2.9-0.6c-1.7-0.4-3.6-0.9-4.8-1
	c0-0.1,0-0.1,0-0.2c4.9-0.5,11.1-1.5,12.8-3.5c0.4-0.4,0.5-0.9,0.4-1.4c-0.1-0.7-0.5-1.3-1.1-1.6c-2.8-1.3-10.5,2.8-12.5,4
	c-0.1-0.1-0.1-0.2-0.2-0.3c0.6-0.5,0.9-1,1.2-1.6c0.2-0.3,0.3-0.6,0.6-0.9c0.6-1,1.5-1.7,2.4-2.4c0.8-0.7,1.6-1.3,2.3-2.2
	c0.5-0.7,1.6-2.1,1-3.4c-0.2-0.5-2.3-1.9-3-1.9c-1.7,0-2.6,2.9-3.2,4.8c-0.1,0.3-0.2,0.6-0.3,0.8c-0.3,0.8-0.7,1.8-1.2,2.6
	c-0.2,0.3-0.5,0.6-0.7,1c-0.4,0.5-0.8,0.9-1,1.5c-0.1,0-0.2-0.1-0.3-0.1c0,0,0-0.1,0-0.1c0.6-1.6,1.4-6.3,1.4-6.4l0-0.3
	c0.3-2.6,0.4-4.2-0.4-4.8c-1-0.7-2.3-0.8-3.6-0.3c-0.1,0-0.2,0.1-0.3,0.3c-0.2,0.5-0.2,1.9,0,4.1l0.1,1c0.1,1.4,0.1,2.9,0,4.3
	c0,0.7,0,1.4,0,2.1c0,0,0,0-0.1,0c0-0.1-0.1-0.2-0.1-0.2c0-0.1,0-0.1,0-0.2c0-0.2-0.1-0.4-0.1-0.6c-0.1-0.4-0.1-0.8-0.3-1.3
	c-0.2-0.5-0.4-1-0.6-1.4c-0.2-0.5-0.4-0.9-0.6-1.4c-0.1-0.4-0.2-0.8-0.2-1.2c-0.1-0.6-0.2-1.2-0.4-1.7c-0.6-1.4-0.9-1.6-2.2-1.2
	l-0.4,0.1c-0.9,0.2-1.5,0.7-1.7,1.2c-0.3,0.7,0,1.5,0.4,2.3c-0.7-0.4-1.3-0.8-2-1.1c-5-2.5-10.3-3.2-15-3.3c2.5-0.2,4.5-0.7,6.5-1.3
	c1.2-0.3,2.4-0.7,3.8-1c2.2-0.5,4.8-1,7.4-1c1.2,0,2.4,0.1,3.5,0.2c1.2,0.1,2.5,0.2,3.7,0.2c0.3,0,0.5-0.2,0.5-0.5
	c0-3.5-2.2-4-4.6-4c-2.4,0-4.9,0-7.3,0.2c-4,0.4-8,0.8-11.9,2.1c0.4-0.2,0.7-0.4,1.1-0.7c0.9-0.5,1.8-1,2.4-1.5
	c2-1.5,3.5-2.8,5.3-4.3c2.3-2,4-3.7,5.3-5.6c0.7-1,1.5-1.8,2.4-2.6c0.5-0.4,1.2-0.7,1.9-1c0.6-0.3,1.2-0.5,1.7-0.9
	c0.1-0.1,0.2-0.2,0.2-0.3c0-0.1,0-0.3-0.1-0.4c-0.5-0.6-1.1-0.7-1.5-0.7c-0.1,0-0.2,0-0.4,0c-4.8-0.6-8.9,2.8-12.2,6.2
	c-0.3,0.3-1.3,1.4-2.5,2.8c-2.2,2.5-5.4,6-7.1,7.8c0.4-0.6,0.9-1.2,1.5-1.7c0.7-0.8,1.5-1.6,1.9-2.4c1-1.9,2.1-3.9,3-6.1l0.3-0.7
	c0.9-1.9,1.7-3.7,2.7-5.3c0.5-0.8,1.4-1.3,2.4-1.9c1-0.6,2.1-1.2,2.7-2.2c0.1-0.2,0.1-0.5-0.2-0.7c-1.8-1.2-5.6-0.1-7,0.9
	c-1.8,1.2-3.5,3.7-4.5,5.8c-0.7,1.4-1.3,2.8-1.9,4.2c-0.3,0.7-0.6,1.5-0.9,2.2c-0.4,1-1,2-1.6,2.9c-0.7,1.1-1.3,2.2-1.8,3.4
	c-0.2-0.1-0.4-0.1-0.5-0.2c1.1-3.5,0.7-7.8,0.2-10.9c-0.4-2.4-0.9-4.1-1.8-5.7c-0.7-1.3-0.6-1.9-0.5-2.8c0.1-0.5,0.1-1.1,0.1-1.8
	c0-0.3-0.2-0.5-0.5-0.5c-2-0.1-3.5,0.4-4.4,1.5c-1.7,2-0.9,5.6-0.3,8.5c0.2,0.9,0.3,1.8,0.4,2.7c0.2,1.3,0.3,2.6,0.7,3.9
	c0.4,1.4,1.2,2.6,2,3.9c0.3,0.4,0.6,0.9,0.8,1.3c-0.3,0.1-0.6,0.2-0.9,0.3c-0.2-0.3-0.4-0.5-0.5-0.8c-0.3-0.5-0.7-1-1-1.5
	c-0.2-0.4-0.4-0.7-0.6-1.1c-0.2-0.5-0.5-0.9-0.7-1.4c-1.4-2.4-5.1-5.6-7.5-6.5c-0.2-0.1-1-1.2-1.5-1.9c-1.4-2-2.2-3-3-2.8
	c-1,0.4-0.7,2.2,0.4,6.1c0.1,0.4,0.2,0.9,0.3,1c0.3,2.4,4.7,5.9,8.4,8.7c0.3,0.2,0.4,0.3,0.6,0.4c0.4,0.3,1.1,0.7,1.7,1
	c0.4,0.2,0.8,0.4,1.1,0.6c-0.1,0.1-0.2,0.3-0.3,0.4c-3-1.3-5.3-2.1-9.9-2.4c-2-0.1-6.3,1.1-8,3.2c-0.6,0.8-0.8,1.6-0.6,2.4
	c0,0.1,0.1,0.2,0.3,0.3c0.1,0,0.2,0.1,0.2,0.1c0.1,0,0.1,0,0.2,0c1.6-0.6,3.7-0.5,5.7-0.5c1.2,0,2.3,0.1,3.3,0
	c1.8-0.1,3.7-0.1,5.6,0c0.8,0,1.5,0,2.3,0c0,0.1,0,0.2,0,0.3c0,0,0,0,0,0l-1.1,0.2c-3.3,0.4-7,1-10.2,1.8c-2.3,0.6-5.4,2.7-6.5,5.2
	c-0.6,1.3-0.5,2.7,0.2,4c0.1,0.2,0.3,0.3,0.4,0.3c0,0,0,0,0,0c0.2,0,0.4-0.2,0.4-0.3c1.4-2.9,5.2-4.5,8.1-5.2c0.8-0.2,1.8-0.3,3-0.4
	c2-0.2,4.1-0.4,5.7-1.2c-0.4,0.2-0.8,0.5-1.1,0.7c-2,1.2-3.8,2.3-5.5,4.2c-0.2,0.2-0.4,0.5-0.8,0.8c-2.1,2.1-4.3,4.5-4.8,5.5
	c-0.5,1.1-0.4,3.7,0.3,5.6c0.3,0.8,0.8,1.9,1.7,2.3c0.1,0,0.1,0,0.2,0c0.1,0,0.2,0,0.3-0.1c0.3-0.2,0.4-0.6,0.6-1.6
	c0.1-0.4,0.2-0.9,0.3-1.3c0.3-1.1,0.5-1.7,1.1-2.5c1.1-1.4,2.4-2.9,3.6-4.2l0.4-0.5c0.6-0.7,1.5-1.4,2.4-2.2
	c1.8-1.6,3.9-3.4,4.7-5.4c0.1,0,0.1,0.1,0.2,0.1c-0.4,1.9-1.3,4.1-2,5.7c-0.6,1.3-1,2.7-1.3,4.1c-0.2,0.7-0.4,1.4-0.6,2
	c-1.4,4.5-3,10.8-0.5,14c0.1,0.1,0.2,0.2,0.4,0.2c0.1,0,0.2,0,0.2-0.1c1-0.5,1.1-1.4,1.1-2.1c0-0.3,0-0.6,0.1-0.9
	c0.2-0.5,0.4-0.9,0.6-1.4c0.3-0.5,0.6-1.1,0.7-1.7c0.4-1.7,0.9-3.4,1.3-5.1l0.3-1.4c0.2-0.8,0.5-1.6,0.7-2.5c0.8-2.7,1.9-6,1.8-10.4
	c0.1,0,0.2,0,0.3,0c1.2,5.3,2.8,7.1,4.4,8.9c0.2,0.2,0.4,0.4,0.6,0.7c0.4,0.5,0.8,1,1.2,1.4c1.4,1.7,2.9,3.5,4.8,4.9
	c1.4,1,2.4,1.8,3.4,3c0.7,0.8,1.5,1.6,2.2,1.6c0.1,0,0.2,0,0.3,0c0.5-0.1,0.8-0.6,0.9-1.4c0.2-1.2-0.6-3-1.4-4.5
	c0.4-0.1,0.9-0.2,1.5-0.3c2.5-0.5,6.4-1.4,8.3-1.5c-3.1,2-6.2,5-8.3,8.1c-0.5,0.8-1,1.5-1.5,2.5c-0.8,1.5-0.6,1.9,0.5,3
	c1,0.9,1.9,1.4,2.7,1.4c0.1,0,0.1,0,0.2,0c0.8-0.1,1.6-0.7,2.4-1.8c1.2-1.7,1.8-3.6,2.4-5.5c0.4-1.1,0.9-2.3,1.6-3.5
	c0.2-0.3,0.5-0.7,0.9-1c0.5-0.6,1-1.1,1.3-1.6l-0.2,0.6c-0.3,1.1-0.6,1.9-0.9,2.8l-0.1,0.4c-0.4,1.1-0.7,1.9-0.8,3.2
	c-0.1,0.5-0.1,1-0.2,1.5c-0.3,2.2-0.5,3.8-0.4,6.1c0,0.3,0.2,0.5,0.5,0.5c0.4,0,0.8,0.1,1.2,0.1c0.4,0,0.8,0.1,1.1,0.1
	c1,0,1.7-0.3,2.1-1.7c0.4-1.4,0.2-2.8,0.2-4.2v-0.3c0-0.9,0-1.9-0.1-3c-0.2-1.9-0.4-3.8,0.2-5.3c0,0,0,0,0,0c0,0,0,0,0,0l0,0.1
	c0.4,2.2,0.6,3.9,2.1,5.7c1,1.3,2.2,2.4,3.3,3.5c0.5,0.4,0.9,0.9,1.4,1.3c0.2,0.2,0.3,0.3,0.5,0.5c0.5,0.6,1.1,1.2,1.9,1.2
	c0.2,0,0.4,0,0.6-0.1c0.9-0.3,1.5-0.7,1.8-1.2c0.3-0.5,0.3-1.2,0.1-2c-0.9-2.9-3.2-4.9-5.4-6.9c-1.2-1.1-2.4-2.1-3.3-3.3
	c0.1,0,0.1-0.1,0.2-0.1c1.2,0.6,2.7,1,3.7,1.2c0.9,0.2,5.2,2.2,5.8,2.4c0.6,0.3,1.3,0.4,2,0.4c1,0,2.1-0.3,2.9-0.8
	c0.9-0.5,1.3-1.3,1.3-2.2C95.3,82.8,95.1,82.4,94.8,82.1z M76.4,82.6c-2,0-3.7-1.6-3.7-3.7c0-2,1.6-3.7,3.7-3.7c2,0,3.7,1.6,3.7,3.7
	C80,80.9,78.4,82.6,76.4,82.6z M54.2,73.4c-0.6-0.6-1.2-1.2-1.9-1.8c-1.4-1.3-3-2.8-3.9-4.2c0.1-0.1,0.2-0.1,0.3-0.2
	c2.7,1.9,5.9,3.4,9.8,4.5c0.6,0.2,1.2,0.5,1.8,0.8c0.1,0,0.1,0.1,0.2,0.1c0,0.1,0,0.3,0.2,0.4c1.3,1.1,7.3,3.8,10.1,5
	c-2.2,0-4.4,0.3-6.5,0.6c-1.2,0.2-3.6,0.8-4.9,0.9C57.7,77.2,55.9,75.2,54.2,73.4z M44.6,67.7c-2,0-3.6-1.1-4.5-2.7
	c0-0.1,0-0.1-0.1-0.2c-0.4-0.7-0.6-1.6-0.6-2.4c0-2.9,2.4-5.3,5.3-5.3c2.5,0,4.7,1.8,5.2,4.2c0,0,0,0.1,0,0.1c0.1,0.3,0.1,0.7,0.1,1
	C49.9,65.3,47.5,67.7,44.6,67.7z M71.2,75.5C71.3,75.5,71.3,75.6,71.2,75.5c0.3,0.5,0.5,0.7,0.7,1c-0.1,0-0.1-0.1-0.2-0.1
	c-0.2-0.1-0.4-0.2-0.5-0.4c-0.1-0.2-0.3-0.3-0.5-0.5c-0.2-0.1-0.4-0.2-0.5-0.3c-0.3-0.1-0.6-0.1-0.6-0.1c0,0,0,0,0,0c0,0,0,0,0,0
	c0,0,0.2,0.2,0.4,0.4c0.3,0.2,0.6,0.4,1.1,0.6c0.2,0.1,0.4,0.2,0.5,0.4c0.1,0.2,0.2,0.3,0.4,0.4c0,0,0.1,0.1,0.1,0.1
	c0,0,0,0.1,0,0.1c-1.7-0.7-5.7-2.4-8.4-3.8c0.4,0.1,0.7,0.1,1.1,0.2c1,0.3,2,0.5,3,0.8c1,0.3,1.9,0.5,2.9,0.8
	C70.8,75.4,71,75.4,71.2,75.5z M92.6,73.8c0.3,0.2,0.5,0.4,0.6,0.8c0,0.2,0,0.5-0.2,0.7c-1.1,1.4-5.5,2.5-12,3.1c0-0.1,0-0.2,0-0.2
	c0.1,0,0.3,0,0.5-0.1c0.2-0.1,0.4-0.2,0.7-0.3c0.2-0.1,0.5-0.2,0.8-0.2c0.6,0,1.2-0.1,1.6-0.2c0.4-0.1,0.7-0.3,0.7-0.3c0,0,0,0,0,0
	c0,0,0,0,0,0c0,0-0.3-0.1-0.8,0c-0.4,0-1,0.2-1.6,0.4c-0.3,0.1-0.6,0.2-0.9,0.2c-0.1,0-0.3,0-0.4,0c-0.1,0-0.2,0.1-0.3,0.1
	c-0.1,0.1-0.3,0.2-0.4,0.2c0,0,0-0.1,0-0.1C82.9,76.5,90.4,72.8,92.6,73.8z M80.1,73.8c0.1-0.2,0.3-0.3,0.4-0.5
	c-0.1,0.1-0.1,0.2-0.1,0.3c-0.1,0.3-0.2,0.5-0.4,0.7c-0.2,0.2-0.3,0.4-0.4,0.6c0,0.1,0,0.2,0,0.3c0,0.1,0,0.2,0.1,0.3
	c0.1,0.1,0.1,0.1,0.1,0.1c0,0,0.1,0,0.1,0c0,0,0,0,0,0c0,0,0,0,0,0c0,0,0,0,0,0c0,0-0.1-0.1,0-0.1c0,0,0.1-0.2,0.2-0.3
	c0.1-0.2,0.2-0.4,0.2-0.6c0.1-0.3,0.2-0.5,0.4-0.6c0.4-0.4,0.7-0.8,0.9-1.1c0.2-0.4,0.3-0.6,0.3-0.6c0,0,0,0,0,0c0,0,0,0,0,0
	c0,0-0.3,0.1-0.6,0.4c-0.1,0-0.1,0.1-0.2,0.2c0.5-0.9,0.9-1.9,1.2-2.6c0.1-0.2,0.2-0.5,0.3-0.8c0.4-1.2,1.3-4.1,2.3-4.1
	c0.4,0.1,1.9,1.1,2.1,1.4c0.3,0.7-0.3,1.6-0.9,2.4c-0.6,0.8-1.3,1.4-2.1,2.1c-0.9,0.8-1.8,1.6-2.5,2.6c-0.2,0.4-0.4,0.7-0.6,1
	c-0.3,0.5-0.5,0.9-0.9,1.3c-0.2-0.2-0.4-0.4-0.6-0.5C79.4,74.7,79.7,74.3,80.1,73.8z M76.3,68l-0.1-1c-0.1-1.1-0.2-2.8-0.1-3.5
	c0.9-0.3,1.7-0.2,2.4,0.2c0.2,0.1,0.4,0.8,0,3.9l0,0.3c-0.2,2-1.2,5.8-1.4,6.4c0,0,0,0,0,0c-0.1,0-0.1,0-0.2,0c0-0.1,0-0.1,0.1-0.2
	c0-0.2,0-0.5,0-0.7c-0.1-0.3,0-0.6,0.1-0.8c0.2-0.6,0.2-1.1,0.2-1.6c0-0.4-0.1-0.7-0.1-0.7c0,0,0,0,0,0c0,0,0,0,0,0
	c0,0-0.2,0.3-0.2,0.7c-0.1,0.4-0.1,1,0,1.6c0.1,0.3,0,0.6-0.1,0.8c-0.1,0.3-0.1,0.5-0.1,0.7c0,0.1,0,0.1,0,0.2c-0.1,0-0.1,0-0.2,0
	c0,0-0.1,0-0.1,0c0-0.6,0-1.3,0-1.9C76.3,70.9,76.4,69.4,76.3,68z M70.7,69.9c-0.1-0.3-0.3-0.6-0.5-0.8c-0.5-0.8-1-1.7-0.8-2.2
	c0.1-0.3,0.7-0.5,1.1-0.6l0.5-0.1c0.3-0.1,0.6-0.2,0.6-0.2c0.1,0.1,0.3,0.6,0.4,0.8c0.2,0.4,0.3,0.9,0.4,1.5
	c0.1,0.4,0.2,0.9,0.3,1.3c0.2,0.5,0.4,1,0.6,1.5c0.2,0.4,0.4,0.9,0.5,1.3c0,0-0.1-0.1-0.1-0.1c-0.2-0.1-0.3-0.3-0.5-0.4
	C72.4,71.2,71.6,70.6,70.7,69.9C70.7,69.9,70.7,69.9,70.7,69.9z M72.5,72.6c0.2,0.1,0.3,0.3,0.5,0.4c0.6,0.5,1,0.8,1.1,1.2
	c0,0,0,0.1,0,0.1c0,0.1,0,0.2,0,0.3c-0.3,0.6-0.9,0.5-2.3,0c-0.3-0.1-0.6-0.2-0.9-0.3c-1-0.3-1.9-0.5-2.9-0.8c-1-0.3-2-0.6-3-0.8
	c-0.4-0.1-0.9-0.2-1.3-0.3c-0.5-0.1-1.1-0.2-1.6-0.4c-0.5-0.2-1-0.4-1.4-0.7c-0.6-0.3-1.3-0.6-2-0.8c-3.6-1-6.8-2.4-9.3-4.2
	c0.1-0.2,0.3-0.3,0.4-0.5c0,0,0,0.1,0.1,0.2c0.1,0.1,0.2,0.2,0.3,0.2c0.1,0.1,0.2,0.2,0.4,0.2c0.1,0.1,0.3,0.1,0.5,0.2
	c0.2,0,0.4,0,0.6,0c0.4,0,0.8,0.1,1.2,0.2c0.8,0.2,1.6,0.4,2.2,0.4c0.6,0,1,0,1,0c0,0,0,0,0,0c0,0,0,0,0,0c0,0-0.4-0.2-1-0.4
	c-0.6-0.2-1.4-0.2-2.2-0.2c-0.4,0-0.8,0-1.2-0.2c-0.3-0.2-0.7-0.3-0.9-0.3c-0.1,0-0.3-0.1-0.4-0.1c-0.1,0-0.2-0.1-0.3-0.1
	c-0.1,0-0.1-0.1-0.2-0.1c0,0,0,0,0,0c0.1-0.1,0.2-0.3,0.3-0.4c5,0,10.9,0.4,16.3,3.2C68.8,69.8,70.9,71.1,72.5,72.6z M65.5,58.3
	c2.4-0.2,4.9-0.2,7.2-0.2c2.5,0,3.5,0.6,3.6,2.5c-1,0-2-0.1-3.1-0.2c-1.2-0.1-2.4-0.2-3.6-0.2c-2.7,0-5.4,0.5-7.6,1
	c-1.4,0.3-2.7,0.6-3.8,1c-2.4,0.7-4.4,1.2-7.3,1.3c0-0.3,0.1-0.6,0.1-1c0.1,0,0.3,0.1,0.5,0.1c0.3,0,0.7,0,1,0c0.4-0.1,0.8,0,1.2,0
	c0.4,0.1,0.8,0.1,1.2,0.1c0.4,0,0.8-0.1,1.1-0.2c0.3-0.1,0.5-0.2,0.7-0.3c0.2-0.1,0.2-0.2,0.2-0.2c0,0,0,0,0,0c0,0,0,0,0,0
	c0,0-0.1,0-0.3,0c-0.2,0-0.4,0.1-0.7,0.1c-0.3,0-0.6,0.1-1,0.1c-0.4,0.1-0.8,0.1-1.2,0.2c-0.4,0.1-0.8,0.1-1.2,0
	c-0.4-0.1-0.7-0.1-1-0.1c-0.2,0-0.3,0-0.5,0c0-0.2,0-0.5-0.1-0.7C55.5,59.3,60.4,58.7,65.5,58.3z M57.8,51c1.2-1.4,2.2-2.4,2.5-2.8
	c3.2-3.2,7-6.4,11.4-5.9c0.2,0,0.3,0,0.5,0c0.1,0,0.1,0,0.2,0c-0.3,0.1-0.5,0.3-0.8,0.4c-0.7,0.3-1.4,0.7-2.1,1.2
	c-1,0.8-1.9,1.7-2.6,2.8c-1.3,1.8-2.9,3.5-5.2,5.4c-1.7,1.5-3.3,2.8-5.2,4.2c-0.6,0.5-1.4,0.9-2.3,1.5c-1.3,0.8-2.7,1.6-3.6,2.4
	c-0.1-0.2-0.2-0.4-0.3-0.6c0.1,0,0.2-0.1,0.4-0.2c0.1-0.1,0.3-0.2,0.4-0.3c0.1-0.1,0.3-0.3,0.4-0.4c0.3-0.3,0.6-0.5,0.9-0.7
	c0.4-0.2,0.7-0.4,1-0.6c0.3-0.2,0.6-0.4,0.8-0.6c0.2-0.2,0.4-0.3,0.6-0.4c0.1-0.1,0.2-0.2,0.2-0.2c0,0,0,0,0,0c0,0,0,0,0,0
	c0,0-0.1,0-0.3,0c-0.2,0-0.5,0.1-0.7,0.2c-0.3,0.1-0.6,0.3-0.9,0.6c-0.3,0.2-0.6,0.5-0.9,0.8c-0.3,0.3-0.6,0.6-0.9,0.7
	c-0.3,0.2-0.6,0.3-0.9,0.5c-0.1,0.1-0.2,0.2-0.3,0.2c0,0,0,0,0,0C51.6,57.9,55.1,53.9,57.8,51z M49.3,53.6c0.6-1,1.2-2,1.7-3
	c0.3-0.8,0.6-1.5,0.9-2.2c0.6-1.4,1.1-2.8,1.8-4.1c0.9-1.8,2.5-4.3,4.2-5.4c1.2-0.8,3.9-1.5,5.4-1.1c-0.5,0.6-1.2,1-2,1.4
	c-1,0.6-2.1,1.2-2.8,2.2c-1.1,1.7-1.9,3.6-2.7,5.4l-0.3,0.7c-0.9,2.1-2,4.2-3,6c-0.4,0.7-1.1,1.5-1.8,2.2c-0.7,0.8-1.4,1.5-1.8,2.2
	c-0.3-0.3-0.6-0.5-0.9-0.7c0.2,0,0.3-0.1,0.5-0.2c0.2-0.1,0.4-0.4,0.6-0.7c0.2-0.3,0.4-0.5,0.6-0.8c0.5-0.5,0.9-1,1.1-1.4
	c0.2-0.4,0.3-0.8,0.3-0.8c0,0,0,0,0,0c0,0,0,0,0,0c0,0-0.3,0.2-0.7,0.5c-0.4,0.4-0.7,0.9-1,1.5c-0.1,0.3-0.3,0.6-0.6,0.7
	c-0.3,0.2-0.5,0.3-0.6,0.5c-0.2,0.2-0.3,0.3-0.4,0.4c0,0-0.1,0-0.1,0.1c-0.1,0-0.2-0.1-0.2-0.1C48,55.8,48.6,54.7,49.3,53.6z
	 M44,56.2c-0.3-0.6-0.7-1.1-1-1.7c-0.8-1.2-1.5-2.4-1.9-3.6c-0.4-1.2-0.5-2.4-0.7-3.7c-0.1-0.9-0.2-1.9-0.5-2.8
	c-0.6-2.7-1.3-6,0.1-7.7c0.6-0.7,1.6-1.1,3.1-1.1c0,0.5-0.1,0.8-0.1,1.2c-0.1,1-0.3,1.8,0.6,3.4c0.9,1.6,1.3,3.1,1.7,5.4
	c0.5,3,0.9,7.3-0.2,10.6c-0.2,0-0.3,0-0.5,0c0,0,0,0-0.1,0c0-0.1,0-0.4,0-0.7c0-0.2-0.1-0.5-0.2-0.8c-0.1-0.3-0.2-0.6-0.2-0.9
	c0.1-0.7,0.1-1.3,0-1.7c-0.1-0.5-0.3-0.8-0.3-0.8c0,0,0,0,0,0c0,0,0,0,0,0c0,0-0.1,0.3-0.1,0.8c0,0.5,0,1.1,0.2,1.7
	c0.1,0.3,0.2,0.6,0.2,0.9c0,0.3,0,0.6,0.1,0.8c0.1,0.3,0.2,0.5,0.3,0.6C44.2,56.2,44.1,56.2,44,56.2C44,56.2,44,56.2,44,56.2z
	 M37.4,56.2c-0.1-0.1-0.3-0.2-0.6-0.4c-5.1-3.8-7.8-6.5-8-8c0-0.2-0.1-0.5-0.3-1.2c-0.3-1-1-3.8-0.9-4.7c0.5,0.4,1.3,1.5,1.8,2.3
	c1.1,1.5,1.5,2.1,2,2.2c2.2,0.8,5.7,3.9,7,6.1c0.2,0.4,0.5,0.9,0.7,1.3c0.2,0.4,0.4,0.8,0.6,1.1c0.3,0.6,0.7,1.1,1.1,1.6
	c0.2,0.2,0.3,0.5,0.5,0.7c-0.2,0.1-0.3,0.2-0.5,0.4c-0.1-0.1-0.2-0.3-0.3-0.4c-0.2-0.2-0.4-0.4-0.6-0.5c-0.3-0.2-0.5-0.4-0.6-0.7
	c-0.2-0.3-0.4-0.5-0.6-0.8c-0.2-0.2-0.4-0.4-0.6-0.6c-0.4-0.3-0.7-0.4-0.7-0.4c0,0,0,0,0,0c0,0,0,0,0,0c0,0,0.2,0.3,0.5,0.7
	c0.3,0.4,0.7,0.8,1.3,1.2c0.3,0.2,0.5,0.4,0.7,0.7c0.1,0.1,0.2,0.3,0.2,0.4c0.1,0.1,0.2,0.2,0.3,0.3c0.2,0.1,0.3,0.2,0.4,0.3
	c-0.1,0.1-0.2,0.1-0.2,0.2c-0.4-0.3-0.8-0.5-1.3-0.8C38.4,56.8,37.8,56.5,37.4,56.2z M36,61.1c-1.9,0-3.8-0.1-5.7,0
	c-1,0.1-2.1,0-3.2,0c-1.9-0.1-3.8-0.1-5.4,0.3c0-0.3,0.2-0.7,0.5-1c1.4-1.8,5.3-3,7.1-2.8c4.5,0.2,6.6,1,9.5,2.3
	c0,0.1,0,0.1-0.1,0.2c-0.1,0-0.2,0-0.3-0.1c-0.2,0-0.5-0.1-0.8,0c-0.3,0-0.6,0-0.9-0.2c-0.3-0.1-0.6-0.2-0.9-0.3
	c-0.3-0.1-0.6-0.1-0.9,0c-0.5,0-0.8,0.1-0.8,0.1c0,0,0,0,0,0c0,0,0,0,0,0c0,0,0.3,0.2,0.8,0.2c0.2,0.1,0.5,0.1,0.8,0.1
	c0.3,0,0.6,0.1,1,0c0.3,0,0.7,0,1,0.2c0.1,0.1,0.3,0.1,0.4,0.2c0.1,0,0.3,0,0.4,0c0.1,0,0.1,0,0.2,0c-0.1,0.2-0.2,0.5-0.2,0.7
	C37.6,61.2,36.8,61.2,36,61.1z M32.6,66.9c-1.2,0.1-2.3,0.2-3.1,0.4c-2.8,0.7-6.4,2.1-8.2,4.8c-0.2-0.7-0.1-1.4,0.2-2.2
	c1-2.3,4-4.2,5.8-4.6c3.1-0.8,6.8-1.3,10.1-1.7l1.1-0.1c0,0.3,0.1,0.6,0.2,0.8c-0.1,0-0.2,0-0.2,0c-0.2,0-0.5,0-0.8,0
	c-0.3,0.1-0.6,0.1-0.9,0c-0.3-0.1-0.6-0.1-1-0.1c-0.3,0-0.6,0.1-0.8,0.2c-0.2,0.1-0.4,0.2-0.5,0.3c-0.1,0.1-0.2,0.1-0.2,0.1
	c0,0,0,0,0,0c0,0,0,0,0,0c0,0,0.1,0,0.2,0c0.1,0,0.3,0,0.6-0.1c0.2,0,0.5,0,0.8-0.1c0.3-0.1,0.6-0.1,0.9-0.2c0.3-0.1,0.6-0.1,0.9,0
	c0.3,0.1,0.6,0.1,0.8,0.1c0.1,0,0.3,0,0.4,0c0.1,0.2,0.1,0.3,0.2,0.5C37.7,66.3,35,66.6,32.6,66.9z M36.4,72.7
	c-0.9,0.8-1.8,1.6-2.5,2.3l-0.4,0.5c-1.2,1.3-2.5,2.8-3.6,4.3c-0.7,1-1,1.8-1.3,2.8c-0.1,0.4-0.2,0.9-0.3,1.3c0,0.2-0.1,0.4-0.1,0.6
	c-0.3-0.3-0.6-0.8-0.8-1.4c-0.6-1.8-0.7-4.1-0.4-4.8c0.4-0.9,3.3-3.9,4.6-5.3c0.3-0.3,0.6-0.6,0.8-0.8c1.6-1.7,3.4-2.8,5.3-4
	c0.7-0.4,1.5-0.9,2.2-1.4c0.1,0.1,0.3,0.3,0.4,0.4c-0.1,0-0.2,0.1-0.2,0.1c-0.1,0.1-0.2,0.2-0.4,0.3c-0.2,0.2-0.5,0.4-0.9,0.5
	c-0.6,0.3-1.2,0.6-1.5,1c-0.4,0.4-0.5,0.7-0.5,0.7c0,0,0,0,0,0c0,0,0,0,0,0c0,0,0.3-0.1,0.8-0.4c0.4-0.3,1-0.6,1.4-1.1
	c0.2-0.2,0.5-0.4,0.8-0.5c0.3-0.1,0.6-0.2,0.8-0.3c0,0,0,0,0.1,0c0,0,0.1,0.1,0.1,0.1C40.3,69.4,38.2,71.1,36.4,72.7z M42.3,78.8
	c-0.3,0.9-0.6,1.8-0.8,2.6l-0.3,1.4c-0.4,1.7-0.8,3.4-1.3,5c-0.1,0.5-0.4,1-0.7,1.5c-0.3,0.5-0.5,1-0.7,1.6
	c-0.1,0.4-0.1,0.8-0.2,1.1c0,0.5-0.1,0.7-0.2,1c-2-3.3,0.2-10.3,0.9-12.7c0.2-0.7,0.4-1.4,0.6-2.1c0.4-1.3,0.7-2.7,1.3-4
	c0.7-1.6,1.6-3.8,2-5.8c0.1,0,0.3,0.1,0.4,0.1c0,0.1,0,0.2,0,0.3c0,0.1,0,0.2,0,0.3c0,0.1,0.1,0.3,0,0.4c0,0.1,0,0.3,0,0.4
	c0,0.1-0.1,0.3-0.2,0.4c-0.3,0.5-0.6,1-0.7,1.5c-0.1,0.4-0.1,0.8-0.1,0.8c0,0,0,0,0,0c0,0,0,0,0,0c0,0,0.2-0.2,0.4-0.6
	c0.2-0.4,0.5-0.9,0.6-1.5c0-0.3,0.1-0.6,0.2-0.9c0.1-0.3,0.2-0.6,0.1-0.8c0-0.1,0-0.1,0-0.2c0.1,0,0.2,0,0.3,0
	C44.1,72.9,43.1,76.1,42.3,78.8z M62.1,88.1c-0.1,0-0.4-0.1-1.5-1.3c-1.1-1.3-2.2-2.2-3.6-3.2c-1.8-1.3-3.2-2.9-4.6-4.7
	c-0.4-0.5-0.8-1-1.2-1.4c-0.2-0.2-0.4-0.5-0.6-0.7c-1.6-1.8-3.1-3.5-4.2-8.4c0.1,0,0.2-0.1,0.4-0.1c0.1,0.1,0.1,0.3,0.2,0.4
	c0.1,0.2,0.3,0.4,0.6,0.6c0.3,0.2,0.5,0.5,0.6,0.8c0.3,0.6,0.8,1.2,1.2,1.5c0.4,0.4,0.7,0.5,0.7,0.5c0,0,0,0,0,0c0,0,0,0,0,0
	c0,0-0.1-0.4-0.4-0.8c-0.3-0.4-0.7-0.9-1.3-1.4c-0.3-0.2-0.5-0.5-0.6-0.8c-0.1-0.3-0.3-0.6-0.5-0.7c-0.1-0.1-0.2-0.2-0.3-0.3
	c0.2-0.1,0.4-0.2,0.6-0.3c1,1.6,2.6,3.1,4,4.4c0.7,0.6,1.3,1.2,1.8,1.8c2.1,2.1,4.2,4.7,6.1,7.3c1,1.4,2.9,4.7,2.7,6.1
	C62.2,88,62.1,88.1,62.1,88.1z M63.1,81.9c-0.7,0.2-1.3,0.3-1.8,0.4c-0.4-0.6-0.7-1.1-0.9-1.4c-0.2-0.2-0.3-0.4-0.5-0.7
	c1.4-0.2,3.5-0.6,4.4-0.7c2.3-0.4,4.7-0.6,7.2-0.6h0.2c0,0,0,0.1,0,0.1c0,0.2,0,0.3,0,0.5c-0.1,0-0.2-0.1-0.3,0c-0.1,0-0.3,0-0.4,0
	c-0.1,0-0.2,0.1-0.4,0.2c-0.2,0.1-0.5,0.2-0.8,0.2c-0.6,0-1.1,0.2-1.4,0.4c-0.4,0.2-0.6,0.4-0.6,0.4c0,0,0,0,0,0c0,0,0,0,0,0
	c0,0,0.3,0.1,0.7,0c0.4-0.1,0.9-0.3,1.4-0.6c0.2-0.1,0.5-0.2,0.7-0.2c0.1,0,0.2,0,0.4,0c0.1,0,0.2,0,0.3,0c0.1,0,0.2,0,0.2-0.1
	c0,0,0.1,0,0.1,0c0,0.2,0.1,0.4,0.2,0.6C70,80.3,65.9,81.2,63.1,81.9z M71.8,83.8c-0.4,0.4-0.8,0.9-1,1.2c-0.8,1.3-1.3,2.5-1.7,3.8
	c-0.6,1.8-1.2,3.6-2.2,5.2c-0.6,0.9-1.1,1.3-1.7,1.4c-0.6,0.1-1.2-0.3-2.1-1.1c-0.8-0.8-0.8-0.8-0.3-1.8c0.5-0.9,0.9-1.7,1.4-2.4
	c2.1-3.3,5.3-6.3,8.5-8.2c0.1,0.1,0.1,0.1,0.2,0.2c-0.1,0-0.3,0.1-0.6,0.3c-0.1,0.1-0.2,0.1-0.3,0.2c-0.1,0.1-0.2,0.2-0.2,0.3
	c-0.1,0.3-0.4,0.5-0.6,0.6c-0.5,0.3-0.9,0.7-1.2,1c-0.3,0.3-0.5,0.6-0.5,0.6c0,0,0,0,0,0c0,0,0,0,0,0c0,0,0.3-0.1,0.7-0.3
	c0.1-0.1,0.2-0.1,0.3-0.2c0.1-0.1,0.2-0.2,0.3-0.3c0.2-0.2,0.4-0.4,0.5-0.7c0.2-0.3,0.4-0.5,0.6-0.6c0.2-0.1,0.5-0.3,0.6-0.4
	c0.2-0.2,0.3-0.4,0.4-0.5c0,0,0.1,0.1,0.1,0.1C73,82.6,72.2,83.4,71.8,83.8z M75.1,96.1c-0.3,1.1-0.6,1.1-2.2,0.9
	c-0.2,0-0.5-0.1-0.8-0.1c-0.1-1.9,0.2-3.4,0.4-5.4c0.1-0.5,0.1-1,0.2-1.5c0.2-1.2,0.4-1.9,0.8-3l0.1-0.4c0.3-0.9,0.6-1.8,0.9-2.9
	l0.2-0.5c0.1,0,0.1,0,0.2,0.1c0,0,0,0.1-0.1,0.2c-0.1,0.1-0.1,0.3-0.2,0.5c-0.1,0.2-0.2,0.4-0.2,0.7c0,0.1,0,0.3-0.1,0.4
	c0,0.1-0.1,0.3-0.2,0.4c-0.2,0.6-0.4,1.2-0.4,1.7c0,0.5,0.1,0.8,0.1,0.8c0,0,0,0,0,0c0,0,0,0,0,0c0,0,0.2-0.3,0.3-0.7
	c0.2-0.4,0.2-1.1,0.2-1.7c0-0.3,0.1-0.6,0.2-0.9c0.1-0.1,0.2-0.2,0.2-0.4c0-0.1,0-0.1,0.1-0.2c-0.2,1.4-0.1,3.1,0.1,4.7
	c0.1,1,0.1,2,0.1,2.9v0.3C75.3,93.6,75.5,94.8,75.1,96.1z M75.1,83.9c0-0.2,0-0.3,0-0.4c0-0.1,0-0.1,0-0.2c0.1,0,0.1,0,0.2,0.1
	C75.2,83.6,75.2,83.8,75.1,83.9z M82.1,86.4c2.1,1.9,4.3,3.8,5.1,6.5c0.2,0.6,0.2,1,0,1.3c-0.2,0.3-0.6,0.5-1.2,0.7
	c-0.6,0.2-0.9,0-1.5-0.8c-0.2-0.2-0.3-0.4-0.5-0.5c-0.5-0.4-0.9-0.9-1.4-1.3c-1.1-1.1-2.3-2.2-3.2-3.4c-1.3-1.7-1.5-3.2-1.9-5.3
	l0-0.1c0.2,0,0.3-0.1,0.5-0.2c0,0.1,0.1,0.3,0.2,0.4c0.1,0.2,0.2,0.4,0.4,0.6c0.2,0.2,0.3,0.5,0.4,0.8c0.1,0.3,0.2,0.6,0.4,0.8
	c0.1,0.2,0.3,0.4,0.4,0.6c0.2,0.3,0.5,0.6,0.5,0.6l0,0c0,0,0,0,0,0c0,0,0,0,0,0c0,0,0-0.3-0.2-0.8c-0.1-0.2-0.2-0.5-0.3-0.7
	c-0.2-0.2-0.4-0.5-0.6-0.7c-0.2-0.2-0.3-0.5-0.4-0.8c0-0.3-0.1-0.5-0.3-0.7c-0.1-0.1-0.2-0.2-0.3-0.3c0.2-0.1,0.3-0.2,0.4-0.2
	C79.6,84.2,80.9,85.3,82.1,86.4z M93.4,84.7c-1.2,0.7-3.1,0.8-4,0.3c-0.4-0.2-4.9-2.3-6-2.5c-0.9-0.2-2.2-0.3-3.2-0.8
	c0,0,0,0.1,0,0.1c0,0,0,0,0,0c0.1,0,0.2-0.1,0.4-0.1c0.1,0,0.3-0.1,0.4-0.1c0.3,0,0.6,0,0.8,0.1c0.3,0.1,0.6,0.2,0.8,0.2
	c0.3,0.1,0.5,0.1,0.7,0.1c0.2,0,0.4,0,0.5,0.1c0.1,0,0.2,0,0.2,0c0,0,0,0,0,0c0,0,0,0,0,0c0,0-0.1-0.1-0.2-0.1
	c-0.1-0.1-0.3-0.2-0.5-0.3c-0.4-0.2-1-0.3-1.6-0.2c-0.3,0-0.6,0-0.8-0.1c-0.2-0.1-0.4-0.2-0.6-0.2c0.1-0.1,0.1-0.3,0.2-0.4
	c1,0,3.1,0.6,4.8,1c1.3,0.3,2.5,0.6,3.1,0.7c0.3,0,0.8,0,1.4,0c1.4,0,3.5-0.1,4.2,0.6c0.1,0.1,0.2,0.3,0.2,0.5
	C94.3,83.9,94,84.3,93.4,84.7z"/>
</svg>
