<svg xmlns="http://www.w3.org/2000/svg" width="116" height="99.104" viewBox="0 0 116 99.104">
  <g id="Group_41986" data-name="Group 41986" transform="translate(0 0)">
    <path id="Path_100746" data-name="Path 100746" d="M80.766,34.638c-3.693,0-7.539,0-11.232.308-6.154.615-12.309,1.231-18.309,3.231A10.349,10.349,0,0,0,52.918,37.1a25.765,25.765,0,0,0,3.693-2.308c3.077-2.308,5.385-4.308,8.154-6.616A46.306,46.306,0,0,0,72.92,19.56a22.8,22.8,0,0,1,3.693-4,13.042,13.042,0,0,1,2.923-1.539,14.074,14.074,0,0,0,2.616-1.385c.154-.154.308-.308.308-.462a.925.925,0,0,0-.154-.615A2.886,2.886,0,0,0,80,10.482h-.615C72,9.559,65.688,14.79,60.611,20.021c-.462.462-2,2.154-3.846,4.308-3.385,3.846-8.308,9.232-10.924,12a12.255,12.255,0,0,1,2.308-2.616,20.456,20.456,0,0,0,2.923-3.693c1.539-2.923,3.231-6,4.616-9.385l.462-1.077A80.547,80.547,0,0,1,60.3,11.405c.769-1.231,2.154-2,3.693-2.923S67.227,6.636,68.15,5.1a.811.811,0,0,0-.308-1.077c-2.769-1.846-8.616-.154-10.77,1.231C54.3,7.1,51.687,10.944,50.149,14.175c-1.077,2.154-2,4.308-2.923,6.462-.462,1.077-.923,2.308-1.385,3.385a25.246,25.246,0,0,1-2.462,4.462,34.019,34.019,0,0,0-2.769,5.231c-.308-.154-.615-.154-.769-.308,1.692-5.385,1.077-12,.308-16.771a25.591,25.591,0,0,0-2.769-8.77,5.885,5.885,0,0,1-.769-4.308A14.959,14.959,0,0,0,36.763.789.727.727,0,0,0,35.994.02c-3.077-.154-5.385.615-6.77,2.308-2.616,3.077-1.385,8.616-.462,13.078a38.653,38.653,0,0,1,.615,4.154,40.958,40.958,0,0,0,1.077,6,24.644,24.644,0,0,0,3.077,6,14.046,14.046,0,0,1,1.231,2l-1.385.462a5.4,5.4,0,0,1-.769-1.231c-.462-.769-1.077-1.539-1.539-2.308-.308-.615-.615-1.077-.923-1.692-.308-.769-.769-1.385-1.077-2.154-2.154-3.693-7.847-8.616-11.539-10a21.176,21.176,0,0,1-2.308-2.923c-2.154-3.077-3.385-4.616-4.616-4.308-1.539.615-1.077,3.385.615,9.385a6.236,6.236,0,0,0,.462,1.539c.462,3.693,7.231,9.078,12.924,13.386a9.423,9.423,0,0,0,.923.615,19.619,19.619,0,0,0,2.616,1.539,16.783,16.783,0,0,1,1.692.923c-.154.154-.308.462-.462.615a39.481,39.481,0,0,0-15.232-3.693c-3.077-.154-9.693,1.692-12.309,4.923a4.256,4.256,0,0,0-.923,3.693q0,.231.462.462a.537.537,0,0,1,.308.154h.308c2.462-.923,5.693-.769,8.77-.769,1.846,0,3.539.154,5.077,0a80.46,80.46,0,0,1,8.616,0h3.539v.462l-1.692.308a133.891,133.891,0,0,0-15.694,2.769c-3.539.923-8.308,4.154-10,8a6.71,6.71,0,0,0,.308,6.154.824.824,0,0,0,.615.462.687.687,0,0,0,.615-.462c2.154-4.462,8-6.924,12.463-8a30.675,30.675,0,0,1,4.616-.615c3.077-.308,6.308-.615,8.77-1.846A16.217,16.217,0,0,0,26.3,50.485a33.461,33.461,0,0,0-8.462,6.462,9.121,9.121,0,0,1-1.231,1.231C13.376,61.409,9.992,65.1,9.222,66.64c-.769,1.692-.615,5.693.462,8.616.462,1.231,1.231,2.923,2.616,3.539h.308a.565.565,0,0,0,.462-.154c.462-.308.615-.923.923-2.462.154-.615.308-1.385.462-2a9.773,9.773,0,0,1,1.692-3.846c1.692-2.154,3.693-4.462,5.539-6.462L22.3,63.1a41.993,41.993,0,0,1,3.693-3.385c2.769-2.462,6-5.231,7.231-8.308.154,0,.154.154.308.154a49.024,49.024,0,0,1-3.077,8.77,30.1,30.1,0,0,0-2,6.308c-.308,1.077-.615,2.154-.923,3.077-2.154,6.924-4.616,16.617-.769,21.54a.8.8,0,0,0,.615.308c.154,0,.308,0,.308-.154a3.208,3.208,0,0,0,1.692-3.231,4.26,4.26,0,0,1,.154-1.385c.308-.769.615-1.385.923-2.154a7.837,7.837,0,0,0,1.077-2.616c.615-2.616,1.385-5.231,2-7.847l.462-2.154c.308-1.231.769-2.462,1.077-3.846,1.231-4.154,2.923-9.232,2.769-16H38.3c1.846,8.154,4.308,10.924,6.77,13.693a6.692,6.692,0,0,1,.923,1.077A26.787,26.787,0,0,0,47.841,69.1a42.7,42.7,0,0,0,7.385,7.539,25.532,25.532,0,0,1,5.231,4.616c1.077,1.231,2.308,2.462,3.385,2.462H64.3c.154,0,.154-.154.308-.154.154-.308.462-.462.769-.769a2.9,2.9,0,0,0,.308-1.231c.308-1.846-.923-4.616-2.154-6.924a.151.151,0,0,0-.154-.154c-.154-.154-.154-.308-.308-.462l-.462-.923c-.615-.923-1.077-1.692-1.385-2.154-.308-.308-.462-.615-.769-.923l-.154-.154-.154-.154c-.154-.154-.308-.308-.308-.462-.154-.154-.308-.308-.308-.462a117.624,117.624,0,0,0-7.847-9.231c-.923-.923-1.846-1.846-2.923-2.769a38.858,38.858,0,0,1-6-6.462c.154-.154.308-.154.462-.308A48.8,48.8,0,0,0,58.3,56.947a21.8,21.8,0,0,1,2.769,1.231c.154,0,.154.154.308.154s.154.154.308.154.154,0,.308.154a1.166,1.166,0,0,1,.615.308c1.077.308,2.154.769,3.231,1.077.308,0,.462.154.769.154h.154A2.9,2.9,0,0,1,68,60.486c1.539.462,3.077.769,4.616,1.231s2.923.769,4.462,1.231c.154,0,.308.154.615.154h.462c.154,0,.154,0,.308.154.154,0,.462.154.615.154.308,0,.462.154.615.154s.308.154.462.154H82.3c.154-.154.462-.154.615-.308l.923-.923V61.1a.537.537,0,0,0-.154-.308V60.64a.151.151,0,0,0-.154-.154v-.154c-.154-.154-.154-.308-.308-.462s-.154-.308-.308-.462-.462-.308-.615-.615l-.154-.154L82,58.486l-.308-.308-.154-.154c-.308-.154-.462-.462-.769-.615a25.249,25.249,0,0,0-3.846-2.923c-.154,0-.154-.154-.308-.154-.154-.154-.308-.154-.462-.308a.331.331,0,0,1-.308-.308c-.154-.154-.308-.154-.462-.308s-.462-.154-.615-.308c-.154,0-.308-.154-.462-.308H74A30.511,30.511,0,0,0,70.919,51.1c-7.693-3.846-15.847-4.923-23.079-5.077a46.005,46.005,0,0,0,10-2c1.846-.462,3.693-1.077,5.847-1.539a52.185,52.185,0,0,1,11.386-1.539c1.846,0,3.693.154,5.385.308,1.846.154,3.846.308,5.693.308a.727.727,0,0,0,.769-.769c.923-5.385-2.462-6.154-6.154-6.154M57.842,25.253c1.846-2.154,3.385-3.693,3.846-4.308,4.923-4.923,10.77-9.847,17.54-9.078H80.3c-.462.154-.769.462-1.231.615a13.5,13.5,0,0,0-3.231,1.846,17.783,17.783,0,0,0-4,4.308,44.207,44.207,0,0,1-8,8.308c-2.616,2.308-5.077,4.308-8,6.462-.923.769-2.154,1.385-3.539,2.308a43.191,43.191,0,0,0-5.539,3.693l-.462-.923c.154,0,.308-.154.615-.308.154-.154.462-.308.615-.462l.615-.615a8.455,8.455,0,0,1,1.385-1.077,13.532,13.532,0,0,0,1.539-.923,8.535,8.535,0,0,0,1.231-.923,3.219,3.219,0,0,1,.923-.615l.308-.308h-.462a2.853,2.853,0,0,0-1.077.308,3.633,3.633,0,0,0-1.385.923,9.954,9.954,0,0,0-1.385,1.231,4.242,4.242,0,0,1-1.385,1.077c-.462.308-.923.462-1.385.769-.154.154-.308.308-.462.308,2.308-1.846,7.693-8,11.847-12.616M44.764,29.407c.923-1.539,1.846-3.077,2.616-4.616.462-1.231.923-2.308,1.385-3.385.923-2.154,1.692-4.308,2.769-6.308C52.918,12.328,55.38,8.482,58,6.79,59.842,5.559,64,4.482,66.3,5.1a9.183,9.183,0,0,1-3.077,2.154,11.738,11.738,0,0,0-4.308,3.385,59.8,59.8,0,0,0-4.154,8.308L54.3,20.021a103.21,103.21,0,0,1-4.616,9.232,17.87,17.87,0,0,1-2.769,3.385,24.467,24.467,0,0,0-2.769,3.385,8.456,8.456,0,0,0-1.385-1.077c.308,0,.462-.154.769-.308a3.337,3.337,0,0,0,.923-1.077c.154-.462.615-.769.923-1.231a9.274,9.274,0,0,0,1.692-2.154,6.8,6.8,0,0,0,.462-1.231s-.462.308-1.077.769a8.623,8.623,0,0,0-1.539,2.308,1.627,1.627,0,0,1-.923,1.077c-.462.308-.769.462-.923.769l-.615.615a.151.151,0,0,0-.154.154c-.154,0-.154-.154-.308-.154a26.777,26.777,0,0,1,2.769-5.077M31.993,25.1a33.866,33.866,0,0,1-1.077-5.693,21.128,21.128,0,0,0-.769-4.308c-.923-4.154-2-9.232.154-11.847.923-1.077,2.462-1.692,4.77-1.692,0,.769-.154,1.231-.154,1.846a7.019,7.019,0,0,0,.923,5.231,24.009,24.009,0,0,1,2.616,8.308c.769,4.616,1.385,11.232-.308,16.309h-.923V32.176a4.756,4.756,0,0,0-.308-1.231,4.492,4.492,0,0,1-.308-1.385,7.341,7.341,0,0,0,0-2.616,3.713,3.713,0,0,0-.462-1.231,4.258,4.258,0,0,0-.154,1.231,8.069,8.069,0,0,0,.308,2.616,4.492,4.492,0,0,1,.308,1.385,3,3,0,0,0,.154,1.231,2.5,2.5,0,0,0,.462.923h-.462c-.462-.923-1.077-1.692-1.539-2.616A14.821,14.821,0,0,1,31.993,25.1m-3.077,9.693a10.09,10.09,0,0,1-2.308-1.385,9.112,9.112,0,0,0-.923-.615c-7.847-5.847-12-10-12.309-12.309a9.682,9.682,0,0,0-.462-1.846c-.462-1.539-1.539-5.847-1.385-7.231A17.7,17.7,0,0,1,14.3,14.944c1.692,2.308,2.308,3.231,3.077,3.385,3.385,1.231,8.77,6,10.77,9.385.308.615.769,1.385,1.077,2a16.783,16.783,0,0,0,.923,1.692,13.943,13.943,0,0,0,1.692,2.462c.308.308.462.769.769,1.077a2.7,2.7,0,0,0-.769.615c-.154-.154-.308-.462-.462-.615a4.079,4.079,0,0,0-.923-.769,2.068,2.068,0,0,1-.923-1.077c-.308-.462-.615-.769-.923-1.231l-.923-.923a4.258,4.258,0,0,0-1.077-.615s.308.462.769,1.077a7.88,7.88,0,0,0,2,1.846,3.6,3.6,0,0,1,1.077,1.077,1.166,1.166,0,0,1,.308.615l.462.462a2.124,2.124,0,0,1,.615.462c-.154.154-.308.154-.308.308-1.231-.615-2-1.077-2.616-1.385M24.3,40.946a83.412,83.412,0,0,0-8.77.154c-1.539.154-3.231,0-4.923,0a29.188,29.188,0,0,0-8.308.462,2.448,2.448,0,0,1,.769-1.539c2.154-2.769,8.154-4.616,10.924-4.462A33.985,33.985,0,0,1,28.608,39.1c0,.154,0,.154-.154.308a.565.565,0,0,1-.462-.154,3.283,3.283,0,0,0-1.231,0,2.286,2.286,0,0,1-1.385-.308l-1.385-.462a2.135,2.135,0,0,0-1.385,0,4.258,4.258,0,0,0-1.231.154,2.368,2.368,0,0,0,1.231.308,3,3,0,0,0,1.231.154,5.129,5.129,0,0,0,1.539,0,2.774,2.774,0,0,1,1.539.308c.154.154.462.154.615.308h.923a2.852,2.852,0,0,0-.308,1.077,33.464,33.464,0,0,1-3.846.154m-5.231,8.77a33.083,33.083,0,0,0-4.77.615c-4.308,1.077-9.847,3.231-12.616,7.385a5.249,5.249,0,0,1,.308-3.385c1.539-3.539,6.154-6.462,8.924-7.077a125.914,125.914,0,0,1,15.54-2.616l1.692-.154a2.9,2.9,0,0,0,.308,1.231H26.916a2.135,2.135,0,0,1-1.385,0,4.743,4.743,0,0,0-1.539-.154,2.9,2.9,0,0,0-1.231.308,3.363,3.363,0,0,0-.769.462.477.477,0,0,1-.308.154h.308a2.707,2.707,0,0,0,.923-.154,3.824,3.824,0,0,0,1.231-.154c.462-.154.923-.154,1.385-.308a2.135,2.135,0,0,1,1.385,0,3.824,3.824,0,0,0,1.231.154h.615c.154.308.154.462.308.769-2.154,2.154-6.308,2.616-10,2.923m6,9.078c-1.385,1.231-2.769,2.462-3.846,3.539l-.615.769a78.7,78.7,0,0,0-5.539,6.616,13.554,13.554,0,0,0-2,4.308c-.154.615-.308,1.385-.462,2,0,.308-.154.615-.154.923a5.673,5.673,0,0,1-1.231-2.154c-1.077-2.923-1.077-6.308-.615-7.539.615-1.385,5.077-6,7.077-8.154l1.231-1.231a39.164,39.164,0,0,1,8.154-6.154c1.077-.615,2.308-1.385,3.385-2.154l.615.615a.537.537,0,0,0-.308.154,2.124,2.124,0,0,1-.615.462,2.975,2.975,0,0,1-1.385.769A6.707,6.707,0,0,0,26.454,53.1a3.158,3.158,0,0,0-.769,1.077,7.015,7.015,0,0,0,1.231-.615A10.356,10.356,0,0,0,29.07,51.87,3.35,3.35,0,0,1,30.3,51.1a10.6,10.6,0,0,0,1.231-.462h.154l.154.154c-.923,2.769-4,5.539-6.77,8m8.924,9.231c-.462,1.385-.923,2.769-1.231,4L32.3,74.179c-.615,2.616-1.231,5.231-2,7.693a7.8,7.8,0,0,1-1.077,2.308,11.91,11.91,0,0,0-1.077,2.462c-.154.615-.154,1.231-.308,1.692a3.861,3.861,0,0,1-.308,1.539c-3.077-5.077.308-15.847,1.385-19.54l.923-3.231a47.747,47.747,0,0,1,2-6.154,46.692,46.692,0,0,0,3.077-8.924c.154,0,.462.154.615.154V53.1c0,.154.154.462,0,.615v.615a1.166,1.166,0,0,1-.308.615,7.8,7.8,0,0,0-1.077,2.308,5.764,5.764,0,0,0-.154,1.231,3.808,3.808,0,0,0,.615-.923,8.02,8.02,0,0,0,.923-2.308,4.492,4.492,0,0,1,.308-1.385,1.823,1.823,0,0,0,.154-1.231v-.308h.462a42.93,42.93,0,0,1-2.462,15.694m14.463-9.847a23.5,23.5,0,0,1,2.769,2.769,98,98,0,0,1,9.385,11.232c1.539,2.154,4.462,7.231,4.154,9.385a2.114,2.114,0,0,1-.308.923c-.154,0-.615-.154-2.308-2a28.215,28.215,0,0,0-5.539-4.923,35.079,35.079,0,0,1-7.077-7.231,26.786,26.786,0,0,0-1.846-2.154c-.308-.308-.615-.769-.923-1.077-2.462-2.769-4.77-5.385-6.462-12.924.154,0,.308-.154.615-.154.154.154.154.462.308.615a2.612,2.612,0,0,0,.923.923,2.393,2.393,0,0,1,.923,1.231A7.173,7.173,0,0,0,44.917,57.1a3.158,3.158,0,0,0,1.077.769,3.843,3.843,0,0,0-.615-1.231,12.231,12.231,0,0,0-2-2.154,2.393,2.393,0,0,1-.923-1.231,1.962,1.962,0,0,0-.769-1.077c-.154-.154-.308-.308-.462-.308l.923-.462a32.683,32.683,0,0,0,6.308,6.77M37.532,51.1a7.846,7.846,0,0,1-6.924-4.154c0-.154,0-.154-.154-.308a7.731,7.731,0,0,1-.923-3.693,8.209,8.209,0,0,1,8.154-8.154,8.369,8.369,0,0,1,8,6.462v.154a5.234,5.234,0,0,1,.154,1.539A8.447,8.447,0,0,1,37.532,51.1m33.541,1.231a39.948,39.948,0,0,1,9.385,6.308c.308.154.462.462.769.615.923.769,1.539,1.231,1.692,1.846v.615c-.462.923-1.385.769-3.539,0L78,61.255c-1.539-.462-2.923-.769-4.462-1.231s-3.077-.923-4.616-1.231c-.615-.154-1.385-.308-2-.462a14.4,14.4,0,0,1-2.462-.615A9.4,9.4,0,0,1,62.3,56.64a18.337,18.337,0,0,0-3.077-1.231,45.419,45.419,0,0,1-14.309-6.462c.154-.308.462-.462.615-.769a.477.477,0,0,0,.154.308c.154.154.308.308.462.308a.8.8,0,0,0,.615.308c.154.154.462.154.769.308h.923a7.723,7.723,0,0,1,1.846.308,15.878,15.878,0,0,0,3.385.615h1.539a12.938,12.938,0,0,0-1.539-.615,11.538,11.538,0,0,0-3.385-.308,3.9,3.9,0,0,1-1.846-.308,2.921,2.921,0,0,0-1.385-.462c-.154,0-.462-.154-.615-.154s-.308-.154-.462-.154-.154-.154-.308-.154c.154-.154.308-.462.462-.615,7.693-.154,16.617.615,24.925,4.77M81.536,39.715c-1.846-.154-3.693-.308-5.539-.308A53.789,53.789,0,0,0,64.3,40.946a45.69,45.69,0,0,0-5.847,1.539,41.7,41.7,0,0,1-11.232,2,4.743,4.743,0,0,0,.154-1.539,6.664,6.664,0,0,0,.769.154h1.539a7.414,7.414,0,0,1,1.846,0,7.491,7.491,0,0,0,1.846.154,5.531,5.531,0,0,0,1.692-.308,7.5,7.5,0,0,0,1.077-.462c.308-.154.308-.308.308-.308H56c-.308,0-.615.154-1.077.154s-.923.154-1.539.154c-.615.154-1.231.154-1.846.308a3.75,3.75,0,0,1-1.846,0,5.772,5.772,0,0,0-1.539-.154h-.769a2.618,2.618,0,0,0-.154-1.077c7.231-3.385,14.77-4.308,22.617-4.923,3.693-.308,7.539-.308,11.078-.308,3.846,0,5.385.923,5.539,3.846-1.692-.154-3.231-.308-4.923-.462" transform="translate(0 -0.001)" fill="#fff" opacity="0.89"/>
    <path id="Path_100747" data-name="Path 100747" d="M93.96,58.369c-1.539-1.385-4.77-1.385-7.539-1.385h-2a32.632,32.632,0,0,1-4.462-.923,63.908,63.908,0,0,0-7.385-1.539v-.308c7.539-.769,17.078-2.308,19.694-5.385a2.285,2.285,0,0,0,.615-2.154,3.211,3.211,0,0,0-1.692-2.462c-4.308-2-16.155,4.308-19.232,6.154-.154-.154-.154-.308-.308-.462A6.915,6.915,0,0,0,73.5,47.445a7.225,7.225,0,0,1,.923-1.385,14.048,14.048,0,0,1,3.693-3.693,24.372,24.372,0,0,0,3.539-3.385c.769-1.077,2.462-3.231,1.539-5.231-.308-.769-3.539-2.923-4.616-3.077-2.616,0-4,4.462-4.923,7.385a10.6,10.6,0,0,1-.462,1.231,23.2,23.2,0,0,1-1.846,4,13.308,13.308,0,0,0-1.077,1.539,7.575,7.575,0,0,0-1.539,2.308c-.154,0-.308-.154-.462-.154V46.83a80.2,80.2,0,0,0,2.154-9.847v-.462c.462-4,.615-6.462-.615-7.385a5.4,5.4,0,0,0-2.154-.923H66.265a4.1,4.1,0,0,0-1.846.462q-.231,0-.462.462c-.308.769-.308,2.923,0,6.308l.154,1.539a47.468,47.468,0,0,1,0,6.616V46.83h-.154a.537.537,0,0,0-.154-.308v-.308c0-.308-.154-.615-.154-.923a12.145,12.145,0,0,0-.462-2c-.308-.769-.615-1.539-.923-2.154-.308-.769-.615-1.385-.923-2.154a7.723,7.723,0,0,1-.308-1.846,13.029,13.029,0,0,0-.615-2.616c-.923-2.154-1.385-2.462-3.385-1.846l-.615.154A3.547,3.547,0,0,0,53.8,34.675c-.462,1.077,0,2.308.615,3.539v.154a1.166,1.166,0,0,1,.308.615l.462.923a2.7,2.7,0,0,0,.615.769l.462.462h.154c.154.154.308.154.462.308l.154.154a23.976,23.976,0,0,1,3.077,2.462c.308.154.462.462.769.615.923.769,1.539,1.231,1.692,1.846v.615c-.462.923-1.385.769-3.539,0l-1.385-.462c-1.539-.462-2.923-.769-4.462-1.231l-1.846-.462a7.723,7.723,0,0,0-1.846-.308c-.462-.154-1.077-.154-1.539-.308h-.462a1.387,1.387,0,0,1-.769-.154c-.462,0-.923-.154-1.385-.154-.308,0-.769-.154-1.077-.154H43.8c-.462,0-.923-.154-1.385-.154h-.769a.614.614,0,0,0,.308.615c2,1.692,11.232,5.847,15.54,7.693a71.053,71.053,0,0,0-10,.923c-1.692.308-5.539,1.231-7.385,1.385-.154,0-.308.154-.615.154v1.385h.923c.154,0,.154-.154.308-.154h.154c2.154-.308,5.385-.923,6.77-1.077a64.576,64.576,0,0,1,11.078-.923h-.154v.923H57.5c-.154,0-.308.154-.615.308a2.9,2.9,0,0,1-1.231.308,3.982,3.982,0,0,0-2.154.615,3.808,3.808,0,0,0-.923.615,2.093,2.093,0,0,0,1.077,0A8.222,8.222,0,0,0,55.8,55.6a2.852,2.852,0,0,1,1.077-.308h1.077c.154,0,.308,0,.308-.154h.154a2.187,2.187,0,0,0,.308.923c-2.923,0-9.385,1.385-13.54,2.462-1.077.308-2,.462-2.769.615-.154,0-.308.154-.462.154H41.8a.151.151,0,0,1-.154.154c0,.154,0,.154.154.308s.154.308.308.462a.151.151,0,0,0,.154.154l.154.154a.925.925,0,0,1,.615.154h.154q.923-.231,2.308-.462c3.693-.769,9.847-2.154,12.77-2.308A46.858,46.858,0,0,0,45.494,70.37a42.311,42.311,0,0,0-2.308,3.846c-1.231,2.308-.923,2.923.769,4.616,1.539,1.385,2.923,2.154,4.154,2.154h.308q1.846-.231,3.693-2.769A29.5,29.5,0,0,0,55.8,69.755a32.852,32.852,0,0,1,2.462-5.385,6.253,6.253,0,0,1,1.385-1.539,23.546,23.546,0,0,0,2-2.462l-.308.923c-.462,1.692-.923,2.923-1.385,4.308l-.154.615a16.519,16.519,0,0,0-1.231,4.923c-.154.769-.154,1.539-.308,2.308a47.356,47.356,0,0,0-.615,9.385.727.727,0,0,0,.769.769c.615,0,1.231.154,1.846.154s1.231.154,1.692.154c1.539,0,2.616-.462,3.231-2.616s.308-4.308.308-6.462v-.462c0-1.385,0-2.923-.154-4.616-.308-2.923-.615-5.847.308-8.155v.154c.615,3.385.923,6,3.231,8.77a56.575,56.575,0,0,0,5.077,5.385c.769.615,1.385,1.385,2.154,2l.769.769A4.071,4.071,0,0,0,79.8,80.525a1.951,1.951,0,0,0,.923-.154A4.87,4.87,0,0,0,83.5,78.525a4.108,4.108,0,0,0,.154-3.077c-1.385-4.462-4.923-7.539-8.308-10.616a39.555,39.555,0,0,1-5.077-5.077c.154,0,.154-.154.308-.154a24.344,24.344,0,0,0,5.693,1.846c1.385.308,8,3.385,8.924,3.693a6.889,6.889,0,0,0,3.077.615,8.825,8.825,0,0,0,4.462-1.231,3.7,3.7,0,0,0,2-3.385c0-1.692-.308-2.308-.769-2.769M61.5,43.137c-.308-.154-.462-.462-.769-.615A25.247,25.247,0,0,0,56.88,39.6a3.35,3.35,0,0,0-.769-1.231c-.769-1.231-1.539-2.616-1.231-3.385.154-.462,1.077-.769,1.692-.923l.769-.154.923-.308a9.138,9.138,0,0,1,.615,1.231,8.331,8.331,0,0,1,.615,2.308c.154.615.308,1.385.462,2l.923,2.308a10.684,10.684,0,0,1,.769,2c0-.154-.154-.154-.154-.308M71.343,45.6c.154-.308.462-.462.615-.769a.565.565,0,0,0-.154.462,2.48,2.48,0,0,1-.615,1.077,3.219,3.219,0,0,0-.615.923v.462a.565.565,0,0,0,.154.462l.154.154h.154s-.154-.154,0-.154a2.213,2.213,0,0,1,.308-.462,2.187,2.187,0,0,0,.308-.923,1.413,1.413,0,0,1,.615-.923,11.222,11.222,0,0,0,1.385-1.692,10.141,10.141,0,0,1,.308-1.385,2.64,2.64,0,0,0-.923.615c-.154,0-.154.154-.308.308a42.831,42.831,0,0,0,1.846-4,10.6,10.6,0,0,0,.462-1.231c.615-1.846,2-6.308,3.539-6.308a11.856,11.856,0,0,1,3.231,2.154c.462,1.077-.462,2.462-1.385,3.693a21.378,21.378,0,0,1-3.231,3.231,23.677,23.677,0,0,0-3.846,4,13.53,13.53,0,0,1-.923,1.539,9.254,9.254,0,0,1-1.385,2,4.079,4.079,0,0,0-.923-.769A5.3,5.3,0,0,1,71.343,45.6m-6-15.847a4.364,4.364,0,0,1,3.693.308c.308.154.615,1.231,0,6v.462a71.863,71.863,0,0,1-2.154,9.847h-.308c0-.154,0-.154.154-.308V44.984a1.635,1.635,0,0,1,.154-1.231,7.2,7.2,0,0,0,.308-2.462,3.757,3.757,0,0,0-.154-1.077s-.154.462-.308,1.077a6.566,6.566,0,0,0,0,2.462,1.635,1.635,0,0,1-.154,1.231,3,3,0,0,0-.154,1.077v.308h-.462V43.445c0-2.154.154-4.462,0-6.77L65.8,35.137a17.661,17.661,0,0,1-.462-5.385M46.11,45.137c.615.154,1.077.154,1.692.308,1.539.462,3.077.769,4.616,1.231s2.923.769,4.462,1.231a2.187,2.187,0,0,1,.923.308v.154a9.34,9.34,0,0,1,1.077,1.539c-.154,0-.154-.154-.308-.154a1.536,1.536,0,0,1-.769-.615c-.154-.308-.462-.462-.769-.769a3.363,3.363,0,0,1-.769-.462,3.3,3.3,0,0,0-.923-.154l.615.615a8.342,8.342,0,0,0,1.692.923,1.536,1.536,0,0,1,.769.615,1.2,1.2,0,0,0,.615.615l.154.154v.154c-2.923-1.077-9.078-3.693-13.078-5.693M58.726,60.985a13.855,13.855,0,0,0-1.539,1.846,24.426,24.426,0,0,0-2.616,5.847,36.762,36.762,0,0,1-3.385,8c-.923,1.385-1.692,2-2.616,2.154s-1.846-.462-3.231-1.692c-1.231-1.231-1.231-1.231-.462-2.769a39.234,39.234,0,0,1,2.154-3.693A40.894,40.894,0,0,1,60.111,58.062l.308.308a2.379,2.379,0,0,0-.923.462c-.154.154-.308.154-.462.308s-.308.308-.308.462a1.8,1.8,0,0,1-.923.923,9.757,9.757,0,0,0-1.846,1.539,6.819,6.819,0,0,0-.769.923,9.149,9.149,0,0,0,1.077-.462c.154-.154.308-.154.462-.308l.462-.462a2.76,2.76,0,0,0,.769-1.077,2.612,2.612,0,0,1,.923-.923,4.788,4.788,0,0,0,.923-.615c.308-.308.462-.615.615-.769l.154.154a8.578,8.578,0,0,1-1.846,2.462M63.65,79.909c-.462,1.692-.923,1.692-3.385,1.385-.308,0-.769-.154-1.231-.154a78.327,78.327,0,0,1,.615-8.308c.154-.769.154-1.539.308-2.308a22.634,22.634,0,0,1,1.231-4.616l.154-.615c.462-1.385.923-2.769,1.385-4.462l.308-.769c.154,0,.154,0,.308.154a.477.477,0,0,1-.154.308c-.154.154-.154.462-.308.769a2.224,2.224,0,0,0-.308,1.077.925.925,0,0,1-.154.615,1.166,1.166,0,0,1-.308.615,9.121,9.121,0,0,0-.615,2.616,4.258,4.258,0,0,0,.154,1.231,3.829,3.829,0,0,0,.462-1.077,6.794,6.794,0,0,0,.308-2.616,4.492,4.492,0,0,1,.308-1.385.8.8,0,0,0,.308-.615c0-.154,0-.154.154-.308a28.729,28.729,0,0,0,.154,7.231c.154,1.539.154,3.077.154,4.462V73.6c.462,2.462.769,4.308.154,6.308M63.8,60.523v-.308c.154,0,.154,0,.308.154a1.387,1.387,0,0,0-.154.769,1.163,1.163,0,0,1-.154-.615M74.42,64.985c3.231,2.923,6.616,5.847,7.847,10a2.224,2.224,0,0,1,0,2,3.438,3.438,0,0,1-1.846,1.077c-.923.308-1.385,0-2.308-1.231-.308-.308-.462-.615-.769-.769a25.549,25.549,0,0,0-2.154-2,52.257,52.257,0,0,1-4.923-5.231c-2-2.616-2.308-4.923-2.923-8.154v-.154c.308,0,.462-.154.769-.308a1.166,1.166,0,0,0,.308.615,3.219,3.219,0,0,0,.615.923,3.093,3.093,0,0,1,.615,1.231,3.093,3.093,0,0,0,.615,1.231c.154.308.462.615.615.923a7.194,7.194,0,0,0,.769.923,3.7,3.7,0,0,0-.308-1.231c-.154-.308-.308-.769-.462-1.077-.308-.308-.615-.769-.923-1.077a3.093,3.093,0,0,1-.615-1.231,1.4,1.4,0,0,0-.462-1.077l-.462-.462c.308-.154.462-.308.615-.308a44.507,44.507,0,0,0,5.385,5.385m-8.77-6a5.693,5.693,0,1,1,5.693-5.693,5.68,5.68,0,0,1-5.693,5.693M90.729,45.6a1.911,1.911,0,0,1,.923,1.231,1.465,1.465,0,0,1-.308,1.077c-1.692,2.154-8.462,3.846-18.463,4.77v-.308a1.673,1.673,0,0,0,.769-.154,7.5,7.5,0,0,1,1.077-.462,2.9,2.9,0,0,1,1.231-.308,10.706,10.706,0,0,0,2.462-.308,3.829,3.829,0,0,0,1.077-.462,2.606,2.606,0,0,0-1.231,0,9.512,9.512,0,0,0-2.462.615,4.492,4.492,0,0,1-1.385.308H73.8c-.154,0-.308.154-.462.154a1.166,1.166,0,0,1-.615.308v-.154c3.077-2.154,14.463-8,18-6.308M91.96,62.216a7.306,7.306,0,0,1-6.154.462c-.615-.308-7.539-3.539-9.232-3.846a32.527,32.527,0,0,1-4.616-1.077c.154,0,.154-.154.308,0,.154,0,.462-.154.615-.154a3,3,0,0,1,1.231.154,3.621,3.621,0,0,0,1.231.308,3,3,0,0,0,1.077.154,1.153,1.153,0,0,1,.769.154H77.5a.537.537,0,0,0-.308-.154,3.362,3.362,0,0,0-.769-.462,4.206,4.206,0,0,0-2.462-.308,3,3,0,0,1-1.231-.154,2.187,2.187,0,0,0-.923-.308c.154-.154.154-.462.308-.615,1.539,0,4.77.923,7.385,1.539,2,.462,3.846.923,4.77,1.077h2.154c2.154,0,5.385-.154,6.462.923a1.175,1.175,0,0,1,.308.769,2.535,2.535,0,0,1-1.231,1.539" transform="translate(21.271 15.194)" fill="#fff" opacity="0.89"/>
  </g>
</svg>
