<svg xmlns="http://www.w3.org/2000/svg" width="27.063" height="23.121" viewBox="0 0 27.063 23.121">
  <g id="Group_41990" data-name="Group 41990" transform="translate(0 0)">
    <path id="Path_100746" data-name="Path 100746" d="M18.843,8.082c-.861,0-1.759,0-2.62.072a19.394,19.394,0,0,0-4.272.754,2.414,2.414,0,0,0,.395-.251,6.011,6.011,0,0,0,.861-.538c.718-.538,1.256-1.005,1.9-1.544a10.8,10.8,0,0,0,1.9-2.01,5.32,5.32,0,0,1,.861-.933,3.043,3.043,0,0,1,.682-.359,3.284,3.284,0,0,0,.61-.323c.036-.036.072-.072.072-.108A.216.216,0,0,0,19.2,2.7a.673.673,0,0,0-.538-.251H18.52c-1.723-.215-3.195,1.005-4.379,2.226-.108.108-.467.5-.9,1.005-.79.9-1.938,2.154-2.549,2.8a2.859,2.859,0,0,1,.538-.61A4.772,4.772,0,0,0,11.915,7c.359-.682.754-1.4,1.077-2.19l.108-.251a18.792,18.792,0,0,1,.969-1.9,2.421,2.421,0,0,1,.861-.682,2.617,2.617,0,0,0,.969-.79.189.189,0,0,0-.072-.251,2.929,2.929,0,0,0-2.513.287A5.524,5.524,0,0,0,11.7,3.307c-.251.5-.467,1.005-.682,1.508-.108.251-.215.538-.323.79a5.89,5.89,0,0,1-.574,1.041,7.937,7.937,0,0,0-.646,1.22c-.072-.036-.144-.036-.179-.072a9.03,9.03,0,0,0,.072-3.913,5.97,5.97,0,0,0-.646-2.046A1.373,1.373,0,0,1,8.541.831,3.49,3.49,0,0,0,8.577.184.17.17,0,0,0,8.4,0,1.818,1.818,0,0,0,6.818.543c-.61.718-.323,2.01-.108,3.051a9.018,9.018,0,0,1,.144.969,9.556,9.556,0,0,0,.251,1.4,5.75,5.75,0,0,0,.718,1.4,3.277,3.277,0,0,1,.287.467l-.323.108a1.259,1.259,0,0,1-.179-.287c-.108-.179-.251-.359-.359-.538-.072-.144-.144-.251-.215-.395-.072-.179-.179-.323-.251-.5A6.708,6.708,0,0,0,4.09,3.882,4.94,4.94,0,0,1,3.552,3.2c-.5-.718-.79-1.077-1.077-1.005-.359.144-.251.79.144,2.19a1.455,1.455,0,0,0,.108.359c.108.861,1.687,2.118,3.015,3.123a2.2,2.2,0,0,0,.215.144,4.577,4.577,0,0,0,.61.359,3.916,3.916,0,0,1,.395.215c-.036.036-.072.108-.108.144A9.211,9.211,0,0,0,3.3,7.866,4.26,4.26,0,0,0,.429,9.015a.993.993,0,0,0-.215.861q0,.054.108.108a.125.125,0,0,1,.072.036H.465A6.222,6.222,0,0,1,2.511,9.84c.431,0,.826.036,1.185,0a18.772,18.772,0,0,1,2.01,0h.826v.108l-.395.072a31.237,31.237,0,0,0-3.661.646A3.861,3.861,0,0,0,.141,12.533a1.565,1.565,0,0,0,.072,1.436.192.192,0,0,0,.144.108A.16.16,0,0,0,.5,13.968,4.344,4.344,0,0,1,3.408,12.1a7.156,7.156,0,0,1,1.077-.144,6.1,6.1,0,0,0,2.046-.431,3.783,3.783,0,0,0-.395.251,7.807,7.807,0,0,0-1.974,1.508,2.128,2.128,0,0,1-.287.287,12.765,12.765,0,0,0-1.723,1.974,3.293,3.293,0,0,0,.108,2.01,1.407,1.407,0,0,0,.61.826h.072a.132.132,0,0,0,.108-.036c.108-.072.144-.215.215-.574.036-.144.072-.323.108-.467a2.28,2.28,0,0,1,.395-.9c.395-.5.861-1.041,1.292-1.508l.144-.179a9.8,9.8,0,0,1,.861-.79,6.09,6.09,0,0,0,1.687-1.938c.036,0,.036.036.072.036a11.437,11.437,0,0,1-.718,2.046,7.022,7.022,0,0,0-.467,1.472c-.072.251-.144.5-.215.718-.5,1.615-1.077,3.877-.179,5.025a.186.186,0,0,0,.144.072c.036,0,.072,0,.072-.036a.748.748,0,0,0,.395-.754.994.994,0,0,1,.036-.323c.072-.179.144-.323.215-.5a1.828,1.828,0,0,0,.251-.61c.144-.61.323-1.22.467-1.831l.108-.5c.072-.287.179-.574.251-.9a11.276,11.276,0,0,0,.646-3.733h.108a6.009,6.009,0,0,0,1.579,3.195,1.561,1.561,0,0,1,.215.251,6.249,6.249,0,0,0,.431.5,9.963,9.963,0,0,0,1.723,1.759,5.957,5.957,0,0,1,1.22,1.077c.251.287.538.574.79.574H15c.036,0,.036-.036.072-.036.036-.072.108-.108.179-.179a.676.676,0,0,0,.072-.287,3.1,3.1,0,0,0-.5-1.615.035.035,0,0,0-.036-.036c-.036-.036-.036-.072-.072-.108l-.108-.215c-.144-.215-.251-.395-.323-.5-.072-.072-.108-.144-.179-.215l-.036-.036-.036-.036c-.036-.036-.072-.072-.072-.108-.036-.036-.072-.072-.072-.108A27.442,27.442,0,0,0,12.059,13.9c-.215-.215-.431-.431-.682-.646a9.066,9.066,0,0,1-1.4-1.508c.036-.036.072-.036.108-.072A11.385,11.385,0,0,0,13.6,13.286a5.085,5.085,0,0,1,.646.287c.036,0,.036.036.072.036s.036.036.072.036.036,0,.072.036a.272.272,0,0,1,.144.072c.251.072.5.179.754.251.072,0,.108.036.179.036h.036a.676.676,0,0,1,.287.072c.359.108.718.179,1.077.287s.682.179,1.041.287c.036,0,.072.036.144.036h.108c.036,0,.036,0,.072.036.036,0,.108.036.144.036.072,0,.108.036.144.036s.072.036.108.036h.5c.036-.036.108-.036.144-.072l.215-.215v-.323a.125.125,0,0,0-.036-.072v-.036a.035.035,0,0,0-.036-.036v-.036c-.036-.036-.036-.072-.072-.108s-.036-.072-.072-.108-.108-.072-.144-.144l-.036-.036-.036-.036-.072-.072-.036-.036c-.072-.036-.108-.108-.179-.144a5.891,5.891,0,0,0-.9-.682c-.036,0-.036-.036-.072-.036-.036-.036-.072-.036-.108-.072a.077.077,0,0,1-.072-.072c-.036-.036-.072-.036-.108-.072s-.108-.036-.144-.072c-.036,0-.072-.036-.108-.072h-.072a7.118,7.118,0,0,0-.718-.395,12.517,12.517,0,0,0-5.384-1.185,10.733,10.733,0,0,0,2.333-.467c.431-.108.861-.251,1.364-.359a12.175,12.175,0,0,1,2.656-.359c.431,0,.861.036,1.256.072.431.036.9.072,1.328.072a.17.17,0,0,0,.179-.179c.215-1.256-.574-1.436-1.436-1.436m-5.348-2.19c.431-.5.79-.861.9-1.005,1.149-1.149,2.513-2.3,4.092-2.118h.251c-.108.036-.179.108-.287.144a3.15,3.15,0,0,0-.754.431,4.149,4.149,0,0,0-.933,1.005,10.314,10.314,0,0,1-1.867,1.938c-.61.538-1.185,1.005-1.867,1.508-.215.179-.5.323-.826.538a10.076,10.076,0,0,0-1.292.861L10.8,8.979c.036,0,.072-.036.144-.072.036-.036.108-.072.144-.108l.144-.144a1.973,1.973,0,0,1,.323-.251,3.157,3.157,0,0,0,.359-.215,1.991,1.991,0,0,0,.287-.215.751.751,0,0,1,.215-.144l.072-.072h-.108a.665.665,0,0,0-.251.072.848.848,0,0,0-.323.215,2.322,2.322,0,0,0-.323.287.99.99,0,0,1-.323.251c-.108.072-.215.108-.323.179-.036.036-.072.072-.108.072.538-.431,1.795-1.867,2.764-2.943m-3.051.969c.215-.359.431-.718.61-1.077.108-.287.215-.538.323-.79.215-.5.395-1.005.646-1.472a5.348,5.348,0,0,1,1.508-1.938,3.024,3.024,0,0,1,1.938-.395,2.142,2.142,0,0,1-.718.5,2.739,2.739,0,0,0-1.005.79,13.952,13.952,0,0,0-.969,1.938l-.108.251a24.079,24.079,0,0,1-1.077,2.154,4.169,4.169,0,0,1-.646.79,5.708,5.708,0,0,0-.646.79,1.973,1.973,0,0,0-.323-.251c.072,0,.108-.036.179-.072a.778.778,0,0,0,.215-.251c.036-.108.144-.179.215-.287a2.164,2.164,0,0,0,.395-.5,1.586,1.586,0,0,0,.108-.287s-.108.072-.251.179a2.012,2.012,0,0,0-.359.538.38.38,0,0,1-.215.251c-.108.072-.179.108-.215.179l-.144.144a.035.035,0,0,0-.036.036c-.036,0-.036-.036-.072-.036a6.247,6.247,0,0,1,.646-1.185M7.464,5.856a7.9,7.9,0,0,1-.251-1.328,4.929,4.929,0,0,0-.179-1.005c-.215-.969-.467-2.154.036-2.764A1.388,1.388,0,0,1,8.182.364c0,.179-.036.287-.036.431a1.638,1.638,0,0,0,.215,1.22,5.6,5.6,0,0,1,.61,1.938,8.54,8.54,0,0,1-.072,3.8H8.685V7.507a1.11,1.11,0,0,0-.072-.287A1.048,1.048,0,0,1,8.541,6.9a1.713,1.713,0,0,0,0-.61A.866.866,0,0,0,8.433,6a.993.993,0,0,0-.036.287,1.883,1.883,0,0,0,.072.61,1.048,1.048,0,0,1,.072.323.7.7,0,0,0,.036.287.584.584,0,0,0,.108.215H8.577c-.108-.215-.251-.395-.359-.61a3.458,3.458,0,0,1-.754-1.256M6.746,8.117a2.354,2.354,0,0,1-.538-.323,2.126,2.126,0,0,0-.215-.144c-1.831-1.364-2.8-2.333-2.872-2.872a2.259,2.259,0,0,0-.108-.431A7.345,7.345,0,0,1,2.69,2.661a4.13,4.13,0,0,1,.646.826c.395.538.538.754.718.79a6.373,6.373,0,0,1,2.513,2.19c.072.144.179.323.251.467a3.915,3.915,0,0,0,.215.395,3.253,3.253,0,0,0,.395.574c.072.072.108.179.179.251a.63.63,0,0,0-.179.144c-.036-.036-.072-.108-.108-.144a.952.952,0,0,0-.215-.179.483.483,0,0,1-.215-.251c-.072-.108-.144-.179-.215-.287L6.459,7.22a.993.993,0,0,0-.251-.144s.072.108.179.251a1.838,1.838,0,0,0,.467.431.839.839,0,0,1,.251.251.272.272,0,0,1,.072.144l.108.108a.5.5,0,0,1,.144.108c-.036.036-.072.036-.072.072-.287-.144-.467-.251-.61-.323M5.669,9.553a19.46,19.46,0,0,0-2.046.036c-.359.036-.754,0-1.149,0A6.81,6.81,0,0,0,.536,9.7a.571.571,0,0,1,.179-.359A3.809,3.809,0,0,1,3.264,8.3a7.929,7.929,0,0,1,3.41.826c0,.036,0,.036-.036.072a.132.132,0,0,1-.108-.036.766.766,0,0,0-.287,0,.533.533,0,0,1-.323-.072L5.6,8.979a.5.5,0,0,0-.323,0,.993.993,0,0,0-.287.036.552.552,0,0,0,.287.072.7.7,0,0,0,.287.036,1.2,1.2,0,0,0,.359,0,.647.647,0,0,1,.359.072c.036.036.108.036.144.072h.215a.665.665,0,0,0-.072.251,7.807,7.807,0,0,1-.9.036M4.449,11.6a7.718,7.718,0,0,0-1.113.144A4.991,4.991,0,0,0,.393,13.466a1.225,1.225,0,0,1,.072-.79,3.426,3.426,0,0,1,2.082-1.651,29.376,29.376,0,0,1,3.625-.61l.395-.036a.676.676,0,0,0,.072.287H6.28a.5.5,0,0,1-.323,0A1.107,1.107,0,0,0,5.6,10.63a.676.676,0,0,0-.287.072.785.785,0,0,0-.179.108.111.111,0,0,1-.072.036h.072a.632.632,0,0,0,.215-.036.892.892,0,0,0,.287-.036c.108-.036.215-.036.323-.072a.5.5,0,0,1,.323,0,.892.892,0,0,0,.287.036H6.71c.036.072.036.108.072.179a3.91,3.91,0,0,1-2.333.682m1.4,2.118c-.323.287-.646.574-.9.826l-.144.179a18.362,18.362,0,0,0-1.292,1.544,3.162,3.162,0,0,0-.467,1.005c-.036.144-.072.323-.108.467,0,.072-.036.144-.036.215a1.324,1.324,0,0,1-.287-.5,3.15,3.15,0,0,1-.144-1.759,16.588,16.588,0,0,1,1.651-1.9l.287-.287a9.137,9.137,0,0,1,1.9-1.436c.251-.144.538-.323.79-.5l.144.144a.125.125,0,0,0-.072.036.5.5,0,0,1-.144.108.694.694,0,0,1-.323.179,1.565,1.565,0,0,0-.538.359.737.737,0,0,0-.179.251A1.637,1.637,0,0,0,6.28,12.5a2.416,2.416,0,0,0,.5-.395.782.782,0,0,1,.287-.179,2.473,2.473,0,0,0,.287-.108h.036l.036.036a5.358,5.358,0,0,1-1.579,1.867m2.082,2.154c-.108.323-.215.646-.287.933l-.108.5c-.144.61-.287,1.22-.467,1.795a1.818,1.818,0,0,1-.251.538,2.779,2.779,0,0,0-.251.574c-.036.144-.036.287-.072.395a.9.9,0,0,1-.072.359c-.718-1.185.072-3.7.323-4.559l.215-.754a11.14,11.14,0,0,1,.467-1.436,10.893,10.893,0,0,0,.718-2.082c.036,0,.108.036.144.036v.215c0,.036.036.108,0,.144v.144a.272.272,0,0,1-.072.144,1.818,1.818,0,0,0-.251.538,1.345,1.345,0,0,0-.036.287.889.889,0,0,0,.144-.215,1.871,1.871,0,0,0,.215-.538,1.048,1.048,0,0,1,.072-.323.425.425,0,0,0,.036-.287V12.21h.108a10.016,10.016,0,0,1-.574,3.661m3.374-2.3a5.483,5.483,0,0,1,.646.646,22.864,22.864,0,0,1,2.19,2.62,4.912,4.912,0,0,1,.969,2.19.493.493,0,0,1-.072.215c-.036,0-.144-.036-.538-.467a6.583,6.583,0,0,0-1.292-1.149,8.184,8.184,0,0,1-1.651-1.687,6.249,6.249,0,0,0-.431-.5c-.072-.072-.144-.179-.215-.251A5.651,5.651,0,0,1,9.4,12.174c.036,0,.072-.036.144-.036.036.036.036.108.072.144a.609.609,0,0,0,.215.215.558.558,0,0,1,.215.287,1.674,1.674,0,0,0,.431.538.737.737,0,0,0,.251.179.9.9,0,0,0-.144-.287,2.853,2.853,0,0,0-.467-.5.558.558,0,0,1-.215-.287.458.458,0,0,0-.179-.251c-.036-.036-.072-.072-.108-.072l.215-.108a7.625,7.625,0,0,0,1.472,1.579M8.756,11.922a1.83,1.83,0,0,1-1.615-.969c0-.036,0-.036-.036-.072a1.8,1.8,0,0,1-.215-.861,1.915,1.915,0,0,1,1.9-1.9,1.953,1.953,0,0,1,1.867,1.508v.036a1.221,1.221,0,0,1,.036.359,1.971,1.971,0,0,1-1.938,1.9m7.825.287a9.32,9.32,0,0,1,2.19,1.472c.072.036.108.108.179.144.215.179.359.287.395.431V14.4c-.108.215-.323.179-.826,0l-.323-.108c-.359-.108-.682-.179-1.041-.287s-.718-.215-1.077-.287c-.144-.036-.323-.072-.467-.108a3.361,3.361,0,0,1-.574-.144,2.193,2.193,0,0,1-.5-.251,4.278,4.278,0,0,0-.718-.287,10.6,10.6,0,0,1-3.338-1.508c.036-.072.108-.108.144-.179a.111.111,0,0,0,.036.072c.036.036.072.072.108.072a.186.186,0,0,0,.144.072c.036.036.108.036.179.072h.215a1.8,1.8,0,0,1,.431.072,3.7,3.7,0,0,0,.79.144h.359a3.018,3.018,0,0,0-.359-.144,2.692,2.692,0,0,0-.79-.072.911.911,0,0,1-.431-.072.681.681,0,0,0-.323-.108c-.036,0-.108-.036-.144-.036s-.072-.036-.108-.036-.036-.036-.072-.036c.036-.036.072-.108.108-.144a12.328,12.328,0,0,1,5.815,1.113m2.441-2.943c-.431-.036-.861-.072-1.292-.072A12.549,12.549,0,0,0,15,9.553a10.66,10.66,0,0,0-1.364.359,9.728,9.728,0,0,1-2.62.467,1.107,1.107,0,0,0,.036-.359,1.555,1.555,0,0,0,.179.036h.359a1.73,1.73,0,0,1,.431,0,1.748,1.748,0,0,0,.431.036,1.29,1.29,0,0,0,.395-.072,1.75,1.75,0,0,0,.251-.108c.072-.036.072-.072.072-.072h-.108c-.072,0-.144.036-.251.036s-.215.036-.359.036c-.144.036-.287.036-.431.072a.875.875,0,0,1-.431,0,1.347,1.347,0,0,0-.359-.036h-.179a.611.611,0,0,0-.036-.251,14.811,14.811,0,0,1,5.277-1.149c.861-.072,1.759-.072,2.584-.072.9,0,1.256.215,1.292.9-.395-.036-.754-.072-1.149-.108" transform="translate(0 -0.001)" fill="#fff" opacity="0.89"/>
    <path id="Path_100747" data-name="Path 100747" d="M52.2,35.249a2.929,2.929,0,0,0-1.759-.323h-.467a7.614,7.614,0,0,1-1.041-.215,14.91,14.91,0,0,0-1.723-.359v-.072c1.759-.179,3.984-.538,4.595-1.256a.533.533,0,0,0,.144-.5.749.749,0,0,0-.395-.574c-1.005-.467-3.769,1.005-4.487,1.436-.036-.036-.036-.072-.072-.108a1.613,1.613,0,0,0,.431-.574,1.686,1.686,0,0,1,.215-.323,3.278,3.278,0,0,1,.861-.861,5.686,5.686,0,0,0,.826-.79c.179-.251.574-.754.359-1.22a2.586,2.586,0,0,0-1.077-.718c-.61,0-.933,1.041-1.149,1.723a2.473,2.473,0,0,1-.108.287,5.413,5.413,0,0,1-.431.933,3.1,3.1,0,0,0-.251.359,1.767,1.767,0,0,0-.359.538c-.036,0-.072-.036-.108-.036v-.036a18.711,18.711,0,0,0,.5-2.3v-.108c.108-.933.144-1.508-.144-1.723a1.259,1.259,0,0,0-.5-.215H45.74a.956.956,0,0,0-.431.108q-.054,0-.108.108a4.575,4.575,0,0,0,0,1.472l.036.359a11.073,11.073,0,0,1,0,1.544v.754H45.2a.125.125,0,0,0-.036-.072v-.072c0-.072-.036-.144-.036-.215a2.833,2.833,0,0,0-.108-.467c-.072-.179-.144-.359-.215-.5-.072-.179-.144-.323-.215-.5a1.8,1.8,0,0,1-.072-.431,3.04,3.04,0,0,0-.144-.61c-.215-.5-.323-.574-.79-.431l-.144.036a.827.827,0,0,0-.61.431,1.011,1.011,0,0,0,.144.826v.036a.272.272,0,0,1,.072.144l.108.215a.63.63,0,0,0,.144.179l.108.108h.036c.036.036.072.036.108.072l.036.036a5.594,5.594,0,0,1,.718.574c.072.036.108.108.179.144.215.179.359.287.395.431v.144c-.108.215-.323.179-.826,0l-.323-.108c-.359-.108-.682-.179-1.041-.287l-.431-.108a1.8,1.8,0,0,0-.431-.072c-.108-.036-.251-.036-.359-.072h-.108a.324.324,0,0,1-.179-.036c-.108,0-.215-.036-.323-.036-.072,0-.179-.036-.251-.036H40.5c-.108,0-.215-.036-.323-.036H40a.143.143,0,0,0,.072.144,26.2,26.2,0,0,0,3.625,1.795,16.577,16.577,0,0,0-2.333.215c-.395.072-1.292.287-1.723.323-.036,0-.072.036-.144.036v.323h.215c.036,0,.036-.036.072-.036h.036c.5-.072,1.256-.215,1.579-.251a15.066,15.066,0,0,1,2.584-.215h-.036v.215h-.251c-.036,0-.072.036-.144.072a.676.676,0,0,1-.287.072.929.929,0,0,0-.5.144.889.889,0,0,0-.215.144.488.488,0,0,0,.251,0,1.918,1.918,0,0,0,.5-.215.665.665,0,0,1,.251-.072H43.8c.036,0,.072,0,.072-.036h.036a.51.51,0,0,0,.072.215,17.479,17.479,0,0,0-3.159.574c-.251.072-.467.108-.646.144-.036,0-.072.036-.108.036h-.036A.035.035,0,0,1,40,35.5c0,.036,0,.036.036.072s.036.072.072.108a.035.035,0,0,0,.036.036l.036.036a.216.216,0,0,1,.144.036h.036q.215-.054.538-.108a27.886,27.886,0,0,1,2.979-.538,10.932,10.932,0,0,0-2.979,2.908,9.872,9.872,0,0,0-.538.9c-.287.538-.215.682.179,1.077a1.582,1.582,0,0,0,.969.5h.072a1.372,1.372,0,0,0,.861-.646A6.882,6.882,0,0,0,43.3,37.9a7.663,7.663,0,0,1,.574-1.256,1.459,1.459,0,0,1,.323-.359,5.494,5.494,0,0,0,.467-.574l-.072.215c-.108.395-.215.682-.323,1.005l-.036.144a3.854,3.854,0,0,0-.287,1.149c-.036.179-.036.359-.072.538a11.047,11.047,0,0,0-.144,2.19.17.17,0,0,0,.179.179c.144,0,.287.036.431.036s.287.036.395.036c.359,0,.61-.108.754-.61a5.321,5.321,0,0,0,.072-1.508v-.108c0-.323,0-.682-.036-1.077A4.176,4.176,0,0,1,45.6,36v.036a3.851,3.851,0,0,0,.754,2.046,13.2,13.2,0,0,0,1.185,1.256c.179.144.323.323.5.467l.179.179a.95.95,0,0,0,.682.431.455.455,0,0,0,.215-.036,1.136,1.136,0,0,0,.646-.431.958.958,0,0,0,.036-.718,5.925,5.925,0,0,0-1.938-2.477,9.228,9.228,0,0,1-1.185-1.185c.036,0,.036-.036.072-.036a5.68,5.68,0,0,0,1.328.431c.323.072,1.867.79,2.082.861a1.607,1.607,0,0,0,.718.144,2.059,2.059,0,0,0,1.041-.287.864.864,0,0,0,.467-.79c0-.395-.072-.538-.179-.646m-7.574-3.554c-.072-.036-.108-.108-.179-.144a5.89,5.89,0,0,0-.9-.682.782.782,0,0,0-.179-.287c-.179-.287-.359-.61-.287-.79.036-.108.251-.179.395-.215l.179-.036.215-.072a2.132,2.132,0,0,1,.144.287,1.944,1.944,0,0,1,.144.538c.036.144.072.323.108.467l.215.538a2.492,2.492,0,0,1,.179.467c0-.036-.036-.036-.036-.072m2.3.574c.036-.072.108-.108.144-.179a.132.132,0,0,0-.036.108.578.578,0,0,1-.144.251.751.751,0,0,0-.144.215v.108a.132.132,0,0,0,.036.108l.036.036h.036s-.036-.036,0-.036a.516.516,0,0,1,.072-.108A.51.51,0,0,0,47,32.556a.33.33,0,0,1,.144-.215,2.618,2.618,0,0,0,.323-.395,2.366,2.366,0,0,1,.072-.323.616.616,0,0,0-.215.144c-.036,0-.036.036-.072.072a9.994,9.994,0,0,0,.431-.933,2.472,2.472,0,0,0,.108-.287c.144-.431.467-1.472.826-1.472a2.766,2.766,0,0,1,.754.5c.108.251-.108.574-.323.861a4.988,4.988,0,0,1-.754.754,5.524,5.524,0,0,0-.9.933,3.155,3.155,0,0,1-.215.359,2.159,2.159,0,0,1-.323.467.952.952,0,0,0-.215-.179,1.238,1.238,0,0,1,.287-.574m-1.4-3.7a1.018,1.018,0,0,1,.861.072c.072.036.144.287,0,1.4v.108a16.766,16.766,0,0,1-.5,2.3h-.072c0-.036,0-.036.036-.072v-.251a.381.381,0,0,1,.036-.287,1.679,1.679,0,0,0,.072-.574.876.876,0,0,0-.036-.251s-.036.108-.072.251a1.532,1.532,0,0,0,0,.574.381.381,0,0,1-.036.287.7.7,0,0,0-.036.251v.072h-.108v-.682c0-.5.036-1.041,0-1.579l-.036-.359a4.12,4.12,0,0,1-.108-1.256m-4.487,3.59c.144.036.251.036.395.072.359.108.718.179,1.077.287s.682.179,1.041.287a.51.51,0,0,1,.215.072v.036a2.178,2.178,0,0,1,.251.359c-.036,0-.036-.036-.072-.036a.358.358,0,0,1-.179-.144c-.036-.072-.108-.108-.179-.179a.785.785,0,0,1-.179-.108.769.769,0,0,0-.215-.036l.144.144a1.946,1.946,0,0,0,.395.215.358.358,0,0,1,.179.144.28.28,0,0,0,.144.144l.036.036v.036c-.682-.251-2.118-.861-3.051-1.328m2.943,3.7a3.232,3.232,0,0,0-.359.431,5.7,5.7,0,0,0-.61,1.364,8.576,8.576,0,0,1-.79,1.867c-.215.323-.395.467-.61.5s-.431-.108-.754-.395c-.287-.287-.287-.287-.108-.646a9.153,9.153,0,0,1,.5-.861A9.541,9.541,0,0,1,44.3,35.177l.072.072a.555.555,0,0,0-.215.108c-.036.036-.072.036-.108.072s-.072.072-.072.108a.419.419,0,0,1-.215.215,2.277,2.277,0,0,0-.431.359,1.591,1.591,0,0,0-.179.215,2.134,2.134,0,0,0,.251-.108c.036-.036.072-.036.108-.072l.108-.108a.644.644,0,0,0,.179-.251.609.609,0,0,1,.215-.215,1.117,1.117,0,0,0,.215-.144c.072-.072.108-.144.144-.179l.036.036a2,2,0,0,1-.431.574m1.149,4.415c-.108.395-.215.395-.79.323-.072,0-.179-.036-.287-.036a18.273,18.273,0,0,1,.144-1.938c.036-.179.036-.359.072-.538a5.281,5.281,0,0,1,.287-1.077l.036-.144c.108-.323.215-.646.323-1.041l.072-.179c.036,0,.036,0,.072.036a.111.111,0,0,1-.036.072c-.036.036-.036.108-.072.179a.519.519,0,0,0-.072.251.216.216,0,0,1-.036.144.272.272,0,0,1-.072.144,2.128,2.128,0,0,0-.144.61.993.993,0,0,0,.036.287.893.893,0,0,0,.108-.251,1.585,1.585,0,0,0,.072-.61,1.048,1.048,0,0,1,.072-.323.186.186,0,0,0,.072-.144c0-.036,0-.036.036-.072a6.7,6.7,0,0,0,.036,1.687c.036.359.036.718.036,1.041V38.8a2.943,2.943,0,0,1,.036,1.472m.036-4.523v-.072c.036,0,.036,0,.072.036a.324.324,0,0,0-.036.179.271.271,0,0,1-.036-.144m2.477,1.041a5.486,5.486,0,0,1,1.831,2.333.519.519,0,0,1,0,.467.8.8,0,0,1-.431.251c-.215.072-.323,0-.538-.287-.072-.072-.108-.144-.179-.179a5.958,5.958,0,0,0-.5-.467,12.193,12.193,0,0,1-1.149-1.22,3.927,3.927,0,0,1-.682-1.9v-.036c.072,0,.108-.036.179-.072a.272.272,0,0,0,.072.144.751.751,0,0,0,.144.215.721.721,0,0,1,.144.287.722.722,0,0,0,.144.287c.036.072.108.144.144.215a1.678,1.678,0,0,0,.179.215.863.863,0,0,0-.072-.287c-.036-.072-.072-.179-.108-.251-.072-.072-.144-.179-.215-.251a.721.721,0,0,1-.144-.287.326.326,0,0,0-.108-.251l-.108-.108c.072-.036.108-.072.144-.072a10.383,10.383,0,0,0,1.256,1.256m-2.046-1.4a1.328,1.328,0,1,1,1.328-1.328A1.325,1.325,0,0,1,45.6,35.392m5.851-3.123a.446.446,0,0,1,.215.287.342.342,0,0,1-.072.251c-.395.5-1.974.9-4.307,1.113v-.072a.39.39,0,0,0,.179-.036,1.75,1.75,0,0,1,.251-.108A.676.676,0,0,1,48,33.633a2.5,2.5,0,0,0,.574-.072.893.893,0,0,0,.251-.108.608.608,0,0,0-.287,0,2.219,2.219,0,0,0-.574.144,1.048,1.048,0,0,1-.323.072H47.5c-.036,0-.072.036-.108.036a.272.272,0,0,1-.144.072v-.036c.718-.5,3.374-1.867,4.2-1.472m.287,3.877a1.7,1.7,0,0,1-1.436.108,18.69,18.69,0,0,0-2.154-.9,7.589,7.589,0,0,1-1.077-.251c.036,0,.036-.036.072,0,.036,0,.108-.036.144-.036a.7.7,0,0,1,.287.036.845.845,0,0,0,.287.072.7.7,0,0,0,.251.036.269.269,0,0,1,.179.036h.072a.125.125,0,0,0-.072-.036.785.785,0,0,0-.179-.108.981.981,0,0,0-.574-.072A.7.7,0,0,1,47.247,35a.51.51,0,0,0-.215-.072c.036-.036.036-.108.072-.144a11.418,11.418,0,0,1,1.723.359c.467.108.9.215,1.113.251h.5c.5,0,1.256-.036,1.508.215a.274.274,0,0,1,.072.179.591.591,0,0,1-.287.359" transform="translate(-25.317 -18.086)" fill="#fff" opacity="0.89"/>
  </g>
</svg>
