<svg id="Google_Play_Store_badge_EN" xmlns="http://www.w3.org/2000/svg" width="191.861" height="56.848" viewBox="0 0 191.861 56.848">
  <path id="path11" d="M184.758,56.849H7.11A7.127,7.127,0,0,1,0,49.743V7.107A7.127,7.127,0,0,1,7.11,0H184.758a7.127,7.127,0,0,1,7.106,7.106V49.743a7.127,7.127,0,0,1-7.106,7.106" transform="translate(-0.003 -0.001)" fill="#100f0d"/>
  <path id="path13" d="M184.758,0H7.11A7.127,7.127,0,0,0,0,7.107V49.743A7.127,7.127,0,0,0,7.11,56.849H184.758a7.127,7.127,0,0,0,7.106-7.106V7.107A7.127,7.127,0,0,0,184.758,0Zm0,1.136a5.976,5.976,0,0,1,5.969,5.97V49.743a5.976,5.976,0,0,1-5.969,5.97H7.11a5.976,5.976,0,0,1-5.968-5.97V7.107A5.976,5.976,0,0,1,7.11,1.137H184.758" transform="translate(-0.003 -0.001)" fill="#a2a2a1"/>
  <path id="path35" d="M148.373,41.139h2.652V23.371h-2.652Zm23.887-11.367-3.04,7.7h-.091l-3.155-7.7h-2.857l4.733,10.766-2.7,5.989h2.766l7.292-16.754Zm-15.04,9.349c-.867,0-2.079-.435-2.079-1.509,0-1.371,1.509-1.9,2.811-1.9a4.722,4.722,0,0,1,2.423.594,3.215,3.215,0,0,1-3.155,2.812Zm.321-9.738a4.979,4.979,0,0,0-4.731,2.72l2.354.983a2.513,2.513,0,0,1,2.423-1.3,2.553,2.553,0,0,1,2.788,2.286v.183a5.87,5.87,0,0,0-2.766-.686c-2.538,0-5.121,1.394-5.121,4,0,2.377,2.081,3.909,4.411,3.909a3.738,3.738,0,0,0,3.382-1.738h.092V41.11h2.561V34.3c0-3.154-2.356-4.914-5.395-4.914Zm-16.39,2.552h-3.772v-6.09h3.772a3.046,3.046,0,1,1,0,6.09Zm-.068-8.563h-6.354V41.139h2.651V34.408h3.7a5.526,5.526,0,1,0,0-11.036Zm-34.65,15.752a3.468,3.468,0,0,1-3.365-3.64,3.5,3.5,0,0,1,3.365-3.686,3.406,3.406,0,0,1,3.228,3.686A3.378,3.378,0,0,1,106.432,39.123Zm3.045-8.357h-.092a4.189,4.189,0,0,0-3.182-1.351,6.05,6.05,0,0,0,0,12.089,4.122,4.122,0,0,0,3.182-1.373h.092V41c0,2.313-1.236,3.549-3.228,3.549A3.346,3.346,0,0,1,103.2,42.4l-2.312.962a5.759,5.759,0,0,0,5.357,3.572c3.114,0,5.748-1.832,5.748-6.3V29.782h-2.519Zm4.351,10.372h2.655V23.37h-2.655Zm6.57-5.861a3.316,3.316,0,0,1,3.16-3.526,2.343,2.343,0,0,1,2.245,1.282Zm8.242-2.015a5.618,5.618,0,0,0-5.174-3.846,5.744,5.744,0,0,0-5.7,6.045,5.915,5.915,0,0,0,6,6.045,6.014,6.014,0,0,0,5.038-2.679l-2.061-1.374a3.452,3.452,0,0,1-2.977,1.672,3.073,3.073,0,0,1-2.93-1.832l8.081-3.343ZM64.249,31.27v2.564h6.136a5.351,5.351,0,0,1-1.4,3.228,6.284,6.284,0,0,1-4.739,1.878,6.824,6.824,0,0,1,0-13.646,6.539,6.539,0,0,1,4.625,1.832l1.809-1.809a8.947,8.947,0,0,0-6.434-2.587,9.388,9.388,0,1,0,0,18.775A8.582,8.582,0,0,0,70.8,38.872a8.474,8.474,0,0,0,2.221-6,8.369,8.369,0,0,0-.138-1.6ZM80,39.123a3.672,3.672,0,1,1,3.411-3.663A3.5,3.5,0,0,1,80,39.123Zm0-9.708a6.045,6.045,0,1,0,6.067,6.045A5.958,5.958,0,0,0,80,29.415Zm13.236,9.708a3.672,3.672,0,1,1,3.412-3.663A3.5,3.5,0,0,1,93.231,39.123Zm0-9.708A6.045,6.045,0,1,0,99.3,35.46a5.958,5.958,0,0,0-6.068-6.045" transform="translate(3.604 1.498)" fill="#fff"/>
  <path id="path37" d="M28.558,25.9,13.428,41.958s0,.006,0,.009a4.09,4.09,0,0,0,6.021,2.465L19.5,44.4l17.032-9.828L28.559,25.9" transform="translate(0.882 1.707)" fill="#eb3131"/>
  <path id="path39" d="M42.951,23.6l-.014-.01-7.353-4.263L27.3,26.7l8.313,8.312,7.314-4.22a4.089,4.089,0,0,0,.024-7.19" transform="translate(1.796 1.273)" fill="#f6b60b"/>
  <path id="path41" d="M13.435,12.37a4.005,4.005,0,0,0-.139,1.052V41.8a3.951,3.951,0,0,0,.139,1.051L29.087,27.2,13.435,12.37" transform="translate(0.873 0.815)" fill="#5778c5"/>
  <path id="path43" d="M28.67,27.8,36.5,19.969,19.489,10.106a4.094,4.094,0,0,0-6.062,2.448.012.012,0,0,0,0,0L28.67,27.8" transform="translate(0.882 0.627)" fill="#3bad49"/>
  <path id="path33" d="M63.724,13.3H59.578v1.026h3.107a2.857,2.857,0,0,1-.979,1.972,3.186,3.186,0,0,1-2.127.717,3.225,3.225,0,0,1-2.365-.968,3.391,3.391,0,0,1-.955-2.449,3.391,3.391,0,0,1,.955-2.449,3.223,3.223,0,0,1,2.365-.966,3.387,3.387,0,0,1,1.35.262,2.61,2.61,0,0,1,1.015.753l.788-.788a3.549,3.549,0,0,0-1.372-.944,4.686,4.686,0,0,0-1.781-.335A4.406,4.406,0,0,0,55.135,13.6a4.406,4.406,0,0,0,4.443,4.468A4.1,4.1,0,0,0,62.721,16.8a3.875,3.875,0,0,0,1.064-2.856,4.214,4.214,0,0,0-.06-.644ZM65.33,9.321v8.554h4.994v-1.05H66.43V14.111h3.513V13.085H66.43V10.373h3.895V9.321Zm12,1.053V9.321H71.449v1.053h2.389v7.5h1.1v-7.5Zm5.322-1.053h-1.1v8.554h1.1ZM89.9,10.373V9.321H84.027v1.053h2.389v7.5h1.1v-7.5Zm11.092.06a4.426,4.426,0,0,0-6.26-.013A4.313,4.313,0,0,0,93.471,13.6a4.314,4.314,0,0,0,1.266,3.178,4.442,4.442,0,0,0,6.26,0,4.314,4.314,0,0,0,1.266-3.178A4.3,4.3,0,0,0,101,10.433Zm-5.472.715a3.149,3.149,0,0,1,2.343-.966,3.106,3.106,0,0,1,2.329.966,3.326,3.326,0,0,1,.944,2.449,3.323,3.323,0,0,1-.944,2.449,3.108,3.108,0,0,1-2.329.968,3.151,3.151,0,0,1-2.343-.968,3.388,3.388,0,0,1-.93-2.449A3.391,3.391,0,0,1,95.525,11.148Zm9.349,1.4-.047-1.65h.047l4.348,6.977h1.148V9.321h-1.1v5.005l.047,1.65h-.047l-4.157-6.655h-1.339v8.554h1.1Z" transform="translate(3.632 0.601)" fill="#fff" stroke="#fff" stroke-width="0.267"/>
</svg>
