<svg xmlns="http://www.w3.org/2000/svg" width="55.535" height="11.644" viewBox="0 0 55.535 11.644">
  <g id="Group_41354" data-name="Group 41354" transform="translate(17950.934 -7833.081)">
    <path id="Path_100887" data-name="Path 100887" d="M5.3,0H4.639A2.369,2.369,0,0,0,3.618.181Q3.311.332,3.379.41a3.7,3.7,0,0,0,.752.21q.62.151.591.308l-.112.62q-.068.391-.928.791A4.474,4.474,0,0,1,2,2.778,2.109,2.109,0,0,1,.581,2.432a1.359,1.359,0,0,1-.513-1.24A3.221,3.221,0,0,1,.41-.078Q.679-.64.83-.64q.029,0,.029.059a3.771,3.771,0,0,1-.229.6A2.344,2.344,0,0,0,.4.889a.87.87,0,0,0,.1.42,1.49,1.49,0,0,0,1.45.659,3.956,3.956,0,0,0,1.24-.2q.581-.176.591-.337,0-.039-.259-.122a2.174,2.174,0,0,1-.479-.171A.364.364,0,0,1,2.808.781q.132-1.5,2.051-1.5H5.3ZM1.162,3.115l.791.488.269-.439.82.488-.337.571-.791-.479-.259.449-.84-.488ZM5.078-.718H5.3l.32.024q.3.024.481.024.938,0,.938-.083a1.628,1.628,0,0,0-.469-.937l.361-.83q.078.01.361.62A3,3,0,0,1,7.607-.7.932.932,0,0,1,7.48-.19a.707.707,0,0,1-.293.122A4.447,4.447,0,0,1,6.1.039q-.249,0-.481-.02T5.3,0h-.22ZM6.118,1.26l.8.488-.352.571-.8-.488Zm4.087-3.2a2.114,2.114,0,0,1,.532.591,2.125,2.125,0,0,1,.288.63h.352V0H11.1a2.541,2.541,0,0,1-.352.942,3.63,3.63,0,0,1-.469.527,2.382,2.382,0,0,1-1.5.659,1.2,1.2,0,0,1-.732-.22A2.945,2.945,0,0,1,7.466,1.4q-.239-.273-.19-.332a2.5,2.5,0,0,0,.381.171,2.338,2.338,0,0,0,.923.2A2.465,2.465,0,0,0,10.625.122a.343.343,0,0,0,.054-.19,1.018,1.018,0,0,0-.264-.591,2.465,2.465,0,0,0-.557-.532Zm.952,1.221h1.128a1.964,1.964,0,0,1-.239-.361,1.123,1.123,0,0,1-.181-.43,1.882,1.882,0,0,1,.444-.811q.518-.688,1-.688A1.064,1.064,0,0,1,14-2.739a1.566,1.566,0,0,1,.408.5q.149.286.1.344l-.332-.171a1.5,1.5,0,0,0-.7-.2,1.118,1.118,0,0,0-.957.62q-.063.093.4.522t.759.386l1.66-.21L15-.19,13.115,0H11.167Z" transform="translate(-17951 7840.5)"/>
    <path id="Path_100888" data-name="Path 100888" d="M2.2,1.94h.68A9.1,9.1,0,0,1,1.74-2.74,9.1,9.1,0,0,1,2.88-7.42H2.2A8.982,8.982,0,0,0,1.04-2.74,9.033,9.033,0,0,0,2.2,1.94ZM9.66,0h.78L7.24-7H6.51L3.31,0h.77l.84-1.87h3.9ZM5.19-2.47,6.87-6.23,8.55-2.47Zm6.94-1.76V-5.26h-.68V0h.71V-2.68a1.7,1.7,0,0,1,1.77-1.94c.05,0,.11.01.17.01V-5.3A1.984,1.984,0,0,0,12.13-4.23Zm5-1.07a3.34,3.34,0,0,0-2.14.71l.32.53a2.68,2.68,0,0,1,1.75-.62c.98,0,1.49.49,1.49,1.39v.32H16.88c-1.51,0-2.03.68-2.03,1.49,0,.91.73,1.53,1.92,1.53a1.975,1.975,0,0,0,1.81-.87V0h.68V-3.26A1.868,1.868,0,0,0,17.13-5.3ZM16.88-.51c-.84,0-1.33-.38-1.33-.99,0-.54.33-.94,1.35-.94h1.65v.86A1.683,1.683,0,0,1,16.88-.51ZM23.9-5.3a2.3,2.3,0,0,0-2,1.04V-7.42h-.71V0h.68V-1.04A2.279,2.279,0,0,0,23.9.05a2.553,2.553,0,0,0,2.62-2.68A2.545,2.545,0,0,0,23.9-5.3ZM23.85-.58a1.926,1.926,0,0,1-1.96-2.05,1.926,1.926,0,0,1,1.96-2.05,1.931,1.931,0,0,1,1.96,2.05A1.931,1.931,0,0,1,23.85-.58Zm4.48-5.83a.51.51,0,0,0,.52-.52.5.5,0,0,0-.52-.49.512.512,0,0,0-.52.5A.514.514,0,0,0,28.33-6.41ZM27.97,0h.71V-5.26h-.71Zm4.87.05A2.319,2.319,0,0,0,34.9-.99l-.53-.36a1.779,1.779,0,0,1-1.53.77,1.927,1.927,0,0,1-1.99-2.05,1.933,1.933,0,0,1,1.99-2.05,1.788,1.788,0,0,1,1.53.78l.53-.36A2.3,2.3,0,0,0,32.84-5.3a2.589,2.589,0,0,0-2.71,2.67A2.6,2.6,0,0,0,32.84.05Zm3.13,1.89a8.938,8.938,0,0,0,1.17-4.68,8.887,8.887,0,0,0-1.17-4.68h-.68a9.005,9.005,0,0,1,1.15,4.68,9.005,9.005,0,0,1-1.15,4.68Z" transform="translate(-17932.539 7840.5)"/>
  </g>
</svg>
