<svg width="37" height="37" viewBox="0 0 37 37" fill="none" xmlns="http://www.w3.org/2000/svg">
<path d="M11.9672 15.7828C10.1557 13.9714 9.25 11.7937 9.25 9.25C9.25 6.70625 10.1557 4.52865 11.9672 2.71719C13.7786 0.905729 15.9563 0 18.5 0C21.0438 0 23.2214 0.905729 25.0328 2.71719C26.8443 4.52865 27.75 6.70625 27.75 9.25C27.75 11.7937 26.8443 13.9714 25.0328 15.7828C23.2214 17.5943 21.0438 18.5 18.5 18.5C15.9563 18.5 13.7786 17.5943 11.9672 15.7828ZM0 37V30.525C0 29.2146 0.33724 28.0102 1.01172 26.9117C1.6862 25.8133 2.58229 24.975 3.7 24.3969C6.08958 23.2021 8.51771 22.306 10.9844 21.7086C13.451 21.1112 15.9563 20.8125 18.5 20.8125C21.0438 20.8125 23.549 21.1112 26.0156 21.7086C28.4823 22.306 30.9104 23.2021 33.3 24.3969C34.4177 24.975 35.3138 25.8133 35.9883 26.9117C36.6628 28.0102 37 29.2146 37 30.525V37H0Z" fill="#A1A1A1"/>
</svg>
