<svg xmlns="http://www.w3.org/2000/svg" xmlns:xlink="http://www.w3.org/1999/xlink" width="1128" height="717.73" viewBox="0 0 1128 717.73">
  <defs>
    <clipPath id="clip-path">
      <rect width="1128" height="717.73" fill="none"/>
    </clipPath>
  </defs>
  <g id="BG-GRID" clip-path="url(#clip-path)">
    <g id="Group_42231" data-name="Group 42231" transform="translate(-1109 -5086)">
      <path id="Path_100651" data-name="Path 100651" d="M21.96,0c.721,77.73.582,167.459.209,245.524.146,136.294,1.075,272.936-.209,409.206h-.149c-1.282-136.264-.357-272.917-.207-409.206-.225-78.012-.8-168.1.357-245.524" transform="translate(1119.41 5086)" fill="#2d2f33"/>
      <path id="Path_100652" data-name="Path 100652" d="M49.176,0c.719,77.73.584,167.459.207,245.524.149,136.294,1.075,272.936-.207,409.206h-.149c-1.283-136.264-.357-272.917-.207-409.206-.225-78.012-.8-168.1.357-245.524" transform="translate(1132.811 5086)" fill="#2d2f33"/>
      <path id="Path_100653" data-name="Path 100653" d="M75.424,0c.721,77.73.582,167.459.209,245.524.146,136.294,1.075,272.936-.209,409.206h-.149c-1.282-136.264-.357-272.917-.207-409.206-.225-78.012-.8-168.1.357-245.524" transform="translate(1145.736 5086)" fill="#2d2f33"/>
      <path id="Path_100654" data-name="Path 100654" d="M102.64,0c.719,77.73.584,167.459.207,245.524.149,136.294,1.076,272.936-.207,409.206h-.149c-1.283-136.264-.357-272.917-.207-409.206-.225-78.012-.8-168.1.357-245.524" transform="translate(1159.137 5086)" fill="#2d2f33"/>
      <path id="Path_100655" data-name="Path 100655" d="M127.188,0c.721,77.73.582,167.459.209,245.524.146,136.294,1.075,272.936-.209,409.206h-.149c-1.282-136.264-.357-272.917-.207-409.206-.225-78.012-.8-168.1.357-245.524" transform="translate(1171.224 5086)" fill="#2d2f33"/>
      <path id="Path_100656" data-name="Path 100656" d="M154.4,0c.719,77.73.584,167.459.207,245.524.149,136.294,1.075,272.936-.207,409.206h-.149c-1.283-136.264-.357-272.917-.207-409.206-.225-78.012-.8-168.1.357-245.524" transform="translate(1184.625 5086)" fill="#2d2f33"/>
      <path id="Path_100657" data-name="Path 100657" d="M180.652,0c.721,77.73.582,167.459.209,245.524.146,136.294,1.075,272.936-.209,409.206H180.5c-1.282-136.264-.357-272.917-.207-409.206-.225-78.012-.8-168.1.357-245.524" transform="translate(1197.55 5086)" fill="#2d2f33"/>
      <path id="Path_100658" data-name="Path 100658" d="M207.869,0c.719,77.73.583,167.459.207,245.524.149,136.294,1.076,272.936-.207,409.206h-.149c-1.283-136.264-.357-272.917-.207-409.206-.225-78.012-.8-168.1.357-245.524" transform="translate(1210.951 5086)" fill="#2d2f33"/>
      <path id="Path_100659" data-name="Path 100659" d="M235.083,0c.721,77.73.584,167.459.209,245.524.148,136.294,1.075,272.936-.209,409.206h-.149c-1.283-136.264-.355-272.917-.207-409.206-.227-78.012-.8-168.1.357-245.524" transform="translate(1224.352 5086)" fill="#2d2f33"/>
      <path id="Path_100660" data-name="Path 100660" d="M262.3,0c.721,77.73.582,167.459.209,245.524.146,136.294,1.075,272.936-.209,409.206h-.149c-1.282-136.264-.357-272.917-.207-409.206-.225-78.012-.8-168.1.357-245.524" transform="translate(1237.753 5086)" fill="#2d2f33"/>
      <path id="Path_100661" data-name="Path 100661" d="M288.547,0c.721,77.73.583,167.459.209,245.524.148,136.294,1.074,272.936-.209,409.206H288.4c-1.283-136.264-.355-272.917-.207-409.206-.227-78.012-.8-168.1.357-245.524" transform="translate(1250.678 5086)" fill="#2d2f33"/>
      <path id="Path_100662" data-name="Path 100662" d="M315.763,0c.721,77.73.582,167.459.209,245.524.146,136.294,1.075,272.936-.209,409.206h-.149c-1.282-136.264-.357-272.917-.207-409.206-.225-78.012-.8-168.1.357-245.524" transform="translate(1264.079 5086)" fill="#2d2f33"/>
      <path id="Path_100663" data-name="Path 100663" d="M340.31,0c.721,77.73.584,167.459.209,245.524.148,136.294,1.075,272.936-.209,409.206h-.149c-1.284-136.264-.355-272.917-.207-409.206-.227-78.012-.8-168.1.357-245.524" transform="translate(1276.166 5086)" fill="#2d2f33"/>
      <path id="Path_100664" data-name="Path 100664" d="M367.526,0c.721,77.73.582,167.459.209,245.524.146,136.294,1.075,272.936-.209,409.206h-.149c-1.282-136.264-.357-272.917-.207-409.206-.225-78.012-.8-168.1.357-245.524" transform="translate(1289.567 5086)" fill="#2d2f33"/>
      <path id="Path_100665" data-name="Path 100665" d="M393.774,0c.721,77.73.584,167.459.209,245.524.148,136.294,1.075,272.936-.209,409.206h-.149c-1.283-136.264-.355-272.917-.207-409.206-.227-78.012-.8-168.1.357-245.524" transform="translate(1302.492 5086)" fill="#2d2f33"/>
      <path id="Path_100666" data-name="Path 100666" d="M420.99,0c.721,77.73.582,167.459.209,245.524.146,136.294,1.075,272.936-.209,409.206h-.149c-1.282-136.264-.357-272.917-.207-409.206-.225-78.012-.8-168.1.357-245.524" transform="translate(1315.893 5086)" fill="#2d2f33"/>
      <path id="Path_100667" data-name="Path 100667" d="M0,419.04c77.73-.721,167.459-.584,245.524-.207,136.294-.149,272.936-1.076,409.206.207v.149c-136.264,1.283-272.917.357-409.206.207-78.012.225-168.1.8-245.524-.357" transform="translate(1109 5292.006)" fill="#2d2f33"/>
      <path id="Path_100668" data-name="Path 100668" d="M0,391.825c77.73-.721,167.459-.584,245.524-.207,136.294-.149,272.936-1.076,409.206.207v.149c-136.264,1.283-272.917.357-409.206.207-78.012.225-168.1.8-245.524-.357" transform="translate(1109 5278.605)" fill="#2d2f33"/>
      <path id="Path_100669" data-name="Path 100669" d="M0,365.576c77.73-.721,167.459-.584,245.524-.207,136.294-.149,272.936-1.076,409.206.207v.149c-136.264,1.283-272.917.357-409.206.207-78.012.225-168.1.8-245.524-.357" transform="translate(1109 5265.68)" fill="#2d2f33"/>
      <path id="Path_100670" data-name="Path 100670" d="M0,338.361c77.73-.721,167.459-.584,245.524-.207,136.294-.149,272.936-1.076,409.206.207v.149c-136.264,1.284-272.917.357-409.206.208-78.012.225-168.1.8-245.524-.357" transform="translate(1109 5252.279)" fill="#2d2f33"/>
      <path id="Path_100671" data-name="Path 100671" d="M0,313.813c77.73-.721,167.459-.584,245.524-.207,136.294-.149,272.936-1.076,409.206.207v.149c-136.264,1.283-272.917.357-409.206.207-78.012.225-168.1.8-245.524-.357" transform="translate(1109 5240.192)" fill="#2d2f33"/>
      <path id="Path_100672" data-name="Path 100672" d="M0,286.6c77.73-.721,167.459-.584,245.524-.207,136.294-.149,272.936-1.076,409.206.207v.149c-136.264,1.283-272.917.357-409.206.207-78.012.225-168.1.8-245.524-.357" transform="translate(1109 5226.791)" fill="#2d2f33"/>
      <path id="Path_100673" data-name="Path 100673" d="M0,260.349c77.73-.721,167.459-.584,245.524-.207,136.294-.149,272.936-1.076,409.206.207v.149c-136.264,1.283-272.917.357-409.206.207-78.012.225-168.1.8-245.524-.357" transform="translate(1109 5213.866)" fill="#2d2f33"/>
      <path id="Path_100674" data-name="Path 100674" d="M0,233.133c77.73-.721,167.459-.584,245.524-.207,136.294-.149,272.936-1.076,409.206.207v.149c-136.264,1.283-272.917.357-409.206.207-78.012.225-168.1.8-245.524-.357" transform="translate(1109 5200.465)" fill="#2d2f33"/>
      <path id="Path_100675" data-name="Path 100675" d="M0,205.918c77.73-.721,167.459-.582,245.524-.207,136.294-.149,272.936-1.076,409.206.207v.149c-136.264,1.283-272.917.357-409.206.207-78.012.225-168.1.8-245.524-.357" transform="translate(1109 5187.064)" fill="#2d2f33"/>
      <path id="Path_100676" data-name="Path 100676" d="M654.73,178.851c-77.73.721-167.459.582-245.524.207-136.294.149-272.935,1.076-409.206-.207V178.7c136.264-1.283,272.917-.357,409.206-.207,78.012-.225,168.1-.8,245.524.357" transform="translate(1109 5173.663)" fill="#2d2f33"/>
      <path id="Path_100677" data-name="Path 100677" d="M0,152.454c77.73-.721,167.459-.584,245.524-.207,136.294-.149,272.936-1.076,409.206.207v.149c-136.264,1.283-272.917.357-409.206.207-78.012.225-168.1.8-245.524-.357" transform="translate(1109 5160.738)" fill="#2d2f33"/>
      <path id="Path_100678" data-name="Path 100678" d="M0,125.238c77.73-.721,167.459-.584,245.524-.207,136.294-.149,272.936-1.076,409.206.207v.149c-136.264,1.283-272.917.357-409.206.207-78.012.225-168.1.8-245.524-.357" transform="translate(1109 5147.337)" fill="#2d2f33"/>
      <path id="Path_100679" data-name="Path 100679" d="M0,100.69c77.73-.721,167.459-.582,245.524-.207,136.294-.149,272.936-1.076,409.206.207v.149c-136.264,1.283-272.917.357-409.206.207-78.012.225-168.1.8-245.524-.357" transform="translate(1109 5135.25)" fill="#2d2f33"/>
      <path id="Path_100680" data-name="Path 100680" d="M0,73.474c77.73-.721,167.459-.584,245.524-.207,136.3-.149,272.936-1.076,409.206.207v.149c-136.264,1.283-272.917.357-409.206.207-78.012.225-168.1.8-245.524-.357" transform="translate(1109 5121.849)" fill="#2d2f33"/>
      <path id="Path_100681" data-name="Path 100681" d="M0,47.226c77.73-.721,167.459-.584,245.524-.207,136.294-.149,272.936-1.076,409.206.207v.149c-136.264,1.283-272.917.357-409.206.207-78.012.225-168.1.8-245.524-.357" transform="translate(1109 5108.924)" fill="#2d2f33"/>
      <path id="Path_100682" data-name="Path 100682" d="M0,20.011c77.73-.721,167.459-.584,245.524-.207,136.294-.149,272.936-1.076,409.206.207v.149c-136.264,1.283-272.917.357-409.206.207-78.012.225-168.1.8-245.524-.357" transform="translate(1109 5095.523)" fill="#2d2f33"/>
    </g>
    <g id="Group_42231-2" data-name="Group 42231" transform="translate(-513 -5086)">
      <path id="Path_100651-2" data-name="Path 100651" d="M21.96,0c.721,77.73.582,167.459.209,245.524.146,136.294,1.075,272.936-.209,409.206h-.149c-1.282-136.264-.357-272.917-.207-409.206-.225-78.012-.8-168.1.357-245.524" transform="translate(1119.41 5086)" fill="#2d2f33"/>
      <path id="Path_100652-2" data-name="Path 100652" d="M49.176,0c.719,77.73.584,167.459.207,245.524.149,136.294,1.075,272.936-.207,409.206h-.149c-1.283-136.264-.357-272.917-.207-409.206-.225-78.012-.8-168.1.357-245.524" transform="translate(1132.811 5086)" fill="#2d2f33"/>
      <path id="Path_100653-2" data-name="Path 100653" d="M75.424,0c.721,77.73.582,167.459.209,245.524.146,136.294,1.075,272.936-.209,409.206h-.149c-1.282-136.264-.357-272.917-.207-409.206-.225-78.012-.8-168.1.357-245.524" transform="translate(1145.736 5086)" fill="#2d2f33"/>
      <path id="Path_100654-2" data-name="Path 100654" d="M102.64,0c.719,77.73.584,167.459.207,245.524.149,136.294,1.076,272.936-.207,409.206h-.149c-1.283-136.264-.357-272.917-.207-409.206-.225-78.012-.8-168.1.357-245.524" transform="translate(1159.137 5086)" fill="#2d2f33"/>
      <path id="Path_100655-2" data-name="Path 100655" d="M127.188,0c.721,77.73.582,167.459.209,245.524.146,136.294,1.075,272.936-.209,409.206h-.149c-1.282-136.264-.357-272.917-.207-409.206-.225-78.012-.8-168.1.357-245.524" transform="translate(1171.224 5086)" fill="#2d2f33"/>
      <path id="Path_100656-2" data-name="Path 100656" d="M154.4,0c.719,77.73.584,167.459.207,245.524.149,136.294,1.075,272.936-.207,409.206h-.149c-1.283-136.264-.357-272.917-.207-409.206-.225-78.012-.8-168.1.357-245.524" transform="translate(1184.625 5086)" fill="#2d2f33"/>
      <path id="Path_100657-2" data-name="Path 100657" d="M180.652,0c.721,77.73.582,167.459.209,245.524.146,136.294,1.075,272.936-.209,409.206H180.5c-1.282-136.264-.357-272.917-.207-409.206-.225-78.012-.8-168.1.357-245.524" transform="translate(1197.55 5086)" fill="#2d2f33"/>
      <path id="Path_100658-2" data-name="Path 100658" d="M207.869,0c.719,77.73.583,167.459.207,245.524.149,136.294,1.076,272.936-.207,409.206h-.149c-1.283-136.264-.357-272.917-.207-409.206-.225-78.012-.8-168.1.357-245.524" transform="translate(1210.951 5086)" fill="#2d2f33"/>
      <path id="Path_100659-2" data-name="Path 100659" d="M235.083,0c.721,77.73.584,167.459.209,245.524.148,136.294,1.075,272.936-.209,409.206h-.149c-1.283-136.264-.355-272.917-.207-409.206-.227-78.012-.8-168.1.357-245.524" transform="translate(1224.352 5086)" fill="#2d2f33"/>
      <path id="Path_100660-2" data-name="Path 100660" d="M262.3,0c.721,77.73.582,167.459.209,245.524.146,136.294,1.075,272.936-.209,409.206h-.149c-1.282-136.264-.357-272.917-.207-409.206-.225-78.012-.8-168.1.357-245.524" transform="translate(1237.753 5086)" fill="#2d2f33"/>
      <path id="Path_100661-2" data-name="Path 100661" d="M288.547,0c.721,77.73.583,167.459.209,245.524.148,136.294,1.074,272.936-.209,409.206H288.4c-1.283-136.264-.355-272.917-.207-409.206-.227-78.012-.8-168.1.357-245.524" transform="translate(1250.678 5086)" fill="#2d2f33"/>
      <path id="Path_100662-2" data-name="Path 100662" d="M315.763,0c.721,77.73.582,167.459.209,245.524.146,136.294,1.075,272.936-.209,409.206h-.149c-1.282-136.264-.357-272.917-.207-409.206-.225-78.012-.8-168.1.357-245.524" transform="translate(1264.079 5086)" fill="#2d2f33"/>
      <path id="Path_100663-2" data-name="Path 100663" d="M340.31,0c.721,77.73.584,167.459.209,245.524.148,136.294,1.075,272.936-.209,409.206h-.149c-1.284-136.264-.355-272.917-.207-409.206-.227-78.012-.8-168.1.357-245.524" transform="translate(1276.166 5086)" fill="#2d2f33"/>
      <path id="Path_100664-2" data-name="Path 100664" d="M367.526,0c.721,77.73.582,167.459.209,245.524.146,136.294,1.075,272.936-.209,409.206h-.149c-1.282-136.264-.357-272.917-.207-409.206-.225-78.012-.8-168.1.357-245.524" transform="translate(1289.567 5086)" fill="#2d2f33"/>
      <path id="Path_100665-2" data-name="Path 100665" d="M393.774,0c.721,77.73.584,167.459.209,245.524.148,136.294,1.075,272.936-.209,409.206h-.149c-1.283-136.264-.355-272.917-.207-409.206-.227-78.012-.8-168.1.357-245.524" transform="translate(1302.492 5086)" fill="#2d2f33"/>
      <path id="Path_100666-2" data-name="Path 100666" d="M420.99,0c.721,77.73.582,167.459.209,245.524.146,136.294,1.075,272.936-.209,409.206h-.149c-1.282-136.264-.357-272.917-.207-409.206-.225-78.012-.8-168.1.357-245.524" transform="translate(1315.893 5086)" fill="#2d2f33"/>
      <path id="Path_100667-2" data-name="Path 100667" d="M0,419.04c77.73-.721,167.459-.584,245.524-.207,136.294-.149,272.936-1.076,409.206.207v.149c-136.264,1.283-272.917.357-409.206.207-78.012.225-168.1.8-245.524-.357" transform="translate(1109 5292.006)" fill="#2d2f33"/>
      <path id="Path_100668-2" data-name="Path 100668" d="M0,391.825c77.73-.721,167.459-.584,245.524-.207,136.294-.149,272.936-1.076,409.206.207v.149c-136.264,1.283-272.917.357-409.206.207-78.012.225-168.1.8-245.524-.357" transform="translate(1109 5278.605)" fill="#2d2f33"/>
      <path id="Path_100669-2" data-name="Path 100669" d="M0,365.576c77.73-.721,167.459-.584,245.524-.207,136.294-.149,272.936-1.076,409.206.207v.149c-136.264,1.283-272.917.357-409.206.207-78.012.225-168.1.8-245.524-.357" transform="translate(1109 5265.68)" fill="#2d2f33"/>
      <path id="Path_100670-2" data-name="Path 100670" d="M0,338.361c77.73-.721,167.459-.584,245.524-.207,136.294-.149,272.936-1.076,409.206.207v.149c-136.264,1.284-272.917.357-409.206.208-78.012.225-168.1.8-245.524-.357" transform="translate(1109 5252.279)" fill="#2d2f33"/>
      <path id="Path_100671-2" data-name="Path 100671" d="M0,313.813c77.73-.721,167.459-.584,245.524-.207,136.294-.149,272.936-1.076,409.206.207v.149c-136.264,1.283-272.917.357-409.206.207-78.012.225-168.1.8-245.524-.357" transform="translate(1109 5240.192)" fill="#2d2f33"/>
      <path id="Path_100672-2" data-name="Path 100672" d="M0,286.6c77.73-.721,167.459-.584,245.524-.207,136.294-.149,272.936-1.076,409.206.207v.149c-136.264,1.283-272.917.357-409.206.207-78.012.225-168.1.8-245.524-.357" transform="translate(1109 5226.791)" fill="#2d2f33"/>
      <path id="Path_100673-2" data-name="Path 100673" d="M0,260.349c77.73-.721,167.459-.584,245.524-.207,136.294-.149,272.936-1.076,409.206.207v.149c-136.264,1.283-272.917.357-409.206.207-78.012.225-168.1.8-245.524-.357" transform="translate(1109 5213.866)" fill="#2d2f33"/>
      <path id="Path_100674-2" data-name="Path 100674" d="M0,233.133c77.73-.721,167.459-.584,245.524-.207,136.294-.149,272.936-1.076,409.206.207v.149c-136.264,1.283-272.917.357-409.206.207-78.012.225-168.1.8-245.524-.357" transform="translate(1109 5200.465)" fill="#2d2f33"/>
      <path id="Path_100675-2" data-name="Path 100675" d="M0,205.918c77.73-.721,167.459-.582,245.524-.207,136.294-.149,272.936-1.076,409.206.207v.149c-136.264,1.283-272.917.357-409.206.207-78.012.225-168.1.8-245.524-.357" transform="translate(1109 5187.064)" fill="#2d2f33"/>
      <path id="Path_100676-2" data-name="Path 100676" d="M654.73,178.851c-77.73.721-167.459.582-245.524.207-136.294.149-272.935,1.076-409.206-.207V178.7c136.264-1.283,272.917-.357,409.206-.207,78.012-.225,168.1-.8,245.524.357" transform="translate(1109 5173.663)" fill="#2d2f33"/>
      <path id="Path_100677-2" data-name="Path 100677" d="M0,152.454c77.73-.721,167.459-.584,245.524-.207,136.294-.149,272.936-1.076,409.206.207v.149c-136.264,1.283-272.917.357-409.206.207-78.012.225-168.1.8-245.524-.357" transform="translate(1109 5160.738)" fill="#2d2f33"/>
      <path id="Path_100678-2" data-name="Path 100678" d="M0,125.238c77.73-.721,167.459-.584,245.524-.207,136.294-.149,272.936-1.076,409.206.207v.149c-136.264,1.283-272.917.357-409.206.207-78.012.225-168.1.8-245.524-.357" transform="translate(1109 5147.337)" fill="#2d2f33"/>
      <path id="Path_100679-2" data-name="Path 100679" d="M0,100.69c77.73-.721,167.459-.582,245.524-.207,136.294-.149,272.936-1.076,409.206.207v.149c-136.264,1.283-272.917.357-409.206.207-78.012.225-168.1.8-245.524-.357" transform="translate(1109 5135.25)" fill="#2d2f33"/>
      <path id="Path_100680-2" data-name="Path 100680" d="M0,73.474c77.73-.721,167.459-.584,245.524-.207,136.3-.149,272.936-1.076,409.206.207v.149c-136.264,1.283-272.917.357-409.206.207-78.012.225-168.1.8-245.524-.357" transform="translate(1109 5121.849)" fill="#2d2f33"/>
      <path id="Path_100681-2" data-name="Path 100681" d="M0,47.226c77.73-.721,167.459-.584,245.524-.207,136.294-.149,272.936-1.076,409.206.207v.149c-136.264,1.283-272.917.357-409.206.207-78.012.225-168.1.8-245.524-.357" transform="translate(1109 5108.924)" fill="#2d2f33"/>
      <path id="Path_100682-2" data-name="Path 100682" d="M0,20.011c77.73-.721,167.459-.584,245.524-.207,136.294-.149,272.936-1.076,409.206.207v.149c-136.264,1.283-272.917.357-409.206.207-78.012.225-168.1.8-245.524-.357" transform="translate(1109 5095.523)" fill="#2d2f33"/>
    </g>
    <g id="Group_42231-3" data-name="Group 42231" transform="translate(-1109 -4461)">
      <path id="Path_100651-3" data-name="Path 100651" d="M21.96,0c.721,77.73.582,167.459.209,245.524.146,136.294,1.075,272.936-.209,409.206h-.149c-1.282-136.264-.357-272.917-.207-409.206-.225-78.012-.8-168.1.357-245.524" transform="translate(1119.41 5086)" fill="#2d2f33"/>
      <path id="Path_100652-3" data-name="Path 100652" d="M49.176,0c.719,77.73.584,167.459.207,245.524.149,136.294,1.075,272.936-.207,409.206h-.149c-1.283-136.264-.357-272.917-.207-409.206-.225-78.012-.8-168.1.357-245.524" transform="translate(1132.811 5086)" fill="#2d2f33"/>
      <path id="Path_100653-3" data-name="Path 100653" d="M75.424,0c.721,77.73.582,167.459.209,245.524.146,136.294,1.075,272.936-.209,409.206h-.149c-1.282-136.264-.357-272.917-.207-409.206-.225-78.012-.8-168.1.357-245.524" transform="translate(1145.736 5086)" fill="#2d2f33"/>
      <path id="Path_100654-3" data-name="Path 100654" d="M102.64,0c.719,77.73.584,167.459.207,245.524.149,136.294,1.076,272.936-.207,409.206h-.149c-1.283-136.264-.357-272.917-.207-409.206-.225-78.012-.8-168.1.357-245.524" transform="translate(1159.137 5086)" fill="#2d2f33"/>
      <path id="Path_100655-3" data-name="Path 100655" d="M127.188,0c.721,77.73.582,167.459.209,245.524.146,136.294,1.075,272.936-.209,409.206h-.149c-1.282-136.264-.357-272.917-.207-409.206-.225-78.012-.8-168.1.357-245.524" transform="translate(1171.224 5086)" fill="#2d2f33"/>
      <path id="Path_100656-3" data-name="Path 100656" d="M154.4,0c.719,77.73.584,167.459.207,245.524.149,136.294,1.075,272.936-.207,409.206h-.149c-1.283-136.264-.357-272.917-.207-409.206-.225-78.012-.8-168.1.357-245.524" transform="translate(1184.625 5086)" fill="#2d2f33"/>
      <path id="Path_100657-3" data-name="Path 100657" d="M180.652,0c.721,77.73.582,167.459.209,245.524.146,136.294,1.075,272.936-.209,409.206H180.5c-1.282-136.264-.357-272.917-.207-409.206-.225-78.012-.8-168.1.357-245.524" transform="translate(1197.55 5086)" fill="#2d2f33"/>
      <path id="Path_100658-3" data-name="Path 100658" d="M207.869,0c.719,77.73.583,167.459.207,245.524.149,136.294,1.076,272.936-.207,409.206h-.149c-1.283-136.264-.357-272.917-.207-409.206-.225-78.012-.8-168.1.357-245.524" transform="translate(1210.951 5086)" fill="#2d2f33"/>
      <path id="Path_100659-3" data-name="Path 100659" d="M235.083,0c.721,77.73.584,167.459.209,245.524.148,136.294,1.075,272.936-.209,409.206h-.149c-1.283-136.264-.355-272.917-.207-409.206-.227-78.012-.8-168.1.357-245.524" transform="translate(1224.352 5086)" fill="#2d2f33"/>
      <path id="Path_100660-3" data-name="Path 100660" d="M262.3,0c.721,77.73.582,167.459.209,245.524.146,136.294,1.075,272.936-.209,409.206h-.149c-1.282-136.264-.357-272.917-.207-409.206-.225-78.012-.8-168.1.357-245.524" transform="translate(1237.753 5086)" fill="#2d2f33"/>
      <path id="Path_100661-3" data-name="Path 100661" d="M288.547,0c.721,77.73.583,167.459.209,245.524.148,136.294,1.074,272.936-.209,409.206H288.4c-1.283-136.264-.355-272.917-.207-409.206-.227-78.012-.8-168.1.357-245.524" transform="translate(1250.678 5086)" fill="#2d2f33"/>
      <path id="Path_100662-3" data-name="Path 100662" d="M315.763,0c.721,77.73.582,167.459.209,245.524.146,136.294,1.075,272.936-.209,409.206h-.149c-1.282-136.264-.357-272.917-.207-409.206-.225-78.012-.8-168.1.357-245.524" transform="translate(1264.079 5086)" fill="#2d2f33"/>
      <path id="Path_100663-3" data-name="Path 100663" d="M340.31,0c.721,77.73.584,167.459.209,245.524.148,136.294,1.075,272.936-.209,409.206h-.149c-1.284-136.264-.355-272.917-.207-409.206-.227-78.012-.8-168.1.357-245.524" transform="translate(1276.166 5086)" fill="#2d2f33"/>
      <path id="Path_100664-3" data-name="Path 100664" d="M367.526,0c.721,77.73.582,167.459.209,245.524.146,136.294,1.075,272.936-.209,409.206h-.149c-1.282-136.264-.357-272.917-.207-409.206-.225-78.012-.8-168.1.357-245.524" transform="translate(1289.567 5086)" fill="#2d2f33"/>
      <path id="Path_100665-3" data-name="Path 100665" d="M393.774,0c.721,77.73.584,167.459.209,245.524.148,136.294,1.075,272.936-.209,409.206h-.149c-1.283-136.264-.355-272.917-.207-409.206-.227-78.012-.8-168.1.357-245.524" transform="translate(1302.492 5086)" fill="#2d2f33"/>
      <path id="Path_100666-3" data-name="Path 100666" d="M420.99,0c.721,77.73.582,167.459.209,245.524.146,136.294,1.075,272.936-.209,409.206h-.149c-1.282-136.264-.357-272.917-.207-409.206-.225-78.012-.8-168.1.357-245.524" transform="translate(1315.893 5086)" fill="#2d2f33"/>
      <path id="Path_100667-3" data-name="Path 100667" d="M0,419.04c77.73-.721,167.459-.584,245.524-.207,136.294-.149,272.936-1.076,409.206.207v.149c-136.264,1.283-272.917.357-409.206.207-78.012.225-168.1.8-245.524-.357" transform="translate(1109 5292.006)" fill="#2d2f33"/>
      <path id="Path_100668-3" data-name="Path 100668" d="M0,391.825c77.73-.721,167.459-.584,245.524-.207,136.294-.149,272.936-1.076,409.206.207v.149c-136.264,1.283-272.917.357-409.206.207-78.012.225-168.1.8-245.524-.357" transform="translate(1109 5278.605)" fill="#2d2f33"/>
      <path id="Path_100669-3" data-name="Path 100669" d="M0,365.576c77.73-.721,167.459-.584,245.524-.207,136.294-.149,272.936-1.076,409.206.207v.149c-136.264,1.283-272.917.357-409.206.207-78.012.225-168.1.8-245.524-.357" transform="translate(1109 5265.68)" fill="#2d2f33"/>
      <path id="Path_100670-3" data-name="Path 100670" d="M0,338.361c77.73-.721,167.459-.584,245.524-.207,136.294-.149,272.936-1.076,409.206.207v.149c-136.264,1.284-272.917.357-409.206.208-78.012.225-168.1.8-245.524-.357" transform="translate(1109 5252.279)" fill="#2d2f33"/>
      <path id="Path_100671-3" data-name="Path 100671" d="M0,313.813c77.73-.721,167.459-.584,245.524-.207,136.294-.149,272.936-1.076,409.206.207v.149c-136.264,1.283-272.917.357-409.206.207-78.012.225-168.1.8-245.524-.357" transform="translate(1109 5240.192)" fill="#2d2f33"/>
      <path id="Path_100672-3" data-name="Path 100672" d="M0,286.6c77.73-.721,167.459-.584,245.524-.207,136.294-.149,272.936-1.076,409.206.207v.149c-136.264,1.283-272.917.357-409.206.207-78.012.225-168.1.8-245.524-.357" transform="translate(1109 5226.791)" fill="#2d2f33"/>
      <path id="Path_100673-3" data-name="Path 100673" d="M0,260.349c77.73-.721,167.459-.584,245.524-.207,136.294-.149,272.936-1.076,409.206.207v.149c-136.264,1.283-272.917.357-409.206.207-78.012.225-168.1.8-245.524-.357" transform="translate(1109 5213.866)" fill="#2d2f33"/>
      <path id="Path_100674-3" data-name="Path 100674" d="M0,233.133c77.73-.721,167.459-.584,245.524-.207,136.294-.149,272.936-1.076,409.206.207v.149c-136.264,1.283-272.917.357-409.206.207-78.012.225-168.1.8-245.524-.357" transform="translate(1109 5200.465)" fill="#2d2f33"/>
      <path id="Path_100675-3" data-name="Path 100675" d="M0,205.918c77.73-.721,167.459-.582,245.524-.207,136.294-.149,272.936-1.076,409.206.207v.149c-136.264,1.283-272.917.357-409.206.207-78.012.225-168.1.8-245.524-.357" transform="translate(1109 5187.064)" fill="#2d2f33"/>
      <path id="Path_100676-3" data-name="Path 100676" d="M654.73,178.851c-77.73.721-167.459.582-245.524.207-136.294.149-272.935,1.076-409.206-.207V178.7c136.264-1.283,272.917-.357,409.206-.207,78.012-.225,168.1-.8,245.524.357" transform="translate(1109 5173.663)" fill="#2d2f33"/>
      <path id="Path_100677-3" data-name="Path 100677" d="M0,152.454c77.73-.721,167.459-.584,245.524-.207,136.294-.149,272.936-1.076,409.206.207v.149c-136.264,1.283-272.917.357-409.206.207-78.012.225-168.1.8-245.524-.357" transform="translate(1109 5160.738)" fill="#2d2f33"/>
      <path id="Path_100678-3" data-name="Path 100678" d="M0,125.238c77.73-.721,167.459-.584,245.524-.207,136.294-.149,272.936-1.076,409.206.207v.149c-136.264,1.283-272.917.357-409.206.207-78.012.225-168.1.8-245.524-.357" transform="translate(1109 5147.337)" fill="#2d2f33"/>
      <path id="Path_100679-3" data-name="Path 100679" d="M0,100.69c77.73-.721,167.459-.582,245.524-.207,136.294-.149,272.936-1.076,409.206.207v.149c-136.264,1.283-272.917.357-409.206.207-78.012.225-168.1.8-245.524-.357" transform="translate(1109 5135.25)" fill="#2d2f33"/>
      <path id="Path_100680-3" data-name="Path 100680" d="M0,73.474c77.73-.721,167.459-.584,245.524-.207,136.3-.149,272.936-1.076,409.206.207v.149c-136.264,1.283-272.917.357-409.206.207-78.012.225-168.1.8-245.524-.357" transform="translate(1109 5121.849)" fill="#2d2f33"/>
      <path id="Path_100681-3" data-name="Path 100681" d="M0,47.226c77.73-.721,167.459-.584,245.524-.207,136.294-.149,272.936-1.076,409.206.207v.149c-136.264,1.283-272.917.357-409.206.207-78.012.225-168.1.8-245.524-.357" transform="translate(1109 5108.924)" fill="#2d2f33"/>
      <path id="Path_100682-3" data-name="Path 100682" d="M0,20.011c77.73-.721,167.459-.584,245.524-.207,136.294-.149,272.936-1.076,409.206.207v.149c-136.264,1.283-272.917.357-409.206.207-78.012.225-168.1.8-245.524-.357" transform="translate(1109 5095.523)" fill="#2d2f33"/>
    </g>
    <g id="Group_42231-4" data-name="Group 42231" transform="translate(-513 -4461)">
      <path id="Path_100651-4" data-name="Path 100651" d="M21.96,0c.721,77.73.582,167.459.209,245.524.146,136.294,1.075,272.936-.209,409.206h-.149c-1.282-136.264-.357-272.917-.207-409.206-.225-78.012-.8-168.1.357-245.524" transform="translate(1119.41 5086)" fill="#2d2f33"/>
      <path id="Path_100652-4" data-name="Path 100652" d="M49.176,0c.719,77.73.584,167.459.207,245.524.149,136.294,1.075,272.936-.207,409.206h-.149c-1.283-136.264-.357-272.917-.207-409.206-.225-78.012-.8-168.1.357-245.524" transform="translate(1132.811 5086)" fill="#2d2f33"/>
      <path id="Path_100653-4" data-name="Path 100653" d="M75.424,0c.721,77.73.582,167.459.209,245.524.146,136.294,1.075,272.936-.209,409.206h-.149c-1.282-136.264-.357-272.917-.207-409.206-.225-78.012-.8-168.1.357-245.524" transform="translate(1145.736 5086)" fill="#2d2f33"/>
      <path id="Path_100654-4" data-name="Path 100654" d="M102.64,0c.719,77.73.584,167.459.207,245.524.149,136.294,1.076,272.936-.207,409.206h-.149c-1.283-136.264-.357-272.917-.207-409.206-.225-78.012-.8-168.1.357-245.524" transform="translate(1159.137 5086)" fill="#2d2f33"/>
      <path id="Path_100655-4" data-name="Path 100655" d="M127.188,0c.721,77.73.582,167.459.209,245.524.146,136.294,1.075,272.936-.209,409.206h-.149c-1.282-136.264-.357-272.917-.207-409.206-.225-78.012-.8-168.1.357-245.524" transform="translate(1171.224 5086)" fill="#2d2f33"/>
      <path id="Path_100656-4" data-name="Path 100656" d="M154.4,0c.719,77.73.584,167.459.207,245.524.149,136.294,1.075,272.936-.207,409.206h-.149c-1.283-136.264-.357-272.917-.207-409.206-.225-78.012-.8-168.1.357-245.524" transform="translate(1184.625 5086)" fill="#2d2f33"/>
      <path id="Path_100657-4" data-name="Path 100657" d="M180.652,0c.721,77.73.582,167.459.209,245.524.146,136.294,1.075,272.936-.209,409.206H180.5c-1.282-136.264-.357-272.917-.207-409.206-.225-78.012-.8-168.1.357-245.524" transform="translate(1197.55 5086)" fill="#2d2f33"/>
      <path id="Path_100658-4" data-name="Path 100658" d="M207.869,0c.719,77.73.583,167.459.207,245.524.149,136.294,1.076,272.936-.207,409.206h-.149c-1.283-136.264-.357-272.917-.207-409.206-.225-78.012-.8-168.1.357-245.524" transform="translate(1210.951 5086)" fill="#2d2f33"/>
      <path id="Path_100659-4" data-name="Path 100659" d="M235.083,0c.721,77.73.584,167.459.209,245.524.148,136.294,1.075,272.936-.209,409.206h-.149c-1.283-136.264-.355-272.917-.207-409.206-.227-78.012-.8-168.1.357-245.524" transform="translate(1224.352 5086)" fill="#2d2f33"/>
      <path id="Path_100660-4" data-name="Path 100660" d="M262.3,0c.721,77.73.582,167.459.209,245.524.146,136.294,1.075,272.936-.209,409.206h-.149c-1.282-136.264-.357-272.917-.207-409.206-.225-78.012-.8-168.1.357-245.524" transform="translate(1237.753 5086)" fill="#2d2f33"/>
      <path id="Path_100661-4" data-name="Path 100661" d="M288.547,0c.721,77.73.583,167.459.209,245.524.148,136.294,1.074,272.936-.209,409.206H288.4c-1.283-136.264-.355-272.917-.207-409.206-.227-78.012-.8-168.1.357-245.524" transform="translate(1250.678 5086)" fill="#2d2f33"/>
      <path id="Path_100662-4" data-name="Path 100662" d="M315.763,0c.721,77.73.582,167.459.209,245.524.146,136.294,1.075,272.936-.209,409.206h-.149c-1.282-136.264-.357-272.917-.207-409.206-.225-78.012-.8-168.1.357-245.524" transform="translate(1264.079 5086)" fill="#2d2f33"/>
      <path id="Path_100663-4" data-name="Path 100663" d="M340.31,0c.721,77.73.584,167.459.209,245.524.148,136.294,1.075,272.936-.209,409.206h-.149c-1.284-136.264-.355-272.917-.207-409.206-.227-78.012-.8-168.1.357-245.524" transform="translate(1276.166 5086)" fill="#2d2f33"/>
      <path id="Path_100664-4" data-name="Path 100664" d="M367.526,0c.721,77.73.582,167.459.209,245.524.146,136.294,1.075,272.936-.209,409.206h-.149c-1.282-136.264-.357-272.917-.207-409.206-.225-78.012-.8-168.1.357-245.524" transform="translate(1289.567 5086)" fill="#2d2f33"/>
      <path id="Path_100665-4" data-name="Path 100665" d="M393.774,0c.721,77.73.584,167.459.209,245.524.148,136.294,1.075,272.936-.209,409.206h-.149c-1.283-136.264-.355-272.917-.207-409.206-.227-78.012-.8-168.1.357-245.524" transform="translate(1302.492 5086)" fill="#2d2f33"/>
      <path id="Path_100666-4" data-name="Path 100666" d="M420.99,0c.721,77.73.582,167.459.209,245.524.146,136.294,1.075,272.936-.209,409.206h-.149c-1.282-136.264-.357-272.917-.207-409.206-.225-78.012-.8-168.1.357-245.524" transform="translate(1315.893 5086)" fill="#2d2f33"/>
      <path id="Path_100667-4" data-name="Path 100667" d="M0,419.04c77.73-.721,167.459-.584,245.524-.207,136.294-.149,272.936-1.076,409.206.207v.149c-136.264,1.283-272.917.357-409.206.207-78.012.225-168.1.8-245.524-.357" transform="translate(1109 5292.006)" fill="#2d2f33"/>
      <path id="Path_100668-4" data-name="Path 100668" d="M0,391.825c77.73-.721,167.459-.584,245.524-.207,136.294-.149,272.936-1.076,409.206.207v.149c-136.264,1.283-272.917.357-409.206.207-78.012.225-168.1.8-245.524-.357" transform="translate(1109 5278.605)" fill="#2d2f33"/>
      <path id="Path_100669-4" data-name="Path 100669" d="M0,365.576c77.73-.721,167.459-.584,245.524-.207,136.294-.149,272.936-1.076,409.206.207v.149c-136.264,1.283-272.917.357-409.206.207-78.012.225-168.1.8-245.524-.357" transform="translate(1109 5265.68)" fill="#2d2f33"/>
      <path id="Path_100670-4" data-name="Path 100670" d="M0,338.361c77.73-.721,167.459-.584,245.524-.207,136.294-.149,272.936-1.076,409.206.207v.149c-136.264,1.284-272.917.357-409.206.208-78.012.225-168.1.8-245.524-.357" transform="translate(1109 5252.279)" fill="#2d2f33"/>
      <path id="Path_100671-4" data-name="Path 100671" d="M0,313.813c77.73-.721,167.459-.584,245.524-.207,136.294-.149,272.936-1.076,409.206.207v.149c-136.264,1.283-272.917.357-409.206.207-78.012.225-168.1.8-245.524-.357" transform="translate(1109 5240.192)" fill="#2d2f33"/>
      <path id="Path_100672-4" data-name="Path 100672" d="M0,286.6c77.73-.721,167.459-.584,245.524-.207,136.294-.149,272.936-1.076,409.206.207v.149c-136.264,1.283-272.917.357-409.206.207-78.012.225-168.1.8-245.524-.357" transform="translate(1109 5226.791)" fill="#2d2f33"/>
      <path id="Path_100673-4" data-name="Path 100673" d="M0,260.349c77.73-.721,167.459-.584,245.524-.207,136.294-.149,272.936-1.076,409.206.207v.149c-136.264,1.283-272.917.357-409.206.207-78.012.225-168.1.8-245.524-.357" transform="translate(1109 5213.866)" fill="#2d2f33"/>
      <path id="Path_100674-4" data-name="Path 100674" d="M0,233.133c77.73-.721,167.459-.584,245.524-.207,136.294-.149,272.936-1.076,409.206.207v.149c-136.264,1.283-272.917.357-409.206.207-78.012.225-168.1.8-245.524-.357" transform="translate(1109 5200.465)" fill="#2d2f33"/>
      <path id="Path_100675-4" data-name="Path 100675" d="M0,205.918c77.73-.721,167.459-.582,245.524-.207,136.294-.149,272.936-1.076,409.206.207v.149c-136.264,1.283-272.917.357-409.206.207-78.012.225-168.1.8-245.524-.357" transform="translate(1109 5187.064)" fill="#2d2f33"/>
      <path id="Path_100676-4" data-name="Path 100676" d="M654.73,178.851c-77.73.721-167.459.582-245.524.207-136.294.149-272.935,1.076-409.206-.207V178.7c136.264-1.283,272.917-.357,409.206-.207,78.012-.225,168.1-.8,245.524.357" transform="translate(1109 5173.663)" fill="#2d2f33"/>
      <path id="Path_100677-4" data-name="Path 100677" d="M0,152.454c77.73-.721,167.459-.584,245.524-.207,136.294-.149,272.936-1.076,409.206.207v.149c-136.264,1.283-272.917.357-409.206.207-78.012.225-168.1.8-245.524-.357" transform="translate(1109 5160.738)" fill="#2d2f33"/>
      <path id="Path_100678-4" data-name="Path 100678" d="M0,125.238c77.73-.721,167.459-.584,245.524-.207,136.294-.149,272.936-1.076,409.206.207v.149c-136.264,1.283-272.917.357-409.206.207-78.012.225-168.1.8-245.524-.357" transform="translate(1109 5147.337)" fill="#2d2f33"/>
      <path id="Path_100679-4" data-name="Path 100679" d="M0,100.69c77.73-.721,167.459-.582,245.524-.207,136.294-.149,272.936-1.076,409.206.207v.149c-136.264,1.283-272.917.357-409.206.207-78.012.225-168.1.8-245.524-.357" transform="translate(1109 5135.25)" fill="#2d2f33"/>
      <path id="Path_100680-4" data-name="Path 100680" d="M0,73.474c77.73-.721,167.459-.584,245.524-.207,136.3-.149,272.936-1.076,409.206.207v.149c-136.264,1.283-272.917.357-409.206.207-78.012.225-168.1.8-245.524-.357" transform="translate(1109 5121.849)" fill="#2d2f33"/>
      <path id="Path_100681-4" data-name="Path 100681" d="M0,47.226c77.73-.721,167.459-.584,245.524-.207,136.294-.149,272.936-1.076,409.206.207v.149c-136.264,1.283-272.917.357-409.206.207-78.012.225-168.1.8-245.524-.357" transform="translate(1109 5108.924)" fill="#2d2f33"/>
      <path id="Path_100682-4" data-name="Path 100682" d="M0,20.011c77.73-.721,167.459-.584,245.524-.207,136.294-.149,272.936-1.076,409.206.207v.149c-136.264,1.283-272.917.357-409.206.207-78.012.225-168.1.8-245.524-.357" transform="translate(1109 5095.523)" fill="#2d2f33"/>
    </g>
  </g>
</svg>
