<svg xmlns="http://www.w3.org/2000/svg" width="190.35" height="25" viewBox="0 0 190.35 25">
  <g id="bobst-vector-logo" transform="translate(-20.3 -282)">
    <path id="Path_378" data-name="Path 378" d="M20.3,307.292H42.824a1.977,1.977,0,0,0,1.966-1.966V282.8H22.266a1.977,1.977,0,0,0-1.966,1.966Z" transform="translate(0 -0.546)" fill="#df001f"/>
    <path id="Path_379" data-name="Path 379" d="M251.6,290.852c0-7.17,3.585-8.852,9.581-8.852h9.676c6.027,0,9.581,1.686,9.581,8.852v7.3c0,7.17-3.585,8.852-9.581,8.852h-9.676c-6.027,0-9.581-1.686-9.581-8.852Zm6.663,5.108c0,3.553.667,4.918,3.807,4.918h7.87c3.141,0,3.807-1.364,3.807-4.918v-2.923c0-3.046-.667-4.918-4.188-4.918H262.42c-3.521,0-4.188,1.872-4.188,4.918v2.923Z" transform="translate(-157.92)" fill="#231815"/>
    <path id="Path_380" data-name="Path 380" d="M476.823,289.234c0-4.283-.73-7.234-8.408-7.234h-9.332c-8.408,0-8.788,3.426-8.788,7.836,0,6.027,1.142,7.36,11.2,7.36,8.6,0,9.39.127,9.39,2.249,0,1.9-1.462,2.062-2.856,2.062h-8.185c-1.776,0-2.729-.19-2.856-2.285H450.3V300.4c0,5.3,2.443,6.6,8.5,6.6H466.9c8.882,0,10.85-1.078,10.85-7.678,0-7.138-2.412-7.836-12.786-7.8-7.17.031-7.963-.031-7.963-2.158,0-1.332,1.012-1.9,2.538-1.9h7.392c2.729,0,3.173.571,3.236,1.966h6.694v-.19Z" transform="translate(-293.583)" fill="#231815"/>
    <path id="Path_381" data-name="Path 381" d="M565.543,282.832V288.7h-9.39v18.59H549.49V288.7H540.1v-3.935a1.977,1.977,0,0,1,1.966-1.966h23.477Z" transform="translate(-354.894 -0.546)" fill="#231815"/>
    <path id="Path_382" data-name="Path 382" d="M377.421,295.019v-.1c1.872-.6,3.2-1.428,3.2-5.615,0-4.791-2.6-6.409-7.9-6.409H355.468a1.977,1.977,0,0,0-1.968,1.968v22.524h21.256c3.807,0,6.633-1.111,6.633-6.5.063-3.68-1.047-5.456-3.965-5.869m-17.227-6.25H372c1.237,0,1.966.507,1.966,1.935,0,1.4-.73,1.9-1.966,1.9H360.2Zm11.992,12.721H360.226v-3.838h11.96c1.428,0,2.412.381,2.412,2.03-.031,1.428-.984,1.808-2.412,1.808" transform="translate(-227.493 -0.614)" fill="#231815"/>
    <path id="Path_383" data-name="Path 383" d="M179.121,295.019v-.1c1.872-.6,3.2-1.428,3.2-5.615,0-4.791-2.6-6.409-7.9-6.409H157.167a1.977,1.977,0,0,0-1.966,1.968v22.524h21.256c3.807,0,6.633-1.111,6.633-6.5.031-3.68-1.047-5.456-3.965-5.869m-17.227-6.25H173.7c1.237,0,1.966.507,1.966,1.935,0,1.4-.73,1.9-1.966,1.9H161.9ZM173.89,301.49H161.925v-3.838h11.96c1.428,0,2.412.381,2.412,2.03-.031,1.428-.984,1.808-2.412,1.808" transform="translate(-92.103 -0.614)" fill="#231815"/>
  </g>
</svg>
