<svg xmlns="http://www.w3.org/2000/svg" xmlns:xlink="http://www.w3.org/1999/xlink" width="37" height="38" viewBox="0 0 37 38">
  <defs>
    <clipPath id="clip-path">
      <rect id="Rectangle_5258" data-name="Rectangle 5258" width="37" height="38" rx="2" transform="translate(0.492)" stroke="#707070" stroke-width="1"/>
    </clipPath>
  </defs>
  <g id="Mask_Group_114" data-name="Mask Group 114" transform="translate(-0.492)" clip-path="url(#clip-path)">
    <g id="Group_11479" data-name="Group 11479" transform="translate(5.172 4.859)">
      <g id="noun-printing-10274" transform="translate(0 33.312) rotate(-90)">
        <path id="Path_20266" data-name="Path 20266" d="M2.917.688c.38.381.072.689-.689.689A3.355,3.355,0,0,1,.163.688C-.217.308.091,0,.851,0A3.353,3.353,0,0,1,2.917.688Z" transform="translate(15.083 20.125)"/>
        <path id="Path_20267" data-name="Path 20267" d="M2.917.688c.38.381.072.689-.689.689A3.354,3.354,0,0,1,.163.688C-.217.308.091,0,.851,0A3.354,3.354,0,0,1,2.917.688Z" transform="translate(20.132 20.125)"/>
        <path id="Path_20268" data-name="Path 20268" d="M2.917.689c.38.38.072.688-.688.688A3.358,3.358,0,0,1,.163.689C-.217.309.091,0,.852,0A3.354,3.354,0,0,1,2.917.689Z" transform="translate(12.559 22.649)"/>
        <path id="Path_20269" data-name="Path 20269" d="M2.917.689c.38.38.072.688-.688.688A3.357,3.357,0,0,1,.163.689C-.217.309.091,0,.852,0A3.354,3.354,0,0,1,2.917.689Z" transform="translate(17.607 22.649)"/>
        <path id="Path_20270" data-name="Path 20270" d="M2.917.689c.381.38.072.688-.688.688A3.356,3.356,0,0,1,.163.689C-.217.309.091,0,.851,0A3.353,3.353,0,0,1,2.917.689Z" transform="translate(22.657 22.649)"/>
        <path id="Path_20271" data-name="Path 20271" d="M2.917.688c.38.381.072.689-.689.689A3.355,3.355,0,0,1,.163.688C-.217.308.091,0,.851,0A3.354,3.354,0,0,1,2.917.688Z" transform="translate(15.083 25.175)"/>
        <path id="Path_20272" data-name="Path 20272" d="M2.917.688c.38.381.072.689-.689.689A3.354,3.354,0,0,1,.163.688C-.217.308.091,0,.851,0A3.354,3.354,0,0,1,2.917.688Z" transform="translate(20.132 25.175)"/>
        <path id="Path_20273" data-name="Path 20273" d="M2.917.688c.38.381.072.689-.689.689A3.355,3.355,0,0,1,.163.688C-.217.308.091,0,.851,0A3.355,3.355,0,0,1,2.917.688Z" transform="translate(25.182 25.175)"/>
        <path id="Path_20274" data-name="Path 20274" d="M2.917.689c.38.38.072.689-.688.689A3.358,3.358,0,0,1,.163.689C-.217.309.091,0,.852,0A3.354,3.354,0,0,1,2.917.689Z" transform="translate(12.559 27.698)"/>
        <path id="Path_20275" data-name="Path 20275" d="M2.917.689c.38.38.072.689-.688.689A3.357,3.357,0,0,1,.163.689C-.217.309.091,0,.852,0A3.355,3.355,0,0,1,2.917.689Z" transform="translate(17.607 27.698)"/>
        <path id="Path_20276" data-name="Path 20276" d="M2.917.689c.381.38.072.689-.688.689A3.356,3.356,0,0,1,.163.689C-.217.309.091,0,.851,0A3.354,3.354,0,0,1,2.917.689Z" transform="translate(22.657 27.698)"/>
        <path id="Path_20277" data-name="Path 20277" d="M2.917.689c.38.38.072.689-.688.689A3.356,3.356,0,0,1,.163.689C-.218.309.091,0,.852,0A3.354,3.354,0,0,1,2.917.689Z" transform="translate(27.707 27.698)"/>
        <path id="Path_20278" data-name="Path 20278" d="M2.917.689c.38.381.072.689-.689.689A3.355,3.355,0,0,1,.163.689C-.217.308.091,0,.851,0A3.354,3.354,0,0,1,2.917.689Z" transform="translate(15.083 30.224)"/>
        <path id="Path_20279" data-name="Path 20279" d="M.826.413A.413.413,0,1,1,.413,0,.413.413,0,0,1,.826.413" transform="translate(1.061)"/>
        <path id="Path_20280" data-name="Path 20280" d="M1.378.689A.689.689,0,1,1,.689,0a.689.689,0,0,1,.689.689" transform="translate(0.785 4.774)"/>
        <path id="Path_20281" data-name="Path 20281" d="M1.928.964A.964.964,0,1,1,.964,0a.964.964,0,0,1,.964.964" transform="translate(0.51 9.548)"/>
        <path id="Path_20282" data-name="Path 20282" d="M2.478,1.239A1.239,1.239,0,1,1,1.239,0,1.239,1.239,0,0,1,2.478,1.239" transform="translate(0.235 14.323)"/>
        <path id="Path_20283" data-name="Path 20283" d="M2.935,1.444c.075.478-.012.823-.772.823A3.355,3.355,0,0,1,.1,1.577C-.283,1.2.5,0,1.427,0A1.483,1.483,0,0,1,2.935,1.444Z" transform="translate(0 19.235)"/>
        <path id="Path_20284" data-name="Path 20284" d="M.826.413A.413.413,0,1,1,.413,0,.413.413,0,0,1,.826.413" transform="translate(3.587 2.525)"/>
        <path id="Path_20285" data-name="Path 20285" d="M1.376.688A.688.688,0,1,1,.687,0a.688.688,0,0,1,.689.688" transform="translate(3.312 7.299)"/>
        <path id="Path_20286" data-name="Path 20286" d="M1.928.964A.964.964,0,1,1,.964,0a.964.964,0,0,1,.964.964" transform="translate(3.035 12.073)"/>
        <path id="Path_20287" data-name="Path 20287" d="M2.478,1.239A1.239,1.239,0,1,1,1.239,0,1.239,1.239,0,0,1,2.478,1.239" transform="translate(2.761 16.848)"/>
        <path id="Path_20288" data-name="Path 20288" d="M2.935,1.444c.075.478-.011.823-.772.823A3.356,3.356,0,0,1,.1,1.578C-.283,1.2.5,0,1.427,0A1.484,1.484,0,0,1,2.935,1.444Z" transform="translate(2.525 21.76)"/>
        <path id="Path_20289" data-name="Path 20289" d="M.826.413A.413.413,0,1,1,.413,0,.413.413,0,0,1,.826.413" transform="translate(6.111 5.05)"/>
        <path id="Path_20290" data-name="Path 20290" d="M1.376.689A.688.688,0,1,1,1.174.2a.688.688,0,0,1,.2.487" transform="translate(5.837 9.824)"/>
        <path id="Path_20291" data-name="Path 20291" d="M1.928.964A.964.964,0,1,1,.964,0a.964.964,0,0,1,.964.964" transform="translate(5.56 14.598)"/>
        <path id="Path_20292" data-name="Path 20292" d="M2.478,1.239A1.239,1.239,0,1,1,1.238,0a1.239,1.239,0,0,1,1.24,1.239" transform="translate(5.286 19.372)"/>
        <path id="Path_20293" data-name="Path 20293" d="M2.935,1.444c.075.478-.012.823-.773.823A3.354,3.354,0,0,1,.1,1.577C-.283,1.2.5,0,1.427,0A1.484,1.484,0,0,1,2.935,1.444Z" transform="translate(5.049 24.285)"/>
        <path id="Path_20294" data-name="Path 20294" d="M.826.413A.413.413,0,1,1,.413,0,.413.413,0,0,1,.826.413" transform="translate(8.636 7.574)"/>
        <path id="Path_20295" data-name="Path 20295" d="M1.378.688A.689.689,0,1,1,.69,0a.689.689,0,0,1,.688.688" transform="translate(8.359 12.348)"/>
        <path id="Path_20296" data-name="Path 20296" d="M1.928.964A.964.964,0,1,1,.964,0a.964.964,0,0,1,.964.964" transform="translate(8.085 17.123)"/>
        <path id="Path_20297" data-name="Path 20297" d="M2.478,1.239A1.239,1.239,0,1,1,1.239,0,1.239,1.239,0,0,1,2.478,1.239" transform="translate(7.809 21.896)"/>
        <path id="Path_20298" data-name="Path 20298" d="M2.935,1.444c.075.478-.012.823-.772.823A3.357,3.357,0,0,1,.1,1.578C-.283,1.2.5,0,1.427,0A1.485,1.485,0,0,1,2.935,1.444Z" transform="translate(7.575 26.81)"/>
        <path id="Path_20299" data-name="Path 20299" d="M.826.413A.413.413,0,1,1,.413,0,.413.413,0,0,1,.826.413" transform="translate(11.161 10.099)"/>
        <path id="Path_20300" data-name="Path 20300" d="M1.376.688A.688.688,0,1,1,.687,0a.688.688,0,0,1,.689.688" transform="translate(10.886 14.874)"/>
        <path id="Path_20301" data-name="Path 20301" d="M1.928.964A.964.964,0,1,1,.964,0a.964.964,0,0,1,.964.964" transform="translate(10.61 19.647)"/>
        <path id="Path_20302" data-name="Path 20302" d="M2.478,1.239A1.239,1.239,0,1,1,1.238,0a1.239,1.239,0,0,1,1.24,1.239" transform="translate(10.336 24.422)"/>
        <path id="Path_20303" data-name="Path 20303" d="M2.935,1.443c.075.478-.011.823-.772.823A3.356,3.356,0,0,1,.1,1.577C-.283,1.2.5,0,1.427,0A1.483,1.483,0,0,1,2.935,1.443Z" transform="translate(10.099 29.335)"/>
        <path id="Path_20304" data-name="Path 20304" d="M2.917.689c.38.381.072.689-.689.689A3.354,3.354,0,0,1,.163.689C-.217.308.091,0,.851,0A3.354,3.354,0,0,1,2.917.689Z" transform="translate(20.132 30.224)"/>
        <path id="Path_20305" data-name="Path 20305" d="M2.917.689c.38.381.072.689-.689.689A3.355,3.355,0,0,1,.163.689C-.217.308.091,0,.851,0A3.356,3.356,0,0,1,2.917.689Z" transform="translate(25.182 30.224)"/>
        <path id="Path_20306" data-name="Path 20306" d="M2.917.689c.38.381.072.689-.688.689A3.353,3.353,0,0,1,.163.689C-.218.308.091,0,.851,0A3.352,3.352,0,0,1,2.917.689Z" transform="translate(30.232 30.224)"/>
      </g>
      <path id="Polygon_8" data-name="Polygon 8" d="M9.5,0,19,15H0Z" transform="matrix(0.985, 0.174, -0.174, 0.985, 25.294, 21.707)"/>
    </g>
  </g>
</svg>
