<svg xmlns="http://www.w3.org/2000/svg" width="7.332" height="10.081" viewBox="0 0 7.332 10.081">
  <path id="calendar" d="M4.992,110.19a.832.832,0,0,1-.642-.275.886.886,0,1,1,.642.275m-2.75-8.249a.832.832,0,0,1-.642-.275.907.907,0,1,1,1.558-.642.94.94,0,0,1-.917.917m0,2.75a.832.832,0,0,1-.642-.275.907.907,0,1,1,1.558-.642.94.94,0,0,1-.917.917m0,2.75a.832.832,0,0,1-.642-.275.907.907,0,1,1,1.558-.642.94.94,0,0,1-.917.917m5.5-5.5a.832.832,0,0,1-.642-.275.886.886,0,1,1,.642.275m-2.75,5.5a.832.832,0,0,1-.642-.275.886.886,0,1,1,.642.275m2.75,0a.832.832,0,0,1-.642-.275.886.886,0,1,1,.642.275m0-2.75a.832.832,0,0,1-.642-.275.886.886,0,1,1,.642.275m-2.75,0a.832.832,0,0,1-.642-.275.886.886,0,1,1,.642.275m0-2.75a.832.832,0,0,1-.642-.275.886.886,0,1,1,.642.275" transform="translate(-1.326 -100.109)"/>
</svg>
