<svg xmlns="http://www.w3.org/2000/svg" width="10.991" height="10.991" viewBox="0 0 10.991 10.991">
  <g id="colours" transform="translate(-1394.766 -760)">
    <path id="Path_104464" data-name="Path 104464" d="M5.125,18a3.528,3.528,0,0,1-3.442-6.153,3.935,3.935,0,0,0,1.886,2.5A3.863,3.863,0,0,0,5.125,18Z" transform="translate(1394.766 752.608)"/>
    <path id="Path_104465" data-name="Path 104465" d="M5.236,3.855a3.9,3.9,0,0,1,3.517.209,3.9,3.9,0,0,1,3.516-.209c.009-.106.016-.214.016-.322a3.533,3.533,0,1,0-7.065,0C5.22,3.642,5.227,3.749,5.236,3.855Z" transform="translate(1391.509 760)" fill="#575757"/>
    <path id="Path_104466" data-name="Path 104466" d="M19.044,11.846a3.935,3.935,0,0,1-1.886,2.5A3.863,3.863,0,0,1,15.6,18a3.528,3.528,0,0,0,3.442-6.153Z" transform="translate(1385.03 752.608)" fill="#333"/>
    <path id="Path_104467" data-name="Path 104467" d="M6.918,10.44a3.5,3.5,0,0,0-1.494.336,3.539,3.539,0,0,0,1.608,2.276A3.928,3.928,0,0,1,8.51,10.824,3.5,3.5,0,0,0,6.918,10.44Z" transform="translate(1391.381 753.485)" fill="#575757"/>
    <path id="Path_104468" data-name="Path 104468" d="M13.631,14.236a3.542,3.542,0,0,0-1.494-2.207,3.542,3.542,0,0,0-1.494,2.207,3.487,3.487,0,0,0,2.987,0" transform="translate(1388.124 752.493)" fill="#333"/>
    <path id="Path_104469" data-name="Path 104469" d="M13.581,19.3c0-.109-.007-.216-.016-.322a3.908,3.908,0,0,1-3.108,0c-.009.106-.016.213-.016.322a3.532,3.532,0,0,0,1.57,2.935A3.532,3.532,0,0,0,13.581,19.3Z" transform="translate(1388.25 748.156)" fill="#333"/>
    <path id="Path_104470" data-name="Path 104470" d="M18.688,10.776a3.491,3.491,0,0,0-3.086.048,3.93,3.93,0,0,1,1.479,2.228A3.542,3.542,0,0,0,18.688,10.776Z" transform="translate(1385.03 753.485)" fill="#575757"/>
  </g>
</svg>
