<svg xmlns="http://www.w3.org/2000/svg" width="13.653" height="15.369" viewBox="0 0 13.653 15.369">
  <path id="delete_24dp_1F1F1F_FILL0_wght300_GRAD0_opsz24" d="M182.556-800.011a1.586,1.586,0,0,1-1.163-.482,1.586,1.586,0,0,1-.482-1.163V-813.21H180v-1.365h4.1v-.805h5.461v.805h4.1v1.365h-.91v11.553a1.589,1.589,0,0,1-.478,1.168,1.588,1.588,0,0,1-1.168.478Zm8.822-13.2h-9.1v11.553a.272.272,0,0,0,.079.2.273.273,0,0,0,.2.079H191.1a.267.267,0,0,0,.193-.088.267.267,0,0,0,.088-.192ZM184.464-803.2h1.365v-8.192h-1.365Zm3.361,0h1.365v-8.192h-1.365Zm-5.549-10.012v0Z" transform="translate(-180 815.38)" fill="#af313c"/>
</svg>
