<svg width="12" height="14" viewBox="0 0 12 14" fill="none" xmlns="http://www.w3.org/2000/svg">
<path d="M2.33979 13.0704C1.97007 13.0704 1.65431 12.9396 1.3925 12.6779C1.13083 12.4161 1 12.1003 1 11.7306V1.98708H0V0.90375H3.58333V0H7.58333V0.90375H11.1667V1.98708H10.1667V11.7217C10.1667 12.1069 10.0372 12.4281 9.77812 12.685C9.5191 12.9419 9.20201 13.0704 8.82688 13.0704H2.33979ZM9.08333 1.98708H2.08333V11.7306C2.08333 11.8055 2.10736 11.8669 2.15542 11.915C2.20347 11.9631 2.26493 11.9871 2.33979 11.9871H8.82688C8.89104 11.9871 8.94979 11.9603 9.00313 11.9069C9.0566 11.8535 9.08333 11.7948 9.08333 11.7306V1.98708ZM3.92 10.4871H5.00313V3.48708H3.92V10.4871ZM6.16354 10.4871H7.24667V3.48708H6.16354V10.4871Z" fill="#B9B9B9"/>
</svg>
