<svg xmlns="http://www.w3.org/2000/svg" width="248.383" height="262.122" viewBox="0 0 248.383 262.122">
  <g id="download-stroke" transform="translate(-1772.579 -4446.773)" opacity="0.295">
    <path id="Path_75" data-name="Path 75" d="M101.2,148.484V16.744a13.743,13.743,0,1,0-27.487,0v131.74L28.463,103.229A13.745,13.745,0,0,0,9.024,122.667L87.458,201.1l78.43-78.437a13.745,13.745,0,0,0-19.438-19.438Z" transform="translate(1809.308 4444.273)" fill="none" stroke="#707070" stroke-width="1"/>
    <path id="Path_76" data-name="Path 76" d="M17.244,9.5A13.744,13.744,0,0,1,30.988,23.244v21.99a19.24,19.24,0,0,0,19.239,19.24H204.152A19.241,19.241,0,0,0,223.4,45.228V23.244a13.743,13.743,0,1,1,27.487,0v21.99A46.727,46.727,0,0,1,204.155,91.96H50.227A46.727,46.727,0,0,1,3.5,45.232V23.244A13.744,13.744,0,0,1,17.244,9.5Z" transform="translate(1769.579 4616.435)" fill="none" stroke="#707070" stroke-width="1"/>
  </g>
</svg>
