<svg xmlns="http://www.w3.org/2000/svg" width="328" height="219.801" viewBox="0 0 328 219.801">
  <g id="Illustration" transform="translate(-1600 -140)">
    <line id="Line_74" data-name="Line 74" x2="327.631" transform="translate(1600.369 338.838)" fill="none" stroke="#fff" stroke-width="1"/>
    <line id="Line_75" data-name="Line 75" x2="320.767" transform="translate(1601.303 169.852)" fill="none" stroke="#fff" stroke-width="1"/>
    <line id="Line_76" data-name="Line 76" x2="276.904" transform="translate(1600 279.154)" fill="none" stroke="#fff" stroke-width="1"/>
    <line id="Line_77" data-name="Line 77" y2="216.722" transform="translate(1876.869 140.742)" fill="none" stroke="#fff" stroke-width="1"/>
    <line id="Line_78" data-name="Line 78" y2="214.613" transform="translate(1658.436 145.188)" fill="none" stroke="#fff" stroke-width="1"/>
    <line id="Line_79" data-name="Line 79" y2="214.613" transform="translate(1743.299 140)" fill="none" stroke="#fff" stroke-width="1"/>
    <rect id="Rectangle_5021" data-name="Rectangle 5021" width="17" height="18" transform="translate(1652.5 197.895)" fill="#adadad"/>
    <rect id="Rectangle_5022" data-name="Rectangle 5022" width="17" height="18" transform="translate(1898.5 336.895)" fill="#adadad"/>
    <path id="box_add_24dp_E8EAED_FILL0_wght100_GRAD-25_opsz20" d="M233.513-747.928h0Zm-30.976,0h0Zm.439-1.538h45.036L241.6-756.5a3.479,3.479,0,0,0-1.011-.7,2.8,2.8,0,0,0-1.186-.264H211.537a2.8,2.8,0,0,0-1.186.264,3.479,3.479,0,0,0-1.011.7ZM219.1-731.012l6.415-3.207,6.459,3.207v-16.916H219.1Zm12.434,21.046H205.482a4.343,4.343,0,0,1-3.162-1.3A4.248,4.248,0,0,1,201-714.4v-33.876a3.992,3.992,0,0,1,.4-1.7,4.622,4.622,0,0,1,1.033-1.444l6.12-6.4a4.492,4.492,0,0,1,1.365-.9A4.219,4.219,0,0,1,211.5-759H239.36a4.978,4.978,0,0,1,1.677.27,3.694,3.694,0,0,1,1.4.917l6.2,6.547a4.2,4.2,0,0,1,1.054,1.516,4.576,4.576,0,0,1,.352,1.735v9.4a6.206,6.206,0,0,0,.648.688,1.041,1.041,0,0,0,.714.279q-.747,0-1.45.044t-1.45.132v-10.457H233.513v19.157q.632.3.645.632t.1.071l-8.743-4.394-7.953,4v-19.464H202.538v33.612a2.737,2.737,0,0,0,.791,2.021,2.737,2.737,0,0,0,2.021.791h26.406q-.022.315-.033.685A2.8,2.8,0,0,1,231.536-709.966Zm18.893,3.164v-9.49h-9.49v-1.538h9.49v-9.49h1.538v9.49h9.49v1.538h-9.49v9.49Z" transform="translate(1582.109 962.904)" fill="#e8eaed"/>
  </g>
</svg>
