<svg xmlns="http://www.w3.org/2000/svg" xmlns:xlink="http://www.w3.org/1999/xlink" width="115" height="95" viewBox="0 0 115 95">
  <defs>
    <clipPath id="clip-path">
      <rect id="Rectangle_10219" data-name="Rectangle 10219" width="115" height="95" transform="translate(1825 1108)" fill="#fff" stroke="#707070" stroke-width="1"/>
    </clipPath>
  </defs>
  <g id="Mask_Group_35694" data-name="Mask Group 35694" transform="translate(-1825 -1108)" clip-path="url(#clip-path)">
    <path id="Path_99944" data-name="Path 99944" d="M139.477,84.115c.116-2.11-1.731-3.762-1.518-5.789a3.373,3.373,0,0,0-1.215-2.845c-1.555-2.152-3.991-2.287-6.286-2.747a.322.322,0,0,0-.346-.157l-2.868-.781c-1.411.126-2.48-1.307-3.959-.871-.822-1.066-1.894-.875-2.983-.594-1.072-1.151-2.607-.326-3.816-.894-1.212-.215-2.327-1.017-3.643-.589l-3.913-.766c-1.142-.9-2.445-.681-3.737-.538a2.941,2.941,0,0,0-1.282-.537c-1.995-.358-4.148.036-5.969-1.183-.607-.221-.721.454-1.118.615a1.5,1.5,0,0,0-1.832-.579,3.576,3.576,0,0,0-2.7-.267,5.247,5.247,0,0,0-3.614-.614c-2.426.084-4.742-1-7.191-.67l-5.359-.418c-.828-.556-1.671-1.018-2.691-.464l-.881-.134c-.828-.972.055-1.339.642-1.811a4.686,4.686,0,0,0,1.768-.094c2.843-1.406,6-1.791,8.958-2.879,2.688-.991,5.64-1.248,7.851-3.362.288-.276.769-.61,1.091-.549,2.455.464,3.962-1.36,5.7-2.434,1.114-.689,1.531-1.16,2.1.443.288.812,1.2,2.078,2,.141a3.468,3.468,0,0,0,2.407-2.677c2.206.729,1.279-1.316,1.824-2.059.961.448,1.211,0,1.172-.894a24.987,24.987,0,0,1,.371-5.945,3.91,3.91,0,0,0-.991-2.07,3.185,3.185,0,0,1-1.12-2.116,4.388,4.388,0,0,0-3.111-4.077,18.368,18.368,0,0,1-5.242-2.84,1.467,1.467,0,0,0-.2.179,1.467,1.467,0,0,1,.2-.179c-1.22-.4-2.441-.791-3.659-1.193-.513-.169-1.457-.533-1.467-.51-.674,1.671-1.83.257-2.7.446-5.262-.738-10.553-.505-15.834-.365-.669.018-1.707-.413-1.974.075-.752,1.372-1.27.508-1.986.107,1.945-1.924,4.394-2.916,6.52-4.328a47.049,47.049,0,0,0,8.612-6.838c1.585-1.688,3.079-3.46,4.585-5.2a2.19,2.19,0,0,0-.125-3.348q-.144-.445-.287-.891a1.335,1.335,0,0,0,.32-1.454c-.3-1.059-1.223-1.656-1.644-2.6.129-1-.346-.709-.833-.388C85.045.17,82.663-.753,79.786.595c-.463.328-1.622.419-1.18,1.105.828,1.284.221,2.722.8,3.966-1.435,2.329-3.127,4.341-6.01,4.888-1.451-.377-1.331,1.393-2.3,1.681-2.792,1.779-5.555,3.607-8.384,5.325a82.589,82.589,0,0,1-7.733,4.393c-5.795,2.709-11.664,5.264-17.546,7.781-3.245,1.388-6.4,3.04-9.878,3.831-1.77-.139-3.347-1.671-5.394-.743,1.92,1.785.04,2.584-.84,3.648-1.162.234-2.241.962-3.525.525-.268-.091-.8-.062-.865.372-.324,2.276-2.727,3.534-2.741,6.054a15.911,15.911,0,0,0,1.377,6.2c.453,1.1,2.192-.023,3.286.454a1.841,1.841,0,0,0,.616.04l.858.887c.309.793.11,2.139.948,2.278.909.151,1.4-1.236,2.121-1.68,1.449-.89.791-2.913,2.3-3.6,1.087-.192,1.883,1.051,3.02.613.8.231.524-1.164,1.247-.889,2.63,1,5.067-.443,7.542-.749,5.311-.655,10.525-2.075,15.791-3.117a163.675,163.675,0,0,1,16.91-2.547c.657.483,1.177-.186,1.773-.211,2.1.014,4.176-.5,6.28-.171.843.574,1.324.046,1.773-.582a6.6,6.6,0,0,0,3.315.766c1.789.077,3.678-.617,5.34.6.008.263.014.527.022.791a1.883,1.883,0,0,0-.9,1.362c-.378.23-.752-.476-1.131-.005l-.957.409c-1.317.521-2.677.956-3.942,1.583-1.7.84-3.581,1.182-5.323,1.912a66.719,66.719,0,0,1-6.78,2.027,63.613,63.613,0,0,1-8.644,2.27c-4.178.6-8.171,1.938-12.36,2.481-3.9.505-7.772,1.337-11.675,1.934-3.17.486-6.387.585-9.526,1.155A45.86,45.86,0,0,1,16.8,58.691a1.154,1.154,0,0,0-1.5.364c-3,.139-6,.487-8.985.355-2.733-.12-4.144.422-4.74,2.888A13.288,13.288,0,0,1,.193,66.016c-.371.629-.173,1.034.3,1.616,1.518,1.862,3.768,1.471,5.533,1.436,4.634-.093,8.9,1.96,13.486,1.85a1.366,1.366,0,0,0,1.166.128L25.5,70.9a1.815,1.815,0,0,0,2.35-.451c.424.237.855.688,1.272.676,4.357-.126,8.691.326,13.037.457.93.5,1.853.865,2.7-.142,1.7,1.252,3.9,1.034,5.7,1.187,4.322.368,8.648.585,12.963,1.206,3.039.437,6.131.593,9.2.9,4.82.476,9.613,1.215,14.446,1.632A52.374,52.374,0,0,1,98.284,78.05c.591.674.94-.34,1.453-.209,1.419,1.007,3.1.352,4.655.718,2.7.634,5.525.759,8.13,1.859a.992.992,0,0,1,.03,1.39,1.644,1.644,0,0,1-.288.167c-.239-.116-.518-.381-.712-.328-3.435.938-7,.917-10.463,1.48-1.344.218-2.792-.375-4.034.456A2.408,2.408,0,0,0,94.38,82.51l-.9-.2q0,.574-.01,1.15l1.744.209a1.548,1.548,0,0,0,1.16.185,1.544,1.544,0,0,1-1.16-.185l-1.744-.209a2.216,2.216,0,0,0-.946-.473,2.216,2.216,0,0,1,.946.473q0-.575.01-1.15c-.927-.329-2.063.046-2.81-.973a.885.885,0,0,0-1.31.066c-.381.413.321.7.223,1.117a2.078,2.078,0,0,0-.312-.07c-.533-.894-1.159-1.616-2.359-1.279l-1.195-.626c-1.206.428-2.361-.56-3.566-.128-1.038-.85-2.189.017-3.267-.217l-.923-.269c-1.262-1.11-2.778-.473-4.181-.607-.4-.159-.8-.39-1.158.076-.349-.792-.764-.591-1.2-.081-.782-.664-1.821-.42-2.693-.763a.969.969,0,0,0-1.209-.1c-1.378-.3-2.88.354-4.184-.534-.971-.56-2.006.42-2.979-.123l-.592.037-2.084.373c-.428.239-.745-.52-1.19-.132-.493-.176-.937-.635-1.527-.27-.9-.075-1.82-.418-2.642.264a9.369,9.369,0,0,0-3.248-.353c-2.305.139-4.637-.1-6.911.49l-1.215.014-2.374-.085c-1.3-1.364-2.909-.98-4.482-.817l-.331-.346c-.428-.521-.828-1.411-1.519-1.161a1.071,1.071,0,0,0-.288,1.757c-.3.483-.932.784-.837,1.49l-.027,0-1.155,1.033c-.374-.609-.119-1.874-1.334-1.607-.932.2-.066,1.216-.478,1.744-1.335.817-.787,2.121-.846,3.268q.583-.876,1.166-1.752-.582.877-1.166,1.752.114.478.229.955c-.021,2.382-.021,2.382,1.223,1.964l.027.428c-1.133,1.586.343,2.585.857,3.8,1.1-.105,2.238.5,3.311-.165a1.676,1.676,0,0,0-.262-.288.869.869,0,0,1-.8-.293.87.87,0,0,0,.8.293,1.676,1.676,0,0,1,.262.288l1.11.524.294-.3a3.632,3.632,0,0,0-.353-1.046,3.656,3.656,0,0,1,.354,1.046l-.295.3c1.214,1.7,2.932,2.034,4.861,1.811.993-.446,1.926,1.215,2.939.082l.617.46c.81.526,1.627-.072,2.44.014l1.118.54a1.122,1.122,0,0,0,1.52-.237l.909.269,4.209.738c.9-.081,1.713.718,2.646.24l2.4-.124,1.142.176c1.588.357,3.119,1.221,4.826.559l-.349-.41c.008-.065.012-.131.016-.2,0,.065-.008.132-.016.2l.349.41c1.786.266,3.573.667,5.353-.03.343.39.709.571,1.143.123.414.143.653.782,1.239.438a1.68,1.68,0,0,0,1.788-.593l1.547.2,4.7.024.031.008c.364.3.706.057,1.052-.044l.428-.1a3.153,3.153,0,0,0,2.71-.328c1.6.441,3.214-.1,4.815.113a.167.167,0,0,0,.268.088c.921.241,1.785-.671,2.721-.133A5.5,5.5,0,0,0,95,94.71l.822.288a4.44,4.44,0,0,0,2.722-.453l.017.006a3.707,3.707,0,0,0,3.261-.294,14.452,14.452,0,0,1,5.744,1.282c1.49.724,1.419,2.282,2.634,2.878l.543.661c-.205,1.6,1.151,2.719,3.647,3,.559.094.419-.47.648-.687,1.014-.614.024-1.48.275-2.189a1.529,1.529,0,0,1,.241-.167l.906.877c.339.524-.167,1.757,1,1.532,1.2-.233.043-1.193.308-1.775.028-.062-.135-.211-.21-.32l-1.283-1.527c.231-.438-.107-.646-.36-.888q.066-.443.133-.887c1.117-1,.492-1.835-.252-2.658-.07-.7.275-1.094.935-.862,1.152.4,2.033-.313,3.027-.564a.812.812,0,0,0,.913.147,3.212,3.212,0,0,0,2.341-1.131c2.12,1.18,3.833-.266,5.675-.88l.58.055c.5.25.45.79.663,1.19.286.536.577,1.526,1.245,1.283s1.681-.766,1.222-1.947c.1-.773.744-.3,1.1-.483.709.056.932-.342.911-.97.727-.545,1.314-.813,2.041.168.3.4,1.333,1.492,1.851.022.6-1.709,2.113-3.246,1.177-5.3M87.773,4.357a2.756,2.756,0,0,1,.28.539,2.756,2.756,0,0,0-.28-.539,1.973,1.973,0,0,0-.146-.167,1.973,1.973,0,0,1,.146.167M29.958,80.844a3.9,3.9,0,0,0,.46.534,3.9,3.9,0,0,1-.46-.534c.247-.366.731-.581,1-.936-.264.355-.748.57-1,.936M38.5,79.48a3.912,3.912,0,0,1-1.712-.058,1.594,1.594,0,0,1-.8.056,1.6,1.6,0,0,0,.8-.056l.939-.842c-.143-.065-.285-.129-.431-.193a2.961,2.961,0,0,0-1.4-.349,2.974,2.974,0,0,1,1.406.349l.428.193.836-.205-.836.206-.94.841a3.9,3.9,0,0,0,1.712.059m13.83-.675L49,79.028a6.973,6.973,0,0,0-1.482-.059A6.973,6.973,0,0,1,49,79.028a1.63,1.63,0,0,1-.057-.215,1.63,1.63,0,0,0,.057.215l3.329-.224c.543.024,1.086.252,1.629.321-.543-.069-1.087-.3-1.629-.32m2.983-.181a.713.713,0,0,1-.043.164.713.713,0,0,0,.043-.164.65.65,0,0,0-.025-.294.65.65,0,0,1,.025.294M71.946,94.748a2.329,2.329,0,0,0-2.094-.219,4.035,4.035,0,0,0-2.62-.268c-.77-.038-1.544-.046-2.313-.1.769.052,1.543.06,2.313.1a4.037,4.037,0,0,1,2.619.267,2.335,2.335,0,0,1,2.1.219c.515-.321.792-.229.97.033-.179-.261-.455-.353-.97-.032m40.369,2.226h0l-1.193-1.4,1.193,1.4m-.295.874c-.348-.447-.6-.575-.793-.535.2-.04.445.088.793.535a1,1,0,0,0,.532.263,1,1,0,0,1-.532-.263m1.323-.747a3.52,3.52,0,0,1,.805.492,3.52,3.52,0,0,0-.805-.492m6.971-6.538a2.653,2.653,0,0,0-1.861.231,2.656,2.656,0,0,1,1.861-.231,3.827,3.827,0,0,1,1.869-.128,3.828,3.828,0,0,0-1.869.129m1.842-18.742a1.573,1.573,0,0,0,.859.082,1.573,1.573,0,0,1-.859-.082" transform="matrix(-0.829, 0.559, -0.559, -0.829, 2007.468, 1137.839)" fill="#ecf500"/>
  </g>
</svg>
