<svg xmlns="http://www.w3.org/2000/svg" xmlns:xlink="http://www.w3.org/1999/xlink" width="29.479" height="27.273" viewBox="0 0 29.479 27.273">
  <defs>
    <filter id="Eye" x="0" y="0" width="29.479" height="27.273" filterUnits="userSpaceOnUse">
      <feOffset input="SourceAlpha"/>
      <feGaussianBlur stdDeviation="3" result="blur"/>
      <feFlood flood-opacity="0.745"/>
      <feComposite operator="in" in2="blur"/>
      <feComposite in="SourceGraphic"/>
    </filter>
  </defs>
  <g transform="matrix(1, 0, 0, 1, 0, 0)" filter="url(#Eye)">
    <path id="Eye-2" data-name="Eye" d="M-371.911,824.287a3.634,3.634,0,0,1,3.242-3.947,3.563,3.563,0,0,1,1.623.2.234.234,0,0,1,.084.291,1.855,1.855,0,0,0-.2.531,1.277,1.277,0,0,0,.442,1.174,1.261,1.261,0,0,0,1.5.107.293.293,0,0,1,.243-.022c.178.065.283.715.3.884a3.638,3.638,0,0,1-3.1,4.046,3.729,3.729,0,0,1-.511.035A3.637,3.637,0,0,1-371.911,824.287Zm-1.909-1.624c-.848-.265,1.389-3.988,4.745-4.3l.36-.032a4.656,4.656,0,0,1,.792,0l.256.019a6.072,6.072,0,0,1,5.125,3.88.332.332,0,0,1-.171.416.327.327,0,0,1-.423-.122,5.962,5.962,0,0,0-.949-1.584,5.5,5.5,0,0,0-7.963-.462,5.526,5.526,0,0,0-1.347,1.971.34.34,0,0,1-.316.23A.361.361,0,0,1-373.82,822.663Z" transform="translate(383 -809.32)" fill="#000000"/>
  </g>
</svg>
