<svg xmlns="http://www.w3.org/2000/svg" width="153.713" height="64" viewBox="0 0 153.713 64">
  <g id="gallus-ferd-rueesch-ag-vector-logo" transform="translate(-20.8 -196.1)">
    <rect id="Rectangle_7586" data-name="Rectangle 7586" width="10.09" height="16.595" transform="translate(87.054 232.953)" fill="#06c"/>
    <rect id="Rectangle_7587" data-name="Rectangle 7587" width="10.09" height="16.595" transform="translate(101.728 232.953)" fill="#06c"/>
    <rect id="Rectangle_7588" data-name="Rectangle 7588" width="10.09" height="16.595" transform="translate(87.054 214.539)" fill="#06c"/>
    <rect id="Rectangle_7589" data-name="Rectangle 7589" width="10.09" height="16.595" transform="translate(101.728 214.539)" fill="#06c"/>
    <rect id="Rectangle_7590" data-name="Rectangle 7590" width="10.09" height="16.595" transform="translate(87.054 196.1)" fill="#06c"/>
    <rect id="Rectangle_7591" data-name="Rectangle 7591" width="10.09" height="16.595" transform="translate(101.728 196.1)" fill="#06c"/>
    <g id="Group_11978" data-name="Group 11978" transform="translate(20.8 221.761)">
      <path id="Path_29017" data-name="Path 29017" d="M412.016,315.069c0,.333.64,5.839-4.4,5.839-3.15,0-3.816-2.843-3.918-5.481V299.6H393.5v18.03c0,5.942,4.3,9.706,10.09,9.706a10.237,10.237,0,0,0,8.4-3.765v2.945h10.193V299.626H412.016Z" transform="translate(-298.051 -298.755)" fill="#06c" fill-rule="evenodd"/>
      <path id="Path_29018" data-name="Path 29018" d="M540.411,308.765c-6.377-1.972-10.5-1.87-10.5-3.867a2.2,2.2,0,0,1,2.407-2.407,3.573,3.573,0,0,1,2.792.973,3.283,3.283,0,0,1,.64,2.254H545.4c-.435-7.453-6.326-9.117-12.7-9.117-5.353,0-12.447,1.818-12.447,8.477,0,9.758,15.93,6.915,15.93,11.678,0,1.716-1.46,2.459-3.432,2.459a3.229,3.229,0,0,1-2.407-1.229,2.868,2.868,0,0,1-.691-2.407H520c-.051,8.2,6.377,9.553,12.984,9.553,6.172,0,12.882-1.818,12.882-8.964-.026-4.4-2.228-6.377-5.455-7.4" transform="translate(-392.153 -296.523)" fill="#06c" fill-rule="evenodd"/>
      <path id="Path_29019" data-name="Path 29019" d="M169.318,296.3a23.008,23.008,0,0,0-9.271,1.613,7.29,7.29,0,0,0-4.661,7.248h9.578c-.051-1.613.743-4.021,3.227-4.123,4.072-.154,3.534,3.278,3.534,5.634H168.5c-8.784,0-14.8,2.689-14.905,9.22-.1,5.532,3.227,8.964,9.6,8.964,5.045,0,7.325-2.459,8.554-4.4v3.585h9.5V304.675c.128-6.07-6.454-8.375-11.934-8.375m-2.356,22.614a3.531,3.531,0,0,1-3.483-3.534c0-1.87,1.178-2.843,2.689-3.585,1.383-.691,3.432-.589,5.583-.589-.026,3.585-.384,7.709-4.789,7.709" transform="translate(-119.583 -296.3)" fill="#06c" fill-rule="evenodd"/>
      <path id="Path_29020" data-name="Path 29020" d="M41.339,301.012c-1.562-3.15-4.456-4.712-8.2-4.712-7.786,0-12.344,5.583-12.344,13.42,0,7.2,4.072,13.394,11.806,13.394,3.432,0,7.068-1.281,8.836-4.277v3.048c0,3.97-.794,6.864-5.3,6.864a5.761,5.761,0,0,1-2.945-.691,3.105,3.105,0,0,1-1.332-2.638h-9.5c0,7.786,7.888,9.22,13.83,9.22,3.381,0,8.964-1.127,11.678-3.739,3.15-3,3.585-6.018,3.739-10.628V297.094H41.339ZM36.371,317.2c-4.174,0-5.1-4.174-5.1-7.5s.922-7.5,5.1-7.5,5.1,4.174,5.1,7.5-.922,7.5-5.1,7.5" transform="translate(-20.8 -296.3)" fill="#06c"/>
    </g>
  </g>
</svg>
