<svg xmlns="http://www.w3.org/2000/svg" xmlns:xlink="http://www.w3.org/1999/xlink" width="90.299" height="9.354" viewBox="0 0 90.299 9.354">
  <defs>
    <clipPath id="clip-path">
      <rect id="Rectangle_10275" data-name="Rectangle 10275" width="90.299" height="9.354" transform="translate(0 0)" fill="none"/>
    </clipPath>
  </defs>
  <g id="Group_41339" data-name="Group 41339" transform="translate(0 -0.001)">
    <g id="Group_41338" data-name="Group 41338" clip-path="url(#clip-path)">
      <path id="Path_100872" data-name="Path 100872" d="M0,.42H2.849A3.455,3.455,0,0,1,6.6,3.918a3.456,3.456,0,0,1-3.748,3.5H0ZM2.809,6.776A2.807,2.807,0,0,0,5.868,3.918,2.807,2.807,0,0,0,2.809,1.059H.741V6.776Z"/>
      <path id="Path_100873" data-name="Path 100873" d="M12.688,5.007H8.29a1.946,1.946,0,0,0,2.069,1.828,2.074,2.074,0,0,0,1.61-.689l.4.46a2.59,2.59,0,0,1-2.029.859A2.6,2.6,0,0,1,7.581,4.787a2.531,2.531,0,0,1,2.568-2.668A2.5,2.5,0,0,1,12.7,4.787c0,.06-.01.14-.01.22m-4.4-.53h3.729a1.868,1.868,0,0,0-3.729,0"/>
      <path id="Path_100874" data-name="Path 100874" d="M18.887,2.159V7.416h-.68v-.96a2.089,2.089,0,0,1-1.888,1.01A2.036,2.036,0,0,1,14.1,5.207V2.159h.71V5.138a1.47,1.47,0,0,0,1.579,1.688,1.709,1.709,0,0,0,1.789-1.909V2.159Z"/>
      <path id="Path_100875" data-name="Path 100875" d="M23.648,7.1a1.691,1.691,0,0,1-1.109.369A1.392,1.392,0,0,1,21,5.937V2.759h-.94v-.6H21V1.01h.71V2.16h1.6v.6h-1.6V5.9a.842.842,0,0,0,.909.96,1.17,1.17,0,0,0,.779-.27Z"/>
      <path id="Path_100876" data-name="Path 100876" d="M24.21,6.816l.32-.56a3.164,3.164,0,0,0,1.868.59c1,0,1.41-.34,1.41-.86,0-1.369-3.408-.289-3.408-2.368,0-.86.74-1.5,2.079-1.5a3.563,3.563,0,0,1,1.859.489l-.31.57a2.693,2.693,0,0,0-1.549-.45c-.95,0-1.37.37-1.37.869,0,1.42,3.409.351,3.409,2.369,0,.91-.8,1.5-2.169,1.5a3.513,3.513,0,0,1-2.139-.649"/>
      <path id="Path_100877" data-name="Path 100877" d="M29.3,4.787a2.588,2.588,0,0,1,2.708-2.668,2.3,2.3,0,0,1,2.06,1.039l-.531.36a1.785,1.785,0,0,0-1.529-.78,1.931,1.931,0,0,0-1.988,2.049,1.926,1.926,0,0,0,1.988,2.049,1.774,1.774,0,0,0,1.529-.77l.531.361a2.32,2.32,0,0,1-2.06,1.039A2.6,2.6,0,0,1,29.3,4.787"/>
      <path id="Path_100878" data-name="Path 100878" d="M40.218,4.368V7.416h-.71V4.437a1.467,1.467,0,0,0-1.579-1.678,1.723,1.723,0,0,0-1.839,1.9V7.416h-.71V0h.71V3.078a2.223,2.223,0,0,1,1.969-.959,2.012,2.012,0,0,1,2.159,2.249"/>
      <path id="Path_100879" data-name="Path 100879" d="M44.819,4.678A8.977,8.977,0,0,1,45.979,0h.68a9.091,9.091,0,0,0-1.14,4.678,9.089,9.089,0,0,0,1.14,4.677h-.68a9.022,9.022,0,0,1-1.16-4.677"/>
      <path id="Path_100880" data-name="Path 100880" d="M53.137,3.918h.71V6.587a3.865,3.865,0,0,1-2.568.889A3.518,3.518,0,0,1,47.59,3.918,3.521,3.521,0,0,1,51.288.36a3.45,3.45,0,0,1,2.6,1.009l-.46.47A3.036,3.036,0,0,0,48.32,3.918a2.866,2.866,0,0,0,2.988,2.9,3.026,3.026,0,0,0,1.829-.54Z"/>
      <path id="Path_100881" data-name="Path 100881" d="M60.367,5.007h-4.4a1.946,1.946,0,0,0,2.069,1.828,2.074,2.074,0,0,0,1.61-.689l.4.46A2.779,2.779,0,0,1,55.26,4.787a2.531,2.531,0,0,1,2.568-2.668,2.5,2.5,0,0,1,2.549,2.668c0,.06-.01.14-.01.22m-4.4-.53H59.7a1.868,1.868,0,0,0-3.729,0"/>
      <path id="Path_100882" data-name="Path 100882" d="M64.478,2.119v.689c-.061,0-.12-.009-.171-.009a1.7,1.7,0,0,0-1.768,1.938V7.416h-.71V2.159h.679V3.188a1.983,1.983,0,0,1,1.97-1.069"/>
      <path id="Path_100883" data-name="Path 100883" d="M74.435,4.368V7.416h-.71V4.437c0-1.109-.56-1.678-1.509-1.678a1.689,1.689,0,0,0-1.76,1.9V7.416h-.708V4.437c0-1.109-.56-1.678-1.52-1.678a1.694,1.694,0,0,0-1.759,1.9V7.416h-.71V2.159h.68v.959a2.126,2.126,0,0,1,1.929-1,1.887,1.887,0,0,1,1.869,1.109,2.291,2.291,0,0,1,2.079-1.109,1.984,1.984,0,0,1,2.119,2.249"/>
      <path id="Path_100884" data-name="Path 100884" d="M80.337,4.158V7.416h-.68V6.6a1.973,1.973,0,0,1-1.808.869c-1.19,0-1.919-.619-1.919-1.529,0-.81.519-1.49,2.028-1.49h1.67V4.128c0-.9-.51-1.39-1.489-1.39a2.68,2.68,0,0,0-1.749.62l-.321-.53a3.346,3.346,0,0,1,2.139-.709,1.868,1.868,0,0,1,2.129,2.039m-.709,1.679V4.978H77.979c-1.02,0-1.35.4-1.35.939,0,.609.49.989,1.329.989a1.683,1.683,0,0,0,1.67-1.069"/>
      <path id="Path_100885" data-name="Path 100885" d="M87.106,4.368V7.416H86.4V4.437a1.467,1.467,0,0,0-1.579-1.678,1.723,1.723,0,0,0-1.839,1.9V7.416h-.71V2.159h.68v.969a2.209,2.209,0,0,1,2-1.009,2.012,2.012,0,0,1,2.159,2.249"/>
      <path id="Path_100886" data-name="Path 100886" d="M88.449,9.354A8.994,8.994,0,0,0,89.6,4.677,8.994,8.994,0,0,0,88.449,0h.68A8.876,8.876,0,0,1,90.3,4.677a8.927,8.927,0,0,1-1.17,4.677Z"/>
    </g>
  </g>
</svg>
