<?xml version="1.0" encoding="UTF-8"?>
<svg id="Layer_1" xmlns="http://www.w3.org/2000/svg" xmlns:xlink="http://www.w3.org/1999/xlink" version="1.1" viewBox="0 0 7 7">
  <!-- Generator: Adobe Illustrator 29.6.1, SVG Export Plug-In . SVG Version: 2.1.1 Build 9)  -->
  <defs>
    <style>
      .st0 {
        fill: none;
      }

      .st1 {
        fill: url(#New_Pattern_2);
      }
    </style>
    <pattern id="New_Pattern_2" data-name="New Pattern 2" x="0" y="0" width="2" height="2" patternTransform="translate(-2 -2)" patternUnits="userSpaceOnUse" viewBox="0 0 2 2">
      <g>
        <rect class="st0" width="2" height="2"/>
        <circle cx="1" cy="1" r=".5"/>
      </g>
    </pattern>
  </defs>
  <g>
    <g>
      <circle cx=".3" cy=".3" r=".3"/>
      <path class="st1" d="M.3,0C.1,0,0,.1,0,.3s.1.3.3.3.3-.1.3-.3S.5,0,.3,0H.3Z"/>
    </g>
    <g>
      <circle cx="6.7" cy=".3" r=".3"/>
      <path class="st1" d="M6.7,0C6.5,0,6.4.1,6.4.3s.1.3.3.3.3-.1.3-.3S6.9,0,6.7,0h0Z"/>
    </g>
    <g>
      <circle cx="5.4" cy=".3" r=".3"/>
      <path class="st1" d="M5.4,0C5.2,0,5.1.1,5.1.3s.1.3.3.3.3-.1.3-.3S5.6,0,5.4,0h0Z"/>
    </g>
    <g>
      <circle cx="4.1" cy=".3" r=".3"/>
      <path class="st1" d="M4.1,0C4,0,3.8.1,3.8.3s.1.3.3.3.3-.1.3-.3S4.3,0,4.1,0h0Z"/>
    </g>
    <g>
      <circle cx="2.9" cy=".3" r=".3"/>
      <path class="st1" d="M2.9,0C2.7,0,2.5.1,2.5.3s.1.3.3.3.3-.1.3-.3S3,0,2.9,0h0Z"/>
    </g>
    <g>
      <circle cx="1.6" cy=".3" r=".3"/>
      <path class="st1" d="M1.6,0C1.4,0,1.3.1,1.3.3s.1.3.3.3.3-.1.3-.3S1.8,0,1.6,0h0Z"/>
    </g>
  </g>
  <g>
    <g>
      <circle cx=".3" cy="1.6" r=".3"/>
      <path class="st1" d="M.3,1.3C.1,1.3,0,1.4,0,1.6s.1.3.3.3.3-.1.3-.3-.1-.3-.3-.3H.3Z"/>
    </g>
    <g>
      <circle cx="6.7" cy="1.6" r=".3"/>
      <path class="st1" d="M6.7,1.3c-.2,0-.3.1-.3.3s.1.3.3.3.3-.1.3-.3-.1-.3-.3-.3h0Z"/>
    </g>
    <g>
      <circle cx="5.4" cy="1.6" r=".3"/>
      <path class="st1" d="M5.4,1.3c-.2,0-.3.1-.3.3s.1.3.3.3.3-.1.3-.3-.1-.3-.3-.3h0Z"/>
    </g>
    <g>
      <circle cx="4.1" cy="1.6" r=".3"/>
      <path class="st1" d="M4.1,1.3c-.2,0-.3.1-.3.3s.1.3.3.3.3-.1.3-.3-.1-.3-.3-.3h0Z"/>
    </g>
    <g>
      <circle cx="2.9" cy="1.6" r=".3"/>
      <path class="st1" d="M2.9,1.3c-.2,0-.3.1-.3.3s.1.3.3.3.3-.1.3-.3-.1-.3-.3-.3h0Z"/>
    </g>
    <g>
      <circle cx="1.6" cy="1.6" r=".3"/>
      <path class="st1" d="M1.6,1.3c-.2,0-.3.1-.3.3s.1.3.3.3.3-.1.3-.3-.1-.3-.3-.3h0Z"/>
    </g>
  </g>
  <g>
    <g>
      <circle cx=".3" cy="2.9" r=".3"/>
      <path class="st1" d="M.3,2.5C.1,2.5,0,2.7,0,2.9s.1.3.3.3.3-.1.3-.3-.1-.3-.3-.3H.3Z"/>
    </g>
    <g>
      <circle cx="6.7" cy="2.9" r=".3"/>
      <path class="st1" d="M6.7,2.5c-.2,0-.3.1-.3.3s.1.3.3.3.3-.1.3-.3-.1-.3-.3-.3h0Z"/>
    </g>
    <g>
      <circle cx="5.4" cy="2.9" r=".3"/>
      <path class="st1" d="M5.4,2.5c-.2,0-.3.1-.3.3s.1.3.3.3.3-.1.3-.3-.1-.3-.3-.3h0Z"/>
    </g>
    <g>
      <circle cx="4.1" cy="2.9" r=".3"/>
      <path class="st1" d="M4.1,2.5c-.2,0-.3.1-.3.3s.1.3.3.3.3-.1.3-.3-.1-.3-.3-.3h0Z"/>
    </g>
    <g>
      <circle cx="2.9" cy="2.9" r=".3"/>
      <path class="st1" d="M2.9,2.5c-.2,0-.3.1-.3.3s.1.3.3.3.3-.1.3-.3-.1-.3-.3-.3h0Z"/>
    </g>
    <g>
      <circle cx="1.6" cy="2.9" r=".3"/>
      <path class="st1" d="M1.6,2.5c-.2,0-.3.1-.3.3s.1.3.3.3.3-.1.3-.3-.1-.3-.3-.3h0Z"/>
    </g>
  </g>
  <g>
    <g>
      <circle cx=".3" cy="4.1" r=".3"/>
      <path class="st1" d="M.3,3.8C.1,3.8,0,4,0,4.1s.1.3.3.3.3-.1.3-.3-.1-.3-.3-.3H.3Z"/>
    </g>
    <g>
      <circle cx="6.7" cy="4.1" r=".3"/>
      <path class="st1" d="M6.7,3.8c-.2,0-.3.1-.3.3s.1.3.3.3.3-.1.3-.3-.1-.3-.3-.3h0Z"/>
    </g>
    <g>
      <circle cx="5.4" cy="4.1" r=".3"/>
      <path class="st1" d="M5.4,3.8c-.2,0-.3.1-.3.3s.1.3.3.3.3-.1.3-.3-.1-.3-.3-.3h0Z"/>
    </g>
    <g>
      <circle cx="4.1" cy="4.1" r=".3"/>
      <path class="st1" d="M4.1,3.8c-.2,0-.3.1-.3.3s.1.3.3.3.3-.1.3-.3-.1-.3-.3-.3h0Z"/>
    </g>
    <g>
      <circle cx="2.9" cy="4.1" r=".3"/>
      <path class="st1" d="M2.9,3.8c-.2,0-.3.1-.3.3s.1.3.3.3.3-.1.3-.3-.1-.3-.3-.3h0Z"/>
    </g>
    <g>
      <circle cx="1.6" cy="4.1" r=".3"/>
      <path class="st1" d="M1.6,3.8c-.2,0-.3.1-.3.3s.1.3.3.3.3-.1.3-.3-.1-.3-.3-.3h0Z"/>
    </g>
  </g>
  <g>
    <g>
      <circle cx=".3" cy="5.4" r=".3"/>
      <path class="st1" d="M.3,5.1C.1,5.1,0,5.2,0,5.4s.1.3.3.3.3-.1.3-.3-.1-.3-.3-.3H.3Z"/>
    </g>
    <g>
      <circle cx="6.7" cy="5.4" r=".3"/>
      <path class="st1" d="M6.7,5.1c-.2,0-.3.1-.3.3s.1.3.3.3.3-.1.3-.3-.1-.3-.3-.3h0Z"/>
    </g>
    <g>
      <circle cx="5.4" cy="5.4" r=".3"/>
      <path class="st1" d="M5.4,5.1c-.2,0-.3.1-.3.3s.1.3.3.3.3-.1.3-.3-.1-.3-.3-.3h0Z"/>
    </g>
    <g>
      <circle cx="4.1" cy="5.4" r=".3"/>
      <path class="st1" d="M4.1,5.1c-.2,0-.3.1-.3.3s.1.3.3.3.3-.1.3-.3-.1-.3-.3-.3h0Z"/>
    </g>
    <g>
      <circle cx="2.9" cy="5.4" r=".3"/>
      <path class="st1" d="M2.9,5.1c-.2,0-.3.1-.3.3s.1.3.3.3.3-.1.3-.3-.1-.3-.3-.3h0Z"/>
    </g>
    <g>
      <circle cx="1.6" cy="5.4" r=".3"/>
      <path class="st1" d="M1.6,5.1c-.2,0-.3.1-.3.3s.1.3.3.3.3-.1.3-.3-.1-.3-.3-.3h0Z"/>
    </g>
  </g>
  <g>
    <g>
      <circle cx=".3" cy="6.7" r=".3"/>
      <path class="st1" d="M.3,6.4C.1,6.4,0,6.5,0,6.7s.1.3.3.3.3-.1.3-.3-.1-.3-.3-.3H.3Z"/>
    </g>
    <g>
      <circle cx="6.7" cy="6.7" r=".3"/>
      <path class="st1" d="M6.7,6.4c-.2,0-.3.1-.3.3s.1.3.3.3.3-.1.3-.3-.1-.3-.3-.3h0Z"/>
    </g>
    <g>
      <circle cx="5.4" cy="6.7" r=".3"/>
      <path class="st1" d="M5.4,6.4c-.2,0-.3.1-.3.3s.1.3.3.3.3-.1.3-.3-.1-.3-.3-.3h0Z"/>
    </g>
    <g>
      <circle cx="4.1" cy="6.7" r=".3"/>
      <path class="st1" d="M4.1,6.4c-.2,0-.3.1-.3.3s.1.3.3.3.3-.1.3-.3-.1-.3-.3-.3h0Z"/>
    </g>
    <g>
      <circle cx="2.9" cy="6.7" r=".3"/>
      <path class="st1" d="M2.9,6.4c-.2,0-.3.1-.3.3s.1.3.3.3.3-.1.3-.3-.1-.3-.3-.3h0Z"/>
    </g>
    <g>
      <circle cx="1.6" cy="6.7" r=".3"/>
      <path class="st1" d="M1.6,6.4c-.2,0-.3.1-.3.3s.1.3.3.3.3-.1.3-.3-.1-.3-.3-.3h0Z"/>
    </g>
  </g>
</svg>