<svg xmlns="http://www.w3.org/2000/svg" xmlns:xlink="http://www.w3.org/1999/xlink" width="235" height="25" viewBox="0 0 235 25">
  <defs>
    <clipPath id="clip-path">
      <rect id="Rectangle_52" data-name="Rectangle 52" width="235" height="25" transform="translate(0.1 0.443)" fill="#fff"/>
    </clipPath>
  </defs>
  <g id="Mask_Group_1" data-name="Mask Group 1" transform="translate(-0.1 -0.443)" clip-path="url(#clip-path)">
    <g id="heidel-logo" transform="translate(-0.019 0.502)">
      <path id="Path_332" data-name="Path 332" d="M61.132,29a.589.589,0,0,0-.606-.6H56.056a.589.589,0,0,0-.6.6v8.692H45.9v5.678h9.552v8.692a.589.589,0,0,0,.6.6h4.472a.589.589,0,0,0,.6-.6Z" transform="translate(-30.237 -27.798)" fill="#004077"/>
      <path id="Path_333" data-name="Path 333" d="M44.98,37.6H39.3V30.54a2.84,2.84,0,0,1,5.68,0h0Z" transform="translate(-29.317 -27.7)" fill="#009e3d"/>
      <path id="Path_334" data-name="Path 334" d="M44.98,45.8H39.3v8.692a.589.589,0,0,0,.6.6h4.476a.589.589,0,0,0,.6-.6Z" transform="translate(-29.317 -30.223)" fill="#009fe3"/>
      <path id="Path_335" data-name="Path 335" d="M183.826,47.835a.589.589,0,0,0-.6-.6H172.38V28.9a.589.589,0,0,0-.6-.6H167.3a.589.589,0,0,0-.6.6V52.14a.588.588,0,0,0,.6.6h15.921a.588.588,0,0,0,.6-.6Z" transform="translate(-47.076 -27.784)" fill="#004077"/>
      <path id="Path_336" data-name="Path 336" d="M118.569,28.3H109.1a.589.589,0,0,0-.6.6V52.14a.589.589,0,0,0,.6.6H118.4c7.486,0,12.565-5.163,12.565-12.221.086-7.229-4.991-12.221-12.392-12.221m6.541,12.307a6.641,6.641,0,0,1-6.971,6.971h-3.873V33.549h3.873a6.663,6.663,0,0,1,6.971,7.056" transform="translate(-38.964 -27.784)" fill="#004077"/>
      <path id="Path_337" data-name="Path 337" d="M102.28,29a.589.589,0,0,0-.6-.6H97.2a.589.589,0,0,0-.6.6V52.152a.588.588,0,0,0,.6.6h4.476a.589.589,0,0,0,.6-.6Z" transform="translate(-37.305 -27.798)" fill="#004077"/>
      <path id="Path_338" data-name="Path 338" d="M87.633,28.3H69.3a.589.589,0,0,0-.6.6v4.3a.589.589,0,0,0,.6.6H87.548a.589.589,0,0,0,.6-.6V28.9a.515.515,0,0,0-.516-.6" transform="translate(-33.415 -27.784)" fill="#004077"/>
      <path id="Path_339" data-name="Path 339" d="M87.633,39.3H69.3a.589.589,0,0,0-.6.6v4.3a.589.589,0,0,0,.6.6H87.548a.589.589,0,0,0,.6-.6V39.9a.484.484,0,0,0-.516-.6" transform="translate(-33.415 -29.317)" fill="#004077"/>
      <path id="Path_340" data-name="Path 340" d="M88.235,50.9a.589.589,0,0,0-.6-.6H69.3a.589.589,0,0,0-.6.6v4.3a.589.589,0,0,0,.6.6H87.548a.589.589,0,0,0,.6-.6V50.9Z" transform="translate(-33.415 -30.85)" fill="#004077"/>
      <path id="Path_341" data-name="Path 341" d="M157.748,28.3H139.5a.589.589,0,0,0-.6.6v4.3a.589.589,0,0,0,.6.6h18.245a.589.589,0,0,0,.6-.6V28.9a.646.646,0,0,0-.6-.6" transform="translate(-43.201 -27.784)" fill="#004077"/>
      <path id="Path_342" data-name="Path 342" d="M157.748,39.3H139.5a.588.588,0,0,0-.6.6v4.3a.589.589,0,0,0,.6.6h18.245a.589.589,0,0,0,.6-.6V39.9a.589.589,0,0,0-.6-.6" transform="translate(-43.201 -29.317)" fill="#004077"/>
      <path id="Path_343" data-name="Path 343" d="M158.35,50.9a.589.589,0,0,0-.6-.6H139.5a.589.589,0,0,0-.6.6v4.3a.588.588,0,0,0,.6.6h18.245a.589.589,0,0,0,.6-.6Z" transform="translate(-43.201 -30.85)" fill="#004077"/>
      <path id="Path_344" data-name="Path 344" d="M207.868,39.918a5.772,5.772,0,0,0,2.84-5.163c0-3.1-2.409-6.45-8.09-6.45H191.6a.588.588,0,0,0-.6.6V52.139a.588.588,0,0,0,.6.6H203.65c4.389,0,8.177-2.582,8.177-6.885.086-2.667-1.037-4.647-3.958-5.938m-11.446-6.541h6.11a2.435,2.435,0,0,1,2.582,2.324,2.384,2.384,0,0,1-2.582,2.324h-6.11Zm6.885,14.281h-6.885V42.843h6.885a2.431,2.431,0,1,1,0,4.82" transform="translate(-50.464 -27.783)" fill="#004077"/>
      <path id="Path_345" data-name="Path 345" d="M296.722,38.844a.589.589,0,0,0-.6-.6H285.965a.589.589,0,0,0-.6.6v3.783a.589.589,0,0,0,.6.6h5.164v3.356a8.565,8.565,0,0,1-4.734,1.382,7.371,7.371,0,0,1-.345-14.716,8.356,8.356,0,0,1,5.852,1.98.658.658,0,0,0,.431.172.473.473,0,0,0,.431-.258l2.667-3.442a.556.556,0,0,0,.172-.431.732.732,0,0,0-.258-.431C292.677,28.691,290.1,28,286.223,28A12.6,12.6,0,0,0,273.4,40.652c0,7.316,5.336,12.565,12.823,12.565a15.548,15.548,0,0,0,9.811-3.356,1.843,1.843,0,0,0,.691-1.463Z" transform="translate(-61.95 -27.742)" fill="#004077"/>
      <path id="Path_346" data-name="Path 346" d="M238.75,29a.588.588,0,0,0-.6-.6H219.9a.589.589,0,0,0-.6.6v4.3a.589.589,0,0,0,.6.6h18.245a.589.589,0,0,0,.6-.6Z" transform="translate(-54.409 -27.798)" fill="#004077"/>
      <path id="Path_347" data-name="Path 347" d="M238.75,39.9a.588.588,0,0,0-.6-.6H219.9a.589.589,0,0,0-.6.6v4.3a.589.589,0,0,0,.6.6h18.245a.589.589,0,0,0,.6-.6Z" transform="translate(-54.409 -29.317)" fill="#004077"/>
      <path id="Path_348" data-name="Path 348" d="M238.75,50.9a.588.588,0,0,0-.6-.6H219.9a.589.589,0,0,0-.6.6v4.3a.589.589,0,0,0,.6.6h18.245a.589.589,0,0,0,.6-.6Z" transform="translate(-54.409 -30.85)" fill="#004077"/>
      <path id="Path_349" data-name="Path 349" d="M268.013,52.742a.613.613,0,0,0,.516-.258.735.735,0,0,0,0-.6l-6.281-8.954a6.917,6.917,0,0,0,4.82-6.885c0-3.1-1.893-7.745-7.66-7.745H247.7a.588.588,0,0,0-.6.6V52.141a.589.589,0,0,0,.6.6h4.476a.589.589,0,0,0,.6-.6V43.273h3.1l6.025,8.778a1.483,1.483,0,0,0,1.2.691ZM252.78,33.378h6.369a2.571,2.571,0,0,1,2.5,2.582,2.442,2.442,0,0,1-2.5,2.5H252.78Z" transform="translate(-58.283 -27.785)" fill="#004077"/>
      <rect id="Rectangle_51" data-name="Rectangle 51" width="5.68" height="5.68" transform="translate(9.897 9.897)" fill="#003330"/>
      <path id="Path_350" data-name="Path 350" d="M37.6,39.2v5.68H30.54a2.84,2.84,0,0,1,0-5.68Z" transform="translate(-27.7 -29.303)" fill="#fec700"/>
    </g>
  </g>
</svg>
