<svg xmlns="http://www.w3.org/2000/svg" xmlns:xlink="http://www.w3.org/1999/xlink" width="76.028" height="20.851" viewBox="0 0 76.028 20.851">
  <defs>
    <clipPath id="clip-path">
      <rect id="Rectangle_11044" data-name="Rectangle 11044" width="76.028" height="20.851" fill="none"/>
    </clipPath>
    <clipPath id="clip-path-2">
      <rect id="Rectangle_11046" data-name="Rectangle 11046" width="69.938" height="7.542" fill="none"/>
    </clipPath>
  </defs>
  <g id="logo" transform="translate(0 0)">
    <rect id="Rectangle_11042" data-name="Rectangle 11042" width="75.968" height="20.791" transform="translate(0.03 0.03)" fill="#fff"/>
    <g id="Group_42648" data-name="Group 42648" transform="translate(0 0)">
      <g id="Group_42647" data-name="Group 42647" transform="translate(0 0)" clip-path="url(#clip-path)">
        <rect id="Rectangle_11043" data-name="Rectangle 11043" width="75.968" height="20.791" transform="translate(0.03 0.03)" fill="none" stroke="#545554" stroke-width="0.25"/>
      </g>
    </g>
    <g id="Group_42650" data-name="Group 42650" transform="translate(2.997 6.826)">
      <g id="Group_42649" data-name="Group 42649" clip-path="url(#clip-path-2)">
        <path id="Path_104443" data-name="Path 104443" d="M36.348,29.9a.175.175,0,0,0-.171-.179h-1.34a.175.175,0,0,0-.179.171.049.049,0,0,0,0,.008v2.587H31.814v1.69h2.843V36.77a.176.176,0,0,0,.171.179h1.339a.175.175,0,0,0,.179-.171V29.9Z" transform="translate(-27.187 -29.428)" fill="#184275"/>
        <path id="Path_104444" data-name="Path 104444" d="M26.448,31.924H24.757v-2.1a.845.845,0,0,1,1.691,0Z" transform="translate(-21.821 -28.86)" fill="#029d49"/>
        <path id="Path_104445" data-name="Path 104445" d="M26.448,48.326H24.757v2.587a.175.175,0,0,0,.171.179h1.341a.175.175,0,0,0,.179-.171v-2.6Z" transform="translate(-21.821 -43.571)" fill="#1c9cd8"/>
        <path id="Path_104446" data-name="Path 104446" d="M166.047,35.433a.175.175,0,0,0-.171-.179H162.64V29.8a.175.175,0,0,0-.171-.179h-1.341a.175.175,0,0,0-.179.171v6.926a.175.175,0,0,0,.171.179h4.748a.175.175,0,0,0,.179-.171v-1.29Z" transform="translate(-125.375 -29.346)" fill="#184275"/>
        <path id="Path_104447" data-name="Path 104447" d="M101.73,29.618H98.912a.175.175,0,0,0-.179.171v6.926a.175.175,0,0,0,.171.179h2.775a3.539,3.539,0,0,0,3.74-3.638,3.469,3.469,0,0,0-3.689-3.638m1.947,3.663a1.977,1.977,0,0,1-1.873,2.075,1.89,1.89,0,0,1-.2,0h-1.153V31.181H101.6a1.983,1.983,0,0,1,2.076,1.886,1.945,1.945,0,0,1,0,.215" transform="translate(-78.069 -29.346)" fill="#184275"/>
        <path id="Path_104448" data-name="Path 104448" d="M87.7,29.905a.175.175,0,0,0-.171-.179H86.19a.175.175,0,0,0-.179.171v6.9a.175.175,0,0,0,.171.179h1.341A.175.175,0,0,0,87.7,36.8v-6.9Z" transform="translate(-68.396 -29.428)" fill="#184275"/>
        <path id="Path_104449" data-name="Path 104449" d="M61.822,29.618H56.365a.175.175,0,0,0-.179.171v1.289a.175.175,0,0,0,.171.179H61.8a.175.175,0,0,0,.179-.171.048.048,0,0,0,0-.008V29.8a.153.153,0,0,0-.125-.177l-.029,0" transform="translate(-45.718 -29.346)" fill="#184275"/>
        <path id="Path_104450" data-name="Path 104450" d="M61.822,41.376H56.365a.175.175,0,0,0-.179.171v1.289a.175.175,0,0,0,.171.179H61.8a.175.175,0,0,0,.179-.171.048.048,0,0,0,0-.008V41.555a.144.144,0,0,0-.1-.175.148.148,0,0,0-.05,0" transform="translate(-45.718 -38.286)" fill="#184275"/>
        <path id="Path_104451" data-name="Path 104451" d="M62,53.317a.175.175,0,0,0-.171-.179H56.365a.175.175,0,0,0-.179.171V54.6a.175.175,0,0,0,.171.179H61.8a.175.175,0,0,0,.179-.171V53.317Z" transform="translate(-45.718 -47.23)" fill="#184275"/>
        <path id="Path_104452" data-name="Path 104452" d="M136.841,29.618H131.41a.175.175,0,0,0-.179.171v1.289a.175.175,0,0,0,.171.179h5.439a.175.175,0,0,0,.179-.171V29.8a.192.192,0,0,0-.179-.179" transform="translate(-102.779 -29.346)" fill="#184275"/>
        <path id="Path_104453" data-name="Path 104453" d="M136.841,41.378H131.41a.175.175,0,0,0-.179.171v1.289a.175.175,0,0,0,.171.179h5.439a.175.175,0,0,0,.179-.171V41.557a.175.175,0,0,0-.171-.179h-.008" transform="translate(-102.779 -38.288)" fill="#184275"/>
        <path id="Path_104454" data-name="Path 104454" d="M137.021,53.317a.175.175,0,0,0-.171-.179h-5.44a.175.175,0,0,0-.179.171V54.6a.175.175,0,0,0,.171.179h5.439a.175.175,0,0,0,.179-.171V53.317Z" transform="translate(-102.779 -47.23)" fill="#184275"/>
        <path id="Path_104455" data-name="Path 104455" d="M191.947,33.083a1.719,1.719,0,0,0,.845-1.537c0-.922-.717-1.92-2.408-1.92h-3.279a.175.175,0,0,0-.179.171v6.924a.175.175,0,0,0,.171.179h3.595a2.192,2.192,0,0,0,2.434-2.049,1.726,1.726,0,0,0-1.178-1.768m-3.407-1.947h1.819a.725.725,0,0,1,.768.679v.013a.71.71,0,0,1-.725.694l-.044,0H188.54Zm2.049,4.251H188.54V33.953h2.049a.724.724,0,0,1,.191,1.435.71.71,0,0,1-.191,0" transform="translate(-145.127 -29.352)" fill="#184275"/>
        <path id="Path_104456" data-name="Path 104456" d="M281.954,32.524a.175.175,0,0,0-.171-.179h-3.031a.175.175,0,0,0-.179.171V33.65a.175.175,0,0,0,.171.179h1.546v1a2.547,2.547,0,0,1-1.409.411,2.194,2.194,0,0,1-.1-4.381,2.488,2.488,0,0,1,1.742.589.2.2,0,0,0,.128.051.141.141,0,0,0,.128-.077l.794-1.025a.164.164,0,0,0,.051-.128.217.217,0,0,0-.077-.128,3.884,3.884,0,0,0-2.715-.845,3.75,3.75,0,0,0-3.817,3.684c0,.027,0,.055,0,.082a3.64,3.64,0,0,0,3.817,3.74,4.629,4.629,0,0,0,2.921-1,.548.548,0,0,0,.206-.435Z" transform="translate(-212.104 -29.101)" fill="#184275"/>
        <path id="Path_104457" data-name="Path 104457" d="M222.969,29.905a.175.175,0,0,0-.171-.179h-5.44a.175.175,0,0,0-.179.171v1.289a.175.175,0,0,0,.171.179h5.44a.175.175,0,0,0,.179-.171V29.905Z" transform="translate(-168.13 -29.428)" fill="#184275"/>
        <path id="Path_104458" data-name="Path 104458" d="M222.969,41.557a.175.175,0,0,0-.171-.179h-5.44a.175.175,0,0,0-.179.171v1.289a.175.175,0,0,0,.171.179h5.44a.175.175,0,0,0,.179-.171V41.557Z" transform="translate(-168.13 -38.288)" fill="#184275"/>
        <path id="Path_104459" data-name="Path 104459" d="M222.969,53.317a.175.175,0,0,0-.171-.179h-5.44a.175.175,0,0,0-.179.171V54.6a.175.175,0,0,0,.171.179h5.44a.175.175,0,0,0,.179-.171V53.317Z" transform="translate(-168.13 -47.23)" fill="#184275"/>
        <path id="Path_104460" data-name="Path 104460" d="M253.123,36.891a.183.183,0,0,0,.154-.077.219.219,0,0,0,0-.179l-1.87-2.666a2.059,2.059,0,0,0,1.435-2.049,2.205,2.205,0,0,0-2.28-2.306h-3.484a.175.175,0,0,0-.179.171v6.927a.175.175,0,0,0,.171.179h1.341a.175.175,0,0,0,.179-.171V34.072h.922l1.793,2.613a.442.442,0,0,0,.359.206Zm-4.534-5.764h1.9a.765.765,0,0,1,.743.769.727.727,0,0,1-.71.743h-1.928Z" transform="translate(-190.727 -29.343)" fill="#184275"/>
        <rect id="Rectangle_11045" data-name="Rectangle 11045" width="1.691" height="1.691" transform="translate(2.91 3.064)" fill="#013330"/>
        <path id="Path_104461" data-name="Path 104461" d="M15.3,41.271v1.691H13.2a.845.845,0,0,1,0-1.691Z" transform="translate(-12.394 -38.207)" fill="#fdc70a"/>
      </g>
    </g>
  </g>
</svg>
