<svg width="34" height="30" viewBox="0 0 34 30" fill="none" xmlns="http://www.w3.org/2000/svg">
<path d="M24.565 8V2.5H9.435V8H6.885V0H27.115V8H24.565ZM28.0075 14.4583C28.3475 14.4583 28.645 14.3333 28.9 14.0833C29.155 13.8333 29.2825 13.5417 29.2825 13.2083C29.2825 12.875 29.155 12.5833 28.9 12.3333C28.645 12.0833 28.3475 11.9583 28.0075 11.9583C27.6675 11.9583 27.37 12.0833 27.115 12.3333C26.86 12.5833 26.7325 12.875 26.7325 13.2083C26.7325 13.5417 26.86 13.8333 27.115 14.0833C27.37 14.3333 27.6675 14.4583 28.0075 14.4583ZM24.565 27.5V19.5H9.435V27.5H24.565ZM27.115 30H6.885V22.6667H0V12.4167C0 11.1653 0.432083 10.1162 1.29625 9.26958C2.16042 8.42319 3.23 8 4.505 8H29.495C30.7714 8 31.8414 8.42319 32.705 9.26958C33.5683 10.1162 34 11.1653 34 12.4167V22.6667H27.115V30ZM31.45 20.1667V12.4079C31.45 11.8582 31.2627 11.4028 30.8882 11.0417C30.5133 10.6806 30.0489 10.5 29.495 10.5H4.505C3.95108 10.5 3.48684 10.6836 3.11227 11.0508C2.73742 11.4183 2.55 11.8736 2.55 12.4167V20.1667H6.885V17H27.115V20.1667H31.45Z" fill="#3484FA"/>
</svg>
