<svg width="34" height="30" viewBox="0 0 34 30" fill="none" xmlns="http://www.w3.org/2000/svg">
<path d="M5.17207 30C3.75894 30 2.55777 29.5139 1.56858 28.5417C0.579385 27.5694 0.084788 26.3889 0.084788 25C0.084788 23.6111 0.579385 22.4306 1.56858 21.4583C2.55777 20.4861 3.75894 20 5.17207 20H28.9127C30.3259 20 31.527 20.4861 32.5162 21.4583C33.5054 22.4306 34 23.6111 34 25C34 26.3889 33.5054 27.5694 32.5162 28.5417C31.527 29.5139 30.3259 30 28.9127 30H5.17207ZM5.17207 27.5H28.9127C29.6334 27.5 30.2375 27.2569 30.7251 26.7708C31.2126 26.2847 31.4564 25.6944 31.4564 25C31.4564 24.3056 31.2126 23.7153 30.7251 23.2292C30.2375 22.7431 29.6334 22.5 28.9127 22.5H5.17207C4.45137 22.5 3.84726 22.7431 3.35973 23.2292C2.87219 23.7153 2.62843 24.3056 2.62843 25C2.62843 25.6944 2.87219 26.2847 3.35973 26.7708C3.84726 27.2569 4.45137 27.5 5.17207 27.5ZM13.2269 16.6667C12.8666 16.6667 12.5646 16.5468 12.321 16.3071C12.0771 16.0676 11.9551 15.7708 11.9551 15.4167V1.25C11.9551 0.895833 12.0771 0.598889 12.321 0.359166C12.5646 0.119722 12.8666 0 13.2269 0H27.6409C28.0012 0 28.3034 0.119722 28.5473 0.359166C28.7909 0.598889 28.9127 0.895833 28.9127 1.25V15.4167C28.9127 15.7708 28.7909 16.0676 28.5473 16.3071C28.3034 16.5468 28.0012 16.6667 27.6409 16.6667H13.2269ZM14.4988 14.1667H26.3691V2.5H14.4988V14.1667ZM0 12.9167V10.4167H9.36908V12.9167H0ZM17 7.91667H23.8678V5.41667H17V7.91667ZM3.47631 7.91667H9.70823V5.41667H3.47631V7.91667Z" fill="#3484FA"/>
</svg>
