<svg width="24" height="30" viewBox="0 0 24 30" fill="none" xmlns="http://www.w3.org/2000/svg">
<path d="M2.8924 30C2.08413 30 1.4 29.7237 0.84 29.1711C0.28 28.6184 0 27.9433 0 27.1457V2.85434C0 2.05671 0.28 1.38158 0.84 0.828947C1.4 0.276316 2.08413 0 2.8924 0H21.1076C21.9159 0 22.6 0.276316 23.16 0.828947C23.72 1.38158 24 2.05671 24 2.85434V27.1457C24 27.9433 23.72 28.6184 23.16 29.1711C22.6 29.7237 21.9159 30 21.1076 30H2.8924ZM2.8924 27.6316H21.1076C21.2308 27.6316 21.3436 27.5809 21.446 27.4796C21.5487 27.3786 21.6 27.2672 21.6 27.1457V2.85434C21.6 2.73276 21.5487 2.62145 21.446 2.52039C21.3436 2.41908 21.2308 2.36842 21.1076 2.36842H18.4V12.7228L14.8 10.5971L11.2 12.7228V2.36842H2.8924C2.7692 2.36842 2.6564 2.41908 2.554 2.52039C2.45133 2.62145 2.4 2.73276 2.4 2.85434V27.1457C2.4 27.2672 2.45133 27.3786 2.554 27.4796C2.6564 27.5809 2.7692 27.6316 2.8924 27.6316Z" fill="#3484FA"/>
</svg>
