<svg width="30" height="30" viewBox="0 0 30 30" fill="none" xmlns="http://www.w3.org/2000/svg">
<path d="M5.85938 23.0469C7.21354 22.1615 8.29427 21.0286 9.10156 19.6484C9.90885 18.2682 10.3125 16.7188 10.3125 15C10.3125 13.3594 9.90885 11.8229 9.10156 10.3906C8.29427 8.95833 7.20052 7.82552 5.82031 6.99219C4.85677 8.11198 4.11458 9.35547 3.59375 10.7227C3.07292 12.0898 2.8125 13.5156 2.8125 15C2.8125 16.4844 3.07292 17.9167 3.59375 19.2969C4.11458 20.6771 4.86979 21.9271 5.85938 23.0469ZM18.6914 26.6406C19.8763 26.276 20.9896 25.7292 22.0312 25C20.4427 23.8021 19.1862 22.3503 18.2617 20.6445C17.3372 18.9388 16.875 17.0573 16.875 15C16.875 12.8906 17.3372 10.9961 18.2617 9.31641C19.1862 7.63672 20.4427 6.19792 22.0312 5C20.9896 4.24479 19.8763 3.69141 18.6914 3.33984C17.5065 2.98828 16.276 2.8125 15 2.8125C13.724 2.8125 12.487 2.99479 11.2891 3.35938C10.0911 3.72396 8.98438 4.28385 7.96875 5.03906C9.55729 6.21094 10.8138 7.63672 11.7383 9.31641C12.6628 10.9961 13.125 12.8906 13.125 15C13.125 17.0573 12.6628 18.9388 11.7383 20.6445C10.8138 22.3503 9.55729 23.7891 7.96875 24.9609C8.98438 25.7161 10.0911 26.276 11.2891 26.6406C12.487 27.0052 13.724 27.1875 15 27.1875C16.276 27.1875 17.5065 27.0052 18.6914 26.6406ZM24.1406 23.0078C25.1302 21.9141 25.8854 20.6771 26.4063 19.2969C26.9271 17.9167 27.1875 16.4844 27.1875 15C27.1875 13.5156 26.9336 12.0833 26.4258 10.7031C25.918 9.32292 25.1693 8.08594 24.1797 6.99219C22.7734 7.79948 21.6732 8.92578 20.8789 10.3711C20.0846 11.8164 19.6875 13.3594 19.6875 15C19.6875 16.7188 20.0846 18.2682 20.8789 19.6484C21.6732 21.0286 22.7604 22.1484 24.1406 23.0078ZM9.17969 28.8281C7.35677 28.0469 5.76172 26.9727 4.39453 25.6055C3.02734 24.2383 1.95312 22.6432 1.17188 20.8203C0.390625 18.9974 0 17.0508 0 14.9805C0 12.9102 0.390625 10.9701 1.17188 9.16016C1.95312 7.35026 3.02734 5.76172 4.39453 4.39453C5.76172 3.02734 7.35677 1.95312 9.17969 1.17188C11.0026 0.390625 12.9492 0 15.0195 0C17.0898 0 19.0299 0.390625 20.8398 1.17188C22.6497 1.95312 24.2383 3.02734 25.6055 4.39453C26.9727 5.76172 28.0469 7.35026 28.8281 9.16016C29.6094 10.9701 30 12.9102 30 14.9805C30 17.0508 29.6094 18.9974 28.8281 20.8203C28.0469 22.6432 26.9727 24.2383 25.6055 25.6055C24.2383 26.9727 22.6497 28.0469 20.8398 28.8281C19.0299 29.6094 17.0898 30 15.0195 30C12.9492 30 11.0026 29.6094 9.17969 28.8281Z" fill="#3484FA"/>
</svg>
