<svg width="33" height="30" viewBox="0 0 33 30" fill="none" xmlns="http://www.w3.org/2000/svg">
<path d="M6.75 30C6.13125 30 5.60163 29.7796 5.16113 29.3389C4.72038 28.8984 4.5 28.3687 4.5 27.75V21.375H6.75V27.75H26.25V21.375H28.5V27.75C28.5 28.3687 28.2797 28.8984 27.8392 29.3389C27.3985 29.7796 26.8687 30 26.25 30H6.75ZM4.5 14.625V2.25C4.5 1.63125 4.72038 1.1015 5.16113 0.66075C5.60163 0.22025 6.13125 0 6.75 0H20.2875L28.5 8.2125V14.625H26.25V9.225H19.1625V2.25H6.75V14.625H4.5ZM11.625 19.125V16.875H21.375V19.125H11.625ZM23.625 19.125V16.875H33V19.125H23.625ZM0 19.125V16.875H9.375V19.125H0Z" fill="#3484FA"/>
</svg>
