<svg width="30" height="30" viewBox="0 0 30 30" fill="none" xmlns="http://www.w3.org/2000/svg">
<path d="M3.19015 30C2.29868 30 1.54412 29.6912 0.926471 29.0735C0.308824 28.4559 0 27.7013 0 26.8099V3.19015C0 2.29868 0.308824 1.54412 0.926471 0.926471C1.54412 0.308824 2.29868 0 3.19015 0H26.8099C27.7013 0 28.4559 0.308824 29.0735 0.926471C29.6912 1.54412 30 2.29868 30 3.19015V26.8099C30 27.7013 29.6912 28.4559 29.0735 29.0735C28.4559 29.6912 27.7013 30 26.8099 30H3.19015ZM2.64706 14.5588V26.8099C2.64706 26.9457 2.70368 27.0701 2.81691 27.1831C2.92985 27.2963 3.05426 27.3529 3.19015 27.3529H26.8099C26.9457 27.3529 27.0701 27.2963 27.1831 27.1831C27.2963 27.0701 27.3529 26.9457 27.3529 26.8099V14.5588H22.9412V22.9412H7.05882V14.5588H2.64706ZM9.70588 20.2941H20.2941V14.5588H9.70588V20.2941ZM2.64706 11.9118H27.3529V3.19015C27.3529 3.05426 27.2963 2.92985 27.1831 2.81691C27.0701 2.70368 26.9457 2.64706 26.8099 2.64706H3.19015C3.05426 2.64706 2.92985 2.70368 2.81691 2.81691C2.70368 2.92985 2.64706 3.05426 2.64706 3.19015V11.9118ZM6.8025 7.65441C6.49838 7.35 6.34632 6.98177 6.34632 6.54971C6.34632 6.11765 6.49838 5.74941 6.8025 5.445C7.10691 5.14088 7.47515 4.98882 7.90721 4.98882C8.33927 4.98882 8.7075 5.14088 9.01191 5.445C9.31603 5.74941 9.46809 6.11765 9.46809 6.54971C9.46809 6.98177 9.31603 7.35 9.01191 7.65441C8.7075 7.95882 8.33927 8.11103 7.90721 8.11103C7.47515 8.11103 7.10691 7.95882 6.8025 7.65441ZM13.8613 7.65441C13.5572 7.35 13.4051 6.98177 13.4051 6.54971C13.4051 6.11765 13.5572 5.74941 13.8613 5.445C14.1657 5.14088 14.534 4.98882 14.966 4.98882C15.3981 4.98882 15.7663 5.14088 16.0707 5.445C16.3749 5.74941 16.5269 6.11765 16.5269 6.54971C16.5269 6.98177 16.3749 7.35 16.0707 7.65441C15.7663 7.95882 15.3981 8.11103 14.966 8.11103C14.534 8.11103 14.1657 7.95882 13.8613 7.65441ZM20.9201 7.65441C20.616 7.35 20.464 6.98177 20.464 6.54971C20.464 6.11765 20.616 5.74941 20.9201 5.445C21.2246 5.14088 21.5928 4.98882 22.0249 4.98882C22.4569 4.98882 22.8251 5.14088 23.1296 5.445C23.4337 5.74941 23.5857 6.11765 23.5857 6.54971C23.5857 6.98177 23.4337 7.35 23.1296 7.65441C22.8251 7.95882 22.4569 8.11103 22.0249 8.11103C21.5928 8.11103 21.2246 7.95882 20.9201 7.65441Z" fill="#3484FA"/>
</svg>
