<svg xmlns="http://www.w3.org/2000/svg" width="494.404" height="47.263" viewBox="0 0 494.404 47.263">
  <g id="Illustration" transform="translate(-1032.608 -964.736)">
    <g id="noun-valentines-day-4668256" transform="translate(1032.608 966.861)">
      <path id="Path_100061" data-name="Path 100061" d="M212.31,32.6a2.034,2.034,0,0,1,2.874,0l.4.4a.8.8,0,0,0,1.133,0l.4-.4a2.032,2.032,0,1,1,2.874,2.874l-3.841,3.841-3.841-3.841A2.032,2.032,0,0,1,212.31,32.6Z" transform="translate(-194.292 -32)" fill="#fff"/>
      <path id="Path_100062" data-name="Path 100062" d="M69.519,200.366a4.729,4.729,0,0,1,3.007.066,3.859,3.859,0,0,1,1.971,3,3.216,3.216,0,0,1-.168,1.788,1.483,1.483,0,0,1-1.073.9.8.8,0,0,0-.689.91c.169,1.165.249,2.442-.447,3.091a2.916,2.916,0,0,1-2.127.507,12.184,12.184,0,0,1-6.51-2.209,2.27,2.27,0,0,0,.175-.875V205.7a2.274,2.274,0,0,0-.621-1.563A12.821,12.821,0,0,1,69.519,200.366ZM57.245,205.7a.681.681,0,0,1,.68-.68h3.448a.681.681,0,0,1,.68.68v1.846a.681.681,0,0,1-.68.68H57.925a.681.681,0,0,1-.68-.68Zm-12.572-2.327a4.272,4.272,0,0,1,2.951-3.064,7.938,7.938,0,0,1,4.758.182c2.952.923,3.863,2.57,4.141,3.409a2.28,2.28,0,0,0-.882,1.8v1.846a2.273,2.273,0,0,0,.118.722,13.533,13.533,0,0,1-6.631,1.811,2.392,2.392,0,0,1-1.164-.287c-.616-.417-.73-1.437-.762-2.478a.8.8,0,0,0-.634-.759A2.792,2.792,0,0,1,44.673,203.372Zm-.9,21.177a3.206,3.206,0,0,1-2.762-4.834l4.391,4.39a3.186,3.186,0,0,1-1.629.444Zm8.281.689a23.265,23.265,0,0,0-1.161,2.091l-13.1-13.1a23.1,23.1,0,0,0,6.2-4.433l1.652-1.652a3.73,3.73,0,0,0,1.422,2.979,3.831,3.831,0,0,0,1.975.56,12.31,12.31,0,0,0,4.866-.853,20.023,20.023,0,0,0-1.863,3.27c-.953,2.11-2.3,6.234-.591,10.151a.8.8,0,0,0,.735.482h.031a.793.793,0,0,0,.178-.03Zm4.082-4.3a4.1,4.1,0,0,0-3.7,1.136,11.725,11.725,0,0,1,1.066-7.319,18.367,18.367,0,0,1,3.463-5.138,2.266,2.266,0,0,0,.8.205,14.8,14.8,0,0,0-1.636,11.116Zm1.8-2.428-.535.535a13.226,13.226,0,0,1,.177-4.389,9.655,9.655,0,0,0,1.109,2.987,8.111,8.111,0,0,1-.75.867Zm1.334-7.722a39.2,39.2,0,0,1,2.079,7.721,8.039,8.039,0,0,1-2.079-7.721Zm4.049,10.6a40.807,40.807,0,0,0-2.7-11.566h.75a2.273,2.273,0,0,0,.759-.13,14.517,14.517,0,0,0,1.577,2.207c.338.415.657.806.949,1.221a20.777,20.777,0,0,1,2.783,6.63,4.259,4.259,0,0,0-2.581.471A6.333,6.333,0,0,0,63.326,221.393ZM77.79,223.61a3.208,3.208,0,0,1-3.9.5l4.39-4.39A3.211,3.211,0,0,1,77.79,223.61ZM68.4,227.329a23.1,23.1,0,0,0-3.5-5.21,4.2,4.2,0,0,1,.7-.477,2.261,2.261,0,0,1,2.479.085.8.8,0,0,0,1.32-.789c-.739-2.855-1.577-6.091-3.442-8.736-.25-.355-.517-.693-.782-1.022a13.74,13.74,0,0,0,4.744,1.051,4.363,4.363,0,0,0,3.281-.936,3.586,3.586,0,0,0,1.063-2.533l1.031,1.031a23.1,23.1,0,0,0,6.2,4.433Z" transform="translate(-37.79 -183.191)" fill="#fff"/>
      <path id="Path_100063" data-name="Path 100063" d="M234.638,154.728l-2.363,2.363-2.363-2.363a.96.96,0,0,1-.089-1.249.944.944,0,0,1,.763-.382h.028a.944.944,0,0,1,.769.425l.225.338a.8.8,0,0,0,1.334,0l.225-.338a.956.956,0,1,1,1.471,1.206Z" transform="translate(-210.416 -140.965)" fill="#fff"/>
    </g>
    <g id="noun-valentines-candy-5076186" transform="translate(1441.657 849.047)">
      <path id="Path_100060" data-name="Path 100060" d="M54.644,153.3a2.477,2.477,0,0,1-.3-1.834,4.573,4.573,0,0,1,.352-.682,2.14,2.14,0,0,0,.418-1.84.817.817,0,0,0-.5-.525,1,1,0,0,0-.846.124,10.629,10.629,0,0,0-1.165.867c-.171.14-.348.284-.521.417l-.528.4q-.664.509-1.327,1.02c-.156.121-.334.259-.515.408a7.77,7.77,0,0,0-2.249-3.208,9.192,9.192,0,0,0-2.064-1.348,10.113,10.113,0,0,0-3.111-.908,10.792,10.792,0,0,0-2.2-.051,10.24,10.24,0,0,0-3.262.805,9.328,9.328,0,0,0-2.087,1.243,8.156,8.156,0,0,0-1.975,2.242,28.175,28.175,0,0,0-2.513-3.137c-.053-.057-.112-.125-.174-.2-.373-.432-.936-1.084-1.6-.836-.852.317-.91,1.645-.913,1.908a3.266,3.266,0,0,0,.175,1.087c.046.138.1.274.158.406a2.793,2.793,0,0,1,.236.75c.055.487-.321.77-.718,1.07-.1.074-.2.15-.294.23a2.137,2.137,0,0,0-.822,1.605,4.584,4.584,0,0,0,.513,1.985l.059.13a3.431,3.431,0,0,1,.459,1.858,1.478,1.478,0,0,1-.48.762,1.7,1.7,0,0,0-.567.959.457.457,0,0,0,.2.434,1.221,1.221,0,0,0,.646.188,2.7,2.7,0,0,0,1.608-.85l2.284-2.011.147-.13c.194-.171.4-.343.591-.51l.263-.226A7.456,7.456,0,0,0,33.7,158.9a8.683,8.683,0,0,0,1.468,1.288,9.629,9.629,0,0,0,2.814,1.342,10.379,10.379,0,0,0,1.571.33,10.676,10.676,0,0,0,1.394.091,10.539,10.539,0,0,0,2.93-.411,10,10,0,0,0,1.635-.635,8.588,8.588,0,0,0,3.6-3.253c.182.383.332.794.478,1.194a5.3,5.3,0,0,0,1.793,2.838,1.142,1.142,0,0,0,.631.212.756.756,0,0,0,.26-.044.744.744,0,0,0,.459-.539A4.665,4.665,0,0,0,52.844,160c0-.131,0-.255,0-.379a2.839,2.839,0,0,1,.36-1.51,6.809,6.809,0,0,1,.664-.866c.076-.088.151-.177.225-.266a3.159,3.159,0,0,0,.893-2.726,5.7,5.7,0,0,0-.34-.96Zm-17.658-5.558q.031-.262.062-.525a9.9,9.9,0,0,1,2.869-.725c-.448,3.341-.928,6.731-1.392,10.011l-.12.845c-.143,1.009-.277,2.035-.406,3.028l-.1.787a9.283,9.283,0,0,1-2.453-1.183c.2-1.435.372-2.755.539-4.034.271-2.073.523-4.184.767-6.224q.118-.99.237-1.979Zm-2.344.964v.014q-.073.718-.148,1.435c-.306,2.951-.566,5.648-.8,8.239a6.8,6.8,0,0,1-1.6-4.359A7.1,7.1,0,0,1,34.642,148.7Zm-7.989,10.463a.133.133,0,0,1-.042-.111,1.434,1.434,0,0,1,.479-.775,1.749,1.749,0,0,0,.567-.936,3.668,3.668,0,0,0-.484-2.045l-.058-.129a4.3,4.3,0,0,1-.484-1.841,1.822,1.822,0,0,1,.707-1.364c.086-.073.18-.143.279-.218.432-.326.923-.695.847-1.368a3.082,3.082,0,0,0-.259-.84c-.055-.132-.107-.257-.149-.383a2.941,2.941,0,0,1-.158-.979c.007-.623.194-1.417.7-1.6a.559.559,0,0,1,.423.019,2.743,2.743,0,0,0-.466,1.582,3.266,3.266,0,0,0,.175,1.087c.046.138.1.274.158.406a2.793,2.793,0,0,1,.236.75c.055.487-.321.77-.718,1.07-.1.074-.2.15-.294.23a2.137,2.137,0,0,0-.822,1.605A4.584,4.584,0,0,0,27.8,155.3l.059.13a3.431,3.431,0,0,1,.459,1.858,1.478,1.478,0,0,1-.48.762,1.7,1.7,0,0,0-.567.959.483.483,0,0,0,.053.275A.9.9,0,0,1,26.653,159.166Zm13.123,2.391c.9-4.384,1.739-9.166,2.637-15.016a9.778,9.778,0,0,1,2.748.808q-.1.913-.2,1.825l-.164,1.463c-.276,2.466-.562,5.016-.832,7.525-.12,1.115-.213,2.227-.282,3.094a10.224,10.224,0,0,1-2.73.369,10.363,10.363,0,0,1-1.176-.068Zm5.892-1.1c.63-3.367,1.21-7.057,1.817-11.555a6.985,6.985,0,0,1,2.326,5.127,7.442,7.442,0,0,1-4.143,6.428Zm8.171-3.686c-.073.088-.147.175-.222.262a7.047,7.047,0,0,0-.7.909,3.207,3.207,0,0,0-.407,1.675c0,.128,0,.26,0,.387a4.429,4.429,0,0,1-.1,1.219.433.433,0,0,1-.256.319.625.625,0,0,1-.476-.062,1.006,1.006,0,0,0,.064-.169A4.664,4.664,0,0,0,51.861,160c0-.131,0-.255,0-.379a2.839,2.839,0,0,1,.36-1.51,6.809,6.809,0,0,1,.664-.866c.076-.088.151-.177.225-.266A3.159,3.159,0,0,0,54,154.257a5.7,5.7,0,0,0-.34-.96,2.477,2.477,0,0,1-.3-1.834,4.573,4.573,0,0,1,.352-.682,2.14,2.14,0,0,0,.418-1.84,1,1,0,0,0-.082-.176.624.624,0,0,1,.46-.04.494.494,0,0,1,.3.325,1.84,1.84,0,0,1-.391,1.565,4.893,4.893,0,0,0-.376.732,2.751,2.751,0,0,0,.3,2.077,5.387,5.387,0,0,1,.322.9,2.824,2.824,0,0,1-.825,2.447Z" fill="#fff"/>
    </g>
    <g id="noun-valentines-4668238" transform="translate(1442.401 932.736)">
      <circle id="Ellipse_715" data-name="Ellipse 715" cx="1" cy="1" r="1" transform="translate(46.599 43.264)" fill="#fff"/>
      <path id="Path_100044" data-name="Path 100044" d="M176.148,174.857l.459.158.508-2.353a8.4,8.4,0,0,0,.188-1.766v-.318a4.115,4.115,0,0,1-.855-1.866,4.125,4.125,0,0,1-3.368-.73,4.136,4.136,0,0,1-1.259.643,4.12,4.12,0,0,1,.216,3.151A8.4,8.4,0,0,0,176.148,174.857Z" transform="translate(-118.21 -121.94)" fill="#fff"/>
      <path id="Path_100045" data-name="Path 100045" d="M135.759,38.987a4.108,4.108,0,0,1,1.825.011,4.117,4.117,0,0,1,1.458-4.169,3.675,3.675,0,0,0-1.748-1.769,8.157,8.157,0,0,0-2.845-.748,7.4,7.4,0,0,0-.354,4.045A4.137,4.137,0,0,1,135.759,38.987Z" transform="translate(-84.259 -0.281)" fill="#fff"/>
      <path id="Path_100046" data-name="Path 100046" d="M84.859,221.567a6.779,6.779,0,0,0-.695,4.06l.264-.1a6.824,6.824,0,0,0,3.872-3.9l.018-.047a4.141,4.141,0,0,1-1.751-1.02A4.141,4.141,0,0,1,84.859,221.567Z" transform="translate(-39.546 -169.087)" fill="#fff"/>
      <path id="Path_100047" data-name="Path 100047" d="M184.874,40.881a2.478,2.478,0,0,0,2.9,3.991.826.826,0,0,1,1.24.825,2.509,2.509,0,0,0-.025.347,2.478,2.478,0,0,0,4.957,0,2.52,2.52,0,0,0-.025-.348.826.826,0,0,1,1.24-.825,2.478,2.478,0,0,0,2.9-3.991.826.826,0,0,1,0-1.239,2.478,2.478,0,0,0-2.9-3.991.826.826,0,0,1-1.24-.825,2.515,2.515,0,0,0,.025-.348,2.478,2.478,0,1,0-4.957,0,2.506,2.506,0,0,0,.025.347.826.826,0,0,1-1.24.825,2.478,2.478,0,0,0-2.9,3.991.826.826,0,0,1,0,1.239Zm6.595-3.1a2.478,2.478,0,1,1-2.478,2.478A2.478,2.478,0,0,1,191.468,37.783Z" transform="translate(-129.164 0)" fill="#fff"/>
      <ellipse id="Ellipse_716" data-name="Ellipse 716" cx="0.5" cy="1" rx="0.5" ry="1" transform="translate(61.599 39.264)" fill="#fff"/>
      <path id="Path_100048" data-name="Path 100048" d="M290.518,187.683h0c.013-.021.023-.04.032-.058C290.54,187.645,290.529,187.664,290.518,187.683Z" transform="translate(-224.649 -139.554)" fill="#fff"/>
      <path id="Path_100049" data-name="Path 100049" d="M333.31,50q.1.131.186.269a4.134,4.134,0,0,1,2.358-.172,4.138,4.138,0,0,1,3.927-3.4A14.167,14.167,0,0,0,340,42.866a14.054,14.054,0,0,0-5.309.907,6.114,6.114,0,0,0-1.686.91A4.123,4.123,0,0,1,333.31,50Z" transform="translate(-262.746 -9.741)" fill="#fff"/>
      <path id="Path_100050" data-name="Path 100050" d="M289.244,177.754l.257.733.915-.19a3.9,3.9,0,0,0,2.712-2.126,4.119,4.119,0,0,1,.5-1.317,4.113,4.113,0,0,1-1.594-1.462,4.125,4.125,0,0,1-2.356.172,4.1,4.1,0,0,1-.442,1.25c-.021.1-.074.373-.178,1.125A3.9,3.9,0,0,0,289.244,177.754Z" transform="translate(-223.311 -126.79)" fill="#fff"/>
      <path id="Path_100051" data-name="Path 100051" d="M223.566,400h-2.44l-1.012,1.686a10.916,10.916,0,0,0-1.454,4.094l-.221,1.548a.817.817,0,0,0,.809.933h6.375a.818.818,0,0,0,.817-.817,11.015,11.015,0,0,0-2.4-6.855Z" transform="translate(-160.007 -329.998)" fill="#fff"/>
      <path id="Path_100052" data-name="Path 100052" d="M171.308,206.175a5.571,5.571,0,0,1-1.239.86l.9.18-.574,2.872c-.2,1-.442,2.015-.716,3l-1.592-.442c.263-.948.495-1.918.688-2.883l.478-2.39a5.492,5.492,0,0,1-.565.151l-1.624.338a.826.826,0,0,1-.948-.536l-.5-1.416a5.559,5.559,0,0,1-.308-1.73,4.126,4.126,0,0,1-3.361.072,10.032,10.032,0,0,1-.184,1.219l-.7,3.262a.826.826,0,0,1-1.076.607l-1.339-.46a10.064,10.064,0,0,1-4.49-3.122,4.15,4.15,0,0,1-1.254.907l.292,1.6a21.513,21.513,0,0,0,5.744,11.175h1.233a21.4,21.4,0,0,1-4.049-9.8l1.636-.234a19.754,19.754,0,0,0,4.383,9.858l.143.172h3.228a40.339,40.339,0,0,0,2.093-5.2l1.572.508a42.022,42.022,0,0,1-1.837,4.691h.824l.969-.969a21.726,21.726,0,0,0,5.222-8.449l.443-1.336A4.139,4.139,0,0,1,171.308,206.175Z" transform="translate(-101.246 -154.4)" fill="#fff"/>
      <path id="Path_100053" data-name="Path 100053" d="M339.063,108.765a2.478,2.478,0,1,0,3.794-3.069.826.826,0,0,1,.62-1.446c.083.008.159.011.234.011a2.478,2.478,0,1,0-1.263-4.611.826.826,0,0,1-1.24-.825,2.516,2.516,0,0,0,.024-.348,2.478,2.478,0,0,0-4.957,0,2.506,2.506,0,0,0,.025.347.826.826,0,0,1-1.24.825,2.48,2.48,0,0,0-2.143-.185,4.12,4.12,0,0,1-1.216,3.64,2.466,2.466,0,0,0,1.727,1.128.826.826,0,0,1,.414,1.446,2.478,2.478,0,1,0,3.775,3.086.826.826,0,0,1,1.445,0Zm-2.788-5.33a2.478,2.478,0,1,1,2.478,2.478A2.478,2.478,0,0,1,336.275,103.435Z" transform="translate(-261.579 -57.391)" fill="#fff"/>
      <path id="Path_100054" data-name="Path 100054" d="M289.747,400h-1.26a12.688,12.688,0,0,1,2.356,6.124,1.446,1.446,0,0,0,.9-1.345,6.678,6.678,0,0,0-1.969-4.754Z" transform="translate(-222.828 -329.998)" fill="#fff"/>
      <path id="Path_100055" data-name="Path 100055" d="M401.772,235.666a4.125,4.125,0,0,1-5.87.092l-.011.01.467.891a5.944,5.944,0,0,0,4.5,3.13l2.734.352-.188-1.221a5.908,5.908,0,0,0-1.631-3.255Z" transform="translate(-319.14 -182.634)" fill="#fff"/>
      <circle id="Ellipse_717" data-name="Ellipse 717" cx="1" cy="1" r="1" transform="translate(76.598 45.264)" fill="#fff"/>
      <path id="Path_100056" data-name="Path 100056" d="M210.74,369.652a.826.826,0,1,0,0-1.652h-9.914a.826.826,0,1,0,0,1.652Z" transform="translate(-143.479 -301.302)" fill="#fff"/>
      <path id="Path_100057" data-name="Path 100057" d="M52.391,91.566a2.478,2.478,0,0,0-.853-1.87.826.826,0,0,1,.62-1.446c.083.008.159.011.234.011a2.479,2.479,0,0,0,1.378-.419,4.12,4.12,0,0,1,0-4.119,2.476,2.476,0,0,0-2.64-.072.826.826,0,0,1-1.24-.825,2.519,2.519,0,0,0,.024-.348,2.478,2.478,0,1,0-4.957,0,2.51,2.51,0,0,0,.025.347.826.826,0,0,1-1.24.825,2.478,2.478,0,1,0-1.632,4.583.826.826,0,0,1,.414,1.446A2.478,2.478,0,1,0,46.3,92.765a.826.826,0,0,1,1.445,0,2.478,2.478,0,0,0,4.648-1.2Zm-4.957-1.652a2.478,2.478,0,1,1,2.478-2.478A2.478,2.478,0,0,1,47.434,89.914Z" transform="translate(0 -43.043)" fill="#fff"/>
      <path id="Path_100058" data-name="Path 100058" d="M195.5,400h-1.5l-.025.025A6.679,6.679,0,0,0,192,404.779a1.446,1.446,0,0,0,1.139,1.421l.088.019.1-.671A12.56,12.56,0,0,1,195,400.836Z" transform="translate(-136.305 -329.998)" fill="#fff"/>
    </g>
    <g id="noun-rose-7439448" transform="translate(1076.833 979.452)">
      <path id="Path_100064" data-name="Path 100064" d="M60.842,38.451a2.4,2.4,0,0,0-.275,1.743,2.966,2.966,0,0,0,2.293-.183q1.605-.871,2.293-3.761a10.619,10.619,0,0,1-2.2.826,3.843,3.843,0,0,0-2.11,1.376Z" transform="translate(-39.875 -22.621)" fill="#fff"/>
      <path id="Path_100066" data-name="Path 100066" d="M62.51,10.785a16.141,16.141,0,0,1-1.254-2.66,4.537,4.537,0,0,1-1.07.183,3.241,3.241,0,0,0-1.9.55.539.539,0,0,0-.183.428,1.149,1.149,0,0,0,.275.489,2.093,2.093,0,0,1,1.559-.245,2.259,2.259,0,0,1,1.926,2.2,1.5,1.5,0,0,1-.612,1.1,1.973,1.973,0,0,1-1.193.367,2.676,2.676,0,0,1-.489-.061,2.483,2.483,0,0,1-.764-.306c-.52-.275-.764-.581-.764-.978a1.5,1.5,0,0,1,.673-1.07,3.014,3.014,0,0,1-1.1-1.131,1.65,1.65,0,0,0-1.223.673c-.153.4.153.917.459,1.284A31.32,31.32,0,0,0,58.9,14a3.175,3.175,0,0,1,.581-.183c.734-.153,2.721-.795,3.18-1.8a1.294,1.294,0,0,0-.153-1.223Z" transform="translate(-36.529)" fill="#fff"/>
      <path id="Path_100067" data-name="Path 100067" d="M68.974,20.117c.183.031.336,0,.4-.092a.229.229,0,0,0,.031-.153.578.578,0,0,0-.245-.306.516.516,0,0,0-.55-.031c-.336.183-.795.55-.795.826,0,.183.275.367.428.428a2.788,2.788,0,0,0,.612.245,1.5,1.5,0,0,0,1.223-.214.928.928,0,0,0,.367-.642A1.669,1.669,0,0,0,69,18.619a1.948,1.948,0,0,0-.948.061,2.791,2.791,0,0,0,.4.245,1.2,1.2,0,0,1,1.009.122,1.087,1.087,0,0,1,.52.7.8.8,0,0,1-.122.642.947.947,0,0,1-1.009.336.317.317,0,0,1-.245-.367.31.31,0,0,1,.367-.245Z" transform="translate(-45.745 -8.415)" fill="#fff"/>
      <path id="Path_100069" data-name="Path 100069" d="M50.373,31.248a3.029,3.029,0,0,1,.4-1.8,3.453,3.453,0,0,1,1.315-1.192c-.336-.336-.917-.978-1.957-2.263a4.162,4.162,0,0,1-.367-.52c-1.009,1.559-1.345,2.9-.978,4.006a3.415,3.415,0,0,0,1.59,1.773Z" transform="translate(-30.323 -13.95)" fill="#fff"/>
      <path id="Path_100070" data-name="Path 100070" d="M16.5,63.673c.031-.031.061-.031.092-.061a8.334,8.334,0,0,0,4.036-4.648l-.306-.092a.772.772,0,0,1-.275-.122,7.627,7.627,0,0,1-3.516,4.189,11.046,11.046,0,0,1-.4-1.682.984.984,0,0,0-.214.122.26.26,0,0,1-.245,0,.669.669,0,0,1-.153-.092,8.3,8.3,0,0,0,.459,1.957,13.892,13.892,0,0,1-4.8,1.315.28.28,0,0,0-.245.306.325.325,0,0,0,.306.275h.031a15.405,15.405,0,0,0,3.272-.673,6.637,6.637,0,0,0,2.63.459,11.1,11.1,0,0,0,1.376-.092c-.031-.061-.092-.092-.122-.153a.329.329,0,0,1-.061-.245s.031-.092.061-.214a8.473,8.473,0,0,1-2.966-.122,7.737,7.737,0,0,0,1.009-.489l.031.061Z" transform="translate(0 -40.718)" fill="#fff"/>
    </g>
    <g id="noun-rose-7439448-2" data-name="noun-rose-7439448" transform="translate(1060 975.101)">
      <path id="Path_100064-2" data-name="Path 100064" d="M61.069,39.98a4.074,4.074,0,0,0-.466,2.953,5.026,5.026,0,0,0,3.886-.311q2.72-1.477,3.886-6.373a17.993,17.993,0,0,1-3.73,1.4,6.511,6.511,0,0,0-3.575,2.331Z" transform="translate(-33.138 -18.799)" fill="#fff"/>
      <path id="Path_100065" data-name="Path 100065" d="M32.5,54.389a3.954,3.954,0,0,0,1.762-2.176c.414-1.4.1-3.057-1.036-5.025-.881,1.036-2.746,3.419-2.383,5.285A2.626,2.626,0,0,0,32.5,54.389Z" transform="translate(-13.276 -26.11)" fill="#fff"/>
      <path id="Path_100066-2" data-name="Path 100066" d="M66.785,12.632a27.35,27.35,0,0,1-2.124-4.507,7.688,7.688,0,0,1-1.813.311c-1.192.1-2.539.259-3.212.933a.913.913,0,0,0-.311.725,1.946,1.946,0,0,0,.466.829,3.547,3.547,0,0,1,2.642-.414c1.969.414,3.419,2.072,3.264,3.73A2.548,2.548,0,0,1,64.661,16.1a3.343,3.343,0,0,1-2.021.622,4.534,4.534,0,0,1-.829-.1,4.207,4.207,0,0,1-1.3-.518c-.881-.466-1.3-.984-1.3-1.658a2.539,2.539,0,0,1,1.14-1.813A5.107,5.107,0,0,1,58.5,10.715a2.8,2.8,0,0,0-2.072,1.14c-.259.674.259,1.554.777,2.176a53.063,53.063,0,0,0,3.471,4.041,5.381,5.381,0,0,1,.984-.311c1.243-.259,4.611-1.347,5.388-3.057a2.193,2.193,0,0,0-.259-2.072Z" transform="translate(-30.357)" fill="#fff"/>
      <path id="Path_100067-2" data-name="Path 100067" d="M69.781,21.18c.311.052.57,0,.674-.155a.388.388,0,0,0,.052-.259.98.98,0,0,0-.414-.518.875.875,0,0,0-.933-.052c-.57.311-1.347.933-1.347,1.4,0,.311.466.622.725.725a4.723,4.723,0,0,0,1.036.414,2.541,2.541,0,0,0,2.072-.363,1.573,1.573,0,0,0,.622-1.088,2.828,2.828,0,0,0-2.435-2.642,3.3,3.3,0,0,0-1.606.1,4.73,4.73,0,0,0,.674.414,2.037,2.037,0,0,1,1.71.207,1.841,1.841,0,0,1,.881,1.192,1.357,1.357,0,0,1-.207,1.088,1.605,1.605,0,0,1-1.71.57.537.537,0,0,1-.414-.622.524.524,0,0,1,.622-.414Z" transform="translate(-38.016 -6.993)" fill="#fff"/>
      <path id="Path_100068" data-name="Path 100068" d="M53.9,78.821a4.531,4.531,0,0,0-1.865,2.539,3.018,3.018,0,0,0,2.539,1.3c2.176-.155,4.3-2.9,5.129-4.093-2.435-.725-4.4-.622-5.8.259Z" transform="translate(-27.468 -46.76)" fill="#fff"/>
      <path id="Path_100069-2" data-name="Path 100069" d="M51.577,35.261A5.132,5.132,0,0,1,52.25,32.2a5.851,5.851,0,0,1,2.228-2.021c-.57-.57-1.554-1.658-3.316-3.834a7.05,7.05,0,0,1-.622-.881c-1.71,2.642-2.28,4.922-1.658,6.787a5.787,5.787,0,0,0,2.694,3Z" transform="translate(-25.2 -11.593)" fill="#fff"/>
      <path id="Path_100070-2" data-name="Path 100070" d="M20.367,67.091c.052-.052.1-.052.155-.1a14.121,14.121,0,0,0,6.839-7.875l-.518-.155a1.307,1.307,0,0,1-.466-.207,12.922,12.922,0,0,1-5.958,7.1A18.716,18.716,0,0,1,19.745,63a1.667,1.667,0,0,0-.363.207.44.44,0,0,1-.414,0,1.133,1.133,0,0,1-.259-.155,14.061,14.061,0,0,0,.777,3.316,23.539,23.539,0,0,1-8.134,2.228.474.474,0,0,0-.414.518.551.551,0,0,0,.518.466h.052a26.1,26.1,0,0,0,5.544-1.14,11.245,11.245,0,0,0,4.456.777,18.813,18.813,0,0,0,2.331-.155c-.052-.1-.155-.155-.207-.259a.558.558,0,0,1-.1-.414s.052-.155.1-.363a14.357,14.357,0,0,1-5.025-.207,13.111,13.111,0,0,0,1.71-.829l.052.1Z" transform="translate(0 -33.839)" fill="#fff"/>
    </g>
    <g id="noun-rose-7439448-3" data-name="noun-rose-7439448" transform="translate(1080 986.553)">
      <path id="Path_100064-3" data-name="Path 100064" d="M60.86,38.576a2.541,2.541,0,0,0-.291,1.842,3.135,3.135,0,0,0,2.423-.194q1.7-.921,2.423-3.974a11.222,11.222,0,0,1-2.326.872,4.061,4.061,0,0,0-2.229,1.454Z" transform="translate(-39.324 -22.309)" fill="#fff"/>
      <path id="Path_100065-2" data-name="Path 100065" d="M31.862,51.679a2.466,2.466,0,0,0,1.1-1.357,4,4,0,0,0-.646-3.134c-.549.646-1.713,2.133-1.486,3.3a1.638,1.638,0,0,0,1.034,1.2Z" transform="translate(-15.754 -30.984)" fill="#fff"/>
      <path id="Path_100066-3" data-name="Path 100066" d="M62.86,10.936a17.057,17.057,0,0,1-1.325-2.811,4.8,4.8,0,0,1-1.131.194,3.425,3.425,0,0,0-2,.582.57.57,0,0,0-.194.452,1.214,1.214,0,0,0,.291.517,2.212,2.212,0,0,1,1.648-.258,2.388,2.388,0,0,1,2.036,2.326,1.589,1.589,0,0,1-.646,1.163,2.085,2.085,0,0,1-1.26.388,2.828,2.828,0,0,1-.517-.065,2.624,2.624,0,0,1-.808-.323c-.549-.291-.808-.614-.808-1.034a1.584,1.584,0,0,1,.711-1.131,3.185,3.185,0,0,1-1.163-1.2,1.744,1.744,0,0,0-1.292.711c-.162.42.162.969.485,1.357a33.1,33.1,0,0,0,2.165,2.52,3.356,3.356,0,0,1,.614-.194c.775-.162,2.876-.84,3.36-1.906a1.368,1.368,0,0,0-.162-1.292Z" transform="translate(-36.025)" fill="#fff"/>
      <path id="Path_100067-3" data-name="Path 100067" d="M69.04,20.2c.194.032.355,0,.42-.1a.242.242,0,0,0,.032-.162.611.611,0,0,0-.258-.323.546.546,0,0,0-.582-.032c-.355.194-.84.582-.84.872,0,.194.291.388.452.452a2.946,2.946,0,0,0,.646.258,1.585,1.585,0,0,0,1.292-.226.981.981,0,0,0,.388-.679,1.763,1.763,0,0,0-1.519-1.648,2.059,2.059,0,0,0-1,.065,2.95,2.95,0,0,0,.42.258,1.27,1.27,0,0,1,1.066.129,1.148,1.148,0,0,1,.549.743.846.846,0,0,1-.129.679,1,1,0,0,1-1.066.355.335.335,0,0,1-.258-.388.327.327,0,0,1,.388-.258Z" transform="translate(-45.113 -8.299)" fill="#fff"/>
      <path id="Path_100068-2" data-name="Path 100068" d="M53.194,78.543a2.826,2.826,0,0,0-1.163,1.583,1.883,1.883,0,0,0,1.583.808c1.357-.1,2.682-1.809,3.2-2.553a4.382,4.382,0,0,0-3.619.162Z" transform="translate(-32.595 -55.49)" fill="#fff"/>
      <path id="Path_100069-3" data-name="Path 100069" d="M50.471,31.576a3.2,3.2,0,0,1,.42-1.906,3.649,3.649,0,0,1,1.389-1.26c-.355-.355-.969-1.034-2.068-2.391a4.4,4.4,0,0,1-.388-.549c-1.066,1.648-1.422,3.07-1.034,4.233a3.609,3.609,0,0,0,1.68,1.874Z" transform="translate(-29.904 -13.757)" fill="#fff"/>
      <path id="Path_100070-3" data-name="Path 100070" d="M16.818,63.952c.032-.032.065-.032.1-.065a8.807,8.807,0,0,0,4.265-4.911l-.323-.1a.815.815,0,0,1-.291-.129,8.059,8.059,0,0,1-3.716,4.427,11.673,11.673,0,0,1-.42-1.777,1.04,1.04,0,0,0-.226.129.275.275,0,0,1-.258,0,.706.706,0,0,1-.162-.1,8.77,8.77,0,0,0,.485,2.068A14.681,14.681,0,0,1,11.2,64.889a.3.3,0,0,0-.259.323.344.344,0,0,0,.323.291h.032a16.28,16.28,0,0,0,3.457-.711,7.013,7.013,0,0,0,2.779.485,11.733,11.733,0,0,0,1.454-.1c-.032-.065-.1-.1-.129-.162a.348.348,0,0,1-.065-.258s.032-.1.065-.226A8.954,8.954,0,0,1,15.72,64.4a8.176,8.176,0,0,0,1.066-.517l.032.065Z" transform="translate(0 -40.156)" fill="#fff"/>
    </g>
  </g>
</svg>
