<svg xmlns="http://www.w3.org/2000/svg" width="331" height="257" viewBox="0 0 331 257">
  <g id="Baaner-image" transform="translate(-1534 -120.5)">
    <line id="Line_345" data-name="Line 345" y2="257" transform="translate(1616.5 120.5)" fill="none" stroke="#fff" stroke-width="1"/>
    <line id="Line_347" data-name="Line 347" y2="206" transform="translate(1784.5 120.5)" fill="none" stroke="#fff" stroke-width="1"/>
    <line id="Line_348" data-name="Line 348" x1="328" transform="translate(1536.5 173.5)" fill="none" stroke="#fff" stroke-width="1"/>
    <line id="Line_349" data-name="Line 349" x1="248" transform="translate(1536.5 250.5)" fill="none" stroke="#fff" stroke-width="1"/>
    <line id="Line_350" data-name="Line 350" x1="328" transform="translate(1536.5 326.5)" fill="none" stroke="#fff" stroke-width="1"/>
    <rect id="Rectangle_6363" data-name="Rectangle 6363" width="11" height="11" transform="translate(1854 168)" fill="#fff"/>
    <path id="Path_84717" data-name="Path 84717" d="M58.466,11.1a.4.4,0,0,0-.4-.4H21.9s-.01,0-.017,0l-.015,0a.259.259,0,0,0-.047.015.607.607,0,0,0-.071.015c-.007,0-.012.007-.02.01s-.034.022-.052.032-.037.022-.054.037a.066.066,0,0,0-.017.02.312.312,0,0,0-.032.047.4.4,0,0,0-.034.054l-.012.027a.214.214,0,0,0-.012.054.259.259,0,0,0-.012.047L16.96,56.771a.385.385,0,0,0,.1.3.4.4,0,0,0,.294.13h4.151v2.463a.4.4,0,0,0,.4.4h36.17a.425.425,0,0,0,.147-.029c.015-.007.027-.017.042-.025a.344.344,0,0,0,.079-.054.319.319,0,0,0,.037-.044.3.3,0,0,0,.049-.074.256.256,0,0,0,.02-.061c0-.02.015-.037.02-.056s0-.017,0-.027,0-.017,0-.027Zm-.792,48.121L25.756,54.769,22.331,11.492H57.674Zm-39.882-2.8L21.5,19.09V56.415Zm4.5-35.287,2.694,34.02a.4.4,0,0,0,.341.361l27.021,3.766H22.3Zm6-2.4a.4.4,0,0,1,.4-.4H51.1a.4.4,0,0,1,0,.795h-22.4A.4.4,0,0,1,28.295,18.727Zm23.2,5.118a.4.4,0,0,1-.4.4h-22a.4.4,0,1,1,0-.795h22a.4.4,0,0,1,.4.4Zm0,5.425a.394.394,0,0,1-.4.39h0L29.5,29.36a.4.4,0,0,1,.007-.792h0l21.593.3A.4.4,0,0,1,51.493,29.269Zm0,5.515a.4.4,0,0,1-.4.383h-.012L29.9,34.478a.4.4,0,1,1,.027-.792l21.188.689a.4.4,0,0,1,.383.41Zm0,5.4a.4.4,0,0,1-.4.378h-.02L30.295,39.6a.4.4,0,1,1,.037-.792l20.781.967a.4.4,0,0,1,.378.415Zm0,5.43a.4.4,0,0,1-.4.373h-.025L30.695,44.717a.4.4,0,0,1,.049-.79L51.12,45.2a.4.4,0,0,1,.37.42Zm0,5.763a.4.4,0,0,1-.4.358.224.224,0,0,1-.039,0l-19.972-1.9a.4.4,0,0,1,.074-.79l19.972,1.9a.4.4,0,0,1,.358.432Z" transform="translate(1703 254.301)" fill="#fff"/>
    <circle id="Ellipse_544" data-name="Ellipse 544" cx="5.5" cy="5.5" r="5.5" transform="translate(1534 245)" fill="#fff"/>
    <g id="Group_41664" data-name="Group 41664" transform="translate(-1)">
      <line id="Line_346" data-name="Line 346" y2="167" transform="translate(1701.5 210.5)" fill="none" stroke="#fff" stroke-width="1"/>
      <line id="Line_351" data-name="Line 351" x2="13" transform="translate(1695 210.5)" fill="none" stroke="#fff" stroke-width="1"/>
    </g>
  </g>
</svg>
