<svg id="Download_on_the_App_Store_Badge" xmlns="http://www.w3.org/2000/svg" width="191.864" height="56.848" viewBox="0 0 191.864 56.848">
  <path id="Path_99919" data-name="Path 99919" d="M185.037,56.848H6.721A6.736,6.736,0,0,1,0,50.122V6.717A6.727,6.727,0,0,1,6.721,0H185.037a6.819,6.819,0,0,1,6.826,6.717V50.122a6.828,6.828,0,0,1-6.826,6.727Z" fill="#a6a6a6"/>
  <path id="Path_99920" data-name="Path 99920" d="M190.113,49.748a5.443,5.443,0,0,1-5.449,5.443H6.346A5.45,5.45,0,0,1,.89,49.748V6.34A5.457,5.457,0,0,1,6.346.89H184.663a5.449,5.449,0,0,1,5.449,5.45V49.748Z" transform="translate(0.375 0.375)"/>
  <g id="Group_40742" data-name="Group 40742" transform="translate(18.18 8.836)">
    <g id="Group_40741" data-name="Group 40741">
      <path id="Path_99921" data-name="Path 99921" d="M37.43,22.906a8.238,8.238,0,0,1,3.924-6.913A8.438,8.438,0,0,0,34.709,12.4c-2.8-.294-5.507,1.673-6.931,1.673-1.452,0-3.645-1.644-6.009-1.6a8.848,8.848,0,0,0-7.447,4.542C11.1,22.6,13.5,30.789,16.588,35.3c1.543,2.207,3.347,4.672,5.708,4.585,2.309-.1,3.172-1.472,5.959-1.472,2.761,0,3.572,1.472,5.979,1.417,2.479-.04,4.039-2.217,5.529-4.444a18.238,18.238,0,0,0,2.528-5.149A7.964,7.964,0,0,1,37.43,22.906Z" transform="translate(-12.792 -3.625)" fill="#fff"/>
      <path id="Path_99922" data-name="Path 99922" d="M28.538,12.028a8.109,8.109,0,0,0,1.856-5.811A8.26,8.26,0,0,0,25.053,8.98a7.717,7.717,0,0,0-1.9,5.6A6.823,6.823,0,0,0,28.538,12.028Z" transform="translate(-8.447 -6.217)" fill="#fff"/>
    </g>
  </g>
  <g id="Group_40743" data-name="Group 40743" transform="translate(60.274 25.583)">
    <path id="Path_99923" data-name="Path 99923" d="M58.377,37.109H55.15l-1.768-5.556H47.236l-1.684,5.556H42.41L48.5,18.2h3.761Zm-5.529-7.886-1.6-4.939Q51,23.528,50.3,20.721h-.057q-.279,1.207-.9,3.563l-1.57,4.939Z" transform="translate(-42.41 -17.919)" fill="#fff"/>
    <path id="Path_99924" data-name="Path 99924" d="M68.554,28.642a7.75,7.75,0,0,1-1.88,5.5,5.5,5.5,0,0,1-4.181,1.8A4.181,4.181,0,0,1,58.62,34h-.057v7.184h-3.03V26.481q0-2.187-.112-4.49h2.665l.169,2.162h.057a5.391,5.391,0,0,1,8.628-.534A7.514,7.514,0,0,1,68.554,28.642Zm-3.087.111a5.615,5.615,0,0,0-.9-3.283,3.1,3.1,0,0,0-2.638-1.347,3.151,3.151,0,0,0-2.034.743,3.448,3.448,0,0,0-1.192,1.951,3.967,3.967,0,0,0-.141.924v2.274a3.644,3.644,0,0,0,.912,2.513,3.024,3.024,0,0,0,2.371,1.025,3.1,3.1,0,0,0,2.665-1.319A5.8,5.8,0,0,0,65.468,28.753Z" transform="translate(-36.93 -16.438)" fill="#fff"/>
    <path id="Path_99925" data-name="Path 99925" d="M79.591,28.642a7.744,7.744,0,0,1-1.882,5.5,5.493,5.493,0,0,1-4.18,1.8A4.177,4.177,0,0,1,69.658,34H69.6v7.184h-3.03V26.481q0-2.187-.112-4.49h2.665l.169,2.162h.057a5.393,5.393,0,0,1,8.63-.534A7.535,7.535,0,0,1,79.591,28.642Zm-3.087.111a5.615,5.615,0,0,0-.9-3.283,3.1,3.1,0,0,0-2.636-1.347,3.155,3.155,0,0,0-2.035.743,3.446,3.446,0,0,0-1.191,1.951,4.045,4.045,0,0,0-.141.924v2.274a3.655,3.655,0,0,0,.91,2.513,3.031,3.031,0,0,0,2.373,1.025,3.1,3.1,0,0,0,2.665-1.319A5.8,5.8,0,0,0,76.5,28.753Z" transform="translate(-32.28 -16.438)" fill="#fff"/>
    <path id="Path_99926" data-name="Path 99926" d="M91.517,31.888a5.041,5.041,0,0,1-1.68,3.928,7.445,7.445,0,0,1-5.152,1.656,9.018,9.018,0,0,1-4.9-1.178l.7-2.525a8.306,8.306,0,0,0,4.38,1.208,4.141,4.141,0,0,0,2.668-.773,2.525,2.525,0,0,0,.952-2.066A2.634,2.634,0,0,0,87.7,30.2a7.306,7.306,0,0,0-2.609-1.462q-4.967-1.853-4.966-5.423a4.8,4.8,0,0,1,1.741-3.822A6.863,6.863,0,0,1,86.5,18a9.18,9.18,0,0,1,4.292.9l-.758,2.47a7.447,7.447,0,0,0-3.62-.87,3.664,3.664,0,0,0-2.5.786A2.246,2.246,0,0,0,83.157,23a2.312,2.312,0,0,0,.868,1.852,9.814,9.814,0,0,0,2.751,1.46,9.335,9.335,0,0,1,3.591,2.3A4.8,4.8,0,0,1,91.517,31.888Z" transform="translate(-26.668 -18.001)" fill="#fff"/>
    <path id="Path_99927" data-name="Path 99927" d="M97.55,25.189H94.21V31.81q0,2.526,1.768,2.525a5.389,5.389,0,0,0,1.346-.141l.084,2.3a6.865,6.865,0,0,1-2.356.335,3.636,3.636,0,0,1-2.807-1.094,5.376,5.376,0,0,1-1.01-3.677V25.186h-1.99V22.912h1.99v-2.5l2.976-.9v3.4h3.34v2.277Z" transform="translate(-22.683 -17.362)" fill="#fff"/>
    <path id="Path_99928" data-name="Path 99928" d="M109.65,28.7a7.481,7.481,0,0,1-1.8,5.163,6.414,6.414,0,0,1-5,2.076,6.1,6.1,0,0,1-4.782-1.991,7.252,7.252,0,0,1-1.782-5.023,7.408,7.408,0,0,1,1.838-5.19,6.36,6.36,0,0,1,4.952-2.021,6.228,6.228,0,0,1,4.826,1.993A7.169,7.169,0,0,1,109.65,28.7Zm-3.144.1a6.134,6.134,0,0,0-.813-3.236,2.993,2.993,0,0,0-2.72-1.632,3.038,3.038,0,0,0-2.778,1.632,6.252,6.252,0,0,0-.813,3.293,6.126,6.126,0,0,0,.813,3.235,3.1,3.1,0,0,0,5.472-.028A6.156,6.156,0,0,0,106.506,28.8Z" transform="translate(-19.714 -16.438)" fill="#fff"/>
    <path id="Path_99929" data-name="Path 99929" d="M114.784,24.656a5.261,5.261,0,0,0-.955-.084,2.863,2.863,0,0,0-2.47,1.208,4.54,4.54,0,0,0-.758,2.693v7.156h-3.029l.028-9.343q0-2.358-.114-4.293h2.639l.111,2.609h.084a4.664,4.664,0,0,1,1.515-2.16,3.664,3.664,0,0,1,2.19-.731,4.865,4.865,0,0,1,.758.055v2.889Z" transform="translate(-14.999 -16.438)" fill="#fff"/>
    <path id="Path_99930" data-name="Path 99930" d="M125.748,28.172a7.106,7.106,0,0,1-.111,1.374h-9.09a3.957,3.957,0,0,0,1.319,3.088,4.5,4.5,0,0,0,2.973.954,10.054,10.054,0,0,0,3.678-.645l.475,2.1a11.371,11.371,0,0,1-4.572.843,6.623,6.623,0,0,1-4.983-1.866,6.892,6.892,0,0,1-1.809-5.008,7.813,7.813,0,0,1,1.686-5.135,5.807,5.807,0,0,1,4.768-2.187,5.082,5.082,0,0,1,4.464,2.187A7.376,7.376,0,0,1,125.748,28.172Zm-2.889-.786a4.116,4.116,0,0,0-.588-2.329,2.647,2.647,0,0,0-2.415-1.263,2.874,2.874,0,0,0-2.412,1.235,4.521,4.521,0,0,0-.9,2.356h6.312Z" transform="translate(-12.412 -16.446)" fill="#fff"/>
  </g>
  <g id="Group_40745" data-name="Group 40745" transform="translate(62.073 9.317)">
    <g id="Group_40744" data-name="Group 40744">
      <path id="Path_99931" data-name="Path 99931" d="M51.314,11.341a4.666,4.666,0,0,1-1.5,3.778,5.981,5.981,0,0,1-3.955,1.171,18.338,18.338,0,0,1-2.179-.111V7.039a16.078,16.078,0,0,1,2.565-.193,5.53,5.53,0,0,1,3.681,1.062A4.29,4.29,0,0,1,51.314,11.341Zm-1.57.041a3.4,3.4,0,0,0-.861-2.5,3.4,3.4,0,0,0-2.517-.868,6.3,6.3,0,0,0-1.2.1v6.948a7.864,7.864,0,0,0,1.006.041,3.523,3.523,0,0,0,2.639-.951A3.808,3.808,0,0,0,49.743,11.383Z" transform="translate(-43.676 -6.434)" fill="#fff"/>
      <path id="Path_99932" data-name="Path 99932" d="M56.854,12.054a3.675,3.675,0,0,1-.883,2.537,3.15,3.15,0,0,1-2.454,1.02,2.994,2.994,0,0,1-2.351-.979,3.566,3.566,0,0,1-.874-2.467,3.639,3.639,0,0,1,.9-2.55,3.13,3.13,0,0,1,2.433-.992A3.064,3.064,0,0,1,56,9.6,3.537,3.537,0,0,1,56.854,12.054Zm-1.545.048a3.03,3.03,0,0,0-.4-1.59,1.471,1.471,0,0,0-1.336-.8,1.494,1.494,0,0,0-1.366.8,3.071,3.071,0,0,0-.4,1.617,3.03,3.03,0,0,0,.4,1.59,1.5,1.5,0,0,0,1.352.8,1.486,1.486,0,0,0,1.336-.816A3.011,3.011,0,0,0,55.309,12.1Z" transform="translate(-40.889 -5.685)" fill="#fff"/>
      <path id="Path_99933" data-name="Path 99933" d="M65.642,8.719l-2.1,6.7H62.181l-.868-2.909a21.778,21.778,0,0,1-.539-2.165h-.027a15.847,15.847,0,0,1-.539,2.165l-.922,2.909h-1.38l-1.971-6.7h1.531l.758,3.185q.275,1.13.455,2.15H58.7q.166-.84.553-2.136l.951-3.2h1.214l.911,3.13q.33,1.145.537,2.206h.041a21.074,21.074,0,0,1,.455-2.206l.813-3.13h1.462Z" transform="translate(-38.512 -5.645)" fill="#fff"/>
      <path id="Path_99934" data-name="Path 99934" d="M69.938,15.46H68.449V11.623q0-1.774-1.35-1.774a1.344,1.344,0,0,0-1.076.487,1.73,1.73,0,0,0-.414,1.148v3.974H64.12V10.675q0-.883-.054-1.917h1.309l.07,1.047h.041A2.152,2.152,0,0,1,66.258,9a2.517,2.517,0,0,1,1.35-.377,2.138,2.138,0,0,1,1.559.607,2.949,2.949,0,0,1,.772,2.22Z" transform="translate(-35.088 -5.687)" fill="#fff"/>
      <path id="Path_99935" data-name="Path 99935" d="M71.529,16.33H70.041V6.556h1.488Z" transform="translate(-32.571 -6.556)" fill="#fff"/>
      <path id="Path_99936" data-name="Path 99936" d="M79.2,12.054a3.675,3.675,0,0,1-.883,2.537,3.152,3.152,0,0,1-2.454,1.02,2.99,2.99,0,0,1-2.351-.979,3.566,3.566,0,0,1-.874-2.467,3.639,3.639,0,0,1,.9-2.55,3.129,3.129,0,0,1,2.432-.992,3.067,3.067,0,0,1,2.373.978A3.537,3.537,0,0,1,79.2,12.054Zm-1.546.048a3.03,3.03,0,0,0-.4-1.59,1.469,1.469,0,0,0-1.335-.8,1.491,1.491,0,0,0-1.366.8,3.071,3.071,0,0,0-.4,1.617,3.03,3.03,0,0,0,.4,1.59,1.5,1.5,0,0,0,1.352.8,1.484,1.484,0,0,0,1.335-.816A3,3,0,0,0,77.656,12.1Z" transform="translate(-31.476 -5.685)" fill="#fff"/>
      <path id="Path_99937" data-name="Path 99937" d="M83.96,15.459H82.623l-.111-.772h-.041a2.294,2.294,0,0,1-1.957.924A2.02,2.02,0,0,1,78.984,15a1.9,1.9,0,0,1-.524-1.364,2.081,2.081,0,0,1,1.028-1.875,5.333,5.333,0,0,1,2.889-.634v-.125q0-1.324-1.391-1.323a3.116,3.116,0,0,0-1.747.5l-.3-.978a4.3,4.3,0,0,1,2.3-.578q2.626,0,2.629,2.771v2.467A10.463,10.463,0,0,0,83.96,15.459Zm-1.546-2.3V12.123q-2.464-.043-2.464,1.35a1.009,1.009,0,0,0,.286.786,1.042,1.042,0,0,0,.728.262,1.5,1.5,0,0,0,.911-.31,1.272,1.272,0,0,0,.54-1.055Z" transform="translate(-29.025 -5.685)" fill="#fff"/>
      <path id="Path_99938" data-name="Path 99938" d="M90.18,16.33H88.859l-.07-1.076h-.041A2.227,2.227,0,0,1,86.6,16.482a2.522,2.522,0,0,1-2.012-.951,3.7,3.7,0,0,1-.8-2.467,3.884,3.884,0,0,1,.868-2.634,2.67,2.67,0,0,1,2.068-.938,2.008,2.008,0,0,1,1.887.91h.028V6.556h1.491v7.969Q90.128,15.5,90.18,16.33ZM88.637,13.5V12.387a2.192,2.192,0,0,0-.041-.469,1.7,1.7,0,0,0-.539-.9,1.464,1.464,0,0,0-1-.365,1.528,1.528,0,0,0-1.31.662,2.838,2.838,0,0,0-.478,1.7,2.646,2.646,0,0,0,.458,1.613,1.533,1.533,0,0,0,1.3.661,1.435,1.435,0,0,0,1.177-.551A1.836,1.836,0,0,0,88.637,13.5Z" transform="translate(-26.782 -6.556)" fill="#fff"/>
      <path id="Path_99939" data-name="Path 99939" d="M99.193,12.054a3.675,3.675,0,0,1-.883,2.537,3.148,3.148,0,0,1-2.454,1.02,3,3,0,0,1-2.351-.979,3.566,3.566,0,0,1-.874-2.467,3.639,3.639,0,0,1,.9-2.55,3.131,3.131,0,0,1,2.435-.992,3.061,3.061,0,0,1,2.371.978A3.537,3.537,0,0,1,99.193,12.054Zm-1.543.048a3.03,3.03,0,0,0-.4-1.59,1.473,1.473,0,0,0-1.337-.8,1.5,1.5,0,0,0-1.366.8,3.071,3.071,0,0,0-.4,1.617,3.03,3.03,0,0,0,.4,1.59,1.522,1.522,0,0,0,2.689-.014A3.024,3.024,0,0,0,97.649,12.1Z" transform="translate(-23.056 -5.685)" fill="#fff"/>
      <path id="Path_99940" data-name="Path 99940" d="M104.623,15.46h-1.488V11.623q0-1.774-1.352-1.774a1.339,1.339,0,0,0-1.074.487,1.723,1.723,0,0,0-.414,1.148v3.974H98.8V10.675q0-.883-.053-1.917h1.308l.07,1.047h.041A2.174,2.174,0,0,1,100.942,9a2.522,2.522,0,0,1,1.352-.377,2.137,2.137,0,0,1,1.558.607,2.943,2.943,0,0,1,.772,2.22Z" transform="translate(-20.477 -5.687)" fill="#fff"/>
      <path id="Path_99941" data-name="Path 99941" d="M111.145,10.329h-1.64v3.255c0,.827.291,1.241.868,1.241a2.623,2.623,0,0,0,.664-.07l.038,1.13a3.346,3.346,0,0,1-1.157.166,1.781,1.781,0,0,1-1.377-.537,2.628,2.628,0,0,1-.5-1.806V10.329h-.979V9.214h.979V7.986l1.46-.441V9.212h1.64v1.117Z" transform="translate(-16.976 -6.139)" fill="#fff"/>
      <path id="Path_99942" data-name="Path 99942" d="M117.208,16.33h-1.491V12.521q0-1.8-1.349-1.8a1.422,1.422,0,0,0-1.421,1.045,1.872,1.872,0,0,0-.07.536v4.029H111.39V6.556h1.488v4.038h.028a2.251,2.251,0,0,1,2.012-1.1,2.076,2.076,0,0,1,1.532.607,3.051,3.051,0,0,1,.758,2.247Z" transform="translate(-15.154 -6.556)" fill="#fff"/>
      <path id="Path_99943" data-name="Path 99943" d="M122.972,11.8a3.6,3.6,0,0,1-.055.675H118.45a1.953,1.953,0,0,0,.647,1.516,2.219,2.219,0,0,0,1.462.469,4.935,4.935,0,0,0,1.806-.317l.233,1.035a5.609,5.609,0,0,1-2.248.414,3.247,3.247,0,0,1-2.446-.917,3.377,3.377,0,0,1-.888-2.46,3.834,3.834,0,0,1,.827-2.523,2.848,2.848,0,0,1,2.342-1.074,2.492,2.492,0,0,1,2.19,1.074A3.577,3.577,0,0,1,122.972,11.8Zm-1.421-.385a2.005,2.005,0,0,0-.289-1.144,1.3,1.3,0,0,0-1.185-.621,1.414,1.414,0,0,0-1.185.607,2.255,2.255,0,0,0-.442,1.158h3.1Z" transform="translate(-12.784 -5.689)" fill="#fff"/>
    </g>
  </g>
</svg>
