<svg xmlns="http://www.w3.org/2000/svg" width="226.382" height="25" viewBox="0 0 226.382 25">
  <g id="Group_42088" data-name="Group 42088" transform="translate(5717.1 -20259)">
    <path id="Path_372" data-name="Path 372" d="M305.643,140.009H299.8V115.266a1.62,1.62,0,0,1,.394-.084c2.92,0,5.813-.028,8.734.028a1.433,1.433,0,0,1,.927.534c4.24,5.392,8.453,10.812,12.694,16.207.252.337.506.646.842,1.04,1.095-1.4,2.162-2.756,3.2-4.073,3.427-4.381,6.824-8.734,10.222-13.12a1.408,1.408,0,0,1,1.263-.617c2.668.028,5.336,0,7.975,0h.9v24.8h-5.785V121.641a8,8,0,0,0-.617.674c-4.41,5.7-8.82,11.373-13.2,17.074a1.481,1.481,0,0,1-1.4.674c-1.741-.029-3.483-.029-5.195,0a1.407,1.407,0,0,1-1.263-.617c-4.353-5.673-8.734-11.318-13.087-16.963a1.813,1.813,0,0,0-.73-.617Q305.628,130.923,305.643,140.009Z" transform="translate(-5933.998 20143.873)" fill="#00317b"/>
    <path id="Path_373" data-name="Path 373" d="M162.635,140.111c-4.55,0-9.071-.084-13.62.029a6.076,6.076,0,0,1-6.318-6.318c.084-4.128,0-8.228.028-12.357a5.867,5.867,0,0,1,6.262-6.262H176.4a5.853,5.853,0,0,1,6.262,6.262c0,4.156.028,8.284,0,12.441a5.852,5.852,0,0,1-6.206,6.207Zm-13.93-18.846v12.722h27.719V121.265Z" transform="translate(-5821.012 20143.855)" fill="#00317b"/>
    <path id="Path_374" data-name="Path 374" d="M499.353,140.056h-13.7a5.8,5.8,0,0,1-6.207-6.122c-.029-4.24-.029-8.453,0-12.694a5.756,5.756,0,0,1,6.125-6.094q13.775-.042,27.578,0a5.823,5.823,0,0,1,6.174,6.235v12.441a5.86,5.86,0,0,1-6.207,6.235Zm-13.925-18.844v12.722h27.719V121.212Z" transform="translate(-6063.177 20143.91)" fill="#00317b"/>
    <path id="Path_375" data-name="Path 375" d="M640.672,140.026H634.1V115.2h33.42c3.96,0,6.347,2.387,6.375,6.318v2.106c-.029,1.966-.7,3.454-2.921,3.932.221.14.309.22.421.281a3.324,3.324,0,0,1,2.472,3.4c.028,2.921,0,5.813,0,8.79H667.8V129.551H640.672Zm27.747-19.911H640.841v4.156h27.578Z" transform="translate(-6174.414 20143.857)" fill="#00317b"/>
    <path id="Path_376" data-name="Path 376" d="M19.373,127.484c8.257,4.156,16.373,8.257,24.461,12.329-.028.056-.028.11-.056.169H41.053c-3.087,0-6.151.028-9.24-.028a3.546,3.546,0,0,1-1.517-.365c-6.4-3.258-12.807-6.543-19.209-9.8-.252-.11-.506-.221-.842-.365V140.04H4.6V115.156h5.589V125.6c.394-.2.7-.337.983-.477,6.235-3.229,12.469-6.431,18.731-9.661a2.315,2.315,0,0,1,.927-.337c3.988-.028,7.948-.028,12.127-.028C35.071,119.256,27.319,123.329,19.373,127.484Z" transform="translate(-5721.7 20143.928)" fill="#00317b"/>
    <path id="Path_377" data-name="Path 377" d="M794.231,139.91H787.8V115h6.431Z" transform="translate(-6284.949 20144)" fill="#00317b"/>
  </g>
</svg>
