<svg width="22" height="17" viewBox="0 0 22 17" fill="none" xmlns="http://www.w3.org/2000/svg">
<path d="M3 17C2.16667 17 1.45833 16.7083 0.875 16.125C0.291667 15.5417 0 14.8333 0 14C0 13.5667 0.0833333 13.1542 0.25 12.7625C0.416667 12.3708 0.666667 12.0333 1 11.75V7H3V1H11L15.7 12.075C15.8 12.3083 15.875 12.5417 15.925 12.775C15.975 13.0083 16 13.25 16 13.5C16 14.4667 15.6583 15.2917 14.975 15.975C14.2917 16.6583 13.4667 17 12.5 17C11.8167 17 11.1875 16.8208 10.6125 16.4625C10.0375 16.1042 9.60833 15.6167 9.325 15H5.825C5.60833 15.6 5.24167 16.0833 4.725 16.45C4.20833 16.8167 3.63333 17 3 17ZM17 16V0H19V14H22V16H17ZM3 15C3.28333 15 3.52083 14.9042 3.7125 14.7125C3.90417 14.5208 4 14.2833 4 14C4 13.7167 3.90417 13.4792 3.7125 13.2875C3.52083 13.0958 3.28333 13 3 13C2.71667 13 2.47917 13.0958 2.2875 13.2875C2.09583 13.4792 2 13.7167 2 14C2 14.2833 2.09583 14.5208 2.2875 14.7125C2.47917 14.9042 2.71667 15 3 15ZM12.5 15C12.9167 15 13.2708 14.8542 13.5625 14.5625C13.8542 14.2708 14 13.9167 14 13.5C14 13.0833 13.8542 12.7292 13.5625 12.4375C13.2708 12.1458 12.9167 12 12.5 12C12.0833 12 11.7292 12.1458 11.4375 12.4375C11.1458 12.7292 11 13.0833 11 13.5C11 13.9167 11.1458 14.2708 11.4375 14.5625C11.7292 14.8542 12.0833 15 12.5 15ZM5.825 13H9.025C9.05833 12.8167 9.09583 12.6458 9.1375 12.4875C9.17917 12.3292 9.24167 12.1667 9.325 12H7.075L4.15 9H3V11C3.63333 11 4.20833 11.1833 4.725 11.55C5.24167 11.9167 5.60833 12.4 5.825 13ZM7.925 10H12.65L9.675 3H5V7L7.925 10ZM7.075 12C7.075 12 6.92083 11.8417 6.6125 11.525C6.30417 11.2083 5.97083 10.8625 5.6125 10.4875C5.25417 10.1125 4.92083 9.77083 4.6125 9.4625C4.30417 9.15417 4.15 9 4.15 9H3H4.15L7.075 12H9.325H7.075Z" fill="#0058BE"/>
</svg>
