<?xml version="1.0" encoding="UTF-8"?>
<svg id="Layer_1" xmlns="http://www.w3.org/2000/svg" version="1.1" viewBox="0 0 355.44 36.94">
  <!-- Generator: Adobe Illustrator 30.1.0, SVG Export Plug-In . SVG Version: 2.1.1 Build 136)  -->
  <defs>
    <style>
      .st0, .st1 {
        fill: #010101;
      }

      .st1 {
        opacity: .5;
      }
    </style>
  </defs>
  <rect class="st1" x="42.75" y="3.2" width="10.95" height="32.53" rx="5.07" ry="5.07"/>
  <rect class="st1" x="21.49" y="2.24" width="12.08" height="32.53" rx="5.32" ry="5.32"/>
  <path class="st0" d="M31.82,3.15c-2.32-2.32-6.08-2.32-8.4,0L2.73,23.85c-2.32,2.32-2.32,6.08,0,8.4,2.32,2.32,6.08,2.32,8.4,0L31.82,11.55c2.32-2.32,2.32-6.08,0-8.4ZM7.2,29.64c-1.03,0-1.87-.84-1.87-1.87s.84-1.87,1.87-1.87,1.87.84,1.87,1.87-.84,1.87-1.87,1.87ZM26.96,9.88c-1.03,0-1.87-.84-1.87-1.87s.84-1.87,1.87-1.87,1.87.84,1.87,1.87-.84,1.87-1.87,1.87Z"/>
  <path class="st0" d="M52.32,4.91c-2.32-2.32-6.08-2.32-8.4,0l-20.69,20.69c-2.32,2.32-2.32,6.08,0,8.4,2.32,2.32,6.08,2.32,8.4,0l20.69-20.69c2.32-2.32,2.32-6.08,0-8.4ZM27.7,31.4c-1.03,0-1.87-.84-1.87-1.87s.84-1.87,1.87-1.87,1.87.84,1.87,1.87-.84,1.87-1.87,1.87ZM47.46,11.64c-1.03,0-1.87-.84-1.87-1.87s.84-1.87,1.87-1.87,1.87.84,1.87,1.87-.84,1.87-1.87,1.87Z"/>
  <g>
    <path class="st0" d="M97.92,14.15c1.54,1.58,2.31,3.76,2.31,6.56v12.23h-6.38v-11.36c0-1.35-.36-2.39-1.07-3.13-.71-.74-1.69-1.11-2.94-1.11s-2.23.37-2.94,1.11c-.71.74-1.07,1.78-1.07,3.13v11.36h-6.38v-11.36c0-1.35-.36-2.39-1.07-3.13-.71-.74-1.7-1.11-2.94-1.11s-2.23.37-2.94,1.11c-.71.74-1.07,1.78-1.07,3.13v11.36h-6.41V12.02h6.41v2.63c.65-.88,1.5-1.57,2.55-2.08,1.05-.51,2.24-.77,3.56-.77,1.57,0,2.98.34,4.22,1.01,1.24.68,2.21,1.64,2.91,2.89.72-1.15,1.71-2.09,2.96-2.81,1.25-.72,2.61-1.09,4.09-1.09,2.6,0,4.67.79,6.21,2.36Z"/>
    <path class="st0" d="M104.67,16.78c.81-1.62,1.92-2.87,3.32-3.75,1.4-.87,2.96-1.31,4.69-1.31,1.48,0,2.77.3,3.88.9,1.11.6,1.97,1.39,2.57,2.36v-2.96h6.41v20.93h-6.41v-2.96c-.63.97-1.5,1.76-2.61,2.36-1.11.6-2.41.9-3.88.9-1.7,0-3.25-.44-4.65-1.33s-2.51-2.15-3.32-3.79c-.81-1.64-1.22-3.53-1.22-5.68s.41-4.04,1.22-5.66ZM117.79,18.69c-.89-.92-1.97-1.39-3.24-1.39s-2.36.46-3.24,1.37c-.89.91-1.33,2.17-1.33,3.77s.44,2.87,1.33,3.81c.89.94,1.97,1.41,3.24,1.41s2.36-.46,3.24-1.39c.89-.92,1.33-2.19,1.33-3.79s-.44-2.86-1.33-3.79Z"/>
    <path class="st0" d="M130.24,16.78c.89-1.62,2.12-2.87,3.71-3.75,1.59-.87,3.41-1.31,5.46-1.31,2.63,0,4.82.69,6.58,2.06,1.76,1.37,2.92,3.31,3.47,5.81h-6.83c-.58-1.6-1.69-2.4-3.34-2.4-1.18,0-2.11.46-2.81,1.37-.7.91-1.05,2.22-1.05,3.92s.35,3.01,1.05,3.92c.7.91,1.64,1.37,2.81,1.37,1.65,0,2.76-.8,3.34-2.4h6.83c-.55,2.45-1.71,4.38-3.49,5.78-1.78,1.4-3.96,2.1-6.56,2.1-2.05,0-3.87-.44-5.46-1.31-1.59-.88-2.83-2.12-3.71-3.75-.89-1.62-1.33-3.52-1.33-5.7s.44-4.07,1.33-5.7Z"/>
    <path class="st0" d="M171.52,14.17c1.45,1.59,2.18,3.77,2.18,6.54v12.23h-6.38v-11.36c0-1.4-.36-2.49-1.09-3.26-.73-.77-1.7-1.16-2.92-1.16s-2.2.39-2.93,1.16c-.72.78-1.09,1.86-1.09,3.26v11.36h-6.41V5.19h6.41v9.64c.65-.92,1.54-1.66,2.66-2.21,1.13-.55,2.39-.82,3.79-.82,2.4,0,4.32.79,5.78,2.38Z"/>
    <path class="st0" d="M178.63,8.85c-.71-.66-1.07-1.48-1.07-2.46s.36-1.83,1.07-2.49c.71-.66,1.63-.99,2.76-.99s2.01.33,2.72.99c.71.66,1.07,1.49,1.07,2.49s-.36,1.79-1.07,2.46c-.71.66-1.62.99-2.72.99s-2.04-.33-2.76-.99ZM184.57,12.02v20.93h-6.41V12.02h6.41Z"/>
    <path class="st0" d="M207.84,14.17c1.46,1.59,2.19,3.77,2.19,6.54v12.23h-6.38v-11.36c0-1.4-.36-2.49-1.09-3.26-.73-.77-1.7-1.16-2.92-1.16s-2.2.39-2.93,1.16c-.72.78-1.09,1.86-1.09,3.26v11.36h-6.41V12.02h6.41v2.77c.65-.92,1.53-1.66,2.63-2.19s2.34-.81,3.71-.81c2.45,0,4.41.79,5.87,2.38Z"/>
    <path class="st0" d="M234.11,24.02h-14.51c.1,1.3.52,2.29,1.26,2.98s1.64,1.03,2.72,1.03c1.6,0,2.71-.68,3.34-2.03h6.83c-.35,1.38-.98,2.61-1.89,3.71-.91,1.1-2.06,1.96-3.43,2.59-1.38.62-2.91.94-4.61.94-2.05,0-3.88-.44-5.48-1.31-1.6-.88-2.85-2.12-3.75-3.75-.9-1.62-1.35-3.52-1.35-5.7s.44-4.07,1.33-5.7c.89-1.62,2.13-2.87,3.73-3.75,1.6-.87,3.44-1.31,5.51-1.31s3.83.43,5.4,1.28,2.81,2.06,3.69,3.64c.89,1.57,1.33,3.41,1.33,5.51,0,.6-.04,1.23-.11,1.88ZM227.66,20.46c0-1.1-.38-1.98-1.13-2.63s-1.69-.97-2.81-.97-1.98.31-2.72.94-1.19,1.51-1.37,2.66h8.03Z"/>
    <path class="st0" d="M245.5,16.78c.81-1.62,1.92-2.87,3.32-3.75,1.4-.87,2.96-1.31,4.69-1.31,1.38,0,2.63.29,3.77.86,1.14.58,2.03,1.35,2.68,2.32V5.19h6.41v27.75h-6.41v-3c-.6,1-1.46,1.8-2.57,2.4-1.11.6-2.41.9-3.88.9-1.72,0-3.29-.44-4.69-1.33s-2.51-2.15-3.32-3.79c-.81-1.64-1.22-3.53-1.22-5.68s.41-4.04,1.22-5.66ZM258.62,18.69c-.89-.92-1.97-1.39-3.24-1.39s-2.36.46-3.24,1.37c-.89.91-1.33,2.17-1.33,3.77s.44,2.87,1.33,3.81c.89.94,1.97,1.41,3.24,1.41s2.36-.46,3.24-1.39c.89-.92,1.33-2.19,1.33-3.79s-.44-2.86-1.33-3.79Z"/>
    <path class="st0" d="M270.96,16.78c.81-1.62,1.92-2.87,3.32-3.75,1.4-.87,2.96-1.31,4.69-1.31,1.48,0,2.77.3,3.88.9,1.11.6,1.97,1.39,2.57,2.36v-2.96h6.41v20.93h-6.41v-2.96c-.63.97-1.5,1.76-2.61,2.36-1.11.6-2.41.9-3.88.9-1.7,0-3.25-.44-4.65-1.33s-2.51-2.15-3.32-3.79c-.81-1.64-1.22-3.53-1.22-5.68s.41-4.04,1.22-5.66ZM284.09,18.69c-.89-.92-1.97-1.39-3.24-1.39s-2.36.46-3.24,1.37c-.89.91-1.33,2.17-1.33,3.77s.44,2.87,1.33,3.81c.89.94,1.97,1.41,3.24,1.41s2.36-.46,3.24-1.39c.89-.92,1.33-2.19,1.33-3.79s-.44-2.86-1.33-3.79Z"/>
    <path class="st0" d="M296.43,16.78c.81-1.62,1.92-2.87,3.32-3.75,1.4-.87,2.96-1.31,4.69-1.31,1.38,0,2.63.29,3.77.86,1.14.58,2.03,1.35,2.68,2.32V5.19h6.41v27.75h-6.41v-3c-.6,1-1.46,1.8-2.57,2.4-1.11.6-2.41.9-3.88.9-1.72,0-3.29-.44-4.69-1.33s-2.51-2.15-3.32-3.79c-.81-1.64-1.22-3.53-1.22-5.68s.41-4.04,1.22-5.66ZM309.55,18.69c-.89-.92-1.97-1.39-3.24-1.39s-2.36.46-3.24,1.37c-.89.91-1.33,2.17-1.33,3.77s.44,2.87,1.33,3.81c.89.94,1.97,1.41,3.24,1.41s2.36-.46,3.24-1.39c.89-.92,1.33-2.19,1.33-3.79s-.44-2.86-1.33-3.79Z"/>
    <path class="st0" d="M321.89,16.78c.81-1.62,1.92-2.87,3.32-3.75,1.4-.87,2.96-1.31,4.69-1.31,1.48,0,2.77.3,3.88.9,1.11.6,1.97,1.39,2.57,2.36v-2.96h6.41v20.93h-6.41v-2.96c-.63.97-1.5,1.76-2.61,2.36-1.11.6-2.41.9-3.88.9-1.7,0-3.25-.44-4.65-1.33s-2.51-2.15-3.32-3.79c-.81-1.64-1.22-3.53-1.22-5.68s.41-4.04,1.22-5.66ZM335.02,18.69c-.89-.92-1.97-1.39-3.24-1.39s-2.36.46-3.24,1.37c-.89.91-1.33,2.17-1.33,3.77s.44,2.87,1.33,3.81c.89.94,1.97,1.41,3.24,1.41s2.36-.46,3.24-1.39c.89-.92,1.33-2.19,1.33-3.79s-.44-2.86-1.33-3.79Z"/>
    <path class="st0" d="M353.83,5.19v27.75h-6.41V5.19h6.41Z"/>
  </g>
</svg>