<?xml version="1.0" encoding="UTF-8"?>
<svg id="Layer_1" xmlns="http://www.w3.org/2000/svg" version="1.1" viewBox="0 0 355.44 36.94">
  <!-- Generator: Adobe Illustrator 30.1.0, SVG Export Plug-In . SVG Version: 2.1.1 Build 136)  -->
  <defs>
    <style>
      .st0, .st1 {
        fill: #010101;
      }

      .st1 {
        opacity: .5;
      }
    </style>
  </defs>
  <g>
    <rect class="st1" x="42.75" y="3.24" width="10.95" height="32.53" rx="5.07" ry="5.07"/>
    <rect class="st1" x="21.49" y="2.28" width="12.08" height="32.53" rx="5.32" ry="5.32"/>
    <path class="st0" d="M31.82,3.19c-2.32-2.32-6.08-2.32-8.4,0L2.73,23.89c-2.32,2.32-2.32,6.08,0,8.4,2.32,2.32,6.08,2.32,8.4,0L31.82,11.59c2.32-2.32,2.32-6.08,0-8.4ZM7.2,29.68c-1.03,0-1.87-.84-1.87-1.87s.84-1.87,1.87-1.87,1.87.84,1.87,1.87-.84,1.87-1.87,1.87ZM26.96,9.92c-1.03,0-1.87-.84-1.87-1.87s.84-1.87,1.87-1.87,1.87.84,1.87,1.87-.84,1.87-1.87,1.87Z"/>
    <path class="st0" d="M52.32,4.95c-2.32-2.32-6.08-2.32-8.4,0l-20.69,20.69c-2.32,2.32-2.32,6.08,0,8.4,2.32,2.32,6.08,2.32,8.4,0l20.69-20.69c2.32-2.32,2.32-6.08,0-8.4ZM27.7,31.44c-1.03,0-1.87-.84-1.87-1.87s.84-1.87,1.87-1.87,1.87.84,1.87,1.87-.84,1.87-1.87,1.87ZM47.46,11.68c-1.03,0-1.87-.84-1.87-1.87s.84-1.87,1.87-1.87,1.87.84,1.87,1.87-.84,1.87-1.87,1.87Z"/>
  </g>
  <g>
    <path class="st0" d="M70.63,12.52v3.03c1.31-2.17,3.39-3.26,6.25-3.26,1.53,0,2.89.35,4.09,1.04,1.2.69,2.13,1.68,2.79,2.96.76-1.21,1.76-2.18,2.98-2.9,1.22-.73,2.58-1.09,4.09-1.09,2.52,0,4.51.78,5.99,2.33,1.48,1.55,2.22,3.71,2.22,6.48v12.06h-6.29v-11.21c0-1.33-.35-2.36-1.05-3.09s-1.67-1.09-2.91-1.09-2.2.36-2.9,1.09-1.05,1.76-1.05,3.09v11.21h-6.29v-11.21c0-1.33-.35-2.36-1.05-3.09s-1.67-1.09-2.91-1.09-2.2.36-2.9,1.09-1.05,1.76-1.05,3.09v11.21h-6.33V12.52h6.33Z"/>
    <path class="st0" d="M105.63,30.46c-1.83-1.97-2.74-4.5-2.74-7.58s.91-5.62,2.74-7.6c1.83-1.99,4.05-2.98,6.68-2.98s4.64.98,6.05,2.92v-2.7h6.33v20.65h-6.33v-3c-1.53,2.17-3.58,3.26-6.14,3.26s-4.76-.99-6.59-2.96ZM116.99,26.61c.91-.89,1.37-2.15,1.37-3.77s-.46-2.88-1.37-3.76c-.91-.88-1.96-1.31-3.15-1.31s-2.23.44-3.14,1.33c-.91.89-1.37,2.15-1.37,3.77s.46,2.88,1.37,3.76c.91.88,1.96,1.31,3.14,1.31s2.23-.44,3.15-1.33Z"/>
    <path class="st0" d="M131.59,30.53c-1.91-1.92-2.87-4.49-2.87-7.7s.96-5.77,2.87-7.68c1.91-1.91,4.38-2.87,7.42-2.87,2.52,0,4.65.62,6.4,1.87,1.75,1.25,2.91,3.03,3.48,5.35h-6.84c-.59-1.23-1.56-1.85-2.9-1.85s-2.34.48-3,1.42c-.65.95-.98,2.2-.98,3.76s.33,2.81.98,3.76c.65.95,1.61,1.42,2.87,1.42.79,0,1.41-.14,1.85-.41.44-.27.84-.75,1.18-1.44h6.84c-.57,2.22-1.74,3.98-3.51,5.29-1.78,1.31-3.9,1.96-6.36,1.96-3.03,0-5.51-.96-7.42-2.89Z"/>
    <path class="st0" d="M158.76,5.78v9.77c1.31-2.17,3.39-3.26,6.25-3.26,2.37,0,4.29.79,5.75,2.37,1.47,1.58,2.2,3.73,2.2,6.44v12.06h-6.29v-11.21c0-1.33-.35-2.36-1.05-3.09s-1.67-1.09-2.91-1.09-2.2.36-2.9,1.09-1.05,1.76-1.05,3.09v11.21h-6.33V5.78h6.33Z"/>
    <path class="st0" d="M184.11,10.18c-.72.72-1.59,1.07-2.63,1.07s-1.91-.36-2.63-1.07c-.72-.72-1.07-1.6-1.07-2.65s.36-1.93,1.07-2.65,1.59-1.07,2.63-1.07,1.91.36,2.63,1.07c.71.72,1.07,1.6,1.07,2.65s-.36,1.93-1.07,2.65ZM178.34,33.16V12.52h6.33v20.65h-6.33Z"/>
    <path class="st0" d="M196.54,12.52v3.03c1.31-2.17,3.39-3.26,6.25-3.26,2.37,0,4.29.79,5.75,2.37,1.47,1.58,2.2,3.73,2.2,6.44v12.06h-6.29v-11.21c0-1.33-.35-2.36-1.05-3.09s-1.67-1.09-2.91-1.09-2.2.36-2.9,1.09-1.05,1.76-1.05,3.09v11.21h-6.33V12.52h6.33Z"/>
    <path class="st0" d="M224.88,33.42c-3.01,0-5.48-.97-7.4-2.9-1.92-1.94-2.89-4.51-2.89-7.71s.96-5.76,2.87-7.66c1.91-1.9,4.38-2.85,7.42-2.85s5.55.94,7.55,2.81c2,1.88,3,4.48,3,7.81,0,.72-.05,1.38-.15,2h-14.21c.12.91.53,1.66,1.22,2.24.69.58,1.44.87,2.24.87s1.4-.08,1.79-.24c.39-.16.68-.32.87-.48.18-.16.43-.43.72-.8h6.84c-.59,2.07-1.78,3.74-3.55,5.01-1.78,1.27-3.88,1.91-6.33,1.91ZM227.58,18.6c-.74-.6-1.62-.91-2.63-.91s-1.86.3-2.55.91c-.69.6-1.12,1.39-1.3,2.35h7.73c-.1-.96-.52-1.74-1.26-2.35Z"/>
  </g>
  <g>
    <path class="st0" d="M247.34,29.48c-1.83-1.97-2.74-4.5-2.74-7.58s.91-5.62,2.74-7.6c1.83-1.99,4.05-2.98,6.68-2.98s4.64.98,6.05,2.92V4.8h6.33v27.38h-6.33v-3c-1.53,2.17-3.58,3.26-6.14,3.26s-4.76-.99-6.59-2.96ZM258.7,25.63c.91-.89,1.37-2.15,1.37-3.77s-.46-2.88-1.37-3.76c-.91-.88-1.96-1.31-3.15-1.31s-2.23.44-3.14,1.33c-.91.89-1.37,2.15-1.37,3.77s.46,2.88,1.37,3.76c.91.88,1.96,1.31,3.14,1.31s2.23-.44,3.15-1.33Z"/>
    <path class="st0" d="M273.17,29.48c-1.83-1.97-2.74-4.5-2.74-7.58s.91-5.62,2.74-7.6c1.83-1.99,4.05-2.98,6.68-2.98s4.64.98,6.05,2.92v-2.7h6.33v20.65h-6.33v-3c-1.53,2.17-3.58,3.26-6.14,3.26s-4.76-.99-6.59-2.96ZM284.53,25.63c.91-.89,1.37-2.15,1.37-3.77s-.46-2.88-1.37-3.76c-.91-.88-1.96-1.31-3.15-1.31s-2.23.44-3.14,1.33c-.91.89-1.37,2.15-1.37,3.77s.46,2.88,1.37,3.76c.91.88,1.96,1.31,3.14,1.31s2.23-.44,3.15-1.33Z"/>
    <path class="st0" d="M297.77,32.18V4.8h6.33v27.38h-6.33Z"/>
    <path class="st0" d="M310.87,29.48c-1.83-1.97-2.74-4.5-2.74-7.58s.91-5.62,2.74-7.6c1.83-1.99,4.05-2.98,6.68-2.98s4.64.98,6.05,2.92v-2.7h6.33v20.65h-6.33v-3c-1.53,2.17-3.58,3.26-6.14,3.26s-4.76-.99-6.59-2.96ZM322.23,25.63c.91-.89,1.37-2.15,1.37-3.77s-.46-2.88-1.37-3.76c-.91-.88-1.96-1.31-3.15-1.31s-2.23.44-3.14,1.33c-.91.89-1.37,2.15-1.37,3.77s.46,2.88,1.37,3.76c.91.88,1.96,1.31,3.14,1.31s2.23-.44,3.15-1.33Z"/>
    <path class="st0" d="M335.48,32.18V4.8h6.33v27.38h-6.33Z"/>
  </g>
</svg>