<svg xmlns="http://www.w3.org/2000/svg" width="16.41" height="17.57" viewBox="0 0 16.41 17.57">
  <g id="Login" transform="translate(-9.604 -4.018)">
    <path id="Path_104479" data-name="Path 104479" d="M33.337,4.168a4.169,4.169,0,1,0,4.169,4.169A4.169,4.169,0,0,0,33.337,4.168Zm-2.5,4.169a2.5,2.5,0,1,1,2.5,2.5A2.5,2.5,0,0,1,30.836,8.337Z" transform="translate(-15.529)" fill="#fff" stroke="#1e2225" stroke-width="0.3" fill-rule="evenodd"/>
    <path id="Path_104480" data-name="Path 104480" d="M17.809,54.168a12.814,12.814,0,0,0-5.581,1.4l-.077.038a7.476,7.476,0,0,0-1.612.952,2.256,2.256,0,0,0-.587.779,2.642,2.642,0,0,0,0,2.006,2.256,2.256,0,0,0,.587.779,7.474,7.474,0,0,0,1.612.952l.077.038a12.814,12.814,0,0,0,5.581,1.4,12.815,12.815,0,0,0,5.581-1.4l.077-.038a7.476,7.476,0,0,0,1.612-.952,2.256,2.256,0,0,0,.587-.779,2.642,2.642,0,0,0,0-2.006,2.256,2.256,0,0,0-.587-.779,7.474,7.474,0,0,0-1.612-.952l-.077-.038A12.814,12.814,0,0,0,17.809,54.168Zm-4.847,2.894a11.169,11.169,0,0,1,4.847-1.227,11.169,11.169,0,0,1,4.847,1.227,6.692,6.692,0,0,1,1.322.746.6.6,0,0,1,.165.206,1.007,1.007,0,0,1,0,.646.6.6,0,0,1-.165.206,6.693,6.693,0,0,1-1.322.746,11.169,11.169,0,0,1-4.847,1.227,11.169,11.169,0,0,1-4.847-1.227,6.692,6.692,0,0,1-1.322-.746.6.6,0,0,1-.165-.206,1.007,1.007,0,0,1,0-.646.6.6,0,0,1,.165-.206A6.693,6.693,0,0,1,12.962,57.062Z" transform="translate(0 -41.069)" fill="#fff" stroke="#1e2225" stroke-width="0.3" fill-rule="evenodd"/>
  </g>
</svg>
