<svg xmlns="http://www.w3.org/2000/svg" width="334" height="400" viewBox="0 0 334 400">
  <g id="Logo" transform="translate(12.563 140.7)">
    <path id="Path_16-3" d="M108.848,273.551l208.246-76.924-70.1-28.227L-7.8,240Z" transform="translate(0 -19.865)" fill="#0b2046" stroke="#959d32" stroke-width="1" stroke-dasharray="3"/>
    <path id="Path_14-3" d="M317.948-57.187l-70.1,15.7L-3.3-102.239l113-33.461Z" transform="translate(-0.294 0)" fill="#072046" stroke="#1f8481" stroke-width="1" stroke-dasharray="3" opacity="0.999"/>
    <path id="Path_13-3" d="M108.88-135.7V254.153L-7.3,222.281V-102.706Z" transform="translate(-0.033 0)" fill="#081e42" stroke="#e2e2e2" stroke-width="1" stroke-dasharray="3"/>
    <path id="Path_15-3" d="M264.8,154.489V-36l70.1-15.7V182.717Z" transform="translate(-17.807 -5.487)" fill="#0a224e" stroke="#aa4da6" stroke-width="1" stroke-dasharray="3"/>
    <g id="Ellipse_742" data-name="Ellipse 742" transform="translate(104.438 -140.7)" fill="#14918d" stroke="#8e8e8e" stroke-width="1">
      <circle cx="5" cy="5" r="5" stroke="none"/>
      <circle cx="5" cy="5" r="4.5" fill="none"/>
    </g>
    <circle id="Ellipse_743" data-name="Ellipse 743" cx="5" cy="5" r="5" transform="translate(311.438 171.3)" fill="#ba6797"/>
    <g id="Ellipse_745" data-name="Ellipse 745" transform="translate(104.438 249.3)" fill="#9d9941" stroke="#b9b9b9" stroke-width="1">
      <circle cx="5" cy="5" r="5" stroke="none"/>
      <circle cx="5" cy="5" r="4.5" fill="none"/>
    </g>
    <g id="Ellipse_744" data-name="Ellipse 744" transform="translate(-12.563 -106.7)" stroke="#a8a8a8" stroke-width="1">
      <circle cx="5" cy="5" r="5" stroke="none"/>
      <circle cx="5" cy="5" r="4.5" fill="none"/>
    </g>
  </g>
</svg>
