<svg xmlns="http://www.w3.org/2000/svg" xmlns:xlink="http://www.w3.org/1999/xlink" width="191" height="150" viewBox="0 0 191 150">
  <defs>
    <clipPath id="clip-path">
      <rect id="Rectangle_10540" data-name="Rectangle 10540" width="191" height="150" rx="2" transform="translate(722 635)" fill="#f7f7f7" stroke="#d1d1d1" stroke-width="1"/>
    </clipPath>
  </defs>
  <g id="Mask_Group_35713" data-name="Mask Group 35713" transform="translate(-722 -635)" clip-path="url(#clip-path)">
    <g id="Group_42393" data-name="Group 42393" transform="translate(725 636.401)">
      <path id="Path_104267" data-name="Path 104267" d="M96.78,63.6A17.147,17.147,0,1,1,79.961,80.74,16.984,16.984,0,0,1,96.78,63.6" transform="translate(-14.992 -11.924)" fill="#e2e2e2"/>
      <path id="Path_104268" data-name="Path 104268" d="M130.293,10.4c.325-2.438,0-6.256,0-8.938s-1.3-.894-1.625-.65c-.975.813-.244,9.344.406,10.969.813.325,1.138-.975,1.219-1.463ZM13.618,12.672c-2.844-2.681-5.85,2.356-2.925,4.306s4.956-2.356,2.925-4.306m6.906,2.844a1.584,1.584,0,0,0-1.869,0,2.322,2.322,0,0,0,1.056,2.763,1.64,1.64,0,0,0,.894-2.763ZM122.168,30.059c-.894-3.819-1.544-10.888-5.769-12.269-8.287-2.762-26.244,2.763-34.938,5.119-16.9,4.55-33.719,11.294-51.513,11.05,4.794,2.6,12.269,1.462,17.55.487C63.181,31.6,78.537,24.616,94.218,21.041s18.688-4.388,22.831-1.462,7.15,30.225,9.831,30.388c1.137-1.219-.244-3.656-.487-5.2-1.056-6.256-1.788-16.006-3.575-21.613s-.244-1.463-1.056-1.625c.244,1.869.731,3.981.812,5.85s.325,2.519-.406,2.681m-10.806-8.938a50.822,50.822,0,0,0-6.094,0c-1.869,0-3.413.975-3.006,2.031.162.163,3.9-1.219,4.631-1.219h6.337v-.406c-.65.244-1.381-.325-1.787-.406Zm59.069,2.925a1.8,1.8,0,0,0,0,3.575c3.656.569,3.494-4.144,0-3.575M6.062,26.484c-1.138,1.137.244,3.575,1.95,2.519s-.65-3.9-1.95-2.519m156.65,10.806a1.911,1.911,0,0,0-1.706-3.169c-3.088.487-.325,5.2,1.706,3.169M29.543,35.341c4.225,7.15,6.906,14.706,9.263,22.669S42.3,73.528,43.193,73.528c1.138-.894.325-2.925.081-4.144-1.869-8.938-5.2-21.125-9.506-29.088s-3.331-5.769-4.225-4.956m130,73.125c-3.737-8.775-8.044-17.956-7.312-27.788.325-4.387,2.519-10.156,2.437-14.219s-.487-2.194-1.056-3.006C151.337,59.959,136.225,51.591,132,50.941c-5.525-.894-5.2,2.031-6.906,5.85s-1.381,1.381-1.625,2.437c-.569,2.438.569,5.688.325,8.45a25.569,25.569,0,0,1-1.219,5.688c-.406,1.463-.162.975-.731,1.056-1.95-3.006-2.194-4.306-2.031-7.881s1.3-11.05,2.113-11.863,3.169-.569,3.575-2.112c-1.219,0-3.819.406-4.713,1.219s-.65,2.031-1.219,2.844c-1.056,1.544-4.794,3.656-6.256,6.338s-.244,2.438-.65,3.819c-3.656.488-6.338,1.463-8.288,4.713-5.362,9.019,3.169,18.525,12.675,14.706s4.956-3.25,4.144-6.012c-4.387,9.181-18.687,5.931-16.656-4.875s.894-3.087,1.869-3.656c-2.762,7.069,2.275,13.163,9.75,11.619s4.225-1.787,4.469-3.9l1.625.406c.894-.975-3.656-4.306-4.225-5.281-.812-1.462-1.381-11.294-1.056-13.162s1.219-1.788,2.031-2.275c.569,4.225-1.869,9.344,0,13.244s2.113,2.925,3.006,4.306,0,2.275,2.113,2.356c3.088.163,4.306-4.225,7.069-4.875-3.9,8.531-.081,14.625,2.113,22.425s3.169,13.975,6.175,20.231L137.2,99.691c-1.706-.325.244,2.763-.406,3.656-.244,0-.488-.244-.65-.406-.812-1.463-1.219-5.525-1.788-7.313,2.275,1.706,4.469,5.038,7.719,4.306-9.994-4.875-13.731-16.25-9.019-26.325-4.306-3.088-10.806-9.588-7.231-15.113.65-.325,1.381.244,1.869.65,1.787,1.625,3.819,4.956,5.688,6.906s5.85,4.875,6.906,6.5,1.463,4.631,3.25,6.094c.569-2.356-2.519-6.094-2.6-7.963s4.712-4.713,1.95-9.263c-2.437-4.144-7.8-3.088-10.481.162a9.987,9.987,0,0,0,.813-4.875l-2.194,4.063L126.8,56.466c.731-1.788,1.462-4.306,3.737-4.225,4.388.244,15.519,6.5,19.094,9.425s3.819,3.088,3.494,7.394c-.569,6.581-2.763,10.644-1.95,17.875s3.981,15.6,7.962,22.425c-2.925,4.956-8.125,8.694-13.244,11.131-1.138-5.85-1.138-13.081-4.875-17.875.65,3.088,1.787,6.094,2.356,9.262s1.462,5.85-.894,7.394l.569-2.844c-3.087,1.3-2.925,4.631-2.844,7.475a53.515,53.515,0,0,0,2.356,13.894c1.381,4.063,1.544,5.038,2.519,4.144l-.812-2.031c4.55-1.137,6.744,1.138,11.131-1.3s4.713-7.15,8.125-8.938,5.2-.894,7.556-1.787a5.689,5.689,0,0,0,2.681-1.706c.325,0,.731.975,1.462.731-2.925-3.169-9.588-18.281-12.594-19.663s-1.788.569-2.844,1.381ZM86.418,51.591l-5.281-.406v1.625c1.788-1.219,4.956,1.219,5.281-1.219m-7.719,0L72.606,54.6c.975,1.706,2.275,0,3.656-.812s2.844-.406,2.438-2.194m15.844,5.281c1.381-1.381-4.794-3.981-5.769-4.144s-.812-.488-1.138.325,0,.813.569,1.056,1.625.325,2.519.731c1.544.731,2.194,2.112,3.819,2.112ZM71.387,55.653c-2.275-1.056-6.256,6.094-5.688,6.906l1.219.406a19.991,19.991,0,0,1,2.275-4.794c.894-1.219,2.194-1.219,2.194-2.519M1.837,58.172c-3.169.569-1.95,5.769,1.463,4.713s1.869-5.363-1.463-4.713m94.738.325c-2.681.487-.081,2.519.488,3.737s.162,1.219.325,1.706c.731,1.869,1.787,1.869,1.381-.162s-1.544-3.494-2.275-5.281Zm-5.931,1.219c-1.381,0-7.556,10.969-8.287,12.838-.65.406-3.737-.65-4.713-1.056s-5.119-3.169-3.656,0,7.881,3.9,9.588,3.087,2.925-6.175,3.575-7.394c.975-1.787,2.6-3.737,3.494-5.444s1.056-2.031,0-1.95Zm-25.35,6.5-1.219.244c-.894.975.244,7.475,1.056,7.475l1.056-.406a12.611,12.611,0,0,1-.812-7.313ZM50.668,81.247c.244-2.844,1.869-14.95-3.006-14.219S44.25,75.478,43.6,78c-1.219,4.794-3.006,9.425-4.062,14.219-1.706-4.469-.731-9.669-1.462-14.381S35.8,67.191,31.006,70.278l.162,22.181c.894,2.438-.081,7.475,1.056,9.506s1.056-3.413,1.056-3.9c-.325-8.044-.812-15.925-1.219-23.969s0-2.031,0-3.006c3.25-1.3,4.631,5.606,4.794,7.881.487,5.606.487,10.888,1.3,16.575s.406,3.9.975,3.9c1.463-3.9,2.031-8.288,3.088-12.35s2.113-6.581,2.925-10.075.975-7.312,1.95-8.287c1.706-1.706,2.519,1.137,2.763,2.519,1.219,9.1-2.519,18.85-3.981,27.706.894-.406,1.219-1.544,1.544-2.356,2.519-6.012,3.819-13.162,6.419-19.175s2.031-4.794,3.006-4.062a16.192,16.192,0,0,1,.325,6.256c-.65,7.638-4.875,16.331-5.2,23.644s.163,4.956,2.356,5.362c5.119,1.137,8.206-9.019,14.95-8.45s1.706,0,1.787.65c.244,1.463-8.206,9.425-9.669,11.456-3.25,4.469-4.875,11.537-9.262,14.706s-8.206,2.844-9.913,6.987l10.725-5.769,4.306-4.388a44.684,44.684,0,0,0,5.038,14.625c2.438,4.063,1.544,3.006,3.981,2.763A185.579,185.579,0,0,1,111.687,126.5c15.681-2.925,13.65-1.788,20.313-3.413l-2.6-.406c-6.825.406-14.056,2.681-20.719,3.25-.975.081-1.056-.081-.081-.488,8.938-3.656,18.281-4.875,27.95-5.606.081-.731-.894-.406-1.381-.406-9.75-.406-19.013,1.625-28.356,4.144a269.958,269.958,0,0,0-29.169,10.237c-9.425,3.819-12.35,5.769-12.919,5.444-1.788-3.738-6.906-14.137-6.094-17.956s4.469-8.531,6.012-10.238,10.888-8.694,6.906-11.781c-2.681-2.112-7.719.812-9.913,2.681s-8.531,10.237-7.881,1.056c.569-8.044,6.094-19.338,5.2-26.813s-.975-4.712-3.169-3.737l-4.875,8.775ZM98.2,75.153c.406-.244,2.6-9.1-.406-7.475a40.994,40.994,0,0,1,0,4.469c-.162,1.463-1.787,4.469.406,3.006m-31.281.406-1.138.975c.488.731,1.544,3.738,2.6,3.494,1.788-.325-1.869-3.494-1.381-4.469Zm25.594,6.906c.894.975,4.469-4.062,4.713-4.875s.162-.731-.406-1.219l-3.656,4.469-.569,1.625Zm-19.581.081-3.575-1.706c-.731,1.544,3.25,3.25,3.656,2.844V82.547ZM90.075,84.5l-.569-1.625A8.018,8.018,0,0,1,83.981,84.9v1.219c2.275.325,4.063-.975,6.094-1.625m-8.938.406c-1.381.975-7.069-1.463-7.312-1.219-1.381,1.544,4.631,2.763,5.525,2.844,1.3.081,1.95-.081,1.787-1.625M31.981,105.622c-1.869-4.55-5.606-17.388-10.563-18.931-1.788-.569-2.925.081-2.844,2.031s3.819,9.019,4.794,11.944c2.031,5.85,1.869,9.831,2.519,15.763s1.381,5.2,1.219,7.313-3.088,9.344-4.063,10.562-2.763.488-3.981,1.625a68.184,68.184,0,0,0-6.825,10.481c-.569,1.544-.325,1.056-.244,1.625,4.469-2.6,6.663,3.331,10.563,3.9s2.275-.569,3.494-.65c5.85-.325,7.312,5.281,12.594,6.094s2.113,0,3.169,0c1.138-.244,1.219-8.206,1.056-9.587s-1.625-3.331-1.625-4.469c0-2.356,2.112-6.094,1.625-8.775-1.869,1.95-1.706,5.363-3.006,7.719-2.437-2.681-5.85-4.469-9.181-5.85s-4.794-.812-6.013-2.925c.813-1.137,3.006-7.719,3.575-8.044a.61.61,0,0,1,.813.163c.244-.488-1.788-7.638-1.95-9.181-.325-2.356-.163-5.119-.487-7.638-.975-7.475-4.388-13.406-6.825-20.312l.975-.569c6.419,3.738,6.5,12.756,11.213,17.794Zm-26,3.25c-.162,1.219.163,2.6,1.625,1.869s.731-4.875-1.625-3.656l-.406,1.056,1.625-.162-.406,1.381-.813-.406Zm63.781,9.75a86,86,0,0,1,11.7-5.606c4.063-1.462,9.506-1.95,13.894-3.981-.569-.894-.894-.488-1.625-.406-5.444.488-16.981,4.306-21.613,7.231s-2.519,1.3-2.275,2.763ZM98.2,113.341c-.162-.731-.731-.812-1.381-.812-1.706,0-6.175,1.3-7.963,1.787a29.973,29.973,0,0,0-9.75,4.631A74.9,74.9,0,0,1,98.2,113.259Z" fill="#fff"/>
      <path id="Path_104269" data-name="Path 104269" d="M183.2,120.146c1.056-.812,1.056-2.275,2.844-1.381,3.087,1.381,16.38,40.393,16.38,40.393h-3.787a16.547,16.547,0,0,0-4.032,0c-2.437.894-3.524-1.3-5.8,0-3.412,1.787-4.905-2.519-9.293,0s-4.261-1.138-8.811,0h-1.4c-1.056.894-3.169-9.275-3.331-9.843a57.844,57.844,0,0,1-2.356-13.894c-.163-4.306-.244-6.175,2.844-7.475l-.569,2.844c2.356-1.544,1.3-4.956.894-7.394s-1.706-6.175-2.356-9.263c3.737,4.794,3.737,12.025,4.875,17.875,5.119-2.437,10.319-6.256,13.244-11.131a59.341,59.341,0,0,1-7.962-22.425c-.975-7.963,1.381-11.294,1.95-17.875s-.244-4.794-3.494-7.394-14.625-9.1-19.094-9.425-3.087,2.356-3.737,4.225l4.225,4.306,2.194-4.062a9.134,9.134,0,0,1-.812,4.875c2.681-3.25,8.044-4.306,10.481-.162,2.681,4.55-2.113,6.825-1.95,9.263s3.25,5.606,2.6,7.963c-1.787-1.463-2.113-4.306-3.25-6.094s-5.2-4.713-6.906-6.5-3.819-5.281-5.687-6.906-1.219-.975-1.869-.65c-3.575,5.525,2.925,12.025,7.231,15.113-4.712,10.075-.975,21.45,9.019,26.325-3.25.731-5.444-2.519-7.719-4.306.569,1.787.975,5.85,1.787,7.312s.406.406.65.406c.65-.894-1.3-3.981.406-3.656l2.275,17.063c-3.006-6.256-4.225-13.569-6.175-20.231s-6.094-13.894-2.113-22.425c-2.762.65-3.981,5.037-7.069,4.875s-1.544-1.463-2.113-2.356a51.185,51.185,0,0,1-3.006-4.306c-1.869-3.9.569-8.938,0-13.244-.812.488-1.869,1.3-2.031,2.275-.325,1.869.244,11.7,1.056,13.163s5.119,4.387,4.225,5.281l-1.625-.406c-.244,2.113-2.6,3.494-4.469,3.9-7.556,1.544-12.594-4.55-9.75-11.619-.975.487-1.625,2.6-1.869,3.656-1.95,10.806,12.269,14.138,16.656,4.875.813,2.763-1.787,5.038-4.144,6.013-9.425,3.819-17.956-5.606-12.675-14.706,1.95-3.25,4.631-4.225,8.287-4.713.325-1.381,0-2.437.65-3.819,1.381-2.681,5.119-4.875,6.256-6.338s.406-2.112,1.219-2.844,3.494-1.219,4.712-1.219c-.406,1.544-2.925,1.544-3.575,2.112s-2.031,10.156-2.113,11.862c-.163,3.575.081,4.956,2.031,7.881.65,0,.65-.569.731-1.056a28.462,28.462,0,0,0,1.219-5.688c.244-2.763-.894-6.012-.325-8.45s1.219-1.544,1.625-2.437c1.706-3.819,1.381-6.744,6.906-5.85,4.225.65,19.338,9.019,21.613,12.513s1.056,2.112,1.056,3.006c0,4.144-2.113,9.913-2.437,14.219-.731,9.831,3.575,19.013,7.313,27.788ZM164.919,78.3c2.113-1.625.813-5.606-1.625-6.094C165.162,74,165,75.865,164.919,78.3m-24.375,8.531c-1.787-2.844-.488-8.531-1.3-11.131s-.569-.812-1.137-.65c0,2.519-.569,8.531.406,10.644s1.788,1.381,2.031,1.138m8.125-7.313c-.244,1.381-2.844,9.425-.975,9.75s4.306-3.9,4.631-5.606l-3.575-4.144Z" transform="translate(-23.656 -11.681)"/>
      <path id="Path_104270" data-name="Path 104270" d="M108.672,82.293A10.414,10.414,0,1,1,98.258,71.879a10.413,10.413,0,0,1,10.414,10.414" transform="translate(-16.471 -13.478)" fill="#fff"/>
      <path id="Path_104271" data-name="Path 104271" d="M108.656,82.089c.106,7.771-7.256,13.6-14.653,10.038-8.517-4.14-9.227-16.477-.151-20.441,7.48-3.183,14.947,2.559,14.8,10.4m-.162,0c-.041-8.462-11.286-12.641-17.156-6.823-6.445,6.228-2.394,17.038,6.823,16.561,5.155-.128,10.409-4.278,10.333-9.738" transform="translate(-16.373 -13.273)"/>
      <path id="Path_104272" data-name="Path 104272" d="M57.767,96.447l4.875-8.775c2.194-1.056,3.006,2.031,3.169,3.737.894,7.475-4.631,18.769-5.2,26.813-.65,9.181,5.362.975,7.881-1.056s7.231-4.713,9.913-2.681c3.981,3.088-5.119,9.831-6.906,11.781s-5.525,8.125-6.012,10.238c-.812,3.819,4.306,14.219,6.094,17.956.569.325,11.294-4.712,12.919-5.444a258.207,258.207,0,0,1,29.169-10.238c9.344-2.519,18.606-4.55,28.356-4.144s1.544-.325,1.381.406c-9.669.731-18.931,1.869-27.95,5.606-.975.406-.894.569.081.488,6.662-.569,13.894-2.844,20.719-3.25l2.6.406c-6.663,1.625-13.569,2.194-20.313,3.412A189.106,189.106,0,0,0,73.124,156.41c-2.437.325-2.925-.975-3.981-2.763A42.881,42.881,0,0,1,64.1,139.022L59.8,143.41l-10.725,5.769c1.625-4.144,6.663-4.631,9.913-6.987S65,131.953,68.249,127.485s9.994-9.913,9.669-11.456-1.3-.569-1.787-.65c-6.825-.487-9.831,9.588-14.95,8.45s-2.437-3.575-2.356-5.363c.325-7.312,4.55-15.925,5.2-23.644s.244-4.306-.325-6.256c-.975-.731-2.763,3.413-3.006,4.062-2.519,6.013-3.819,13.163-6.419,19.175s-.65,1.95-1.544,2.356c1.463-8.856,5.119-18.606,3.981-27.706s-1.056-4.306-2.763-2.519S52.486,90.353,52,92.222c-.812,3.494-2.031,6.663-2.925,10.075s-1.625,8.45-3.087,12.35c-.569,0-.894-3.25-.975-3.9-.812-5.769-.731-11.05-1.3-16.575s-1.625-9.181-4.794-7.881a18.569,18.569,0,0,0,0,3.006c.487,7.963.894,15.925,1.219,23.969s0,5.85-1.056,3.9-.163-7.069-1.056-9.506l-.163-22.181c4.713-3.088,6.5,4.063,7.069,7.556s-.244,9.913,1.463,14.381c1.056-4.794,2.844-9.425,4.063-14.219s1.056-10.563,4.063-10.969c4.875-.731,3.331,11.456,3.006,14.219Z" transform="translate(-7.1 -15.2)"/>
      <path id="Path_104273" data-name="Path 104273" d="M34.741,125.549c-4.713-5.119-4.794-14.056-11.213-17.794l-.975.569c2.519,6.906,5.85,12.919,6.825,20.313s.244,5.281.487,7.637,2.275,8.694,1.95,9.181-.569-.325-.812-.163c-.569.325-2.763,6.906-3.575,8.044,1.3,2.112,3.9,1.95,6.013,2.925a29.469,29.469,0,0,1,9.181,5.85c1.381-2.356,1.137-5.769,3.006-7.719.487,2.681-1.706,6.419-1.625,8.775s1.462,2.6,1.625,4.469,0,9.263-1.056,9.587c-1.056,0-2.113.081-3.169,0-5.363-.731-6.744-6.419-12.594-6.094-1.219,0-2.275.813-3.494.65-3.9-.569-6.094-6.5-10.563-3.9A2.859,2.859,0,0,1,15,166.255a68.185,68.185,0,0,1,6.825-10.481c1.219-1.138,3.819-1.381,3.981-1.625.894-1.138,3.9-9.019,4.063-10.563s-.975-5.037-1.219-7.312c-.65-5.931-.569-9.831-2.519-15.762s-4.713-9.588-4.794-11.944,1.056-2.6,2.844-2.031c4.956,1.544,8.694,14.381,10.563,18.931Z" transform="translate(-2.76 -19.927)"/>
      <path id="Path_104274" data-name="Path 104274" d="M129.08,33.933c.731-.081.488-2.112.406-2.681-.081-1.869-.569-3.981-.812-5.85.731.162.812.975,1.056,1.625,1.787,5.606,2.438,15.356,3.575,21.613.244,1.544,1.625,3.981.488,5.2-2.681-.162-6.094-27.788-9.831-30.388s-17.875.325-22.831,1.462C85.449,28.489,70.092,35.476,54.411,38.32c-5.281.975-12.756,2.112-17.55-.487,17.794.244,34.613-6.5,51.513-11.05s26.65-7.881,34.938-5.119,4.875,8.45,5.769,12.269" transform="translate(-6.912 -3.874)"/>
      <path id="Path_104275" data-name="Path 104275" d="M36.361,43.473c.894-.894,3.9,4.388,4.225,4.956,4.306,8.044,7.556,20.15,9.506,29.088s1.056,3.169-.081,4.144c-.894,0-3.9-13.812-4.387-15.519-2.275-7.963-4.956-15.519-9.263-22.669" transform="translate(-6.818 -8.132)"/>
      <path id="Path_104276" data-name="Path 104276" d="M95.229,91.71c.9-2.3,8-17.483,9.6-17.583v.1c1.2,0,0,2.1,0,2.4-1,2.2-3.1,4.5-4.3,6.7s-3.8,8.8-4.4,9.1" transform="translate(-17.855 -13.899)"/>
      <path id="Path_104277" data-name="Path 104277" d="M85.842,143.659c-.244-1.463,1.219-2.113,2.275-2.763,4.713-2.844,16.25-6.744,21.613-7.231.731,0,1.056-.488,1.625.406-4.388,1.95-9.344,2.356-13.894,3.981a71.039,71.039,0,0,0-11.7,5.606Z" transform="translate(-16.08 -25.037)"/>
      <path id="Path_104278" data-name="Path 104278" d="M15.806,15.419c2.113,1.95,0,6.256-2.925,4.306s0-6.988,2.925-4.306" transform="translate(-2.188 -2.747)"/>
      <path id="Path_104279" data-name="Path 104279" d="M159.877,10.53c0,.406-.406,1.788-1.219,1.463-.65-1.625-1.381-10.156-.406-10.969a.937.937,0,0,1,1.625.65c0,2.681.325,6.5,0,8.938Z" transform="translate(-29.584 -0.133)"/>
      <path id="Path_104280" data-name="Path 104280" d="M1.837,71.585C5.168,71.016,5.575,75.647,3.3,76.3c-3.413.975-4.631-4.144-1.463-4.713" transform="translate(0 -13.413)"/>
      <path id="Path_104281" data-name="Path 104281" d="M116.455,139.327a74.9,74.9,0,0,0-19.094,5.688,28.407,28.407,0,0,1,9.75-4.631c3.331-.975,6.338-1.788,7.963-1.788s1.219,0,1.381.813Z" transform="translate(-18.256 -25.987)"/>
      <path id="Path_104282" data-name="Path 104282" d="M209.261,29.585c3.413-.569,3.575,4.144,0,3.575s-2.113-3.25,0-3.575" transform="translate(-38.83 -5.538)"/>
      <path id="Path_104283" data-name="Path 104283" d="M86.532,68.475c0,1.3-1.463,1.625-2.194,2.519a18.818,18.818,0,0,0-2.275,4.794l-1.219-.406c-.65-.731,3.413-7.881,5.688-6.906" transform="translate(-15.145 -12.822)"/>
      <path id="Path_104284" data-name="Path 104284" d="M120.609,90.725c-2.194,1.462-.406-2.6-.406-3.006a40.985,40.985,0,0,0,0-4.469c3.006-1.625.731,7.231.406,7.475" transform="translate(-22.41 -15.572)"/>
      <path id="Path_104285" data-name="Path 104285" d="M98.118,104.127c.163,1.463-.487,1.706-1.787,1.625s-6.988-1.3-5.525-2.844,5.931,2.194,7.313,1.219" transform="translate(-16.98 -19.224)"/>
      <path id="Path_104286" data-name="Path 104286" d="M199.548,45.15c-2.031,2.031-4.794-2.681-1.706-3.169s2.844,2.031,1.706,3.169" transform="translate(-36.836 -7.86)"/>
      <path id="Path_104287" data-name="Path 104287" d="M114.718,68.958c-1.544,0-2.275-1.381-3.819-2.113a8.233,8.233,0,0,0-2.519-.731c-.812-.244-.975,0-.569-1.056s.731-.406,1.138-.325c.975.163,7.15,2.762,5.769,4.144Z" transform="translate(-20.174 -12.086)"/>
      <path id="Path_104288" data-name="Path 104288" d="M79.986,81.5a13.317,13.317,0,0,0,.813,7.313l-1.056.406c-.812,0-1.95-6.5-1.056-7.475L79.9,81.5Z" transform="translate(-14.691 -15.28)"/>
      <path id="Path_104289" data-name="Path 104289" d="M113.842,100.09l.569-1.625L118.067,94c.569.487.65.487.406,1.219s-3.819,5.769-4.713,4.875Z" transform="translate(-21.33 -17.624)"/>
      <path id="Path_104290" data-name="Path 104290" d="M118.6,72c.731,1.706,1.95,3.331,2.275,5.281s-.65,2.031-1.381.162,0-1.056-.325-1.706c-.65-1.3-3.169-3.331-.487-3.738Z" transform="translate(-22.025 -13.499)"/>
      <path id="Path_104291" data-name="Path 104291" d="M134.955,25.971c.406,0,1.137.65,1.787.406v.406h-6.256c-.731,0-4.469,1.381-4.631,1.219-.325-1.056,2.519-2.031,3.006-2.031a50.822,50.822,0,0,1,6.094,0" transform="translate(-23.594 -4.849)"/>
      <path id="Path_104292" data-name="Path 104292" d="M95.455,63.5c.406,1.788-1.463,1.625-2.437,2.194s-2.681,2.519-3.656.813Z" transform="translate(-16.756 -11.905)"/>
      <path id="Path_104293" data-name="Path 104293" d="M109.455,103.621c-2.031.65-3.819,2.031-6.094,1.625v-1.219A8.161,8.161,0,0,0,108.886,102Z" transform="translate(-19.381 -19.124)"/>
      <path id="Path_104294" data-name="Path 104294" d="M7.267,133.512l.813.406.406-1.381-1.625.163.406-1.056c2.438-1.219,3.413,2.762,1.625,3.656s-1.788-.65-1.625-1.869Z" transform="translate(-1.287 -24.64)"/>
      <path id="Path_104295" data-name="Path 104295" d="M7.362,32.51c1.3-1.381,3.738,1.462,1.95,2.519s-3.088-1.381-1.95-2.519" transform="translate(-1.301 -6.026)"/>
      <path id="Path_104296" data-name="Path 104296" d="M105.142,63.4c-.325,2.438-3.494,0-5.281,1.219V63Z" transform="translate(-18.725 -11.812)"/>
      <path id="Path_104297" data-name="Path 104297" d="M82.08,93c-.406.975,3.169,4.063,1.381,4.469s-2.113-2.762-2.6-3.494L82,93Z" transform="translate(-15.162 -17.437)"/>
      <path id="Path_104298" data-name="Path 104298" d="M24.8,19.039A1.632,1.632,0,0,1,23.9,21.8a2.424,2.424,0,0,1-1.056-2.762,1.911,1.911,0,0,1,1.869,0Z" transform="translate(-4.273 -3.523)"/>
      <path id="Path_104299" data-name="Path 104299" d="M88.915,101.2v1.137c-.406.406-4.306-1.3-3.575-2.844Z" transform="translate(-15.984 -18.655)"/>
      <path id="Path_104300" data-name="Path 104300" d="M153.446,83.5l3.575,4.144c-.325,1.706-2.6,5.931-4.631,5.606s.731-8.369.975-9.75Z" transform="translate(-28.434 -15.655)" fill="#fff"/>
      <path id="Path_104301" data-name="Path 104301" d="M143.254,89.774c-.244.244-1.869-.731-2.031-1.138-.975-2.112-.488-8.125-.406-10.644a.952.952,0,0,1,1.138.65c.813,2.6-.569,8.288,1.3,11.131" transform="translate(-26.367 -14.621)" fill="#fff"/>
      <path id="Path_104302" data-name="Path 104302" d="M173.486,80.59c.081-2.437.244-4.306-1.625-6.094,2.438.487,3.738,4.469,1.625,6.094" transform="translate(-32.225 -13.968)" fill="#fff"/>
    </g>
  </g>
</svg>
