<svg width="14" height="14" viewBox="0 0 14 14" fill="none" xmlns="http://www.w3.org/2000/svg">
<path d="M9.30078 1.72754L9.33496 1.74023L9.36914 1.72656L12.9863 0.326172H12.9873C13.2152 0.235047 13.4186 0.260349 13.6104 0.401367C13.8052 0.544661 13.9004 0.732457 13.9004 0.972656V11.8613C13.9003 12.0089 13.8579 12.1366 13.7744 12.248C13.6905 12.3599 13.5748 12.4461 13.4238 12.5049L9.33301 13.8936L4.69922 12.2725L4.66504 12.2598L4.63086 12.2734L1.01367 13.6738H1.0127C0.784769 13.765 0.581432 13.7397 0.389648 13.5986C0.194813 13.4553 0.0996094 13.2675 0.0996094 13.0273V2.13867C0.0996506 1.99109 0.142083 1.86342 0.225586 1.75195C0.309492 1.64008 0.425202 1.55394 0.576172 1.49512L4.66602 0.105469L9.30078 1.72754ZM12.4082 2.00684L10.0752 2.90137L10.0107 2.92578V12.2334L10.1426 12.1895L12.4756 11.4111L12.5449 11.3887V1.9541L12.4082 2.00684ZM3.85742 1.81055L1.52441 2.58887L1.45508 2.61133V12.0459L1.5918 11.9932L3.9248 11.0986L3.98926 11.0742V1.7666L3.85742 1.81055ZM8.65527 2.92383L8.58887 2.90039L5.47754 1.81152L5.34473 1.76465V11.0762L5.41113 11.0996L8.52246 12.1885L8.65527 12.2354V2.92383Z" fill="white" stroke="#3484FA" stroke-width="0.2"/>
</svg>
