<?xml version="1.0" encoding="UTF-8"?>
<svg id="Layer_1" xmlns="http://www.w3.org/2000/svg" version="1.1" viewBox="0 0 368.71 41.82">
  <!-- Generator: Adobe Illustrator 30.1.0, SVG Export Plug-In . SVG Version: 2.1.1 Build 136)  -->
  <defs>
    <style>
      .st0 {
        isolation: isolate;
        opacity: .5;
      }
    </style>
  </defs>
  <g>
    <rect class="st0" x="45.13" y=".92" width="10.95" height="32.53" rx="5.07" ry="5.07" transform="translate(-2.65 12.75) rotate(-14)"/>
    <rect class="st0" x="24.24" y="5.01" width="12.08" height="32.53" rx="5.32" ry="5.32" transform="translate(-4.25 7.96) rotate(-14)"/>
    <path d="M30.74,5.34c-2.81-1.69-6.46-.78-8.15,2.03l-15.07,25.08c-1.69,2.81-.78,6.46,2.03,8.15,2.81,1.69,6.46.78,8.15-2.03l15.07-25.08c1.69-2.81.78-6.46-2.03-8.15h0ZM13.26,36.99c-1,.25-2.02-.36-2.27-1.36s.36-2.02,1.36-2.27,2.02.36,2.27,1.36-.36,2.02-1.36,2.27ZM27.65,13.03c-1,.25-2.02-.36-2.27-1.36s.36-2.02,1.36-2.27,2.02.36,2.27,1.36-.36,2.02-1.36,2.27Z"/>
    <path d="M51.05,2.09c-2.81-1.69-6.46-.78-8.15,2.03l-15.07,25.08c-1.69,2.81-.78,6.46,2.03,8.15,2.81,1.69,6.46.78,8.15-2.03l15.07-25.08c1.69-2.81.78-6.46-2.03-8.15ZM33.57,33.75c-1,.25-2.02-.36-2.27-1.36s.36-2.02,1.36-2.27,2.02.36,2.27,1.36-.36,2.02-1.36,2.27ZM47.97,9.79c-1,.25-2.02-.36-2.27-1.36s.36-2.02,1.36-2.27,2.02.36,2.27,1.36-.36,2.02-1.36,2.27Z"/>
  </g>
  <g>
    <path d="M80.81,12.7v3.28c1.41-2.35,3.67-3.52,6.76-3.52,1.65,0,3.13.37,4.42,1.12,1.29.75,2.3,1.81,3.02,3.2.83-1.31,1.9-2.35,3.22-3.14,1.32-.79,2.79-1.18,4.42-1.18,2.72,0,4.88.84,6.48,2.52,1.6,1.68,2.4,4.01,2.4,7v13.04h-6.8v-12.12c0-1.44-.38-2.55-1.14-3.34-.76-.79-1.81-1.18-3.14-1.18s-2.38.39-3.14,1.18c-.76.79-1.14,1.9-1.14,3.34v12.12h-6.8v-12.12c0-1.44-.38-2.55-1.14-3.34-.76-.79-1.81-1.18-3.14-1.18s-2.38.39-3.14,1.18c-.76.79-1.14,1.9-1.14,3.34v12.12h-6.84V12.7h6.84Z"/>
    <path d="M117.61,32.1c-1.97-2.13-2.96-4.87-2.96-8.2s.99-6.07,2.96-8.22c1.97-2.15,4.38-3.22,7.22-3.22s5.02,1.05,6.54,3.16v-2.92h6.84v22.32h-6.84v-3.24c-1.65,2.35-3.87,3.52-6.64,3.52s-5.15-1.07-7.12-3.2ZM129.89,27.94c.99-.96,1.48-2.32,1.48-4.08s-.49-3.11-1.48-4.06c-.99-.95-2.12-1.42-3.4-1.42s-2.41.48-3.4,1.44c-.99.96-1.48,2.32-1.48,4.08s.49,3.11,1.48,4.06c.99.95,2.12,1.42,3.4,1.42s2.41-.48,3.4-1.44Z"/>
    <path d="M144.63,32.18c-2.07-2.08-3.1-4.85-3.1-8.32s1.03-6.23,3.1-8.3,4.74-3.1,8.02-3.1c2.72,0,5.03.67,6.92,2.02,1.89,1.35,3.15,3.27,3.76,5.78h-7.4c-.64-1.33-1.69-2-3.14-2s-2.53.51-3.24,1.54c-.71,1.03-1.06,2.38-1.06,4.06s.35,3.03,1.06,4.06c.71,1.03,1.74,1.54,3.1,1.54.85,0,1.52-.15,2-.44.48-.29.91-.81,1.28-1.56h7.4c-.61,2.4-1.88,4.31-3.8,5.72-1.92,1.41-4.21,2.12-6.88,2.12-3.28,0-5.95-1.04-8.02-3.12Z"/>
    <path d="M172.97,5.42v10.56c1.41-2.35,3.67-3.52,6.76-3.52,2.56,0,4.63.85,6.22,2.56,1.59,1.71,2.38,4.03,2.38,6.96v13.04h-6.8v-12.12c0-1.44-.38-2.55-1.14-3.34-.76-.79-1.81-1.18-3.14-1.18s-2.38.39-3.14,1.18c-.76.79-1.14,1.9-1.14,3.34v12.12h-6.84V5.42h6.84Z"/>
    <path d="M199.33,10.18c-.77.77-1.72,1.16-2.84,1.16s-2.07-.39-2.84-1.16c-.77-.77-1.16-1.73-1.16-2.86s.39-2.09,1.16-2.86,1.72-1.16,2.84-1.16,2.07.39,2.84,1.16c.77.77,1.16,1.73,1.16,2.86s-.39,2.09-1.16,2.86ZM193.09,35.02V12.7h6.84v22.32h-6.84Z"/>
    <path d="M211.73,12.7v3.28c1.41-2.35,3.67-3.52,6.76-3.52,2.56,0,4.63.85,6.22,2.56,1.59,1.71,2.38,4.03,2.38,6.96v13.04h-6.8v-12.12c0-1.44-.38-2.55-1.14-3.34-.76-.79-1.81-1.18-3.14-1.18s-2.38.39-3.14,1.18c-.76.79-1.14,1.9-1.14,3.34v12.12h-6.84V12.7h6.84Z"/>
    <path d="M241.33,35.3c-3.25,0-5.92-1.05-8-3.14-2.08-2.09-3.12-4.87-3.12-8.34s1.03-6.23,3.1-8.28c2.07-2.05,4.74-3.08,8.02-3.08s6,1.01,8.16,3.04c2.16,2.03,3.24,4.84,3.24,8.44,0,.77-.05,1.49-.16,2.16h-15.36c.13.99.57,1.79,1.32,2.42.75.63,1.55.94,2.42.94s1.51-.09,1.94-.26c.43-.17.74-.35.94-.52.2-.17.46-.46.78-.86h7.4c-.64,2.24-1.92,4.05-3.84,5.42-1.92,1.37-4.2,2.06-6.84,2.06ZM244.25,19.28c-.8-.65-1.75-.98-2.84-.98s-2.01.33-2.76.98c-.75.65-1.21,1.5-1.4,2.54h8.36c-.11-1.04-.56-1.89-1.36-2.54Z"/>
    <path d="M268.37,32.1c-1.97-2.13-2.96-4.87-2.96-8.2s.99-6.07,2.96-8.22c1.97-2.15,4.38-3.22,7.22-3.22s5.02,1.05,6.54,3.16V5.42h6.84v29.6h-6.84v-3.24c-1.65,2.35-3.87,3.52-6.64,3.52s-5.15-1.07-7.12-3.2ZM280.65,27.94c.99-.96,1.48-2.32,1.48-4.08s-.49-3.11-1.48-4.06c-.99-.95-2.12-1.42-3.4-1.42s-2.41.48-3.4,1.44c-.99.96-1.48,2.32-1.48,4.08s.49,3.11,1.48,4.06c.99.95,2.12,1.42,3.4,1.42s2.41-.48,3.4-1.44Z"/>
    <path d="M295.25,32.1c-1.97-2.13-2.96-4.87-2.96-8.2s.99-6.07,2.96-8.22c1.97-2.15,4.38-3.22,7.22-3.22s5.02,1.05,6.54,3.16v-2.92h6.84v22.32h-6.84v-3.24c-1.65,2.35-3.87,3.52-6.64,3.52s-5.15-1.07-7.12-3.2ZM307.53,27.94c.99-.96,1.48-2.32,1.48-4.08s-.49-3.11-1.48-4.06c-.99-.95-2.12-1.42-3.4-1.42s-2.41.48-3.4,1.44c-.99.96-1.48,2.32-1.48,4.08s.49,3.11,1.48,4.06c.99.95,2.12,1.42,3.4,1.42s2.41-.48,3.4-1.44Z"/>
    <path d="M320.81,35.02V5.42h6.84v29.6h-6.84Z"/>
    <path d="M333.93,32.1c-1.97-2.13-2.96-4.87-2.96-8.2s.99-6.07,2.96-8.22c1.97-2.15,4.38-3.22,7.22-3.22s5.02,1.05,6.54,3.16v-2.92h6.84v22.32h-6.84v-3.24c-1.65,2.35-3.87,3.52-6.64,3.52s-5.15-1.07-7.12-3.2ZM346.21,27.94c.99-.96,1.48-2.32,1.48-4.08s-.49-3.11-1.48-4.06c-.99-.95-2.12-1.42-3.4-1.42s-2.41.48-3.4,1.44c-.99.96-1.48,2.32-1.48,4.08s.49,3.11,1.48,4.06c.99.95,2.12,1.42,3.4,1.42s2.41-.48,3.4-1.44Z"/>
    <path d="M359.49,35.02V5.42h6.84v29.6h-6.84Z"/>
  </g>
</svg>