<?xml version="1.0" encoding="UTF-8"?>
<svg id="Layer_1" xmlns="http://www.w3.org/2000/svg" version="1.1" viewBox="0 0 259.27 70.17">
  <!-- Generator: Adobe Illustrator 30.1.0, SVG Export Plug-In . SVG Version: 2.1.1 Build 136)  -->
  <defs>
    <style>
      .st0 {
        opacity: .5;
      }
    </style>
  </defs>
  <g>
    <rect class="st0" x="67.51" y=".63" width="18.48" height="54.89" rx="8.56" ry="8.56" transform="translate(-4.51 19.41) rotate(-14)"/>
    <rect class="st0" x="32.28" y="7.52" width="20.38" height="54.89" rx="8.98" ry="8.98" transform="translate(-7.2 11.31) rotate(-14)"/>
    <path d="M43.23,8.07c-4.74-2.85-10.9-1.31-13.75,3.43L4.05,53.83c-2.85,4.74-1.32,10.9,3.43,13.75,4.74,2.85,10.9,1.32,13.75-3.43l25.43-42.33c2.85-4.74,1.31-10.9-3.43-13.75ZM13.74,61.49c-1.69.42-3.4-.61-3.82-2.3s.61-3.4,2.3-3.82,3.4.61,3.82,2.3-.61,3.4-2.3,3.82ZM38.02,21.07c-1.69.42-3.4-.61-3.82-2.3s.61-3.4,2.3-3.82,3.4.61,3.82,2.3-.61,3.4-2.3,3.82Z"/>
    <path d="M77.51,2.59c-4.74-2.85-10.9-1.31-13.75,3.43l-25.43,42.33c-2.85,4.74-1.32,10.9,3.43,13.75,4.74,2.85,10.9,1.32,13.75-3.43l25.43-42.33c2.85-4.74,1.31-10.9-3.43-13.75ZM48.02,56.01c-1.69.42-3.4-.61-3.82-2.3s.61-3.4,2.3-3.82,3.4.61,3.82,2.3-.61,3.4-2.3,3.82ZM72.3,15.59c-1.69.42-3.4-.61-3.82-2.3s.61-3.4,2.3-3.82,3.4.61,3.82,2.3-.61,3.4-2.3,3.82Z"/>
  </g>
  <g>
    <path d="M115.61,14.33v2.62c1.13-1.88,2.93-2.82,5.41-2.82,1.32,0,2.5.3,3.54.9,1.03.6,1.84,1.45,2.42,2.56.66-1.04,1.52-1.88,2.58-2.51,1.06-.63,2.24-.94,3.54-.94,2.18,0,3.9.67,5.18,2.02,1.28,1.34,1.92,3.21,1.92,5.6v10.43h-5.44v-9.7c0-1.15-.3-2.04-.91-2.67-.61-.63-1.45-.94-2.51-.94s-1.9.31-2.51.94c-.61.63-.91,1.52-.91,2.67v9.7h-5.44v-9.7c0-1.15-.3-2.04-.91-2.67-.61-.63-1.45-.94-2.51-.94s-1.9.31-2.51.94c-.61.63-.91,1.52-.91,2.67v9.7h-5.47V14.33h5.47Z"/>
    <path d="M145.89,29.85c-1.58-1.71-2.37-3.89-2.37-6.56s.79-4.86,2.37-6.58c1.58-1.72,3.5-2.58,5.78-2.58s4.02.84,5.23,2.53v-2.34h5.47v17.86h-5.47v-2.59c-1.32,1.88-3.09,2.82-5.31,2.82s-4.12-.85-5.7-2.56ZM155.71,26.52c.79-.77,1.18-1.86,1.18-3.26s-.39-2.49-1.18-3.25c-.79-.76-1.7-1.14-2.72-1.14s-1.93.38-2.72,1.15c-.79.77-1.18,1.86-1.18,3.26s.39,2.49,1.18,3.25c.79.76,1.7,1.14,2.72,1.14s1.93-.38,2.72-1.15Z"/>
    <path d="M168.34,29.91c-1.65-1.66-2.48-3.88-2.48-6.66s.83-4.99,2.48-6.64,3.79-2.48,6.42-2.48c2.18,0,4.02.54,5.54,1.62s2.52,2.62,3.01,4.62h-5.92c-.51-1.07-1.35-1.6-2.51-1.6s-2.03.41-2.59,1.23-.85,1.9-.85,3.25.28,2.43.85,3.25,1.39,1.23,2.48,1.23c.68,0,1.22-.12,1.6-.35s.72-.65,1.02-1.25h5.92c-.49,1.92-1.5,3.45-3.04,4.58s-3.37,1.7-5.5,1.7c-2.62,0-4.76-.83-6.42-2.5Z"/>
    <path d="M191.84,8.5v8.45c1.13-1.88,2.93-2.82,5.41-2.82,2.05,0,3.71.68,4.98,2.05s1.9,3.22,1.9,5.57v10.43h-5.44v-9.7c0-1.15-.3-2.04-.91-2.67-.61-.63-1.45-.94-2.51-.94s-1.9.31-2.51.94c-.61.63-.91,1.52-.91,2.67v9.7h-5.47V8.5h5.47Z"/>
    <path d="M213.76,12.31c-.62.62-1.38.93-2.27.93s-1.65-.31-2.27-.93c-.62-.62-.93-1.38-.93-2.29s.31-1.67.93-2.29c.62-.62,1.38-.93,2.27-.93s1.65.31,2.27.93.93,1.38.93,2.29-.31,1.67-.93,2.29ZM208.77,32.18V14.33h5.47v17.86h-5.47Z"/>
    <path d="M224.51,14.33v2.62c1.13-1.88,2.93-2.82,5.41-2.82,2.05,0,3.71.68,4.98,2.05s1.9,3.22,1.9,5.57v10.43h-5.44v-9.7c0-1.15-.3-2.04-.91-2.67-.61-.63-1.45-.94-2.51-.94s-1.9.31-2.51.94c-.61.63-.91,1.52-.91,2.67v9.7h-5.47V14.33h5.47Z"/>
    <path d="M249.02,32.41c-2.6,0-4.74-.84-6.4-2.51s-2.5-3.9-2.5-6.67.83-4.98,2.48-6.62c1.65-1.64,3.79-2.46,6.42-2.46s4.8.81,6.53,2.43c1.73,1.62,2.59,3.87,2.59,6.75,0,.62-.04,1.2-.13,1.73h-12.29c.11.79.46,1.43,1.06,1.94.6.5,1.24.75,1.94.75s1.21-.07,1.55-.21c.34-.14.59-.28.75-.42.16-.14.37-.37.62-.69h5.92c-.51,1.79-1.54,3.24-3.07,4.34s-3.36,1.65-5.47,1.65ZM251.36,19.59c-.64-.52-1.4-.78-2.27-.78s-1.61.26-2.21.78c-.6.52-.97,1.2-1.12,2.03h6.69c-.09-.83-.45-1.51-1.09-2.03Z"/>
    <path d="M111.2,60.85c-1.58-1.71-2.37-3.89-2.37-6.56s.79-4.86,2.37-6.58c1.58-1.72,3.5-2.58,5.78-2.58s4.02.84,5.23,2.53v-8.16h5.47v23.68h-5.47v-2.59c-1.32,1.88-3.09,2.82-5.31,2.82s-4.12-.85-5.7-2.56ZM121.02,57.52c.79-.77,1.18-1.86,1.18-3.26s-.39-2.49-1.18-3.25c-.79-.76-1.7-1.14-2.72-1.14s-1.93.38-2.72,1.15c-.79.77-1.18,1.86-1.18,3.26s.39,2.49,1.18,3.25c.79.76,1.7,1.14,2.72,1.14s1.93-.38,2.72-1.15Z"/>
    <path d="M133.53,60.85c-1.58-1.71-2.37-3.89-2.37-6.56s.79-4.86,2.37-6.58c1.58-1.72,3.5-2.58,5.78-2.58s4.02.84,5.23,2.53v-2.34h5.47v17.86h-5.47v-2.59c-1.32,1.88-3.09,2.82-5.31,2.82s-4.12-.85-5.7-2.56ZM143.36,57.52c.79-.77,1.18-1.86,1.18-3.26s-.39-2.49-1.18-3.25c-.79-.76-1.7-1.14-2.72-1.14s-1.93.38-2.72,1.15c-.79.77-1.18,1.86-1.18,3.26s.39,2.49,1.18,3.25c.79.76,1.7,1.14,2.72,1.14s1.93-.38,2.72-1.15Z"/>
    <path d="M154.81,63.18v-23.68h5.47v23.68h-5.47Z"/>
    <path d="M166.14,60.85c-1.58-1.71-2.37-3.89-2.37-6.56s.79-4.86,2.37-6.58c1.58-1.72,3.5-2.58,5.78-2.58s4.02.84,5.23,2.53v-2.34h5.47v17.86h-5.47v-2.59c-1.32,1.88-3.09,2.82-5.31,2.82s-4.12-.85-5.7-2.56ZM175.97,57.52c.79-.77,1.18-1.86,1.18-3.26s-.39-2.49-1.18-3.25c-.79-.76-1.7-1.14-2.72-1.14s-1.93.38-2.72,1.15c-.79.77-1.18,1.86-1.18,3.26s.39,2.49,1.18,3.25c.79.76,1.7,1.14,2.72,1.14s1.93-.38,2.72-1.15Z"/>
    <path d="M187.42,63.18v-23.68h5.47v23.68h-5.47Z"/>
  </g>
</svg>