<?xml version="1.0" encoding="UTF-8"?>
<svg id="Layer_1" xmlns="http://www.w3.org/2000/svg" version="1.1" viewBox="0 0 89.68 70.17">
  <!-- Generator: Adobe Illustrator 30.1.0, SVG Export Plug-In . SVG Version: 2.1.1 Build 136)  -->
  <defs>
    <style>
      .st0 {
        opacity: .5;
      }
    </style>
  </defs>
  <rect class="st0" x="65.96" y=".63" width="18.48" height="54.89" rx="8.56" ry="8.56" transform="translate(-4.56 19.03) rotate(-14)"/>
  <rect class="st0" x="30.72" y="7.52" width="20.38" height="54.89" rx="8.98" ry="8.98" transform="translate(-7.25 10.94) rotate(-14)"/>
  <path d="M41.68,8.07c-4.74-2.85-10.9-1.31-13.75,3.43L2.5,53.83c-2.85,4.74-1.32,10.9,3.43,13.75,4.74,2.85,10.9,1.32,13.75-3.43l25.43-42.33c2.85-4.74,1.31-10.9-3.43-13.75ZM12.19,61.49c-1.69.42-3.4-.61-3.82-2.3s.61-3.4,2.3-3.82,3.4.61,3.82,2.3-.61,3.4-2.3,3.82ZM36.47,21.07c-1.69.42-3.4-.61-3.82-2.3s.61-3.4,2.3-3.82,3.4.61,3.82,2.3-.61,3.4-2.3,3.82Z"/>
  <path d="M75.96,2.59c-4.74-2.85-10.9-1.31-13.75,3.43l-25.43,42.33c-2.85,4.74-1.32,10.9,3.43,13.75,4.74,2.85,10.9,1.32,13.75-3.43l25.43-42.33c2.85-4.74,1.31-10.9-3.43-13.75ZM46.46,56.01c-1.69.42-3.4-.61-3.82-2.3s.61-3.4,2.3-3.82,3.4.61,3.82,2.3-.61,3.4-2.3,3.82ZM70.75,15.59c-1.69.42-3.4-.61-3.82-2.3s.61-3.4,2.3-3.82,3.4.61,3.82,2.3-.61,3.4-2.3,3.82Z"/>
</svg>