<svg width="14" height="13" viewBox="0 0 14 13" fill="none" xmlns="http://www.w3.org/2000/svg">
<path d="M4.69875 5.66312C4.83292 5.53854 4.9 5.38417 4.9 5.2C4.9 5.01583 4.83292 4.86146 4.69875 4.73688C4.56458 4.61229 4.39833 4.55 4.2 4.55C4.00167 4.55 3.83542 4.61229 3.70125 4.73688C3.56708 4.86146 3.5 5.01583 3.5 5.2C3.5 5.38417 3.56708 5.53854 3.70125 5.66312C3.83542 5.78771 4.00167 5.85 4.2 5.85C4.39833 5.85 4.56458 5.78771 4.69875 5.66312ZM7.49875 5.66312C7.63292 5.53854 7.7 5.38417 7.7 5.2C7.7 5.01583 7.63292 4.86146 7.49875 4.73688C7.36458 4.61229 7.19833 4.55 7 4.55C6.80167 4.55 6.63542 4.61229 6.50125 4.73688C6.36708 4.86146 6.3 5.01583 6.3 5.2C6.3 5.38417 6.36708 5.53854 6.50125 5.66312C6.63542 5.78771 6.80167 5.85 7 5.85C7.19833 5.85 7.36458 5.78771 7.49875 5.66312ZM10.2987 5.66312C10.4329 5.53854 10.5 5.38417 10.5 5.2C10.5 5.01583 10.4329 4.86146 10.2987 4.73688C10.1646 4.61229 9.99833 4.55 9.8 4.55C9.60167 4.55 9.43542 4.61229 9.30125 4.73688C9.16708 4.86146 9.1 5.01583 9.1 5.2C9.1 5.38417 9.16708 5.53854 9.30125 5.66312C9.43542 5.78771 9.60167 5.85 9.8 5.85C9.99833 5.85 10.1646 5.78771 10.2987 5.66312ZM0 13V1.3C0 0.9425 0.137083 0.636458 0.41125 0.381875C0.685417 0.127292 1.015 0 1.4 0H12.6C12.985 0 13.3146 0.127292 13.5887 0.381875C13.8629 0.636458 14 0.9425 14 1.3V9.1C14 9.4575 13.8629 9.76354 13.5887 10.0181C13.3146 10.2727 12.985 10.4 12.6 10.4H2.8L0 13ZM2.205 9.1H12.6V1.3H1.4V9.83125L2.205 9.1Z" fill="#323232"/>
</svg>
