<svg xmlns="http://www.w3.org/2000/svg" width="15.825" height="18.673" viewBox="0 0 15.825 18.673">
  <path id="without-circle" d="M14.33,11.166a2.077,2.077,0,0,1-.689-1.221l-.015-.091L13.59,9.77a3.969,3.969,0,0,1-1.7-.019l.061.138.056.335a3.782,3.782,0,0,0,1.242,2.2l.233.2a.858.858,0,0,1,.278.759.818.818,0,0,1-.818.737H2.475a.817.817,0,0,1-.812-.716.961.961,0,0,1,0-.1.833.833,0,0,1,.262-.61l.326-.283a3.749,3.749,0,0,0,1.194-2.159l.639-3.844A3.682,3.682,0,0,1,7.723,3.322,3.73,3.73,0,0,1,9.19,3.63l.048.109a4.093,4.093,0,0,1,1.169-1.3l-.026-.06a5.318,5.318,0,0,0-1.828-.651V.83a.83.83,0,1,0-1.661,0v.9a5.329,5.329,0,0,0-4.448,4.4L1.805,9.979a2.069,2.069,0,0,1-.655,1.187l-.328.286A2.5,2.5,0,0,0,0,13.3a2.565,2.565,0,0,0,.014.3,2.479,2.479,0,0,0,2.461,2.176H4.859a2.892,2.892,0,0,0,5.728,0h2.351a2.471,2.471,0,0,0,2.471-2.236c0-.017,0-.052,0-.084a2.469,2.469,0,0,0-.855-2.1ZM7.723,16.609a1.243,1.243,0,0,1-1.169-.83H8.892a1.243,1.243,0,0,1-1.169.83" transform="translate(0.2 0.2)" fill="#fff" stroke="#111517" stroke-width="0.4"/>
</svg>
