<svg xmlns="http://www.w3.org/2000/svg" width="24" height="28.261" viewBox="0 0 24 28.261">
  <g id="Group_42644" data-name="Group 42644" transform="translate(-1895 -55)">
    <path id="notifications_unread_24dp_1F1F1F_FILL0_wght400_GRAD0_opsz24" d="M170.9-852.739a2.625,2.625,0,0,1-1.925-.8,2.625,2.625,0,0,1-.8-1.925h5.452a2.625,2.625,0,0,1-.8,1.925A2.625,2.625,0,0,1,170.9-852.739ZM170.9-867.051ZM160-856.828v-2.726h2.726V-869.1a7.982,7.982,0,0,1,1.7-5.026A7.862,7.862,0,0,1,168.86-877v-.954a1.972,1.972,0,0,1,.6-1.448,1.972,1.972,0,0,1,1.448-.6,1.972,1.972,0,0,1,1.448.6,1.972,1.972,0,0,1,.6,1.448v.443a6.513,6.513,0,0,0-.545,1.533,6.278,6.278,0,0,0-.136,1.6q-.341-.068-.664-.119a4.5,4.5,0,0,0-.7-.051,5.25,5.25,0,0,0-3.851,1.6,5.25,5.25,0,0,0-1.6,3.851v9.541h10.9v-8.757a6.834,6.834,0,0,0,1.312.426,6.576,6.576,0,0,0,1.414.153v8.178h2.726v2.726Z" transform="translate(1735.5 935.5)" fill="#fff" stroke="#1c1e1f" stroke-width="1"/>
    <circle id="Ellipse_738" data-name="Ellipse 738" cx="4" cy="4" r="4" transform="translate(1911 57)" fill="#ff4545"/>
  </g>
</svg>
