<svg width="11" height="14" viewBox="0 0 11 14" fill="none" xmlns="http://www.w3.org/2000/svg">
<path d="M0 11.9V10.5H1.375V5.6C1.375 4.63167 1.66146 3.77125 2.23438 3.01875C2.80729 2.26625 3.55208 1.77333 4.46875 1.54V1.05C4.46875 0.758333 4.56901 0.510417 4.76953 0.30625C4.97005 0.102083 5.21354 0 5.5 0C5.78646 0 6.02995 0.102083 6.23047 0.30625C6.43099 0.510417 6.53125 0.758333 6.53125 1.05V1.54C7.44792 1.77333 8.19271 2.26625 8.76562 3.01875C9.33854 3.77125 9.625 4.63167 9.625 5.6V10.5H11V11.9H0ZM5.5 14C5.12188 14 4.79818 13.8629 4.52891 13.5887C4.25964 13.3146 4.125 12.985 4.125 12.6H6.875C6.875 12.985 6.74036 13.3146 6.47109 13.5887C6.20182 13.8629 5.87813 14 5.5 14ZM2.75 10.5H8.25V5.6C8.25 4.83 7.98073 4.17083 7.44219 3.6225C6.90365 3.07417 6.25625 2.8 5.5 2.8C4.74375 2.8 4.09635 3.07417 3.55781 3.6225C3.01927 4.17083 2.75 4.83 2.75 5.6V10.5Z" fill="#323232"/>
</svg>
