<svg xmlns="http://www.w3.org/2000/svg" width="17.809" height="18.774" viewBox="0 0 17.809 18.774">
  <g id="Notification" transform="translate(-1739.191 -58.25)">
    <path id="Path_104477" data-name="Path 104477" d="M12.706,1.661a4.128,4.128,0,0,0-2.325.714,5.318,5.318,0,0,0-1.828-.651V.83a.83.83,0,0,0-1.661,0v.9a5.329,5.329,0,0,0-4.448,4.4L1.805,9.979a2.069,2.069,0,0,1-.655,1.187l-.329.286A2.506,2.506,0,0,0,0,13.3a2.565,2.565,0,0,0,.014.3,2.479,2.479,0,0,0,2.461,2.176H4.859a2.892,2.892,0,0,0,5.729,0h2.351a2.471,2.471,0,0,0,2.471-2.236c0-.017,0-.052,0-.084a2.469,2.469,0,0,0-.855-2.1l-.228-.194a2.077,2.077,0,0,1-.689-1.221l-.015-.091a4.148,4.148,0,0,0-.92-8.194M7.723,16.61a1.243,1.243,0,0,1-1.169-.83H8.893a1.243,1.243,0,0,1-1.169.83m6.033-3.228a.818.818,0,0,1-.818.737H2.475a.817.817,0,0,1-.812-.716.961.961,0,0,1,0-.1.833.833,0,0,1,.262-.61l.326-.283a3.749,3.749,0,0,0,1.194-2.159l.639-3.844A3.682,3.682,0,0,1,7.723,3.322,3.73,3.73,0,0,1,9.19,3.63a4.124,4.124,0,0,0,2.758,6.259l.056.335a3.782,3.782,0,0,0,1.242,2.2l.233.2a.858.858,0,0,1,.278.759M12.706,8.3A2.491,2.491,0,1,1,15.2,5.813,2.491,2.491,0,0,1,12.706,8.3" transform="translate(1739.441 58.5)" fill="#fff" stroke="#111517" stroke-width="0.5"/>
    <g id="Ellipse_739" data-name="Ellipse 739" transform="translate(1748 60)" fill="red" stroke="#fff" stroke-width="1">
      <circle cx="4.5" cy="4.5" r="4.5" stroke="none"/>
      <circle cx="4.5" cy="4.5" r="4" fill="none"/>
    </g>
  </g>
</svg>
