<svg xmlns="http://www.w3.org/2000/svg" width="64.916" height="23.693" viewBox="0 0 64.916 23.693">
  <g id="Group_40843" data-name="Group 40843" transform="translate(-1039.013 -948)">
    <path id="Path_100037" data-name="Path 100037" d="M-678.508-17.829a.25.25,0,0,0-.246.211l-1.421,9.011a.231.231,0,0,0,.052.186.231.231,0,0,0,.175.081h1.685a.25.25,0,0,0,.246-.21l.417-2.646a.25.25,0,0,1,.246-.21h1.532a3.633,3.633,0,0,0,3.587-3.076,2.948,2.948,0,0,0-3.09-3.345Zm1.638,2.012h1.226c1.009,0,1.337.6,1.234,1.254A1.408,1.408,0,0,1-676-13.418h-1.248Zm8.064.613a3.832,3.832,0,0,0-1.465.318,3.826,3.826,0,0,0-2.123,2.4s-.818,2.416,1.031,3.743a3.157,3.157,0,0,0,3.645-.079l-.033.212a.23.23,0,0,0,.052.186.231.231,0,0,0,.175.081h1.6a.249.249,0,0,0,.246-.211l.973-6.171a.231.231,0,0,0-.052-.186.231.231,0,0,0-.175-.081h-1.6a.249.249,0,0,0-.246.21l-.052.332h0a2.778,2.778,0,0,0-1.975-.758Zm.052,1.949a1.632,1.632,0,0,1,.5.074,1.415,1.415,0,0,1,.968,1.6,1.792,1.792,0,0,1-1.8,1.537,1.639,1.639,0,0,1-.5-.074,1.416,1.416,0,0,1-.97-1.6A1.8,1.8,0,0,1-668.754-13.256Z" transform="translate(1741.864 971.99)" fill="#003087"/>
    <path id="Path_100038" data-name="Path 100038" d="M-567-17.829a.249.249,0,0,0-.246.211l-1.421,9.011a.231.231,0,0,0,.052.186.231.231,0,0,0,.175.081h1.685a.249.249,0,0,0,.246-.21l.417-2.646a.25.25,0,0,1,.246-.21h1.532a3.633,3.633,0,0,0,3.587-3.076,2.948,2.948,0,0,0-3.091-3.345Zm1.638,2.012h1.226c1.009,0,1.338.6,1.234,1.254a1.408,1.408,0,0,1-1.591,1.146h-1.248Zm8.064.613a3.833,3.833,0,0,0-1.465.318,3.827,3.827,0,0,0-2.124,2.4s-.818,2.416,1.031,3.743a3.157,3.157,0,0,0,3.645-.079l-.033.212a.231.231,0,0,0,.052.186.231.231,0,0,0,.175.081h1.6a.25.25,0,0,0,.246-.211l.973-6.171a.231.231,0,0,0-.053-.186.231.231,0,0,0-.175-.081h-1.6a.25.25,0,0,0-.246.21l-.052.332A2.778,2.778,0,0,0-557.294-15.2Zm.052,1.949a1.634,1.634,0,0,1,.5.074,1.415,1.415,0,0,1,.968,1.6,1.792,1.792,0,0,1-1.8,1.537,1.637,1.637,0,0,1-.5-.074,1.416,1.416,0,0,1-.97-1.6,1.794,1.794,0,0,1,1.8-1.537Z" transform="translate(1653.388 971.99)" fill="#0070e0"/>
    <path id="Path_100039" data-name="Path 100039" d="M-602.321-4.083a.187.187,0,0,0-.151.077.187.187,0,0,0-.027.167l1.753,5.442-1.586,2.565a.187.187,0,0,0,.159.285h1.874a.312.312,0,0,0,.267-.15l4.9-8.1a.187.187,0,0,0-.16-.284h-1.874a.312.312,0,0,0-.268.153l-1.928,3.255-.979-3.231a.249.249,0,0,0-.239-.177Z" transform="translate(1680.239 961.083)" fill="#003087"/>
    <path id="Path_100040" data-name="Path 100040" d="M-491.378-17.829a.249.249,0,0,0-.246.211l-1.421,9.011a.231.231,0,0,0,.053.186.231.231,0,0,0,.175.081h1.685a.249.249,0,0,0,.246-.21l1.421-9.011a.231.231,0,0,0-.053-.186.231.231,0,0,0-.176-.081Z" transform="translate(1593.39 971.99)" fill="#0070e0"/>
    <path id="Path_100041" data-name="Path 100041" d="M-596.578-130.317a.682.682,0,0,0-.674.576l-1.121,7.108-1.03,6.531v0l1.03-6.531a.682.682,0,0,1,.674-.576h3.284a6.707,6.707,0,0,0,6.622-5.678,5.416,5.416,0,0,0,.065-.737h0a6.228,6.228,0,0,0-2.907-.692Z" transform="translate(1643.119 1083.056)" fill="#001c64"/>
    <path id="Path_100042" data-name="Path 100042" d="M-590.233-126.966a5.424,5.424,0,0,1-.065.737,6.708,6.708,0,0,1-6.622,5.678H-600.2a.682.682,0,0,0-.674.576l-1.03,6.531-.646,4.1a.555.555,0,0,0,.126.447.555.555,0,0,0,.422.194h3.564a.683.683,0,0,0,.674-.576l.939-5.955a.683.683,0,0,1,.674-.577h2.1a6.707,6.707,0,0,0,6.622-5.678A5.205,5.205,0,0,0-590.233-126.966Z" transform="translate(1645.623 1080.397)" fill="#0070e0"/>
    <path id="Path_100043" data-name="Path 100043" d="M-618.687-153.257a.683.683,0,0,0-.674.577l-2.8,17.736a.555.555,0,0,0,.126.447.555.555,0,0,0,.422.194h4.148l1.03-6.531,1.121-7.108a.683.683,0,0,1,.674-.576h5.943a6.236,6.236,0,0,1,2.907.692,5.475,5.475,0,0,0-5.772-5.431Z" transform="translate(1661.178 1101.257)" fill="#003087"/>
  </g>
</svg>
