<svg id="Group_40466" data-name="Group 40466" xmlns="http://www.w3.org/2000/svg" width="39.941" height="103.666" viewBox="0 0 39.941 103.666">
  <g id="Group_40414" data-name="Group 40414" transform="translate(16.088 27.15)">
    <path id="Path_99637" data-name="Path 99637" d="M115.788,191.934c.423-.526.915-1.141,1.387-1.736.1.932.189,1.867.283,2.8a2.817,2.817,0,0,1-.014.955,2.688,2.688,0,0,1-.389.792,18.881,18.881,0,0,1-1.8,2.348q-.965-.935-1.853-1.945c1.112-1.5,2.053-2.794,2.268-3.06C115.705,192.037,115.748,191.988,115.788,191.934Z" transform="translate(-113.152 -174.272)" fill="#3ebaea"/>
    <path id="Path_99638" data-name="Path 99638" d="M118.549,137.334a1.97,1.97,0,0,1-.706.435q.352,1.917.632,3.846l.006.049a3.036,3.036,0,0,0-1.413.618l-.506-.423s.255-2.777.332-4.172a2.46,2.46,0,0,1-.366-.214,4.967,4.967,0,0,1-1.021-1.072,17.72,17.72,0,0,0,1.816-1.89h.006c.532.5,1.164,1.473,1.916,2.142C119.244,136.65,118.844,137.068,118.549,137.334Z" transform="translate(-115.506 -134.508)" fill="#3ebaea"/>
    <path id="Path_99639" data-name="Path 99639" d="M46.848,183.348q1.407-4.474,2.946-8.94c.186-.543.374-1.084.563-1.627q.764-2.2,1.553-4.418a.488.488,0,0,1,.48-.326c.423.017.849.04,1.281.069.134.009.266.017.4.029.535.034,1.075.077,1.619.129.312.026.623.057.935.092.192.017.386.037.581.06.343.034.689.074,1.035.114.306.034.612.072.918.109q.819.1,1.633.214c.309.04.615.083.921.126.552.077,1.1.157,1.633.235l.623.094a.42.42,0,0,1,.329.575c-.369.915-1.21,3.008-2.2,5.488-.14.349-.283.709-.429,1.072a2.585,2.585,0,0,0-.932-.48,1.769,1.769,0,0,0-1.292.1,2.509,2.509,0,0,0-.775.758l-.066.092a7.591,7.591,0,0,0-.932,1.624,4.745,4.745,0,0,0-.243.764,3.376,3.376,0,0,0,.426,2.677c.134.192.815,1,1.09,1.324-.169.435-.335.855-.492,1.255-.172.438-.335.855-.486,1.244a.321.321,0,0,1-.309.2c-.786-.02-1.556-.054-2.316-.1-2.376-.14-4.67-.392-7.126-.649l-1.5-.154a.327.327,0,0,1-.294-.323.363.363,0,0,1,.014-.094C46.568,184.238,46.708,183.794,46.848,183.348Z" transform="translate(-40.834 -158.449)" fill="#3ebaea"/>
  </g>
  <g id="Group_40415" data-name="Group 40415" transform="translate(0 0)">
    <path id="Path_99640" data-name="Path 99640" d="M109.43,88.282a.358.358,0,0,1,.3.406l-.074.528a.358.358,0,0,1-.353.306.339.339,0,0,1-.052,0,.357.357,0,0,1-.3-.405l.075-.53a.358.358,0,0,1,.406-.3Z" transform="translate(-88.034 -75.062)" fill="#1f2526"/>
    <path id="Path_99641" data-name="Path 99641" d="M104.328,105.148l.764.392a.358.358,0,1,1-.329.635l-.763-.392a.357.357,0,0,1,.328-.635Z" transform="translate(-82.113 -87.079)" fill="#1f2526"/>
    <path id="Path_99642" data-name="Path 99642" d="M107.877,77.03c-.515.071-1.031.143-1.546.212a.369.369,0,0,1-.048,0,.357.357,0,0,1-.047-.712q.771-.1,1.542-.211a.358.358,0,0,1,.1.708Z" transform="translate(-85.62 -66.522)" fill="#1f2526"/>
    <path id="Path_99643" data-name="Path 99643" d="M140.652,87.136a.357.357,0,0,1-.351-.426,10.4,10.4,0,0,0-.022-4.091.357.357,0,0,1,.7-.146A11.127,11.127,0,0,1,141,86.847.358.358,0,0,1,140.652,87.136Z" transform="translate(-128.464 -70.714)" fill="#1f2526"/>
    <path id="Path_99644" data-name="Path 99644" d="M137.144,167.258a28.267,28.267,0,0,1,3.1.168.357.357,0,0,1-.039.713l-.04,0a26.556,26.556,0,0,0-2.949-.164.313.313,0,0,1-.074,0,.357.357,0,0,1,0-.715Z" transform="translate(-126.824 -130.746)" fill="#1f2526"/>
    <path id="Path_99645" data-name="Path 99645" d="M88.932,78.476a.358.358,0,0,1,.5-.062c.353.275.7.55,1.052.828a.358.358,0,0,1-.445.56q-.522-.415-1.047-.825A.357.357,0,0,1,88.932,78.476Z" transform="translate(-63.173 -67.965)" fill="#1f2526"/>
    <path id="Path_99646" data-name="Path 99646" d="M98.4,90.078a.358.358,0,0,1,.252-.669l.759.285.493-3.754a.357.357,0,1,1,.709.093l-.552,4.2a.358.358,0,0,1-.48.288Z" transform="translate(-75.829 -73.17)" fill="#1f2526"/>
    <path id="Path_99647" data-name="Path 99647" d="M45.781,74.866a9.853,9.853,0,0,1,7.091-6.057,14.068,14.068,0,0,1,2.573-.315l.956-6.819a19.124,19.124,0,0,1-2.047-4.086,7.9,7.9,0,0,1-.569-3.4A3.738,3.738,0,0,1,55.613,51.2a2.528,2.528,0,0,1,1.305-.294,37.43,37.43,0,0,1,1.363-6.385,5.2,5.2,0,0,1,.387-.947c-.1,0-.191,0-.285-.011a.365.365,0,0,1,.053-.727q.139.01.28.017l-.051-.092a.368.368,0,0,1,.135-.5.354.354,0,0,1,.487.137c.059.107.12.213.18.319a3.99,3.99,0,0,1,1.489-.485,24.639,24.639,0,0,1,7.942.426,4.04,4.04,0,0,1,2.674,1.216.368.368,0,0,1,.068.139,5.73,5.73,0,0,1,3.9,3.012,1.366,1.366,0,0,1-.2,1.792,1.165,1.165,0,0,1-.684.154A150.774,150.774,0,0,1,72.561,64.01a4.491,4.491,0,0,1-1.275,2.733,3.026,3.026,0,0,1-1.695.633c-.135.592-.282,1.137-.44,1.625a16.376,16.376,0,0,1,4.123,1.132,6.81,6.81,0,0,1,3.478,2.877A16.7,16.7,0,0,1,77.877,77.9a1.224,1.224,0,0,1,1.013.725,1.515,1.515,0,0,1,.1.344l.27.033a1.145,1.145,0,0,1,.879-.937,1.208,1.208,0,0,1,1.306.712,1.736,1.736,0,0,1,.12.531l.252.035a1.144,1.144,0,0,1,.873-.9,1.2,1.2,0,0,1,1.3.706,1.677,1.677,0,0,1,.125.536l.33.05a.777.777,0,0,1,.563.39.806.806,0,0,1,.045.693c-.338.855-1.073,2.721-1.955,4.974a1.377,1.377,0,0,1,.3.053,1.085,1.085,0,0,1,.7.608,2.514,2.514,0,0,1-.611,2.376q.041.122.075.253a5.7,5.7,0,0,1-.092,2.865c-.05.191-.1.374-.161.542a6.991,6.991,0,0,1-.863,1.786s0,.006,0,.008a5.022,5.022,0,0,1-.584.706,3.973,3.973,0,0,1-2.626,1.047c-.04,0-.077-.007-.117-.008l-.39,1.018a.682.682,0,0,1-.637.44h-.014c-.654-.017-1.305-.046-1.972-.084-.756,12.943-2.976,42.562-3,42.862a.36.36,0,0,1-.349.337l-.752.014c0,.406,0,1.125.024,1.986a1.289,1.289,0,0,0,.041.39A19.234,19.234,0,0,0,74.049,145h4.235a.365.365,0,0,1,0,.729H50.419a.365.365,0,0,1,0-.729h4.33c.217-.22.521-.5.822-.771.28-.255.654-.594.774-.732.018-.309-.022-1.52-.078-2.7l-.638,0a.36.36,0,0,1-.356-.335c-.551-6.871-1.111-14.177-1.652-21.243-.518-6.765-1.054-13.754-1.581-20.347a5.387,5.387,0,0,1-4.847-4.242A62.716,62.716,0,0,1,45.169,79.92,14.854,14.854,0,0,1,45.781,74.866Zm23.506-8.2a2.52,2.52,0,0,0,1.549-.491,3.919,3.919,0,0,0,1.024-2.312,150.373,150.373,0,0,0,2.086-15.015,2.9,2.9,0,0,1-.871-.468.925.925,0,0,1-.478.379c-.609.236-2.177-.57-3.314-1.357a.773.773,0,0,1-.023.092.636.636,0,0,1-.442.429c-1.142.328-3.809-.864-5.107-1.772A3.687,3.687,0,0,1,62.6,47.735a2.49,2.49,0,0,1-1.289.622c-.071.528-.129,1.047-.186,1.551a28.36,28.36,0,0,1-.581,3.691c-.161.644-.538.991-.987.906s-.6-.55-.666-.747c-.185-.538-.722-1.809-1.742-2.079l-.034-.009a.886.886,0,0,0-.1-.02,1.769,1.769,0,0,0-1.078.2A3.008,3.008,0,0,0,54.5,54.267a7.224,7.224,0,0,0,.529,3.072,18.387,18.387,0,0,0,2.044,4.046c.289.432.592.846.9,1.228a.369.369,0,0,1-.05.513.353.353,0,0,1-.5-.051c-.139-.173-.276-.355-.413-.539l-.833,5.942c.889-.005,1.783.034,2.652.075.414.02.827.039,1.239.054.915.032,1.856.04,2.766.047l.238,0h.014a48.647,48.647,0,0,1,5.349.249c.151-.452.293-.956.424-1.509-.253-.007-.5-.022-.741-.042-1.888-.161-3.785-.4-5.64-.721a.364.364,0,0,1-.293-.42.358.358,0,0,1,.412-.3c1.835.314,3.713.554,5.581.713A8.476,8.476,0,0,0,69.288,66.667ZM65,85.031l.041-.053A10.744,10.744,0,0,1,60,80.827q-.568.742-1.136,1.49h0a9.762,9.762,0,0,0,4.9,4.289C64.152,86.116,64.582,85.568,65,85.031ZM62.81,89.11l-.847,1.172c.445.507.9,1,1.372,1.478A18.776,18.776,0,0,0,64.858,89.7,2.446,2.446,0,0,0,65.2,89a2.617,2.617,0,0,0,.005-.849l-.1-.98c-.032-.328-.065-.656-.1-.984-.292.372-.577.736-.833,1.059-.027.037-.054.071-.082.106l-.05.064C63.908,87.591,63.423,88.262,62.81,89.11Zm-1.2-11.51a7.962,7.962,0,0,1,.643-.657l-2.383-2.022-.649.628Zm-2.225-.265a1.548,1.548,0,0,0,.41.451,2.792,2.792,0,0,1,.828,1.042l.4-.516c.041-.052.084-.1.126-.157l-1.5-1.284a.576.576,0,0,0-.231.212A.253.253,0,0,0,59.386,77.336Zm2.534,1.01c-.117.139-.229.281-.337.419l-.8,1.036c-.1.138-.212.276-.319.414a9.993,9.993,0,0,0,5.043,4.163c.76-.975,1.365-1.754,1.365-1.754l0,0,0-.006,1.069-1.286a.353.353,0,0,1,.5-.047l.669.555a3.433,3.433,0,0,0-.494-2.116c-.049-.082-.1-.164-.156-.244A4.488,4.488,0,0,0,67,79.466a.343.343,0,0,1-.258-.08.356.356,0,0,1-.124-.245.373.373,0,0,1,.328-.4,8.216,8.216,0,0,1,.858-.059,9.859,9.859,0,0,0-.784-.718h-.146a5.671,5.671,0,0,0-1.193.067.354.354,0,0,1-.092.012.36.36,0,0,1-.354-.317.364.364,0,0,1,.262-.4,2.966,2.966,0,0,1,.585-.08,2.95,2.95,0,0,0-1.457-.58c-.028,0-.057,0-.085,0a1.6,1.6,0,0,0-.271.018,2.632,2.632,0,0,0-1.242.561l-.007,0A6.883,6.883,0,0,0,61.921,78.346ZM67.662,82.8l2.367,1.924.287-.845.028-.084-2.077-1.723Zm-3.836-6.772c-.164-1.122-.34-2.216-.525-3.263-.017,0-.034,0-.052.005h-.019a1.514,1.514,0,0,1-.26-.026c-.081,1.243-.237,3.039-.288,3.614l.159.135A3.377,3.377,0,0,1,63.826,76.028Zm-1.034-4.1a.885.885,0,0,0,.445.112A.82.82,0,0,0,63.484,72a1.615,1.615,0,0,0,.574-.366c.135-.125.3-.285.427-.419-.337-.346-.647-.73-.926-1.08-.165-.207-.325-.407-.477-.58l-.187.217A14.291,14.291,0,0,1,61.741,71a3.98,3.98,0,0,0,.739.744,2.081,2.081,0,0,0,.311.187Zm2.44-1a1.979,1.979,0,0,0,1.3.635c.561,0,1.138-.692,1.645-1.96-1.371-.153-2.773-.2-4.284-.216l.224.279a10.972,10.972,0,0,0,1.118,1.262ZM62.28,69.377c-.745-.007-1.5-.016-2.244-.042-.415-.015-.83-.034-1.247-.054-.764-.036-1.548-.072-2.324-.076.71.945,2,2.163,2.967,2.142a2.621,2.621,0,0,0,1.6-.684,10.465,10.465,0,0,0,1.249-1.286Zm13.843,3.981A6.124,6.124,0,0,0,72.994,70.8a15.828,15.828,0,0,0-4.088-1.1c-.654,1.721-1.453,2.6-2.378,2.6a2.429,2.429,0,0,1-1.511-.6c-.141.145-.324.328-.481.473a2.607,2.607,0,0,1-.544.392c.191,1.081.373,2.211.543,3.369.047,0,.1,0,.139,0a4.388,4.388,0,0,1,2.377,1.121l.105.083c.071.056.141.112.21.168l.008,0a7.7,7.7,0,0,1,1.859,2.033,4.032,4.032,0,0,1,.509,3.012l.852.707c.46-1.351.929-2.712,1.4-4.055a.839.839,0,0,1,.832-.576c.426.018.855.041,1.3.071l.036,0a1.155,1.155,0,0,1,.874-.89,1.206,1.206,0,0,1,1.3.715,1.539,1.539,0,0,1,.1.362l.292.029a1.153,1.153,0,0,1,.449-.63A16.94,16.94,0,0,0,76.123,73.358Zm-1.23,5.2q.395.029.791.063h0a.5.5,0,0,0-.51-.29A.424.424,0,0,0,74.893,78.56Zm3.064.1c.007.071.013.137.017.192l.236.027A.5.5,0,0,0,77.956,78.663Zm2.83.408a.492.492,0,0,0-.516-.289.42.42,0,0,0-.307.311q.431.056.861.115A.735.735,0,0,0,80.786,79.071Zm2.547.371a.487.487,0,0,0-.513-.286.421.421,0,0,0-.3.289l.8.117.053.008A.7.7,0,0,0,83.333,79.442Zm.106,7.3a.369.369,0,0,0-.251-.2.693.693,0,0,0-.388,0l-.286.729a3.584,3.584,0,0,1,.632.808A1.715,1.715,0,0,0,83.439,86.741Zm-.573,2.522a3.062,3.062,0,0,0-.127-.386,2.957,2.957,0,0,0-.872-1.225,2.2,2.2,0,0,0-.8-.422,1.381,1.381,0,0,0-1.031.073,1.713,1.713,0,0,0-.478.436,9.888,9.888,0,0,1,2.09,1.362,7.479,7.479,0,0,1,1.32,1.544,4.245,4.245,0,0,0-.1-1.382Zm-.657,3.991a7.139,7.139,0,0,0,.419-1c.044-.129.081-.263.118-.4a5.474,5.474,0,0,0-1.568-2.2,9.482,9.482,0,0,0-2.05-1.314,7.433,7.433,0,0,0-.581,1.023A9.753,9.753,0,0,1,82.209,93.253Zm-2.605.832.037.044c.065.08.107.128.109.131a.369.369,0,0,1-.029.514.344.344,0,0,1-.159.078l-.169.44a3.3,3.3,0,0,0,1.961-.828,4.282,4.282,0,0,0,.389-.457,8.509,8.509,0,0,0-3.46-3.957c-.031.1-.06.207-.084.314a3.1,3.1,0,0,0,.37,2.438C78.688,92.977,79.353,93.782,79.6,94.085Zm-11.22,1.876c.551-1.747,3.565-11.274,5.32-16.347a.356.356,0,0,1,.456-.222.366.366,0,0,1,.218.465C72.669,84.8,69.764,93.97,69.111,96.038l.192.021c2.22.238,4.316.463,6.481.593.78.048,1.527.081,2.281.1.149-.39.309-.807.477-1.244l.1-.26c.1-.265.207-.539.314-.818-.448-.543-.859-1.046-.972-1.21A3.84,3.84,0,0,1,77.5,90.2a5.24,5.24,0,0,1,.26-.833,8.091,8.091,0,0,1,.976-1.736l.068-.1a2.845,2.845,0,0,1,.891-.875,2.076,2.076,0,0,1,1.558-.136,2.853,2.853,0,0,1,.669.289l.265-.676c.99-2.529,1.831-4.664,2.2-5.6a.065.065,0,0,0,0-.058.062.062,0,0,0-.048-.031l-.26-.039a1.522,1.522,0,0,1-.13.37,1.132,1.132,0,0,1-.977.645h-.028A.368.368,0,0,1,82.7,80.8a.349.349,0,0,1,.257-.1.427.427,0,0,0,.35-.254.757.757,0,0,0,.052-.14l-.151-.023-1.13-.165-.069-.01-.49-.068a1.561,1.561,0,0,1-.13.37,1.13,1.13,0,0,1-.974.645h-.028a.369.369,0,0,1-.236-.631.348.348,0,0,1,.258-.1.424.424,0,0,0,.346-.252.766.766,0,0,0,.049-.131c-.424-.058-.848-.116-1.274-.17L79,79.707a1.628,1.628,0,0,1-.159.551,1.129,1.129,0,0,1-.974.645h-.028a.368.368,0,0,1-.235-.631.349.349,0,0,1,.257-.1.452.452,0,0,0,.347-.254.889.889,0,0,0,.084-.3c-.236-.027-.472-.056-.71-.08-.191-.023-.382-.043-.578-.061s-.371-.037-.557-.056a1.6,1.6,0,0,1-.155.533,1.137,1.137,0,0,1-.976.648h-.028a.368.368,0,0,1-.235-.631.349.349,0,0,1,.257-.1.432.432,0,0,0,.347-.254.849.849,0,0,0,.08-.262c-.426-.038-.854-.076-1.278-.1-.128-.011-.253-.019-.394-.028-.429-.029-.852-.052-1.272-.069a.133.133,0,0,0-.129.091c-.522,1.491-1.044,3.006-1.552,4.5l-.124.364c-.147.431-.294.862-.439,1.294-1.111,3.309-2.073,6.288-2.943,9.106l-.088.286c-.107.348-.214.7-.318,1.034ZM65.556,145c.039-1.639.031-3.512.025-4.287l-1.038.014v-.36c.031-12.079-.184-37.307-.186-37.56a.361.361,0,0,0-.357-.361h0a.361.361,0,0,0-.354.368c0,.253.217,25.477.186,37.553v.37l-.747.01L63.077,145ZM61.119,96.371a24.228,24.228,0,0,0,4.536.069V94.98l-.038.009a8.7,8.7,0,0,1-2.18.292,10.052,10.052,0,0,1-1.037-.056c-.32-.031-.772-.073-1.264-.107,0,.008,0,.014,0,.022Q61.1,95.754,61.119,96.371Zm-.294-2.005c.633.036,1.241.093,1.646.132a7.855,7.855,0,0,0,2.986-.22c.155-.036.306-.072.458-.1l.018,0a5.5,5.5,0,0,1,1.074-.127c.826-2.669,1.736-5.485,2.776-8.589l-2.573-2.092c-.26.335-.722.929-1.247,1.6l-.144.185-.17.218q.088.864.172,1.729l.1.98a3.255,3.255,0,0,1-.023,1.1,3.082,3.082,0,0,1-.436.918,19.657,19.657,0,0,1-1.839,2.44.355.355,0,0,1-.254.12h-.012a.354.354,0,0,1-.249-.1c-.539-.532-1.064-1.1-1.575-1.672-1.058,1.462-1.9,2.6-2.54,3.457a18.134,18.134,0,0,1,1.836.03ZM45.884,79.913a61.966,61.966,0,0,0,2,14.539,4.7,4.7,0,0,0,4.518,3.72H52.5c.021,0,.043,0,.066,0,2.211,0,3.23-1.149,4.31-2.366.091-.1.182-.205.272-.3.182-.206.449-.536.771-.953,0,0,.006,0,.008-.007l0,0,0,0c.724-.939,1.8-2.395,3.283-4.451.365-.5.712-.984,1.021-1.411.472-.653.846-1.172,1.07-1.474a10.512,10.512,0,0,1-4.913-4.266c-2.36,3.133-4.187,5.739-5.718,8.164a.353.353,0,0,1-.494.109.369.369,0,0,1-.107-.5c.259-.411.53-.829.808-1.251l-.39-.028a.365.365,0,0,1,.051-.727l.379.028c-.153-1.612-.707-7.319-1.076-9.291a.364.364,0,0,1,.284-.426.358.358,0,0,1,.418.29c.36,1.925.874,7.142,1.058,9.068,1.271-1.881,2.731-3.909,4.487-6.23q.82-1.086,1.647-2.162c.124-.159.245-.318.367-.476a2.1,2.1,0,0,0-.77-1.155,2.179,2.179,0,0,1-.583-.67.982.982,0,0,1,.065-.979,1.339,1.339,0,0,1,.267-.311l-.629-.54a.37.37,0,0,1-.016-.543l1.17-1.131a.353.353,0,0,1,.474-.016l1.93,1.637c.074-.863.2-2.344.257-3.32-.066-.04-.133-.083-.2-.13a4.632,4.632,0,0,1-.89-.887,3.1,3.1,0,0,1-1.736.622c-1.57.032-3.279-1.966-3.848-2.858a13.542,13.542,0,0,0-2.571.3,9.121,9.121,0,0,0-6.573,5.59,13.853,13.853,0,0,0-.571,4.8Z" transform="translate(-45.166 -42.064)" fill="#1f2526"/>
    <path id="Path_99648" data-name="Path 99648" d="M93.43,91.282a.357.357,0,0,1,.3.406l-.074.528a.358.358,0,0,1-.353.306.34.34,0,0,1-.052,0,.357.357,0,0,1-.3-.405l.075-.53A.358.358,0,0,1,93.43,91.282Z" transform="translate(-67.458 -77.204)" fill="#1f2526"/>
  </g>
</svg>
