<svg width="11" height="14" viewBox="0 0 11 14" fill="none" xmlns="http://www.w3.org/2000/svg">
<path d="M8.40469 6.71125C9.41302 6.51875 10.2781 6.265 11 5.95V12.95C10.3125 13.265 9.47604 13.5188 8.49063 13.7113C7.50521 13.9038 6.50833 14 5.5 14C4.49167 14 3.49479 13.9038 2.50938 13.7113C1.52396 13.5188 0.6875 13.265 0 12.95V5.95C0.721875 6.265 1.58698 6.51875 2.59531 6.71125C3.60365 6.90375 4.57188 7 5.5 7C6.42812 7 7.39635 6.90375 8.40469 6.71125ZM9.625 11.9V7.875C9.05208 8.03833 8.39036 8.16667 7.63984 8.26C6.88932 8.35333 6.17604 8.4 5.5 8.4C4.82396 8.4 4.11068 8.35333 3.36016 8.26C2.60964 8.16667 1.94792 8.03833 1.375 7.875V11.9C1.94792 12.11 2.60677 12.2792 3.35156 12.4075C4.09635 12.5358 4.8125 12.6 5.5 12.6C6.1875 12.6 6.90365 12.5358 7.64844 12.4075C8.39323 12.2792 9.05208 12.11 9.625 11.9ZM7.44219 0.8225C7.98073 1.37083 8.25 2.03 8.25 2.8C8.25 3.57 7.98073 4.22917 7.44219 4.7775C6.90365 5.32583 6.25625 5.6 5.5 5.6C4.74375 5.6 4.09635 5.32583 3.55781 4.7775C3.01927 4.22917 2.75 3.57 2.75 2.8C2.75 2.03 3.01927 1.37083 3.55781 0.8225C4.09635 0.274167 4.74375 0 5.5 0C6.25625 0 6.90365 0.274167 7.44219 0.8225ZM6.47109 3.78875C6.74036 3.51458 6.875 3.185 6.875 2.8C6.875 2.415 6.74036 2.08542 6.47109 1.81125C6.20182 1.53708 5.87813 1.4 5.5 1.4C5.12188 1.4 4.79818 1.53708 4.52891 1.81125C4.25964 2.08542 4.125 2.415 4.125 2.8C4.125 3.185 4.25964 3.51458 4.52891 3.78875C4.79818 4.06292 5.12188 4.2 5.5 4.2C5.87813 4.2 6.20182 4.06292 6.47109 3.78875Z" fill="#323232"/>
</svg>
