<svg xmlns="http://www.w3.org/2000/svg" width="74.499" height="23.687" viewBox="0 0 74.499 23.687">
  <g id="PhonePe_Logo" transform="translate(1.065 1.066)">
    <circle id="circle27" cx="9.845" cy="9.845" r="9.845" transform="translate(-1.065 18.097) rotate(-76.714)" fill="#5f259f"/>
    <path id="path29" d="M104.045,33.257V29.683c0-.88-.33-1.32-1.155-1.32a4.362,4.362,0,0,0-.935.11V33.7a.355.355,0,0,1-.33.33H100.36a.355.355,0,0,1-.33-.33v-6.1a.479.479,0,0,1,.33-.44,7.893,7.893,0,0,1,2.53-.44c1.98,0,3.08,1.045,3.08,2.97v4.07a.355.355,0,0,1-.33.33h-.77A.81.81,0,0,1,104.045,33.257ZM109,31.113l-.055.495a1.015,1.015,0,0,0,1.155,1.045,3.488,3.488,0,0,0,1.595-.44c.055,0,.11-.055.165-.055a.286.286,0,0,1,.22.11,2.2,2.2,0,0,1,.165.22,1.161,1.161,0,0,1,.22.55.763.763,0,0,1-.385.66,4.345,4.345,0,0,1-2.09.495,3.329,3.329,0,0,1-2.145-.66,2.576,2.576,0,0,1-.88-1.98V29.408c0-1.7,1.1-2.75,2.97-2.75a2.55,2.55,0,0,1,2.86,2.75v1.32a.355.355,0,0,1-.33.33H109Zm-.055-1.21h2.09v-.55a1,1,0,0,0-1.045-1.1.972.972,0,0,0-1.045,1.1Zm14.024,1.21-.055.495a1.015,1.015,0,0,0,1.155,1.045,3.488,3.488,0,0,0,1.595-.44c.055,0,.11-.055.165-.055a.286.286,0,0,1,.22.11,2.193,2.193,0,0,1,.165.22,1.161,1.161,0,0,1,.22.55.763.763,0,0,1-.385.66,4.345,4.345,0,0,1-2.09.495,3.329,3.329,0,0,1-2.145-.66,2.576,2.576,0,0,1-.88-1.98V29.408c0-1.7,1.1-2.75,2.97-2.75a2.55,2.55,0,0,1,2.86,2.75v1.32a.355.355,0,0,1-.33.33h-3.465Zm-.055-1.21H125v-.55a1,1,0,0,0-1.045-1.1.972.972,0,0,0-1.045,1.1Zm-32.339,4.18h.77a.355.355,0,0,0,.33-.33v-4.07c0-1.87-.99-2.97-2.64-2.97a4.8,4.8,0,0,0-1.375.22V24.9a.846.846,0,0,0-.825-.825h-.77a.355.355,0,0,0-.33.33v9.35a.355.355,0,0,0,.33.33h1.265a.355.355,0,0,0,.33-.33v-5.17a2.793,2.793,0,0,1,.935-.165c.825,0,1.155.385,1.155,1.32v3.575A.882.882,0,0,0,90.571,34.082Zm8.3-4.62V31.5c0,1.7-1.155,2.75-3.08,2.75-1.87,0-3.08-1.045-3.08-2.75V29.463c0-1.7,1.155-2.75,3.08-2.75s3.08,1.045,3.08,2.75Zm-1.925,0a1.012,1.012,0,0,0-1.1-1.1.987.987,0,0,0-1.1,1.1V31.5a1.1,1.1,0,0,0,2.2,0Zm-12.264-.935a2.919,2.919,0,0,1-3.08,2.97,2.96,2.96,0,0,1-1.21-.22v2.475a.355.355,0,0,1-.33.33H78.8a.355.355,0,0,1-.33-.33V25.008a.479.479,0,0,1,.33-.44,7.893,7.893,0,0,1,2.53-.44,3.053,3.053,0,0,1,3.355,3.08Zm-1.98-1.43a1.273,1.273,0,0,0-1.43-1.32,2,2,0,0,0-.825.165v3.63a1.614,1.614,0,0,0,.88.22,1.3,1.3,0,0,0,1.43-1.32V27.1Zm37.508,1.43a2.919,2.919,0,0,1-3.08,2.97,2.96,2.96,0,0,1-1.21-.22v2.475a.355.355,0,0,1-.33.33H114.33a.355.355,0,0,1-.33-.33V25.008a.479.479,0,0,1,.33-.44,7.893,7.893,0,0,1,2.53-.44,3.053,3.053,0,0,1,3.355,3.08Zm-1.98-1.43a1.273,1.273,0,0,0-1.43-1.32,2,2,0,0,0-.825.165v3.63a1.614,1.614,0,0,0,.88.22,1.3,1.3,0,0,0,1.43-1.32V27.1Z" transform="translate(-53.326 -16.854)" fill="#5f259f"/>
    <path id="path31" d="M29.41,17.818a.728.728,0,0,0-.715-.715h-1.32L24.35,13.638a1.114,1.114,0,0,0-1.155-.33l-1.045.33a.243.243,0,0,0-.11.385l3.3,3.135h-5a.26.26,0,0,0-.275.275v.55a.728.728,0,0,0,.715.715h.77v2.64c0,1.98,1.045,3.135,2.8,3.135a3.806,3.806,0,0,0,1.54-.275v1.76a.869.869,0,0,0,.88.88h.77a.355.355,0,0,0,.33-.33V18.643h1.265a.26.26,0,0,0,.275-.275Zm-3.52,4.73a2.622,2.622,0,0,1-1.1.22c-.88,0-1.32-.44-1.32-1.43V18.7h2.42Z" transform="translate(-14.164 -9.609)" fill="#fff"/>
  </g>
</svg>
