<svg xmlns="http://www.w3.org/2000/svg" xmlns:xlink="http://www.w3.org/1999/xlink" version="1.1" x="0px" y="0px" fill="#ffffff" style="enable-background:new 0 0 100 100;" xml:space="preserve" viewBox="9.99 10 80 80"><path d="M50.8105469,28.3066406c0-0.5522461-0.4472656-1-1-1s-1,0.4477539-1,1v2.9255371  c-5.0135498,0.5015869-8.9404297,4.7312622-8.9404297,9.8586426C39.8701172,46.5546875,44.3291016,51,49.8105469,51h0.3632812  c4.3789062,0,7.9414062,3.5478516,7.9414062,7.9091797s-3.5625,7.9091797-7.9414062,7.9091797  c-4.3779297,0-7.9404297-3.5478516-7.9404297-7.9091797c0-0.5522461-0.4472656-1-1-1s-1,0.4477539-1,1  c0,5.001709,3.7401733,9.138855,8.5771484,9.8048096v2.9793701c0,0.5522461,0.4472656,1,1,1s1-0.4477539,1-1v-2.9071655  c5.1845093-0.329834,9.3046875-4.6273804,9.3046875-9.8770142C60.1152344,53.4453125,55.6552734,49,50.1738281,49h-0.3632812  c-4.3779297,0-7.9404297-3.5478516-7.9404297-7.9091797s3.5625-7.9091797,7.9404297-7.9091797  c4.3789062,0,7.9414062,3.5478516,7.9414062,7.9091797c0,0.5522461,0.4472656,1,1,1s1-0.4477539,1-1  c0-5.1273804-3.9277344-9.3570557-8.9414062-9.8586426V28.3066406z"/><path d="M49.9921875,90c22.0556641,0,40-17.9438477,40-40s-17.9443359-40-40-40s-40,17.9438477-40,40S27.9365234,90,49.9921875,90z   M49.9921875,12c20.953125,0,38,17.046875,38,38s-17.046875,38-38,38s-38-17.046875-38-38S29.0390625,12,49.9921875,12z"/><path d="M50,80.1748047c16.6386719,0,30.1748047-13.5361328,30.1748047-30.1748047c0-0.5522461-0.4472656-1-1-1s-1,0.4477539-1,1  c0,15.5356445-12.6396484,28.1748047-28.1748047,28.1748047S21.8251953,65.5356445,21.8251953,50  S34.4648438,21.8251953,50,21.8251953c0.5527344,0,1-0.4477539,1-1s-0.4472656-1-1-1  c-16.6386719,0-30.1748047,13.5361328-30.1748047,30.1748047S33.3613281,80.1748047,50,80.1748047z"/></svg>