<svg id="Razorpay_Logo" data-name="Razorpay Logo" xmlns="http://www.w3.org/2000/svg" width="96.853" height="20.457" viewBox="0 0 96.853 20.457">
  <path id="Fill-1" d="M267.815,81.057a2,2,0,0,1-.889,1.256,3.582,3.582,0,0,1-1.854.4h-2.53l.888-3.314h2.53a2.5,2.5,0,0,1,1.639.4,1.173,1.173,0,0,1,.216,1.256m2.62-.071a2.8,2.8,0,0,0-.4-2.761,4.073,4.073,0,0,0-3.091-.962H261.3l-3.4,12.684h2.744l1.37-5.113h1.8a1.951,1.951,0,0,1,.953.2.861.861,0,0,1,.411.695l.489,4.222h2.94l-.477-3.937a1.556,1.556,0,0,0-1.206-1.55,5.186,5.186,0,0,0,2.264-1.3,4.746,4.746,0,0,0,1.25-2.173" transform="translate(-244.756 -73.338)" fill="#072654" fill-rule="evenodd"/>
  <path id="Fill-3" d="M502.135,148.895a4.087,4.087,0,0,1-1.059,1.96,2.406,2.406,0,0,1-1.713.677,1.426,1.426,0,0,1-1.38-.668,2.654,2.654,0,0,1-.026-1.933,4.159,4.159,0,0,1,1.082-1.978,2.436,2.436,0,0,1,1.741-.712,1.37,1.37,0,0,1,1.349.686,2.81,2.81,0,0,1,.007,1.968Zm1.2-4.489-.344,1.283a2.014,2.014,0,0,0-.861-1.1,2.877,2.877,0,0,0-1.583-.41,4.5,4.5,0,0,0-2.226.6,5.878,5.878,0,0,0-1.867,1.683,7.347,7.347,0,0,0-1.171,2.476,5.277,5.277,0,0,0-.149,2.45,2.654,2.654,0,0,0,.971,1.63,3.078,3.078,0,0,0,1.923.57,4.257,4.257,0,0,0,1.8-.392,4.185,4.185,0,0,0,1.449-1.087l-.358,1.336h2.654l2.42-9.032Z" transform="translate(-469.788 -136.829)" fill="#072654" fill-rule="evenodd"/>
  <path id="Fill-5" d="M706.338,148.706h-7.714l-.539,2.013h4.489l-5.935,5.13-.507,1.888H704.1l.54-2.013h-4.809l6.025-5.2Z" transform="translate(-660.59 -141.13)" fill="#072654" fill-rule="evenodd"/>
  <path id="Fill-7" d="M898.3,148.878a4.151,4.151,0,0,1-1.061,2,2.393,2.393,0,0,1-1.7.659q-2.085,0-1.373-2.654a4.118,4.118,0,0,1,1.066-1.986,2.437,2.437,0,0,1,1.729-.668,1.37,1.37,0,0,1,1.344.668,2.841,2.841,0,0,1-.006,1.986m1.553-4.133a4.37,4.37,0,0,0-2.341-.57,6.286,6.286,0,0,0-2.674.57,5.8,5.8,0,0,0-2.1,1.639,6.646,6.646,0,0,0-1.248,2.494,4.76,4.76,0,0,0-.089,2.494,2.686,2.686,0,0,0,1.218,1.639,4.449,4.449,0,0,0,2.368.57,6.179,6.179,0,0,0,2.647-.57,5.834,5.834,0,0,0,2.087-1.639,6.648,6.648,0,0,0,1.247-2.494,4.765,4.765,0,0,0,.089-2.494,2.7,2.7,0,0,0-1.208-1.639" transform="translate(-845.764 -136.829)" fill="#072654" fill-rule="evenodd"/>
  <path id="Fill-9" d="M1470.651,148.895a4.087,4.087,0,0,1-1.059,1.96,2.407,2.407,0,0,1-1.714.677,1.427,1.427,0,0,1-1.38-.668,2.656,2.656,0,0,1-.025-1.933,4.16,4.16,0,0,1,1.082-1.978,2.435,2.435,0,0,1,1.741-.712,1.37,1.37,0,0,1,1.348.686,2.81,2.81,0,0,1,.007,1.968Zm1.2-4.489-.344,1.283a2.015,2.015,0,0,0-.861-1.1,2.877,2.877,0,0,0-1.583-.41,4.5,4.5,0,0,0-2.226.6,5.877,5.877,0,0,0-1.868,1.683,7.344,7.344,0,0,0-1.171,2.476,5.286,5.286,0,0,0-.149,2.45,2.651,2.651,0,0,0,.971,1.63,3.078,3.078,0,0,0,1.922.57,4.257,4.257,0,0,0,1.8-.392,4.182,4.182,0,0,0,1.449-1.087l-.358,1.336h2.654l2.42-9.032Z" transform="translate(-1388.798 -136.829)" fill="#072654" fill-rule="evenodd"/>
  <path id="Fill-11" d="M1096.2,147.159l.676-2.458a2,2,0,0,0-.914-.178,3.644,3.644,0,0,0-1.752.454,3.843,3.843,0,0,0-1.241,1.082l.352-1.324h-2.653l-2.439,9.032h2.691l1.265-4.721a3,3,0,0,1,.993-1.612,2.747,2.747,0,0,1,1.785-.579,2.629,2.629,0,0,1,1.237.3" transform="translate(-1032.643 -137.16)" fill="#072654" fill-rule="evenodd"/>
  <path id="Fill-13" d="M1222.472,148.934a4,4,0,0,1-1.052,1.933,2.417,2.417,0,0,1-1.711.668,1.4,1.4,0,0,1-1.36-.677,2.727,2.727,0,0,1-.018-1.96,4.093,4.093,0,0,1,1.071-1.968,2.43,2.43,0,0,1,1.725-.686,1.345,1.345,0,0,1,1.332.713,2.853,2.853,0,0,1,.014,1.977m1.88-4.16a2.966,2.966,0,0,0-1.907-.6,4.226,4.226,0,0,0-1.932.463,4.013,4.013,0,0,0-1.488,1.265l.009-.059.452-1.439h-2.627l-.669,2.5c-.008.029-.014.056-.022.085l-2.759,10.3h2.69l1.389-5.184a1.851,1.851,0,0,0,.848,1.086,3,3,0,0,0,1.588.392,4.658,4.658,0,0,0,2.237-.57,5.546,5.546,0,0,0,1.844-1.63,7.219,7.219,0,0,0,1.156-2.45,5.462,5.462,0,0,0,.156-2.476,2.753,2.753,0,0,0-.965-1.683" transform="translate(-1151.426 -136.833)" fill="#072654" fill-rule="evenodd"/>
  <path id="Fill-15" d="M1674.752,148.709l0,0h-1.63l-.146,0h-.846l-.432.6c-.035.045-.069.091-.107.144l-.047.07-3.437,4.787-.713-5.606h-2.815l1.426,8.518-3.149,4.362h2.8l.763-1.081.065-.093.891-1.262.026-.036,3.984-5.648,3.357-4.754,0,0Z" transform="translate(-1577.902 -141.13)" fill="#072654" fill-rule="evenodd"/>
  <path id="Fill-17" d="M107.683,5.86l-.805,2.964,4.608-2.981-3.014,11.245,3.06,0L115.985.482Z" transform="translate(-101.456 -0.482)" fill="#3395ff" fill-rule="evenodd"/>
  <path id="Fill-19" d="M2.075,142.155.808,146.882H7.081l2.567-9.617-7.573,4.89" transform="translate(-0.808 -130.274)" fill="#072654" fill-rule="evenodd"/>
</svg>
