<svg id="Mail_Illustration" data-name="Mail Illustration" xmlns="http://www.w3.org/2000/svg" width="218.205" height="116.029" viewBox="0 0 218.205 116.029">
  <g id="Group_37962" data-name="Group 37962">
    <g id="Group_37943" data-name="Group 37943" transform="translate(0 28.415)">
      <path id="Path_84776" data-name="Path 84776" d="M86.4,43.172V83.9L4,8.6Z" transform="translate(14.943 3.713)" fill="#080717"/>
      <path id="Path_84777" data-name="Path 84777" d="M143.97,33.468,100.4,57.621,25.574,21.155,87.14,64.725,37.413,92.193,0,6Z" transform="translate(0 -6)" fill="#ff586b"/>
    </g>
    <g id="Group_37953" data-name="Group 37953" transform="translate(136.866)">
      <g id="Group_37949" data-name="Group 37949" transform="translate(0.474)">
        <path id="Path_84789" data-name="Path 84789" d="M45.576,16.576a3.375,3.375,0,0,1-2.842-1.421L29,1.894,30.894,0,44.628,13.26a2.151,2.151,0,0,0,2.368,0L60.73,0l1.421,1.894L48.417,15.155A2.864,2.864,0,0,1,45.576,16.576Z" transform="translate(-29)" fill="#080717"/>
      </g>
      <g id="Group_37950" data-name="Group 37950" transform="translate(20.572 10.585)">
        <rect id="Rectangle_6846" data-name="Rectangle 6846" width="2.368" height="16.102" transform="translate(0 1.697) rotate(-45.766)" fill="#080717"/>
      </g>
      <g id="Group_37951" data-name="Group 37951" transform="translate(0.664 10.737)">
        <rect id="Rectangle_6847" data-name="Rectangle 6847" width="16.102" height="2.368" transform="translate(0 11.37) rotate(-44.915)" fill="#080717"/>
      </g>
      <g id="Group_37952" data-name="Group 37952">
        <path id="Path_84790" data-name="Path 84790" d="M59.209,25.574H33.162A4.245,4.245,0,0,1,28.9,21.311V4.262A4.245,4.245,0,0,1,33.162,0H59.209a4.245,4.245,0,0,1,4.262,4.262V21.785C63,23.679,61.1,25.574,59.209,25.574ZM33.162,2.368a1.512,1.512,0,0,0-1.421,1.421V21.311a1.512,1.512,0,0,0,1.421,1.421H59.209a1.512,1.512,0,0,0,1.421-1.421V4.262a1.512,1.512,0,0,0-1.421-1.421H33.162Z" transform="translate(-28.9)" fill="#080717"/>
      </g>
    </g>
    <g id="Group_37957" data-name="Group 37957" transform="translate(176.647 11.84)">
      <g id="Group_37954" data-name="Group 37954">
        <path id="Path_84791" data-name="Path 84791" d="M39.668,5.342h0l-1.421-.474c-.474,0-.947-.947-.947-1.421s.947-.947,1.421-.947a1.74,1.74,0,0,1,1.421.474c.474,0,.947.947.947,1.421S40.615,5.342,39.668,5.342Z" transform="translate(-37.3 -2.5)"/>
      </g>
      <g id="Group_37955" data-name="Group 37955" transform="translate(6.157 1.894)">
        <path id="Path_84792" data-name="Path 84792" d="M68.436,21.843c-.474,0-.474,0-.947-.474s-1.421-.947-1.894-1.421a1.44,1.44,0,0,1,0-1.894c.474-.474.947-.474,1.894-.474.474.474,1.421.947,1.894,1.894a1.441,1.441,0,0,1,0,1.894C68.909,21.37,68.909,21.843,68.436,21.843Zm-6.157-5.209h-.947c-.474-.474-1.421-.947-1.894-1.421s-.947-.947-.474-1.894c.947-.474,1.421-.474,1.894,0a6.538,6.538,0,0,1,1.894,1.421c.474.474.474.947.474,1.894Zm-6.157-3.789h-.474c-.947-.474-1.421-.947-2.368-1.421-.474-.474-.947-.947-.474-1.894.474-.474.947-.947,1.894-.474s1.421.947,2.368,1.421c.474.474.947.947.474,1.894C57.07,12.372,56.6,12.845,56.123,12.845Zm-6.63-3.789h-.474a8,8,0,0,0-2.368-.947c-.474-.474-.947-.947-.474-1.421s.947-.947,1.421-.474c.947.474,1.421.474,2.368.947.474.474.947.947.474,1.421S49.966,9.057,49.492,9.057Zm-7.1-2.842h0a19.743,19.743,0,0,1-2.842-.947c-.474,0-.947-.947-.947-1.421s.947-.947,1.421-.947c.947.474,1.421.474,2.368.947.474.474.947.947.947,1.421A1.019,1.019,0,0,1,42.389,6.215Z" transform="translate(-38.6 -2.9)"/>
      </g>
      <g id="Group_37956" data-name="Group 37956" transform="translate(38.005 21.43)">
        <path id="Path_84793" data-name="Path 84793" d="M47.575,10.7c-.474,0-.474,0-.947-.474l-.947-.947a1.441,1.441,0,0,1,0-1.894,1.441,1.441,0,0,1,1.894,0c.474.474.947.947.947,1.421a1.441,1.441,0,0,1,0,1.894Z" transform="translate(-45.325 -7.025)"/>
      </g>
    </g>
    <g id="Group_37961" data-name="Group 37961" transform="translate(84.417 10.419)">
      <g id="Group_37958" data-name="Group 37958" transform="translate(0 17.641)">
        <path id="Path_84794" data-name="Path 84794" d="M19.127,9.6c-.474,0-.947,0-.947-.474a1.44,1.44,0,0,1,0-1.894l.947-.947a1.44,1.44,0,0,1,1.894,0,1.44,1.44,0,0,1,0,1.894l-.947.947C19.6,9.6,19.6,9.6,19.127,9.6Z" transform="translate(-17.825 -5.925)"/>
      </g>
      <g id="Group_37959" data-name="Group 37959" transform="translate(5.254 1.421)">
        <path id="Path_84795" data-name="Path 84795" d="M20.193,18.6c-.474,0-.947,0-.947-.474a1.172,1.172,0,0,1,.474-1.894c.474-.474,1.421-.947,1.894-1.421a1.172,1.172,0,0,1,1.894.474,1.172,1.172,0,0,1-.474,1.894c-.474.474-1.421.947-1.894,1.421Zm6.157-4.262c-.474,0-.947,0-.947-.474-.474-.474,0-1.421.474-1.894.947-.474,1.421-.947,2.368-1.421.474-.474,1.421,0,1.894.474s0,1.421-.474,1.894L26.823,14.34Zm6.63-3.789a1.653,1.653,0,0,1-.947-.474c-.474-.474,0-1.421.474-1.894.947-.474,1.421-.947,2.368-.947a.907.907,0,0,1,1.421.474.907.907,0,0,1-.474,1.421,10.352,10.352,0,0,1-2.368,1.421Zm7.1-2.842a1.019,1.019,0,0,1-.947-.947.907.907,0,0,1,.474-1.421c.947-.474,1.421-.474,2.368-.947.474,0,1.421,0,1.421.947,0,.474,0,1.421-.947,1.421-.474,0-.947.474-2.368.947Zm7.1-2.368c-.474,0-.947-.474-1.421-.947,0-.474,0-1.421.947-1.421A20.511,20.511,0,0,0,49.081,2.5c.474,0,1.421.474,1.421.947s-.474,1.421-.947,1.421c-.474-.474-.947,0-2.368.474Z" transform="translate(-18.934 -2.5)"/>
      </g>
      <g id="Group_37960" data-name="Group 37960" transform="translate(39.663)">
        <path id="Path_84796" data-name="Path 84796" d="M27.621,4.568c-.474,0-.947-.474-1.421-.947,0-.474.474-1.421.947-1.421h1.421c.474,0,1.421.474,1.421.947s-.474,1.421-.947,1.421Z" transform="translate(-26.2 -2.2)"/>
      </g>
    </g>
  </g>
</svg>
