<svg xmlns="http://www.w3.org/2000/svg" width="48.74" height="20.281" viewBox="0 0 48.74 20.281">
  <g id="Stripe_Logo" data-name="Stripe Logo" transform="translate(-54 -36)">
    <path id="Path_84712" data-name="Path 84712" d="M349.759,73.8c0-3.466-1.679-6.2-4.887-6.2s-5.172,2.735-5.172,6.174c0,4.075,2.3,6.133,5.605,6.133a7.549,7.549,0,0,0,3.75-.88V76.319a7.189,7.189,0,0,1-3.317.745c-1.313,0-2.478-.46-2.627-2.058h6.62C349.732,74.83,349.759,74.126,349.759,73.8Zm-6.688-1.286c0-1.53.934-2.166,1.787-2.166.826,0,1.706.636,1.706,2.166Z" transform="translate(-247.019 -27.322)" fill="#635bff" fill-rule="evenodd"/>
    <path id="Path_84713" data-name="Path 84713" d="M264.008,67.6a3.825,3.825,0,0,0-2.654,1.056l-.176-.839H258.2V83.6l3.385-.718.014-3.831a3.813,3.813,0,0,0,2.4.853c2.423,0,4.63-1.95,4.63-6.241C268.611,69.739,266.377,67.6,264.008,67.6Zm-.812,9.328a2.024,2.024,0,0,1-1.6-.636l-.014-5.023a2.015,2.015,0,0,1,1.611-.663c1.232,0,2.085,1.381,2.085,3.155C265.281,75.574,264.441,76.928,263.2,76.928Z" transform="translate(-176.553 -27.322)" fill="#635bff" fill-rule="evenodd"/>
    <path id="Path_84714" data-name="Path 84714" d="M223.8,39.479l3.4-.731V36l-3.4.718Z" transform="translate(-146.811)" fill="#635bff" fill-rule="evenodd"/>
    <rect id="Rectangle_6357" data-name="Rectangle 6357" width="3.398" height="11.846" transform="translate(76.989 40.508)" fill="#635bff"/>
    <path id="Path_84715" data-name="Path 84715" d="M176.841,69.408l-.217-1H173.7V80.253h3.385V72.224a2.388,2.388,0,0,1,2.572-.7V68.406A2.3,2.3,0,0,0,176.841,69.408Z" transform="translate(-103.494 -27.898)" fill="#635bff" fill-rule="evenodd"/>
    <path id="Path_84716" data-name="Path 84716" d="M125.717,47.6l-3.3.7L122.4,59.148a3.4,3.4,0,0,0,3.507,3.479,5.229,5.229,0,0,0,2.369-.447V59.433c-.433.176-2.572.8-2.572-1.2V53.422h2.572V50.538H125.7Z" transform="translate(-59.139 -10.03)" fill="#635bff" fill-rule="evenodd"/>
    <path id="Path_84717" data-name="Path 84717" d="M57.425,71.269c0-.528.433-.731,1.151-.731a7.551,7.551,0,0,1,3.358.866V68.223a8.928,8.928,0,0,0-3.358-.623C55.828,67.6,54,69.035,54,71.431c0,3.737,5.145,3.141,5.145,4.752,0,.623-.542.826-1.3.826a8.427,8.427,0,0,1-3.7-1.083v3.222a9.385,9.385,0,0,0,3.7.772c2.816,0,4.752-1.394,4.752-3.818C62.583,72.068,57.425,72.785,57.425,71.269Z" transform="translate(0 -27.322)" fill="#635bff" fill-rule="evenodd"/>
  </g>
</svg>
