<svg xmlns="http://www.w3.org/2000/svg" xmlns:xlink="http://www.w3.org/1999/xlink" width="16" height="16" viewBox="0 0 16 16">
  <defs>
    <clipPath id="clip-Susan-flower">
      <rect width="16" height="16"/>
    </clipPath>
  </defs>
  <g id="Susan-flower" clip-path="url(#clip-Susan-flower)">
    <rect width="16" height="16" fill="#fff"/>
    <g id="Group_42309" data-name="Group 42309" transform="translate(-13.106 -21.824)">
      <path id="Path_84786" data-name="Path 84786" d="M24.212,28.049c-.508,0-1.037,0-1.544.042a11.435,11.435,0,0,0-2.518.444,1.424,1.424,0,0,0,.233-.148,3.543,3.543,0,0,0,.508-.317c.423-.317.74-.592,1.121-.909a6.366,6.366,0,0,0,1.121-1.184,3.135,3.135,0,0,1,.508-.55,1.794,1.794,0,0,1,.4-.211,1.936,1.936,0,0,0,.36-.19c.021-.021.042-.042.042-.063a.127.127,0,0,0-.021-.085.4.4,0,0,0-.317-.148h-.085a3.278,3.278,0,0,0-2.581,1.311c-.063.063-.275.3-.529.592-.465.529-1.142,1.269-1.5,1.65a1.685,1.685,0,0,1,.317-.36,2.812,2.812,0,0,0,.4-.508c.212-.4.444-.825.635-1.29l.063-.148a11.068,11.068,0,0,1,.571-1.121,1.427,1.427,0,0,1,.508-.4,1.542,1.542,0,0,0,.571-.465.111.111,0,0,0-.042-.148,1.727,1.727,0,0,0-1.481.169A3.255,3.255,0,0,0,20,25.236c-.148.3-.275.592-.4.888-.063.148-.127.317-.19.465a3.47,3.47,0,0,1-.338.613,4.675,4.675,0,0,0-.381.719c-.042-.021-.085-.021-.106-.042a5.318,5.318,0,0,0,.042-2.305,3.517,3.517,0,0,0-.381-1.205.809.809,0,0,1-.106-.592,2.056,2.056,0,0,0,.021-.381.1.1,0,0,0-.106-.106,1.072,1.072,0,0,0-.931.317c-.36.423-.19,1.184-.063,1.8a5.312,5.312,0,0,1,.085.571,5.629,5.629,0,0,0,.148.825,3.387,3.387,0,0,0,.423.825,1.931,1.931,0,0,1,.169.275l-.19.063a.742.742,0,0,1-.106-.169c-.063-.106-.148-.211-.212-.317-.042-.085-.085-.148-.127-.233-.042-.106-.106-.19-.148-.3a3.953,3.953,0,0,0-1.587-1.375,2.911,2.911,0,0,1-.317-.4c-.3-.423-.465-.634-.635-.592-.212.085-.148.465.085,1.29a.857.857,0,0,0,.063.211c.063.508.994,1.248,1.777,1.84a1.3,1.3,0,0,0,.127.085,2.7,2.7,0,0,0,.36.211,2.309,2.309,0,0,1,.233.127c-.021.021-.042.063-.063.085a5.43,5.43,0,0,0-2.094-.508,2.511,2.511,0,0,0-1.692.677.585.585,0,0,0-.127.508q0,.032.063.063a.074.074,0,0,1,.042.021h.042a3.668,3.668,0,0,1,1.206-.106c.254,0,.487.021.7,0a11.066,11.066,0,0,1,1.185,0h.487v.063h0l-.233.042a18.417,18.417,0,0,0-2.158.381,2.275,2.275,0,0,0-1.375,1.1.922.922,0,0,0,.042.846.113.113,0,0,0,.085.063h0a.094.094,0,0,0,.085-.063,2.56,2.56,0,0,1,1.714-1.1,4.218,4.218,0,0,1,.635-.085,3.6,3.6,0,0,0,1.206-.254,2.231,2.231,0,0,0-.233.148,4.6,4.6,0,0,0-1.164.888,1.254,1.254,0,0,1-.169.169,7.522,7.522,0,0,0-1.015,1.163,1.94,1.94,0,0,0,.063,1.184.829.829,0,0,0,.36.486h.042A.078.078,0,0,0,14.9,34.1c.063-.042.085-.127.127-.338.021-.085.042-.19.063-.275a1.343,1.343,0,0,1,.233-.529c.233-.3.508-.613.762-.888l.085-.106a5.774,5.774,0,0,1,.508-.465,3.589,3.589,0,0,0,.994-1.142c.021,0,.021.021.042.021a6.737,6.737,0,0,1-.423,1.205,4.136,4.136,0,0,0-.275.867c-.042.148-.085.3-.127.423-.3.952-.635,2.284-.106,2.961a.11.11,0,0,0,.085.042c.021,0,.042,0,.042-.021a.441.441,0,0,0,.233-.444.585.585,0,0,1,.021-.19c.042-.106.085-.19.127-.3a1.077,1.077,0,0,0,.148-.36c.085-.36.19-.719.275-1.079l.063-.3c.042-.169.106-.338.148-.529a6.641,6.641,0,0,0,.381-2.2h.063a3.54,3.54,0,0,0,.931,1.882.92.92,0,0,1,.127.148,3.682,3.682,0,0,0,.254.3A5.871,5.871,0,0,0,20.7,33.822a3.51,3.51,0,0,1,.719.634c.148.169.317.338.465.338h.063c.021,0,.021-.021.042-.021.021-.042.063-.063.106-.106a.4.4,0,0,0,.042-.169,1.827,1.827,0,0,0-.3-.952.021.021,0,0,0-.021-.021c-.021-.021-.021-.042-.042-.063l-.063-.127h0c-.085-.127-.148-.233-.19-.3-.042-.042-.063-.085-.106-.127h0l-.021-.021-.021-.021c-.021-.021-.042-.042-.042-.063-.021-.021-.042-.042-.042-.063h0a16.172,16.172,0,0,0-1.079-1.269c-.127-.127-.254-.254-.4-.381a5.342,5.342,0,0,1-.825-.888c.021-.021.042-.021.063-.042a6.711,6.711,0,0,0,2.073.952,3,3,0,0,1,.381.169c.021,0,.021.021.042.021h0c.021,0,.021.021.042.021s.021,0,.042.021a.16.16,0,0,1,.085.042c.148.042.3.106.444.148.042,0,.063.021.106.021h.021a.4.4,0,0,1,.169.042c.212.063.423.106.635.169s.4.106.614.169c.021,0,.042.021.085.021h.063c.021,0,.021,0,.042.021.021,0,.063.021.085.021.042,0,.063.021.085.021s.042.021.063.021h.3c.021-.021.063-.021.085-.042l.127-.127h0v-.19a.074.074,0,0,0-.021-.042v-.021a.021.021,0,0,0-.021-.021V31.58h0c-.021-.021-.021-.042-.042-.063h0c-.021-.021-.021-.042-.042-.063h0c-.021-.021-.063-.042-.085-.085l-.021-.021h0l-.021-.021-.042-.042-.021-.021h0c-.042-.021-.063-.063-.106-.085a3.472,3.472,0,0,0-.529-.4c-.021,0-.021-.021-.042-.021-.021-.021-.042-.021-.063-.042a.045.045,0,0,1-.042-.042c-.021-.021-.042-.021-.063-.042s-.063-.021-.085-.042c-.021,0-.042-.021-.063-.042h-.042a4.194,4.194,0,0,0-.423-.233,7.379,7.379,0,0,0-3.173-.7,6.328,6.328,0,0,0,1.375-.275c.254-.063.508-.148.8-.211a7.178,7.178,0,0,1,1.566-.211c.254,0,.508.021.74.042.254.021.529.042.783.042a.1.1,0,0,0,.106-.106C25.185,28.154,24.719,28.049,24.212,28.049Zm-3.152-1.29c.254-.3.465-.508.529-.592A3.177,3.177,0,0,1,24,24.919h.148c-.063.021-.106.063-.169.085a1.857,1.857,0,0,0-.444.254,2.445,2.445,0,0,0-.55.592,6.078,6.078,0,0,1-1.1,1.142c-.36.317-.7.592-1.1.888-.127.106-.3.19-.487.317a5.939,5.939,0,0,0-.762.508l-.063-.127c.021,0,.042-.021.085-.042.021-.021.063-.042.085-.063l.085-.085a1.163,1.163,0,0,1,.19-.148,1.86,1.86,0,0,0,.212-.127,1.173,1.173,0,0,0,.169-.127.443.443,0,0,1,.127-.085l.042-.042H20.4a.392.392,0,0,0-.148.042.5.5,0,0,0-.19.127,1.368,1.368,0,0,0-.19.169.583.583,0,0,1-.19.148c-.063.042-.127.063-.19.106-.021.021-.042.042-.063.042h0C19.748,28.239,20.488,27.393,21.059,26.758Zm-1.8.571c.127-.211.254-.423.36-.634.063-.169.127-.317.19-.465.127-.3.233-.592.381-.867a3.151,3.151,0,0,1,.889-1.142,1.783,1.783,0,0,1,1.142-.233,1.263,1.263,0,0,1-.423.3,1.614,1.614,0,0,0-.592.465,8.22,8.22,0,0,0-.571,1.142l-.063.148a14.184,14.184,0,0,1-.635,1.269,2.456,2.456,0,0,1-.381.465,3.363,3.363,0,0,0-.381.465,1.163,1.163,0,0,0-.19-.148c.042,0,.063-.021.106-.042a.459.459,0,0,0,.127-.148c.021-.063.085-.106.127-.169a1.275,1.275,0,0,0,.233-.3.934.934,0,0,0,.063-.169h0s-.063.042-.148.106a1.185,1.185,0,0,0-.212.317.224.224,0,0,1-.127.148c-.063.042-.106.063-.127.106l-.085.085a.021.021,0,0,0-.021.021c-.021,0-.021-.021-.042-.021A3.68,3.68,0,0,1,19.261,27.329Zm-1.756-.592a4.653,4.653,0,0,1-.148-.782,2.9,2.9,0,0,0-.106-.592c-.127-.571-.275-1.269.021-1.628a.818.818,0,0,1,.656-.233c0,.106-.021.169-.021.254a.965.965,0,0,0,.127.719,3.3,3.3,0,0,1,.36,1.142,5.029,5.029,0,0,1-.042,2.242h-.127V27.71a.654.654,0,0,0-.042-.169.617.617,0,0,1-.042-.19,1.009,1.009,0,0,0,0-.36.51.51,0,0,0-.063-.169h0a.585.585,0,0,0-.021.169,1.109,1.109,0,0,0,.042.36.617.617,0,0,1,.042.19.412.412,0,0,0,.021.169.344.344,0,0,0,.063.127h-.063c-.063-.127-.148-.233-.212-.36A2.037,2.037,0,0,1,17.505,26.737Zm-.423,1.332a1.387,1.387,0,0,1-.317-.19,1.252,1.252,0,0,0-.127-.085c-1.079-.8-1.65-1.375-1.692-1.692a1.331,1.331,0,0,0-.063-.254,4.326,4.326,0,0,1-.19-.994,2.433,2.433,0,0,1,.381.486c.233.317.317.444.423.465a3.755,3.755,0,0,1,1.481,1.29c.042.085.106.19.148.275a2.306,2.306,0,0,0,.127.233,1.917,1.917,0,0,0,.233.338c.042.042.063.106.106.148a.372.372,0,0,0-.106.085c-.021-.021-.042-.063-.063-.085a.561.561,0,0,0-.127-.106.284.284,0,0,1-.127-.148c-.042-.063-.085-.106-.127-.169l-.127-.127a.586.586,0,0,0-.148-.085h0s.042.063.106.148a1.083,1.083,0,0,0,.275.254.494.494,0,0,1,.148.148.16.16,0,0,1,.042.085l.063.063a.292.292,0,0,1,.085.063c-.021.021-.042.021-.042.042C17.273,28.175,17.167,28.112,17.082,28.07Zm-.635.846a11.474,11.474,0,0,0-1.206.021c-.212.021-.444,0-.677,0A4.015,4.015,0,0,0,13.422,29a.336.336,0,0,1,.106-.211,2.245,2.245,0,0,1,1.5-.613,4.674,4.674,0,0,1,2.01.486c0,.021,0,.021-.021.042a.078.078,0,0,1-.063-.021.452.452,0,0,0-.169,0,.315.315,0,0,1-.19-.042l-.19-.063a.294.294,0,0,0-.19,0,.586.586,0,0,0-.169.021h0a.326.326,0,0,0,.169.042.413.413,0,0,0,.169.021.706.706,0,0,0,.212,0,.382.382,0,0,1,.212.042c.021.021.063.021.085.042h.127a.392.392,0,0,0-.042.148A4.6,4.6,0,0,1,16.447,28.916Zm-.719,1.205a4.551,4.551,0,0,0-.656.085,2.942,2.942,0,0,0-1.735,1.015.721.721,0,0,1,.042-.465,2.019,2.019,0,0,1,1.227-.973,17.32,17.32,0,0,1,2.137-.36l.233-.021a.4.4,0,0,0,.042.169h-.212a.294.294,0,0,1-.19,0,.652.652,0,0,0-.212-.021.4.4,0,0,0-.169.042.463.463,0,0,0-.106.063.066.066,0,0,1-.042.021h.042a.372.372,0,0,0,.127-.021.526.526,0,0,0,.169-.021c.063-.021.127-.021.19-.042a.294.294,0,0,1,.19,0,.526.526,0,0,0,.169.021h.085c.021.042.021.063.042.106A2.305,2.305,0,0,1,15.728,30.121Zm.825,1.248c-.19.169-.381.338-.529.486l-.085.106a10.82,10.82,0,0,0-.762.909,1.863,1.863,0,0,0-.275.592c-.021.085-.042.19-.063.275,0,.042-.021.085-.021.127a.78.78,0,0,1-.169-.3,1.855,1.855,0,0,1-.085-1.036,9.775,9.775,0,0,1,.973-1.121l.169-.169a5.385,5.385,0,0,1,1.121-.846c.148-.085.317-.19.465-.3l.085.085a.074.074,0,0,0-.042.021.292.292,0,0,1-.085.063.409.409,0,0,1-.19.106.922.922,0,0,0-.317.211.434.434,0,0,0-.106.148h0a.964.964,0,0,0,.169-.085,1.424,1.424,0,0,0,.3-.233.461.461,0,0,1,.169-.106,1.459,1.459,0,0,0,.169-.063h.021l.021.021A3.157,3.157,0,0,1,16.553,31.369Zm1.227,1.269c-.063.19-.127.381-.169.55l-.063.3c-.085.36-.169.719-.275,1.057a1.071,1.071,0,0,1-.148.317,1.637,1.637,0,0,0-.148.338c-.021.085-.021.169-.042.233a.53.53,0,0,1-.042.211c-.423-.7.042-2.178.19-2.686l.127-.444a6.562,6.562,0,0,1,.275-.846,6.416,6.416,0,0,0,.423-1.227c.021,0,.063.021.085.021v.127c0,.021.021.063,0,.085v.085a.16.16,0,0,1-.042.085,1.071,1.071,0,0,0-.148.317.792.792,0,0,0-.021.169h0a.523.523,0,0,0,.085-.127,1.1,1.1,0,0,0,.127-.317.617.617,0,0,1,.042-.19.25.25,0,0,0,.021-.169v-.042h.063A5.9,5.9,0,0,1,17.78,32.638Zm1.989-1.354a3.23,3.23,0,0,1,.381.381,13.473,13.473,0,0,1,1.291,1.544,2.894,2.894,0,0,1,.571,1.29.29.29,0,0,1-.042.127c-.021,0-.085-.021-.317-.275a3.879,3.879,0,0,0-.762-.677,4.823,4.823,0,0,1-.973-.994,3.681,3.681,0,0,0-.254-.3c-.042-.042-.085-.106-.127-.148a3.329,3.329,0,0,1-.889-1.776c.021,0,.042-.021.085-.021.021.021.021.063.042.085a.359.359,0,0,0,.127.127.329.329,0,0,1,.127.169.986.986,0,0,0,.254.317.434.434,0,0,0,.148.106h0a.528.528,0,0,0-.085-.169,1.681,1.681,0,0,0-.275-.3.329.329,0,0,1-.127-.169.27.27,0,0,0-.106-.148c-.021-.021-.042-.042-.063-.042l.127-.063A4.493,4.493,0,0,0,19.769,31.284Zm-1.5-.973a1.079,1.079,0,0,1-.952-.571c0-.021,0-.021-.021-.042a1.062,1.062,0,0,1-.127-.508,1.128,1.128,0,0,1,1.121-1.121,1.151,1.151,0,0,1,1.1.888v.021a.719.719,0,0,1,.021.211A1.161,1.161,0,0,1,18.267,30.311Zm4.612.169a5.493,5.493,0,0,1,1.291.867c.042.021.063.063.106.085.127.106.212.169.233.254v.085c-.063.127-.19.106-.487,0l-.19-.063c-.212-.063-.4-.106-.614-.169s-.423-.127-.635-.169c-.085-.021-.19-.042-.275-.063a1.981,1.981,0,0,1-.338-.085,1.293,1.293,0,0,1-.3-.148,2.522,2.522,0,0,0-.423-.169,6.246,6.246,0,0,1-1.968-.888c.021-.042.063-.063.085-.106a.066.066,0,0,0,.021.042c.021.021.042.042.063.042a.11.11,0,0,0,.085.042c.021.021.063.021.106.042h.127a1.062,1.062,0,0,1,.254.042,2.184,2.184,0,0,0,.465.085H20.7a1.78,1.78,0,0,0-.212-.085,1.587,1.587,0,0,0-.465-.042.537.537,0,0,1-.254-.042.4.4,0,0,0-.19-.063c-.021,0-.063-.021-.085-.021s-.042-.021-.063-.021-.021-.021-.042-.021h0c.021-.021.042-.063.063-.085A7.268,7.268,0,0,1,22.879,30.481Zm1.439-1.734c-.254-.021-.508-.042-.762-.042a7.4,7.4,0,0,0-1.608.211,6.285,6.285,0,0,0-.8.211A5.736,5.736,0,0,1,19.6,29.4a.652.652,0,0,0,.021-.211.916.916,0,0,0,.106.021h.212a1.02,1.02,0,0,1,.254,0,1.03,1.03,0,0,0,.254.021.761.761,0,0,0,.233-.042,1.032,1.032,0,0,0,.148-.063c.042-.021.042-.042.042-.042h-.063c-.042,0-.085.021-.148.021s-.127.021-.212.021c-.085.021-.169.021-.254.042a.516.516,0,0,1-.254,0,.794.794,0,0,0-.212-.021h-.106A.36.36,0,0,0,19.6,29a8.732,8.732,0,0,1,3.11-.677c.508-.042,1.037-.042,1.523-.042.529,0,.74.127.762.529Z" transform="translate(0 0.195)"/>
    </g>
    <g id="Group_42310" data-name="Group 42310" transform="translate(-44.118 -43.723)">
      <path id="Path_84787" data-name="Path 84787" d="M60.211,55.43a1.862,1.862,0,0,0-1.053-.18h-.28a4.852,4.852,0,0,1-.623-.12,9.5,9.5,0,0,0-1.032-.2v-.04a5.775,5.775,0,0,0,2.752-.7.285.285,0,0,0,.086-.281.42.42,0,0,0-.236-.321c-.6-.261-2.258.561-2.688.8-.021-.02-.021-.04-.043-.06a.909.909,0,0,0,.258-.321.939.939,0,0,1,.129-.18A1.9,1.9,0,0,1,58,53.345a3.317,3.317,0,0,0,.495-.441c.107-.14.344-.421.215-.682a1.56,1.56,0,0,0-.645-.4c-.365,0-.559.582-.688.962a1.322,1.322,0,0,1-.064.16,2.932,2.932,0,0,1-.258.521,1.738,1.738,0,0,0-.15.2.985.985,0,0,0-.215.3c-.022,0-.043-.02-.065-.02v-.02a9.846,9.846,0,0,0,.3-1.283v-.06c.065-.521.086-.842-.086-.962a.783.783,0,0,0-.3-.12h-.193a.606.606,0,0,0-.258.06q-.032,0-.064.06a2.386,2.386,0,0,0,0,.822l.021.2a5.771,5.771,0,0,1,0,.862v.421h-.021a.069.069,0,0,0-.021-.04v-.04c0-.04-.021-.08-.021-.12a1.494,1.494,0,0,0-.064-.261c-.043-.1-.086-.2-.129-.281-.043-.1-.086-.18-.129-.281a.945.945,0,0,1-.043-.241,1.6,1.6,0,0,0-.086-.341c-.129-.281-.193-.321-.473-.241l-.086.02a.494.494,0,0,0-.365.241.533.533,0,0,0,.086.461h0v.02a.148.148,0,0,1,.043.08l.065.12a.357.357,0,0,0,.086.1l.064.06h.021c.021.02.043.02.065.04l.021.02a3.321,3.321,0,0,1,.43.321c.043.02.065.06.108.08.129.1.215.16.236.241v.08c-.065.12-.194.1-.495,0l-.194-.06c-.215-.06-.409-.1-.623-.16l-.258-.06a1.151,1.151,0,0,0-.258-.04c-.065-.02-.15-.02-.215-.04h-.064a.206.206,0,0,1-.107-.02c-.065,0-.129-.02-.194-.02-.043,0-.107-.02-.151-.02H53.2c-.065,0-.129-.02-.194-.02H52.9a.078.078,0,0,0,.043.08,16.176,16.176,0,0,0,2.172,1,10.626,10.626,0,0,0-1.4.12c-.237.04-.774.16-1.032.18-.021,0-.043.02-.086.02v.18h.129c.021,0,.021-.02.043-.02h.021c.3-.04.753-.12.946-.14a9.66,9.66,0,0,1,1.548-.12h-.021v.12h-.151c-.022,0-.043.02-.086.04a.429.429,0,0,1-.172.04.586.586,0,0,0-.3.08.534.534,0,0,0-.129.08h0a.313.313,0,0,0,.151,0,1.2,1.2,0,0,0,.3-.12.421.421,0,0,1,.151-.04h.15c.021,0,.043,0,.043-.02h.021a.272.272,0,0,0,.043.12,11.154,11.154,0,0,0-1.892.321c-.151.04-.28.06-.387.08h0c-.021,0-.043.02-.064.02h-.021a.02.02,0,0,1-.021.02c0,.02,0,.02.021.04s.021.04.043.06h0a.02.02,0,0,0,.021.02l.021.02a.137.137,0,0,1,.086.02h.021q.129-.03.323-.06a17.8,17.8,0,0,1,1.785-.3,6.362,6.362,0,0,0-1.785,1.624,5.45,5.45,0,0,0-.323.5c-.172.3-.129.381.107.6a.974.974,0,0,0,.581.281h.043a.821.821,0,0,0,.516-.361,3.717,3.717,0,0,0,.516-1.1,4.149,4.149,0,0,1,.344-.7.837.837,0,0,1,.194-.2,3.121,3.121,0,0,0,.279-.321l-.043.12c-.064.221-.129.381-.193.561l-.021.08a2.036,2.036,0,0,0-.172.642c-.022.1-.022.2-.043.3a5.765,5.765,0,0,0-.086,1.223.1.1,0,0,0,.107.1c.086,0,.172.02.258.02s.172.02.236.02a.408.408,0,0,0,.452-.341,2.776,2.776,0,0,0,.043-.842v-.06a6.011,6.011,0,0,0-.021-.6,2.181,2.181,0,0,1,.043-1.063h0v.02a2.065,2.065,0,0,0,.452,1.143,7.618,7.618,0,0,0,.709.7c.108.08.194.18.3.261l.107.1a.575.575,0,0,0,.409.241.29.29,0,0,0,.129-.02.683.683,0,0,0,.387-.241.5.5,0,0,0,.021-.4,3.355,3.355,0,0,0-1.161-1.384,5.358,5.358,0,0,1-.71-.662c.022,0,.022-.02.043-.02a3.579,3.579,0,0,0,.8.241c.194.04,1.118.441,1.247.481a1.023,1.023,0,0,0,.43.08,1.3,1.3,0,0,0,.624-.16.478.478,0,0,0,.28-.441C60.319,55.571,60.276,55.49,60.211,55.43Zm-4.537-1.985c-.043-.02-.065-.06-.108-.08a3.514,3.514,0,0,0-.537-.381h0a.434.434,0,0,0-.108-.16c-.108-.16-.215-.341-.172-.441.021-.06.151-.1.236-.12l.107-.02.129-.04a1.162,1.162,0,0,1,.086.16,1.029,1.029,0,0,1,.086.3c.021.08.043.18.064.261l.129.3a1.336,1.336,0,0,1,.108.261C55.7,53.465,55.675,53.465,55.675,53.445Zm1.376.321c.022-.04.065-.06.086-.1a.071.071,0,0,0-.021.06.319.319,0,0,1-.086.14.418.418,0,0,0-.086.12v.06a.071.071,0,0,0,.021.06l.021.02h.021s-.021-.02,0-.02a.288.288,0,0,1,.043-.06.272.272,0,0,0,.043-.12.185.185,0,0,1,.086-.12,1.487,1.487,0,0,0,.193-.221,1.248,1.248,0,0,1,.043-.18h0a.374.374,0,0,0-.129.08c-.021,0-.021.02-.043.04A5.412,5.412,0,0,0,57.5,53a1.325,1.325,0,0,0,.064-.16c.086-.241.28-.822.495-.822a1.67,1.67,0,0,1,.451.281c.064.14-.065.321-.194.481a2.9,2.9,0,0,1-.451.421,3.194,3.194,0,0,0-.537.521,1.744,1.744,0,0,1-.129.2,1.208,1.208,0,0,1-.193.261.563.563,0,0,0-.129-.1A.675.675,0,0,1,57.051,53.766ZM56.212,51.7a.649.649,0,0,1,.516.04c.043.02.086.16,0,.782v.06a8.828,8.828,0,0,1-.3,1.283h-.043c0-.02,0-.02.021-.04v-.14a.2.2,0,0,1,.022-.16.879.879,0,0,0,.043-.321.46.46,0,0,0-.021-.14h0s-.021.06-.043.14a.8.8,0,0,0,0,.321.2.2,0,0,1-.021.16.367.367,0,0,0-.022.14v.04H56.3v-.381c0-.281.022-.582,0-.882l-.021-.2A2.152,2.152,0,0,1,56.212,51.7Zm-2.688,2.005c.086.02.15.02.237.04.215.06.43.1.645.16s.409.1.624.16a.321.321,0,0,1,.129.04v.02a1.221,1.221,0,0,1,.15.2c-.021,0-.021-.02-.043-.02a.213.213,0,0,1-.107-.08c-.022-.04-.065-.06-.108-.1a.477.477,0,0,1-.107-.06.491.491,0,0,0-.129-.02h0l.086.08a1.193,1.193,0,0,0,.236.12.212.212,0,0,1,.107.08.163.163,0,0,0,.086.08l.021.02v.02C54.944,54.307,54.083,53.966,53.525,53.706Zm1.763,2.065a1.841,1.841,0,0,0-.215.241,3.082,3.082,0,0,0-.365.762,4.623,4.623,0,0,1-.473,1.043.567.567,0,0,1-.366.281c-.129.02-.258-.06-.452-.221-.172-.16-.172-.16-.064-.361a5.046,5.046,0,0,1,.3-.481,5.56,5.56,0,0,1,1.828-1.644l.043.04a.343.343,0,0,0-.129.06c-.022.02-.043.02-.065.04s-.043.04-.043.06a.243.243,0,0,1-.129.12,1.345,1.345,0,0,0-.258.2.9.9,0,0,0-.108.12h0a1.33,1.33,0,0,0,.15-.06c.021-.02.043-.02.065-.04l.064-.06a.361.361,0,0,0,.108-.14.354.354,0,0,1,.129-.12.674.674,0,0,0,.129-.08c.043-.04.065-.08.086-.1l.021.02A1.128,1.128,0,0,1,55.288,55.771Zm.688,2.466c-.064.221-.129.221-.473.18-.043,0-.108-.02-.172-.02a9.532,9.532,0,0,1,.086-1.083c.021-.1.021-.2.043-.3a2.794,2.794,0,0,1,.172-.6l.021-.08c.065-.18.129-.361.194-.582l.043-.1c.022,0,.022,0,.043.02a.06.06,0,0,1-.021.04c-.022.02-.022.06-.043.1a.276.276,0,0,0-.043.14.114.114,0,0,1-.022.08.148.148,0,0,1-.043.08,1.122,1.122,0,0,0-.086.341.521.521,0,0,0,.021.16h0a.484.484,0,0,0,.064-.14.83.83,0,0,0,.043-.341.552.552,0,0,1,.043-.18.1.1,0,0,0,.043-.08c0-.02,0-.02.022-.04a3.494,3.494,0,0,0,.021.942,5.441,5.441,0,0,1,.021.582v.06A1.537,1.537,0,0,1,55.976,58.237ZM56,55.711v-.04c.021,0,.021,0,.043.02a.17.17,0,0,0-.021.1A.143.143,0,0,1,56,55.711Zm1.484.582a3.107,3.107,0,0,1,1.1,1.3.273.273,0,0,1,0,.261.487.487,0,0,1-.258.14c-.129.04-.193,0-.322-.16-.043-.04-.065-.08-.108-.1a3.49,3.49,0,0,0-.3-.261,7.032,7.032,0,0,1-.688-.682,2.1,2.1,0,0,1-.409-1.063v-.02a.237.237,0,0,0,.107-.04.148.148,0,0,0,.043.08.419.419,0,0,0,.086.12.393.393,0,0,1,.086.16.394.394,0,0,0,.086.16c.021.04.064.08.086.12a.958.958,0,0,0,.107.12h0a.455.455,0,0,0-.043-.16c-.022-.04-.043-.1-.064-.14-.043-.04-.086-.1-.129-.14a.393.393,0,0,1-.086-.16.177.177,0,0,0-.065-.14l-.065-.06c.043-.02.065-.04.086-.04A6.028,6.028,0,0,0,57.481,56.292Zm-1.226-.782a.744.744,0,1,1,.8-.742A.769.769,0,0,1,56.255,55.51Zm3.5-1.745a.252.252,0,0,1,.129.16.182.182,0,0,1-.043.14,5.062,5.062,0,0,1-2.58.622v-.04a.249.249,0,0,0,.107-.02,1.09,1.09,0,0,1,.151-.06.429.429,0,0,1,.172-.04,1.6,1.6,0,0,0,.344-.04.555.555,0,0,0,.151-.06h0a.39.39,0,0,0-.172,0,1.409,1.409,0,0,0-.344.08.666.666,0,0,1-.194.04h-.086c-.022,0-.043.02-.065.02a.168.168,0,0,1-.086.04v-.02C57.674,54.307,59.265,53.545,59.76,53.766Zm.172,2.166a1.087,1.087,0,0,1-.86.06,11.654,11.654,0,0,0-1.29-.5,4.824,4.824,0,0,1-.645-.14c.022,0,.022-.02.043,0,.021,0,.064-.02.086-.02a.447.447,0,0,1,.172.02.536.536,0,0,0,.172.04.448.448,0,0,0,.151.02.171.171,0,0,1,.107.02h.043a.077.077,0,0,0-.043-.02.477.477,0,0,0-.107-.06.626.626,0,0,0-.344-.04.447.447,0,0,1-.172-.02.321.321,0,0,0-.129-.04c.021-.02.021-.06.043-.08a7.274,7.274,0,0,1,1.032.2c.279.06.537.12.667.14h.3c.3,0,.753-.02.9.12a.148.148,0,0,1,.043.1A.334.334,0,0,1,59.932,55.931Z" transform="translate(-0.201 -0.036)"/>
    </g>
  </g>
</svg>
