<svg xmlns="http://www.w3.org/2000/svg" xmlns:xlink="http://www.w3.org/1999/xlink" width="16" height="16" viewBox="0 0 16 16">
  <defs>
    <clipPath id="clip-Susan-flower">
      <rect width="16" height="16"/>
    </clipPath>
  </defs>
  <g id="Susan-flower" clip-path="url(#clip-Susan-flower)">
    <g id="Group_42315" data-name="Group 42315" transform="translate(0.044 -0.552)">
      <g id="Group_42309" data-name="Group 42309" transform="translate(-12.402 -21.081)">
        <path id="Path_84786" data-name="Path 84786" d="M23.2,27.559c-.462,0-.943,0-1.4.038a10.523,10.523,0,0,0-2.289.4,1.3,1.3,0,0,0,.212-.133,3.228,3.228,0,0,0,.462-.285c.385-.285.673-.531,1.019-.816A5.743,5.743,0,0,0,22.223,25.7a2.827,2.827,0,0,1,.462-.493,1.639,1.639,0,0,1,.365-.19,1.768,1.768,0,0,0,.327-.171c.019-.019.038-.038.038-.057a.113.113,0,0,0-.019-.076.363.363,0,0,0-.289-.133H23.03a2.994,2.994,0,0,0-2.347,1.176c-.058.057-.25.266-.481.531-.423.474-1.039,1.138-1.366,1.48a1.518,1.518,0,0,1,.289-.323,2.528,2.528,0,0,0,.365-.455c.192-.361.4-.74.577-1.157l.058-.133a9.882,9.882,0,0,1,.519-1.006,1.3,1.3,0,0,1,.462-.361,1.4,1.4,0,0,0,.519-.417.1.1,0,0,0-.038-.133,1.588,1.588,0,0,0-1.346.152,2.926,2.926,0,0,0-.866,1.1c-.135.266-.25.531-.365.8-.058.133-.115.285-.173.417a3.1,3.1,0,0,1-.308.55,4.176,4.176,0,0,0-.346.645c-.038-.019-.077-.019-.1-.038a4.71,4.71,0,0,0,.038-2.068,3.126,3.126,0,0,0-.346-1.082.717.717,0,0,1-.1-.531,1.82,1.82,0,0,0,.019-.342.09.09,0,0,0-.1-.095.982.982,0,0,0-.846.285c-.327.379-.173,1.063-.058,1.613a4.707,4.707,0,0,1,.077.512,4.99,4.99,0,0,0,.135.74,3.024,3.024,0,0,0,.385.74,1.728,1.728,0,0,1,.154.247l-.173.057a.664.664,0,0,1-.1-.152c-.058-.095-.135-.19-.192-.285-.038-.076-.077-.133-.115-.209-.038-.095-.1-.171-.135-.266A3.581,3.581,0,0,0,15.3,25.339a2.618,2.618,0,0,1-.289-.361c-.269-.379-.423-.569-.577-.531-.192.076-.135.417.077,1.157a.761.761,0,0,0,.058.19c.058.455.9,1.119,1.616,1.651a1.18,1.18,0,0,0,.115.076,2.461,2.461,0,0,0,.327.19,2.108,2.108,0,0,1,.212.114c-.019.019-.038.057-.058.076a4.991,4.991,0,0,0-1.9-.455,2.3,2.3,0,0,0-1.539.607.52.52,0,0,0-.115.455q0,.028.058.057a.067.067,0,0,1,.038.019h.038a3.378,3.378,0,0,1,1.1-.095c.231,0,.442.019.635,0a10.2,10.2,0,0,1,1.077,0h.442v.057h0l-.212.038a16.949,16.949,0,0,0-1.962.342,2.064,2.064,0,0,0-1.25.987.818.818,0,0,0,.038.759.1.1,0,0,0,.077.057h0a.086.086,0,0,0,.077-.057,2.331,2.331,0,0,1,1.558-.987,3.884,3.884,0,0,1,.577-.076,3.308,3.308,0,0,0,1.1-.228,2.033,2.033,0,0,0-.212.133,4.178,4.178,0,0,0-1.058.8,1.132,1.132,0,0,1-.154.152,6.775,6.775,0,0,0-.923,1.044,1.718,1.718,0,0,0,.058,1.063.745.745,0,0,0,.327.436h.038a.071.071,0,0,0,.058-.019c.058-.038.077-.114.115-.3.019-.076.038-.171.058-.247a1.2,1.2,0,0,1,.212-.474c.212-.266.462-.55.692-.8l.077-.095a5.224,5.224,0,0,1,.462-.417,3.233,3.233,0,0,0,.9-1.025c.019,0,.019.019.038.019a5.991,5.991,0,0,1-.385,1.082,3.676,3.676,0,0,0-.25.778c-.038.133-.077.266-.115.379-.269.854-.577,2.049-.1,2.656a.1.1,0,0,0,.077.038c.019,0,.038,0,.038-.019a.394.394,0,0,0,.212-.4.518.518,0,0,1,.019-.171c.038-.095.077-.171.115-.266a.959.959,0,0,0,.135-.323c.077-.323.173-.645.25-.968l.058-.266c.038-.152.1-.3.135-.474a5.888,5.888,0,0,0,.346-1.973h.058a3.162,3.162,0,0,0,.846,1.689.828.828,0,0,1,.115.133,3.315,3.315,0,0,0,.231.266,5.3,5.3,0,0,0,.923.93,3.178,3.178,0,0,1,.654.569c.135.152.289.3.423.3h.058c.019,0,.019-.019.038-.019.019-.038.058-.057.1-.095a.354.354,0,0,0,.038-.152,1.624,1.624,0,0,0-.269-.854.019.019,0,0,0-.019-.019c-.019-.019-.019-.038-.038-.057l-.058-.114h0c-.077-.114-.135-.209-.173-.266-.038-.038-.058-.076-.1-.114h0l-.019-.019-.019-.019c-.019-.019-.038-.038-.038-.057-.019-.019-.038-.038-.038-.057h0a14.561,14.561,0,0,0-.981-1.138c-.115-.114-.231-.228-.365-.342a4.818,4.818,0,0,1-.75-.8c.019-.019.038-.019.058-.038a6.14,6.14,0,0,0,1.885.854,2.744,2.744,0,0,1,.346.152c.019,0,.019.019.038.019h0c.019,0,.019.019.038.019s.019,0,.038.019a.147.147,0,0,1,.077.038c.135.038.269.095.4.133.038,0,.058.019.1.019h.019a.366.366,0,0,1,.154.038c.192.057.385.095.577.152s.365.095.558.152c.019,0,.038.019.077.019h.058c.019,0,.019,0,.038.019.019,0,.058.019.077.019.038,0,.058.019.077.019s.038.019.058.019H23.4c.019-.019.058-.019.077-.038l.115-.114h0v-.171a.066.066,0,0,0-.019-.038v-.019a.019.019,0,0,0-.019-.019v-.019h0c-.019-.019-.019-.038-.038-.057h0c-.019-.019-.019-.038-.038-.057h0c-.019-.019-.058-.038-.077-.076l-.019-.019h0l-.019-.019-.038-.038-.019-.019h0c-.038-.019-.058-.057-.1-.076a3.153,3.153,0,0,0-.481-.361c-.019,0-.019-.019-.038-.019-.019-.019-.038-.019-.058-.038a.041.041,0,0,1-.038-.038c-.019-.019-.038-.019-.058-.038s-.058-.019-.077-.038c-.019,0-.038-.019-.058-.038h-.038a3.829,3.829,0,0,0-.385-.209,6.785,6.785,0,0,0-2.885-.626,5.821,5.821,0,0,0,1.25-.247c.231-.057.462-.133.731-.19a6.609,6.609,0,0,1,1.423-.19c.231,0,.462.019.673.038.231.019.481.038.712.038a.09.09,0,0,0,.1-.095C24.088,27.654,23.665,27.559,23.2,27.559ZM20.337,26.4c.231-.266.423-.455.481-.531a2.9,2.9,0,0,1,2.193-1.119h.135c-.058.019-.1.057-.154.076a1.694,1.694,0,0,0-.4.228,2.2,2.2,0,0,0-.5.531,5.485,5.485,0,0,1-1,1.025c-.327.285-.635.531-1,.8-.115.095-.269.171-.442.285a5.406,5.406,0,0,0-.692.455l-.058-.114c.019,0,.038-.019.077-.038.019-.019.058-.038.077-.057l.077-.076a1.055,1.055,0,0,1,.173-.133,1.7,1.7,0,0,0,.192-.114,1.066,1.066,0,0,0,.154-.114.4.4,0,0,1,.115-.076l.038-.038h-.058a.36.36,0,0,0-.135.038.455.455,0,0,0-.173.114,1.239,1.239,0,0,0-.173.152.53.53,0,0,1-.173.133c-.058.038-.115.057-.173.095-.019.019-.038.038-.058.038h0C19.145,27.73,19.818,26.971,20.337,26.4Zm-1.635.512c.115-.19.231-.379.327-.569.058-.152.115-.285.173-.417.115-.266.212-.531.346-.778a2.833,2.833,0,0,1,.808-1.025,1.639,1.639,0,0,1,1.039-.209,1.148,1.148,0,0,1-.385.266,1.465,1.465,0,0,0-.539.417,7.337,7.337,0,0,0-.519,1.025l-.058.133a12.66,12.66,0,0,1-.577,1.138,2.21,2.21,0,0,1-.346.417,3.025,3.025,0,0,0-.346.417,1.055,1.055,0,0,0-.173-.133c.038,0,.058-.019.1-.038a.413.413,0,0,0,.115-.133c.019-.057.077-.095.115-.152a1.146,1.146,0,0,0,.212-.266.831.831,0,0,0,.058-.152h0s-.058.038-.135.095a1.063,1.063,0,0,0-.192.285.2.2,0,0,1-.115.133c-.058.038-.1.057-.115.095l-.077.076a.019.019,0,0,0-.019.019c-.019,0-.019-.019-.038-.019A3.289,3.289,0,0,1,18.7,26.914Zm-1.6-.531a4.126,4.126,0,0,1-.135-.7,2.573,2.573,0,0,0-.1-.531c-.115-.512-.25-1.138.019-1.461a.75.75,0,0,1,.6-.209c0,.095-.019.152-.019.228a.856.856,0,0,0,.115.645,2.932,2.932,0,0,1,.327,1.025,4.454,4.454,0,0,1-.038,2.011H17.76v-.133a.58.58,0,0,0-.038-.152.548.548,0,0,1-.038-.171.893.893,0,0,0,0-.323.454.454,0,0,0-.058-.152h0a.518.518,0,0,0-.019.152.982.982,0,0,0,.038.323.548.548,0,0,1,.038.171.365.365,0,0,0,.019.152.307.307,0,0,0,.058.114H17.7c-.058-.114-.135-.209-.192-.323A1.823,1.823,0,0,1,17.106,26.383Zm-.385,1.2a1.265,1.265,0,0,1-.289-.171,1.139,1.139,0,0,0-.115-.076c-.981-.721-1.5-1.233-1.539-1.518a1.181,1.181,0,0,0-.058-.228,3.836,3.836,0,0,1-.173-.892,2.188,2.188,0,0,1,.346.436c.212.285.289.4.385.417a3.4,3.4,0,0,1,1.346,1.157c.038.076.1.171.135.247a2.061,2.061,0,0,0,.115.209,1.719,1.719,0,0,0,.212.3c.038.038.058.095.1.133a.337.337,0,0,0-.1.076c-.019-.019-.038-.057-.058-.076a.509.509,0,0,0-.115-.095.256.256,0,0,1-.115-.133c-.038-.057-.077-.095-.115-.152l-.115-.114a.535.535,0,0,0-.135-.076h0s.038.057.1.133a.98.98,0,0,0,.25.228.446.446,0,0,1,.135.133.143.143,0,0,1,.038.076l.058.057a.265.265,0,0,1,.077.057c-.019.019-.038.019-.038.038C16.894,27.673,16.8,27.616,16.721,27.578Zm-.577.759a10.572,10.572,0,0,0-1.1.019c-.192.019-.4,0-.616,0a3.7,3.7,0,0,0-1.039.057.3.3,0,0,1,.1-.19,2.056,2.056,0,0,1,1.366-.55,4.3,4.3,0,0,1,1.827.436c0,.019,0,.019-.019.038a.071.071,0,0,1-.058-.019.416.416,0,0,0-.154,0,.289.289,0,0,1-.173-.038l-.173-.057a.27.27,0,0,0-.173,0,.539.539,0,0,0-.154.019h0a.3.3,0,0,0,.154.038.38.38,0,0,0,.154.019.65.65,0,0,0,.192,0,.351.351,0,0,1,.192.038c.019.019.058.019.077.038h.115a.348.348,0,0,0-.038.133A4.241,4.241,0,0,1,16.144,28.337Zm-.654,1.082a4.19,4.19,0,0,0-.6.076,2.682,2.682,0,0,0-1.577.911.639.639,0,0,1,.038-.417,1.832,1.832,0,0,1,1.116-.873,15.94,15.94,0,0,1,1.943-.323l.212-.019a.354.354,0,0,0,.038.152h-.192a.27.27,0,0,1-.173,0,.6.6,0,0,0-.192-.019.366.366,0,0,0-.154.038.422.422,0,0,0-.1.057.06.06,0,0,1-.038.019h.038A.343.343,0,0,0,15.971,29a.484.484,0,0,0,.154-.019c.058-.019.115-.019.173-.038a.27.27,0,0,1,.173,0,.484.484,0,0,0,.154.019H16.7c.019.038.019.057.038.095A2.116,2.116,0,0,1,15.49,29.419Zm.75,1.119c-.173.152-.346.3-.481.436l-.077.095a9.74,9.74,0,0,0-.692.816,1.661,1.661,0,0,0-.25.531c-.019.076-.038.171-.058.247,0,.038-.019.076-.019.114a.7.7,0,0,1-.154-.266,1.644,1.644,0,0,1-.077-.93,8.8,8.8,0,0,1,.885-1.006l.154-.152a4.891,4.891,0,0,1,1.019-.759c.135-.076.289-.171.423-.266l.077.076a.067.067,0,0,0-.038.019.265.265,0,0,1-.077.057.373.373,0,0,1-.173.095.839.839,0,0,0-.289.19.389.389,0,0,0-.1.133h0a.882.882,0,0,0,.154-.076,1.293,1.293,0,0,0,.269-.209.42.42,0,0,1,.154-.095,1.338,1.338,0,0,0,.154-.057h.019l.019.019A2.842,2.842,0,0,1,16.24,30.538Zm1.116,1.138c-.058.171-.115.342-.154.493l-.058.266c-.077.323-.154.645-.25.949a.955.955,0,0,1-.135.285,1.459,1.459,0,0,0-.135.3c-.019.076-.019.152-.038.209a.47.47,0,0,1-.038.19c-.385-.626.038-1.954.173-2.41l.115-.4a5.832,5.832,0,0,1,.25-.759,5.705,5.705,0,0,0,.385-1.1c.019,0,.058.019.077.019v.114c0,.019.019.057,0,.076v.076a.143.143,0,0,1-.038.076.955.955,0,0,0-.135.285.7.7,0,0,0-.019.152h0a.47.47,0,0,0,.077-.114.981.981,0,0,0,.115-.285.548.548,0,0,1,.038-.171.222.222,0,0,0,.019-.152v-.038h.058A5.229,5.229,0,0,1,17.356,31.676Zm1.808-1.214a2.918,2.918,0,0,1,.346.342,12.127,12.127,0,0,1,1.173,1.385,2.579,2.579,0,0,1,.519,1.157.259.259,0,0,1-.038.114c-.019,0-.077-.019-.289-.247a3.512,3.512,0,0,0-.692-.607,4.355,4.355,0,0,1-.885-.892,3.315,3.315,0,0,0-.231-.266c-.038-.038-.077-.095-.115-.133a2.974,2.974,0,0,1-.808-1.594c.019,0,.038-.019.077-.019.019.019.019.057.038.076a.324.324,0,0,0,.115.114.3.3,0,0,1,.115.152.887.887,0,0,0,.231.285.4.4,0,0,0,.135.095h0a.471.471,0,0,0-.077-.152,1.516,1.516,0,0,0-.25-.266.3.3,0,0,1-.115-.152.242.242,0,0,0-.1-.133c-.019-.019-.038-.038-.058-.038l.115-.057A4.052,4.052,0,0,0,19.164,30.462ZM17.8,29.589a.983.983,0,0,1-.866-.512c0-.019,0-.019-.019-.038a.943.943,0,0,1-.115-.455,1.019,1.019,0,0,1,1.019-1.006,1.043,1.043,0,0,1,1,.8v.019a.637.637,0,0,1,.019.19A1.049,1.049,0,0,1,17.8,29.589Zm4.193.152a5,5,0,0,1,1.173.778c.038.019.058.057.1.076.115.095.192.152.212.228V30.9c-.058.114-.173.095-.442,0l-.173-.057c-.192-.057-.365-.095-.558-.152s-.385-.114-.577-.152c-.077-.019-.173-.038-.25-.057a1.821,1.821,0,0,1-.308-.076,1.181,1.181,0,0,1-.269-.133,2.311,2.311,0,0,0-.385-.152,5.716,5.716,0,0,1-1.789-.8c.019-.038.058-.057.077-.095a.058.058,0,0,0,.019.038c.019.019.038.038.058.038a.1.1,0,0,0,.077.038c.019.019.058.019.1.038h.115a.978.978,0,0,1,.231.038,2.01,2.01,0,0,0,.423.076h.192a1.63,1.63,0,0,0-.192-.076,1.462,1.462,0,0,0-.423-.038.494.494,0,0,1-.231-.038.369.369,0,0,0-.173-.057c-.019,0-.058-.019-.077-.019s-.038-.019-.058-.019-.019-.019-.038-.019h0c.019-.019.038-.057.058-.076A6.686,6.686,0,0,1,21.992,29.741ZM23.3,28.185c-.231-.019-.462-.038-.692-.038a6.812,6.812,0,0,0-1.462.19,5.776,5.776,0,0,0-.731.19,5.278,5.278,0,0,1-1.4.247.577.577,0,0,0,.019-.19.843.843,0,0,0,.1.019h.192a.939.939,0,0,1,.231,0,.949.949,0,0,0,.231.019.7.7,0,0,0,.212-.038.945.945,0,0,0,.135-.057c.038-.019.038-.038.038-.038h-.058c-.038,0-.077.019-.135.019s-.115.019-.192.019c-.077.019-.154.019-.231.038a.475.475,0,0,1-.231,0,.731.731,0,0,0-.192-.019h-.1a.319.319,0,0,0-.019-.133,8.03,8.03,0,0,1,2.828-.607c.462-.038.943-.038,1.385-.038.481,0,.673.114.692.474Z" transform="translate(0 0.195)"/>
      </g>
      <g id="Group_42310" data-name="Group 42310" transform="translate(-44.165 -43.723)">
        <path id="Path_84787" data-name="Path 84787" d="M59.476,55.269a1.6,1.6,0,0,0-.952-.173h-.253a4.157,4.157,0,0,1-.563-.115,8.139,8.139,0,0,0-.932-.192V54.75a4.986,4.986,0,0,0,2.486-.673.284.284,0,0,0,.078-.269.4.4,0,0,0-.214-.308c-.544-.25-2.04.538-2.428.769-.019-.019-.019-.038-.039-.058a.865.865,0,0,0,.233-.308.9.9,0,0,1,.117-.173,1.765,1.765,0,0,1,.466-.462,3.064,3.064,0,0,0,.447-.423c.1-.135.311-.4.194-.654a1.4,1.4,0,0,0-.583-.385c-.33,0-.505.558-.622.923a1.314,1.314,0,0,1-.058.154,2.886,2.886,0,0,1-.233.5,1.663,1.663,0,0,0-.136.192.946.946,0,0,0-.194.288c-.019,0-.039-.019-.058-.019v-.019A9.938,9.938,0,0,0,56.5,52.6v-.058c.058-.5.078-.808-.078-.923a.685.685,0,0,0-.272-.115H55.98a.521.521,0,0,0-.233.058q-.029,0-.058.058a2.427,2.427,0,0,0,0,.789l.019.192a5.876,5.876,0,0,1,0,.827v.4h-.019a.067.067,0,0,0-.019-.038V53.75c0-.038-.019-.077-.019-.115a1.506,1.506,0,0,0-.058-.25c-.039-.1-.078-.192-.117-.269-.039-.1-.078-.173-.117-.269a.957.957,0,0,1-.039-.231,1.614,1.614,0,0,0-.078-.327c-.117-.269-.175-.308-.427-.231l-.078.019a.447.447,0,0,0-.33.231.537.537,0,0,0,.078.442h0v.019a.145.145,0,0,1,.039.077l.058.115a.338.338,0,0,0,.078.1l.058.058h.019c.019.019.039.019.058.038l.019.019a3.021,3.021,0,0,1,.389.308c.039.019.058.058.1.077.117.1.194.154.214.231v.077c-.058.115-.175.1-.447,0l-.175-.058c-.194-.058-.369-.1-.563-.154L54.1,53.6a.984.984,0,0,0-.233-.038c-.058-.019-.136-.019-.194-.038H53.61a.177.177,0,0,1-.1-.019c-.058,0-.117-.019-.175-.019-.039,0-.1-.019-.136-.019h-.058c-.058,0-.117-.019-.175-.019h-.1a.077.077,0,0,0,.039.077,14.237,14.237,0,0,0,1.962.962,9.058,9.058,0,0,0-1.263.115c-.214.038-.7.154-.932.173-.019,0-.039.019-.078.019v.173h.117c.019,0,.019-.019.039-.019h.019c.272-.038.68-.115.855-.135a8.233,8.233,0,0,1,1.4-.115h-.019v.115h-.136c-.019,0-.039.019-.078.038a.369.369,0,0,1-.155.038.506.506,0,0,0-.272.077.481.481,0,0,0-.117.077h0a.267.267,0,0,0,.136,0,1.044,1.044,0,0,0,.272-.115.363.363,0,0,1,.136-.038h.136c.019,0,.039,0,.039-.019h.019a.272.272,0,0,0,.039.115,9.544,9.544,0,0,0-1.709.308c-.136.038-.253.058-.35.077h0c-.019,0-.039.019-.058.019h-.019a.019.019,0,0,1-.019.019c0,.019,0,.019.019.038s.019.038.039.058h0a.019.019,0,0,0,.019.019l.019.019a.118.118,0,0,1,.078.019h.019q.117-.029.291-.058a15.229,15.229,0,0,1,1.612-.288,5.889,5.889,0,0,0-1.612,1.558,5.276,5.276,0,0,0-.291.481c-.155.288-.117.365.1.577a.859.859,0,0,0,.524.269h.039a.742.742,0,0,0,.466-.346,3.668,3.668,0,0,0,.466-1.058,4.087,4.087,0,0,1,.311-.673.785.785,0,0,1,.175-.192,2.95,2.95,0,0,0,.253-.308l-.039.115c-.058.212-.117.365-.175.538l-.019.077a2.048,2.048,0,0,0-.155.615c-.019.1-.019.192-.039.288a5.862,5.862,0,0,0-.078,1.173.091.091,0,0,0,.1.1c.078,0,.155.019.233.019s.155.019.214.019a.372.372,0,0,0,.408-.327,2.823,2.823,0,0,0,.039-.808V57.27c0-.173,0-.365-.019-.577a2.216,2.216,0,0,1,.039-1.019h0v.019a2.051,2.051,0,0,0,.408,1.1,7.1,7.1,0,0,0,.641.673c.1.077.175.173.272.25l.1.1a.515.515,0,0,0,.369.231.249.249,0,0,0,.117-.019.615.615,0,0,0,.35-.231.509.509,0,0,0,.019-.385,3.179,3.179,0,0,0-1.049-1.327,4.97,4.97,0,0,1-.641-.635c.019,0,.019-.019.039-.019a3.1,3.1,0,0,0,.719.231c.175.038,1.01.423,1.127.462a.877.877,0,0,0,.389.077,1.123,1.123,0,0,0,.563-.154.462.462,0,0,0,.253-.423C59.574,55.4,59.535,55.327,59.476,55.269Zm-4.1-1.9c-.039-.019-.058-.058-.1-.077a3.184,3.184,0,0,0-.486-.365h0a.418.418,0,0,0-.1-.154c-.1-.154-.194-.327-.155-.423.019-.058.136-.1.214-.115l.1-.019.117-.038a1.138,1.138,0,0,1,.078.154,1.033,1.033,0,0,1,.078.288c.019.077.039.173.058.25l.117.288a1.327,1.327,0,0,1,.1.25C55.4,53.385,55.378,53.385,55.378,53.365Zm1.243.308c.019-.038.058-.058.078-.1a.07.07,0,0,0-.019.058.309.309,0,0,1-.078.135.4.4,0,0,0-.078.115v.058a.07.07,0,0,0,.019.058l.019.019h.019s-.019-.019,0-.019a.277.277,0,0,1,.039-.058.271.271,0,0,0,.039-.115.177.177,0,0,1,.078-.115,1.405,1.405,0,0,0,.175-.212,1.257,1.257,0,0,1,.039-.173h0a.334.334,0,0,0-.117.077c-.019,0-.019.019-.039.038a5.33,5.33,0,0,0,.233-.5,1.318,1.318,0,0,0,.058-.154c.078-.231.253-.789.447-.789a1.5,1.5,0,0,1,.408.269c.058.135-.058.308-.175.462a2.686,2.686,0,0,1-.408.4,2.973,2.973,0,0,0-.486.5,1.687,1.687,0,0,1-.117.192,1.156,1.156,0,0,1-.175.25.514.514,0,0,0-.117-.1A.661.661,0,0,1,56.621,53.673Zm-.758-1.981a.556.556,0,0,1,.466.038c.039.019.078.154,0,.75v.058a8.9,8.9,0,0,1-.272,1.231h-.039c0-.019,0-.019.019-.038V53.6a.2.2,0,0,1,.019-.154.891.891,0,0,0,.039-.308A.465.465,0,0,0,56.077,53h0s-.019.058-.039.135a.813.813,0,0,0,0,.308.2.2,0,0,1-.019.154.372.372,0,0,0-.019.135v.038h-.058V53.4c0-.269.019-.558,0-.846l-.019-.192A2.186,2.186,0,0,1,55.863,51.692Zm-2.428,1.923c.078.019.136.019.214.038.194.058.388.1.583.154s.369.1.563.154a.278.278,0,0,1,.117.038v.019a1.168,1.168,0,0,1,.136.192c-.019,0-.019-.019-.039-.019a.194.194,0,0,1-.1-.077c-.019-.038-.058-.058-.1-.1a.425.425,0,0,1-.1-.058.42.42,0,0,0-.117-.019h0l.078.077a1.056,1.056,0,0,0,.214.115.194.194,0,0,1,.1.077.151.151,0,0,0,.078.077l.019.019v.019C54.717,54.192,53.94,53.866,53.435,53.615ZM55.028,55.6a1.737,1.737,0,0,0-.194.231,3.039,3.039,0,0,0-.33.731,4.571,4.571,0,0,1-.427,1c-.117.173-.214.25-.33.269s-.233-.058-.408-.212c-.155-.154-.155-.154-.058-.346a4.9,4.9,0,0,1,.272-.462A5.141,5.141,0,0,1,55.2,55.231l.039.038a.3.3,0,0,0-.117.058c-.019.019-.039.019-.058.038s-.039.038-.039.058a.226.226,0,0,1-.117.115,1.229,1.229,0,0,0-.233.192.854.854,0,0,0-.1.115h0a1.161,1.161,0,0,0,.136-.058c.019-.019.039-.019.058-.038l.058-.058a.345.345,0,0,0,.1-.135.328.328,0,0,1,.117-.115.6.6,0,0,0,.117-.077c.039-.038.058-.077.078-.1l.019.019A1.073,1.073,0,0,1,55.028,55.6Zm.622,2.366c-.058.212-.117.212-.427.173-.039,0-.1-.019-.155-.019a9.693,9.693,0,0,1,.078-1.039c.019-.1.019-.192.039-.288a2.808,2.808,0,0,1,.155-.577l.019-.077c.058-.173.117-.346.175-.558l.039-.1c.019,0,.019,0,.039.019a.059.059,0,0,1-.019.038c-.019.019-.019.058-.039.1a.276.276,0,0,0-.039.135.115.115,0,0,1-.019.077.145.145,0,0,1-.039.077,1.131,1.131,0,0,0-.078.327.527.527,0,0,0,.019.154h0a.476.476,0,0,0,.058-.135.841.841,0,0,0,.039-.327.557.557,0,0,1,.039-.173.1.1,0,0,0,.039-.077c0-.019,0-.019.019-.038a3.555,3.555,0,0,0,.019.9,5.539,5.539,0,0,1,.019.558v.058A1.562,1.562,0,0,1,55.65,57.962Zm.019-2.423V55.5c.019,0,.019,0,.039.019a.172.172,0,0,0-.019.1A.144.144,0,0,1,55.669,55.539Zm1.34.558A2.944,2.944,0,0,1,58,57.346a.276.276,0,0,1,0,.25.435.435,0,0,1-.233.135c-.117.038-.175,0-.291-.154-.039-.038-.058-.077-.1-.1a3.215,3.215,0,0,0-.272-.25,6.558,6.558,0,0,1-.622-.654,2.091,2.091,0,0,1-.369-1.019v-.019c.039,0,.058-.019.1-.038a.145.145,0,0,0,.039.077.4.4,0,0,0,.078.115.385.385,0,0,1,.078.154.385.385,0,0,0,.078.154c.019.038.058.077.078.115a.9.9,0,0,0,.1.115h0a.458.458,0,0,0-.039-.154c-.019-.038-.039-.1-.058-.135-.039-.038-.078-.1-.117-.135a.385.385,0,0,1-.078-.154.174.174,0,0,0-.058-.135l-.058-.058c.039-.019.058-.038.078-.038A5.591,5.591,0,0,0,57.01,56.1Zm-1.107-.75a.712.712,0,1,1,.719-.712A.714.714,0,0,1,55.9,55.346Zm3.166-1.673a.239.239,0,0,1,.117.154.182.182,0,0,1-.039.135,4.372,4.372,0,0,1-2.331.6v-.038a.213.213,0,0,0,.1-.019.953.953,0,0,1,.136-.058A.369.369,0,0,1,57.2,54.4a1.365,1.365,0,0,0,.311-.038.486.486,0,0,0,.136-.058h0a.332.332,0,0,0-.155,0,1.211,1.211,0,0,0-.311.077.572.572,0,0,1-.175.038h-.078c-.019,0-.039.019-.058.019a.148.148,0,0,1-.078.038v-.019C57.184,54.192,58.622,53.462,59.069,53.673Zm.155,2.077a.931.931,0,0,1-.777.058,10.17,10.17,0,0,0-1.166-.481,4.142,4.142,0,0,1-.583-.135c.019,0,.019-.019.039,0,.019,0,.058-.019.078-.019a.382.382,0,0,1,.155.019.461.461,0,0,0,.155.038.383.383,0,0,0,.136.019.147.147,0,0,1,.1.019H57.4a.068.068,0,0,0-.039-.019.425.425,0,0,0-.1-.058.536.536,0,0,0-.311-.038.382.382,0,0,1-.155-.019.278.278,0,0,0-.117-.038c.019-.019.019-.058.039-.077a6.233,6.233,0,0,1,.932.192c.253.058.486.115.6.135h.272c.272,0,.68-.019.816.115a.146.146,0,0,1,.039.1A.317.317,0,0,1,59.224,55.75Z" transform="translate(-0.201 -0.036)"/>
      </g>
    </g>
  </g>
</svg>
