<svg xmlns="http://www.w3.org/2000/svg" width="50.14" height="50.14" viewBox="0 0 50.14 50.14">
  <g id="Group_36476" data-name="Group 36476" transform="translate(-725.221 -1562.479)">
    <path id="play_arrow_24dp_E8EAED_FILL0_wght200_GRAD-25_opsz20" d="M380.31-633.329V-664.92l24.18,15.8ZM382.866-649.21Zm-.085,11.256,17.4-11.17-17.4-11.17Z" transform="translate(360.859 2237.364)"/>
    <path id="play_circle_24dp_E8EAED_FILL0_wght200_GRAD-25_opsz20" d="M167.254-767.71a24.51,24.51,0,0,1-9.746-1.958,25.309,25.309,0,0,1-8.015-5.394,25.228,25.228,0,0,1-5.391-8,24.487,24.487,0,0,1-1.952-9.743,24.293,24.293,0,0,1,1.958-9.728,25.425,25.425,0,0,1,5.394-7.978,25.227,25.227,0,0,1,8-5.391,24.487,24.487,0,0,1,9.743-1.952,24.294,24.294,0,0,1,9.728,1.958,25.428,25.428,0,0,1,7.978,5.394,25.274,25.274,0,0,1,5.391,7.978,24.315,24.315,0,0,1,1.952,9.706,24.511,24.511,0,0,1-1.958,9.746,25.312,25.312,0,0,1-5.394,8.015,25.276,25.276,0,0,1-7.978,5.391A24.316,24.316,0,0,1,167.254-767.71Zm-.036-2.147a22.1,22.1,0,0,0,16.223-6.7,22.091,22.091,0,0,0,6.7-16.22,22.1,22.1,0,0,0-6.7-16.223,22.091,22.091,0,0,0-16.22-6.7A22.1,22.1,0,0,0,151-809a22.091,22.091,0,0,0-6.7,16.22,22.1,22.1,0,0,0,6.7,16.223A22.091,22.091,0,0,0,167.218-769.857Z" transform="translate(583.071 2380.329)"/>
  </g>
</svg>
